<svg width="61" height="61" viewBox="0 0 61 61" fill="none" xmlns="http://www.w3.org/2000/svg">
<path d="M20.9389 18.7607C25.1813 11.3441 35.8765 11.3441 40.1189 18.7607L53.8266 42.7248C58.0396 50.09 52.7217 59.2583 44.2366 59.2583H16.8212C8.33612 59.2583 3.01823 50.09 7.23124 42.7248L20.9389 18.7607Z" fill="#FADD3D"/>
<path d="M3.49266 34.5809C1.2681 34.5809 -0.601685 36.4404 0.181975 38.5224C0.224903 38.6364 0.269724 38.7498 0.316427 38.8626C0.87871 40.2201 1.70286 41.4535 2.74182 42.4924C3.78079 43.5314 5.01422 44.3556 6.37169 44.9178C7.72916 45.4801 9.18409 45.7695 10.6534 45.7695C12.1227 45.7695 13.5777 45.4801 14.9351 44.9178C16.2926 44.3556 17.526 43.5314 18.565 42.4924C19.604 41.4535 20.4281 40.2201 20.9904 38.8626C21.0371 38.7498 21.0819 38.6364 21.1248 38.5224C21.9085 36.4404 20.0387 34.5809 17.8142 34.5809L3.49266 34.5809Z" fill="#E68700"/>
<path d="M43.0862 34.5809C40.8616 34.5809 38.9918 36.4404 39.7755 38.5224C39.8184 38.6364 39.8632 38.7498 39.9099 38.8626C40.4722 40.2201 41.2964 41.4535 42.3353 42.4924C43.3743 43.5314 44.6077 44.3556 45.9652 44.9178C47.3227 45.4801 48.7776 45.7695 50.2469 45.7695C51.7162 45.7695 53.1712 45.4801 54.5286 44.9178C55.8861 44.3556 57.1195 43.5314 58.1585 42.4924C59.1975 41.4535 60.0216 40.2201 60.5839 38.8626C60.6306 38.7498 60.6754 38.6364 60.7183 38.5224C61.502 36.4404 59.6322 34.5809 57.4077 34.5809L43.0862 34.5809Z" fill="#E68700"/>
<path d="M23.4028 48.5955C23.8586 47.3432 25.2431 46.6976 26.4954 47.1534V47.1534C27.7476 47.6091 28.3932 48.9937 27.9374 50.2459L25.1375 57.9387C24.6818 59.1909 23.2972 59.8365 22.045 59.3808V59.3808C20.7927 58.925 20.1471 57.5404 20.6029 56.2882L23.4028 48.5955Z" fill="#E58700"/>
<path d="M37.0317 48.5955C37.4875 47.3432 38.8721 46.6976 40.1243 47.1534V47.1534C41.3765 47.6091 42.0221 48.9937 41.5664 50.2459L38.7664 57.9387C38.3107 59.1909 36.9261 59.8365 35.6739 59.3808V59.3808C34.4216 58.925 33.776 57.5404 34.2318 56.2882L37.0317 48.5955Z" fill="#E58700"/>
<path d="M17.6255 50.2712C17.1698 49.019 17.8154 47.6344 19.0676 47.1787V47.1787C20.3198 46.7229 21.7044 47.3685 22.1602 48.6208L24.9601 56.3135C25.4159 57.5657 24.7702 58.9503 23.518 59.4061V59.4061C22.2658 59.8618 20.8812 59.2162 20.4255 57.964L17.6255 50.2712Z" fill="#E58700"/>
<path d="M31.254 50.2712C30.7982 49.019 31.4438 47.6344 32.696 47.1787V47.1787C33.9483 46.7229 35.3328 47.3685 35.7886 48.6208L38.5885 56.3135C39.0443 57.5657 38.3987 58.9503 37.1464 59.4061V59.4061C35.8942 59.8618 34.5096 59.2162 34.0539 57.964L31.254 50.2712Z" fill="#E58700"/>
<path d="M42.3038 10.4148C44.2677 9.77666 45.3857 7.59174 44.0625 6.00649C43.2341 5.01394 42.2102 4.18706 41.0417 3.58576C38.7547 2.4089 36.1012 2.19246 33.665 2.98405C31.2287 3.77564 29.2092 5.51042 28.0508 7.80675C27.4589 8.98005 27.1165 10.2509 27.0297 11.5408C26.891 13.601 29.0798 14.7115 31.0436 14.0734L42.3038 10.4148Z" fill="#EA2B2B"/>
<path d="M44.1179 16.146C46.18 16.254 48.0068 14.6149 47.3396 12.6608C46.9219 11.4372 46.2623 10.2984 45.3869 9.31823C43.6736 7.39997 41.2739 6.24698 38.7158 6.11292C36.1576 5.97885 33.6506 6.87469 31.7461 8.60335C30.7731 9.4866 29.9981 10.5503 29.4547 11.7235C28.5869 13.5972 30.2324 15.4183 32.2945 15.5263L44.1179 16.146Z" fill="#FF4B4B"/>
<path d="M23.2852 30.6681C23.2852 29.2285 24.4521 28.0615 25.8917 28.0615H34.8574C36.297 28.0615 37.464 29.2285 37.464 30.6681V30.6681C37.464 31.3079 36.9453 31.8265 36.3055 31.8265H24.4436C23.8038 31.8265 23.2852 31.3079 23.2852 30.6681V30.6681Z" fill="#FFB100"/>
<path d="M26.3291 31.8271H34.4198V31.8271C34.4198 33.5526 33.0211 34.9513 31.2957 34.9513H29.4532C27.7278 34.9513 26.3291 33.5526 26.3291 31.8271V31.8271Z" fill="#FF9600"/>
<rect x="33.4351" y="20.8965" width="3.45438" height="5.37349" rx="1.72719" fill="#333333"/>
<rect x="23.2852" y="20.8965" width="3.45438" height="5.37349" rx="1.72719" fill="#333333"/>
</svg>
