<svg width="136" height="110" viewBox="0 0 136 110" fill="none" xmlns="http://www.w3.org/2000/svg">
<path d="M106.419 104.208C106.419 106.868 104.263 109.025 101.602 109.025H32.1453C29.4846 109.025 27.3276 106.868 27.3276 104.208V87.4797C27.3276 84.819 29.4846 82.6621 32.1453 82.6621H48.8743C51.535 82.6621 53.6919 80.5052 53.6919 77.8445V61.1165C53.6919 58.4558 55.8488 56.2988 58.5095 56.2988H75.2375C77.8982 56.2988 80.0552 58.4558 80.0552 61.1165V77.8445C80.0552 80.5052 82.2121 82.6621 84.8728 82.6621H101.602C104.263 82.6621 106.419 84.819 106.419 87.4797V104.208Z" fill="#EA2B2B"/>
<path d="M135.419 74.9451C135.419 77.6058 133.262 79.7627 130.601 79.7627H113.873C111.213 79.7627 109.056 77.6058 109.056 74.9451V58.2171C109.056 55.5563 106.899 53.3994 104.238 53.3994H87.509C84.8483 53.3994 82.6914 51.2425 82.6914 48.5818V31.8528C82.6914 29.1921 84.8483 27.0352 87.509 27.0352H130.601C133.262 27.0352 135.419 29.1921 135.419 31.8528V74.9451Z" fill="#FF9600"/>
<path d="M48.8738 0.669922C51.5345 0.669922 53.6914 2.82685 53.6914 5.48756V48.5798C53.6914 51.2405 51.5345 53.3975 48.8738 53.3975H5.78151C3.1208 53.3975 0.963867 51.2405 0.963867 48.5798V5.48756C0.963867 2.82685 3.1208 0.669922 5.78151 0.669922H48.8738Z" fill="#1CB0F6"/>
</svg>
