<svg width="175" height="172" viewBox="0 0 175 172" fill="none" xmlns="http://www.w3.org/2000/svg">
<g filter="url(#filter0_d_25_24)">
<path d="M49.8167 152.906C47.1607 152.906 44.9202 150.929 44.5908 148.293L43.3578 138.429C43.1169 136.502 41.8048 134.914 40.1164 133.954C39.9412 133.854 39.7679 133.752 39.5963 133.648C39.3823 133.518 39.1692 133.385 38.9571 133.251C37.3992 132.267 35.4632 132.021 33.7643 132.734L24.4063 136.666C21.9626 137.693 19.1365 136.744 17.8084 134.45L7.3318 116.354C6.00001 114.053 6.59112 111.121 8.71016 109.517L17.6829 102.722C18.5998 102.027 19.0311 100.89 19.0311 99.7394V99.7394V96.0253V96.0253C19.0311 94.8752 18.5998 93.7375 17.6829 93.0431L8.71015 86.2482C6.59112 84.6435 6.00001 81.7113 7.3318 79.4109L17.8084 61.315C19.1365 59.021 21.9626 58.0715 24.4063 59.0983L33.7643 63.0303C35.4632 63.7441 37.3977 63.4942 38.9696 62.5324C39.1993 62.3918 39.4312 62.2533 39.6651 62.1168C39.8498 62.0091 40.0344 61.9039 40.2191 61.8014C41.8714 60.8838 43.1112 59.3087 43.3456 57.4334L44.5908 47.4718C44.9202 44.8362 47.1607 42.8584 49.8167 42.8584H70.7814C73.4375 42.8584 75.6779 44.8362 76.0073 47.4718L77.2403 57.3361C77.4812 59.2632 78.7933 60.8512 80.4817 61.8108C80.6569 61.9104 80.8302 62.0124 81.0018 62.1168C81.2158 62.2471 81.4289 62.3792 81.641 62.5133C83.1989 63.4977 85.1349 63.7441 86.8338 63.0303L96.1918 59.0983C98.6355 58.0715 101.462 59.021 102.79 61.315L113.266 79.4109C114.598 81.7113 114.007 84.6435 111.888 86.2482L102.915 93.0431C101.998 93.7375 101.567 94.8752 101.567 96.0253V96.0253V99.7394V99.7394C101.567 100.875 101.888 102.048 102.793 102.734L111.75 109.517C113.869 111.121 114.461 114.053 113.129 116.354L102.659 134.438C101.328 136.737 98.4929 137.685 96.0467 136.648L86.84 132.747C85.138 132.026 83.1966 132.273 81.6196 133.238C81.3928 133.377 81.1639 133.513 80.933 133.648C80.7483 133.756 80.5637 133.861 80.379 133.963C78.7267 134.881 77.4869 136.456 77.2525 138.331L76.0073 148.293C75.6779 150.929 73.4375 152.906 70.7814 152.906H49.8167ZM60.5742 117.141C65.8932 117.141 70.4326 115.261 74.1926 111.501C77.9526 107.741 79.8326 103.201 79.8326 97.8824C79.8326 92.5634 77.9526 88.0239 74.1926 84.2639C70.4326 80.504 65.8932 78.624 60.5742 78.624C55.1635 78.624 50.6011 80.504 46.887 84.2639C43.1729 88.0239 41.3158 92.5634 41.3158 97.8824C41.3158 103.201 43.1729 107.741 46.887 111.501C50.6011 115.261 55.1635 117.141 60.5742 117.141Z" fill="#1453A3"/>
</g>
<g filter="url(#filter1_d_25_24)">
<path d="M110.334 59.9883C109.037 60.2404 107.755 59.4872 107.344 58.2314L105.805 53.5311C105.505 52.6129 104.713 51.9619 103.798 51.6536C103.703 51.6216 103.608 51.5882 103.515 51.5535C103.398 51.5102 103.281 51.4659 103.165 51.4205C102.311 51.0877 101.342 51.1511 100.58 51.661L96.3829 54.4695C95.287 55.203 93.8167 55.0076 92.9504 54.0133L86.1162 46.1705C85.2475 45.1735 85.2578 43.6855 86.1403 42.7006L89.8772 38.5305C90.2591 38.1044 90.3617 37.5078 90.2525 36.9462V36.9462L89.9 35.1323V35.1323C89.7908 34.5707 89.4721 34.056 88.9585 33.8039L83.9315 31.3373C82.7443 30.7548 82.1773 29.379 82.6093 28.1291L86.0079 18.2973C86.4387 17.0509 87.7287 16.319 89.0196 16.5884L93.9629 17.6203C94.8604 17.8076 95.7813 17.502 96.4577 16.883C96.5566 16.7926 96.6566 16.7029 96.7579 16.6141C96.8379 16.5439 96.9181 16.475 96.9985 16.4074C97.7183 15.8025 98.1743 14.9156 98.1107 13.9775L97.7732 8.99444C97.6839 7.67607 98.5903 6.49752 99.8874 6.24539L110.126 4.25526C111.423 4.00313 112.705 4.75633 113.116 6.01215L114.654 10.7124C114.955 11.6307 115.746 12.2817 116.662 12.59C116.757 12.622 116.851 12.6554 116.945 12.6901C117.062 12.7334 117.179 12.7777 117.295 12.823C118.149 13.1559 119.118 13.0924 119.88 12.5826L124.077 9.77402C125.173 9.0406 126.643 9.23601 127.509 10.2302L134.343 18.073C135.212 19.07 135.202 20.5581 134.319 21.5429L130.582 25.713C130.201 26.1392 130.098 26.7357 130.207 27.2974V27.2974L130.56 29.1112V29.1112C130.667 29.6656 130.936 30.2082 131.443 30.457L136.461 32.9193C137.648 33.5018 138.215 34.8777 137.783 36.1275L134.387 45.9527C133.955 47.2019 132.66 47.9339 131.367 47.6599L126.501 46.6287C125.601 46.4381 124.677 46.7434 123.998 47.3641C123.901 47.4533 123.802 47.5418 123.702 47.6295C123.622 47.6996 123.542 47.7685 123.461 47.8361C122.741 48.4411 122.285 49.328 122.349 50.2661L122.686 55.2491C122.776 56.5675 121.869 57.746 120.572 57.9982L110.334 59.9883ZM112.192 41.5007C114.79 40.9958 116.828 39.6467 118.308 37.4536C119.787 35.2604 120.274 32.8651 119.769 30.2675C119.264 27.6699 117.915 25.6315 115.722 24.1522C113.529 22.6729 111.134 22.1857 108.536 22.6907C105.894 23.2043 103.844 24.5555 102.387 26.7443C100.93 28.9331 100.454 31.3262 100.959 33.9238C101.464 36.5214 102.802 38.562 104.973 40.0456C107.143 41.5293 109.55 42.0143 112.192 41.5007Z" fill="#1453A3"/>
</g>
<circle cx="140.586" cy="151.97" r="12.5962" fill="#1CB0F6"/>
<path d="M82.7022 99.3879C83.7622 93.6063 88.8011 89.4073 94.679 89.4073H120.65C126.947 89.4073 132.205 94.2086 132.776 100.48L138.012 158.003C138.661 165.134 133.046 171.283 125.886 171.283H84.1331C76.529 171.283 70.7851 164.39 72.1564 156.911L82.7022 99.3879Z" fill="#1CB0F6"/>
<path d="M168.447 100.955C172.621 100.955 176.129 97.4657 174.659 93.5593C174.578 93.3453 174.494 93.1325 174.407 92.9209C173.351 90.3738 171.805 88.0595 169.856 86.11C167.906 84.1606 165.592 82.6142 163.045 81.5592C160.498 80.5041 157.768 79.9611 155.011 79.9611C152.254 79.9611 149.524 80.5041 146.977 81.5592C144.43 82.6142 142.115 84.1606 140.166 86.11C138.217 88.0595 136.67 90.3738 135.615 92.9209C135.527 93.1325 135.443 93.3453 135.363 93.5593C133.892 97.4657 137.401 100.955 141.575 100.955L168.447 100.955Z" fill="#1CB0F6"/>
<path d="M159.163 72.7954C162.664 70.522 163.706 65.685 160.345 63.2096C160.161 63.074 159.975 62.9413 159.786 62.8116C157.514 61.2501 154.956 60.1513 152.26 59.5781C149.563 59.0049 146.78 58.9685 144.069 59.4709C141.358 59.9733 138.773 61.0048 136.461 62.5063C134.149 64.0078 132.155 65.9501 130.593 68.2221C129.032 70.4942 127.933 73.0516 127.36 75.7483C126.787 78.445 126.75 81.2282 127.253 83.9389C127.294 84.1641 127.34 84.3884 127.389 84.6117C128.283 88.6888 133.126 89.7042 136.626 87.4309L159.163 72.7954Z" fill="#1CB0F6"/>
<defs>
<filter id="filter0_d_25_24" x="0.302666" y="42.8584" width="119.993" height="122.688" filterUnits="userSpaceOnUse" color-interpolation-filters="sRGB">
<feFlood flood-opacity="0" result="BackgroundImageFix"/>
<feColorMatrix in="SourceAlpha" type="matrix" values="0 0 0 0 0 0 0 0 0 0 0 0 0 0 0 0 0 0 127 0" result="hardAlpha"/>
<feOffset dy="6.31989"/>
<feGaussianBlur stdDeviation="3.15995"/>
<feComposite in2="hardAlpha" operator="out"/>
<feColorMatrix type="matrix" values="0 0 0 0 0 0 0 0 0 0 0 0 0 0 0 0 0 0 0.25 0"/>
<feBlend mode="normal" in2="BackgroundImageFix" result="effect1_dropShadow_25_24"/>
<feBlend mode="normal" in="SourceGraphic" in2="effect1_dropShadow_25_24" result="shape"/>
</filter>
<filter id="filter1_d_25_24" x="79.3209" y="4.20679" width="61.7507" height="62.1183" filterUnits="userSpaceOnUse" color-interpolation-filters="sRGB">
<feFlood flood-opacity="0" result="BackgroundImageFix"/>
<feColorMatrix in="SourceAlpha" type="matrix" values="0 0 0 0 0 0 0 0 0 0 0 0 0 0 0 0 0 0 127 0" result="hardAlpha"/>
<feOffset dy="3.14415"/>
<feGaussianBlur stdDeviation="1.57207"/>
<feComposite in2="hardAlpha" operator="out"/>
<feColorMatrix type="matrix" values="0 0 0 0 0 0 0 0 0 0 0 0 0 0 0 0 0 0 0.25 0"/>
<feBlend mode="normal" in2="BackgroundImageFix" result="effect1_dropShadow_25_24"/>
<feBlend mode="normal" in="SourceGraphic" in2="effect1_dropShadow_25_24" result="shape"/>
</filter>
</defs>
</svg>
