<svg width="29" height="29" viewBox="0 0 29 29" fill="none" xmlns="http://www.w3.org/2000/svg">
<g filter="url(#filter0_d_38_454)">
<rect width="26.8637" height="26.8637" rx="3.50396" fill="#1CB0F6"/>
</g>
<path d="M12.0566 21.4719C11.6733 21.4719 11.3499 21.1864 11.3023 20.806L11.1244 19.3822C11.0896 19.1041 10.9002 18.8748 10.6565 18.7363C10.6312 18.722 10.6062 18.7072 10.5814 18.6922C10.5505 18.6734 10.5198 18.6543 10.4892 18.6349C10.2643 18.4929 9.98489 18.4573 9.73967 18.5603L8.38895 19.1278C8.03623 19.2761 7.62832 19.139 7.43663 18.8079L5.92446 16.196C5.73223 15.8639 5.81755 15.4407 6.12341 15.2091L7.41851 14.2283C7.55085 14.1281 7.61311 13.9639 7.61311 13.7979V13.2618C7.61311 13.0958 7.55085 12.9316 7.41851 12.8314L6.12341 11.8506C5.81755 11.619 5.73223 11.1958 5.92446 10.8637L7.43663 8.2518C7.62832 7.92069 8.03623 7.78365 8.38895 7.93186L9.73967 8.49938C9.98489 8.60242 10.2641 8.56634 10.491 8.42752C10.5241 8.40723 10.5576 8.38723 10.5914 8.36754C10.618 8.35199 10.6447 8.33681 10.6713 8.32201C10.9098 8.18956 11.0888 7.96223 11.1226 7.69154L11.3023 6.25371C11.3499 5.8733 11.6733 5.58783 12.0566 5.58783H15.0826C15.466 5.58783 15.7894 5.8733 15.8369 6.25371L16.0149 7.67751C16.0497 7.95565 16.239 8.18486 16.4827 8.32337C16.508 8.33774 16.5331 8.35247 16.5578 8.36754C16.5887 8.38634 16.6195 8.40542 16.6501 8.42477C16.8749 8.56686 17.1544 8.60242 17.3996 8.49938L18.7503 7.93186C19.103 7.78365 19.5109 7.92069 19.7026 8.2518L21.2148 10.8637C21.407 11.1958 21.3217 11.619 21.0158 11.8506L19.7207 12.8314C19.5884 12.9316 19.5261 13.0958 19.5261 13.2618V13.7979C19.5261 13.9618 19.5725 14.1311 19.7032 14.2301L20.996 15.2091C21.3018 15.4407 21.3872 15.8639 21.1949 16.196L19.6838 18.8061C19.4917 19.138 19.0824 19.2748 18.7294 19.1252L17.4005 18.5621C17.1548 18.458 16.8746 18.4938 16.647 18.633C16.6142 18.653 16.5812 18.6727 16.5479 18.6922C16.5212 18.7077 16.4946 18.7229 16.4679 18.7377C16.2294 18.8701 16.0505 19.0975 16.0166 19.3682L15.8369 20.806C15.7894 21.1864 15.466 21.4719 15.0826 21.4719H12.0566ZM13.6093 16.3096C14.3771 16.3096 15.0323 16.0382 15.575 15.4955C16.1177 14.9528 16.389 14.2976 16.389 13.5299C16.389 12.7621 16.1177 12.1069 15.575 11.5642C15.0323 11.0215 14.3771 10.7501 13.6093 10.7501C12.8284 10.7501 12.1698 11.0215 11.6338 11.5642C11.0977 12.1069 10.8296 12.7621 10.8296 13.5299C10.8296 14.2976 11.0977 14.9528 11.6338 15.4955C12.1698 16.0382 12.8284 16.3096 13.6093 16.3096Z" fill="#0D141F"/>
<defs>
<filter id="filter0_d_38_454" x="0" y="0" width="28.6158" height="28.0317" filterUnits="userSpaceOnUse" color-interpolation-filters="sRGB">
<feFlood flood-opacity="0" result="BackgroundImageFix"/>
<feColorMatrix in="SourceAlpha" type="matrix" values="0 0 0 0 0 0 0 0 0 0 0 0 0 0 0 0 0 0 127 0" result="hardAlpha"/>
<feOffset dx="1.75198" dy="1.16799"/>
<feComposite in2="hardAlpha" operator="out"/>
<feColorMatrix type="matrix" values="0 0 0 0 0.172549 0 0 0 0 0.254902 0 0 0 0 0.407843 0 0 0 1 0"/>
<feBlend mode="normal" in2="BackgroundImageFix" result="effect1_dropShadow_38_454"/>
<feBlend mode="normal" in="SourceGraphic" in2="effect1_dropShadow_38_454" result="shape"/>
</filter>
</defs>
</svg>
