<svg width="121" height="89" viewBox="0 0 121 89" fill="none" xmlns="http://www.w3.org/2000/svg">
<path d="M94.6904 0C108.824 8.61019e-05 120.282 11.4579 120.282 25.5918C120.282 39.7258 117.014 88.5477 102.88 88.5479C96.7087 88.5479 89.4872 79.2407 83.3084 67.5773C80.0746 61.473 73.9209 57.3262 67.0129 57.3262H53.2693C46.3614 57.3262 40.2076 61.473 36.9738 67.5773C30.7951 79.2407 23.5735 88.5479 17.4023 88.5479C3.26835 88.5477 0 39.7258 0 25.5918C9.32875e-05 11.4579 11.4579 9.43488e-05 25.5918 0C30.1323 0 34.3963 1.1829 38.093 3.25698C42.1626 5.54028 46.4956 7.67773 51.162 7.67773H69.1202C73.7866 7.67773 78.1196 5.54028 82.1892 3.25698C85.886 1.18289 90.1499 0 94.6904 0Z" fill="#333333"/>
<rect x="28.6006" y="41.8574" width="6.53393" height="23.0866" rx="3.26697" transform="rotate(180 28.6006 41.8574)" fill="#636363"/>
<rect x="13.7905" y="33.5801" width="6.53393" height="23.0866" rx="3.26697" transform="rotate(-90 13.7905 33.5801)" fill="#636363"/>
<circle cx="95.0213" cy="40.3147" r="4.21512" fill="#58CC02"/>
<circle cx="84.0618" cy="30.1995" r="4.21512" fill="#1CB0F6"/>
<circle cx="105.559" cy="30.1995" r="4.21512" fill="#FF4B4B"/>
<circle cx="95.0213" cy="20.0823" r="4.21512" fill="#FFC800"/>
</svg>
