<svg width="62" height="61" viewBox="0 0 62 61" fill="none" xmlns="http://www.w3.org/2000/svg">
<g filter="url(#filter0_d_36_10)">
<rect y="0.266083" width="57.691" height="57.691" rx="7.52491" fill="#1CB0F6"/>
</g>
<path d="M16.1627 45.4147C15.1663 45.4147 14.3134 45.06 13.6038 44.3504C12.8943 43.6409 12.5396 42.788 12.5396 41.7916V16.4299C12.5396 15.4335 12.8943 14.5806 13.6038 13.8711C14.3134 13.1616 15.1663 12.8068 16.1627 12.8068H41.5244C42.5207 12.8068 43.3737 13.1616 44.0832 13.8711C44.7927 14.5806 45.1475 15.4335 45.1475 16.4299V41.7916C45.1475 42.788 44.7927 43.6409 44.0832 44.3504C43.3737 45.06 42.5207 45.4147 41.5244 45.4147H16.1627ZM16.1627 41.7916H41.5244V16.4299H16.1627V41.7916ZM17.9742 38.1685H39.7128L32.9195 29.1108L27.4849 36.357L23.4089 30.9223L17.9742 38.1685Z" fill="#0D141F"/>
<defs>
<filter id="filter0_d_36_10" x="0" y="0.266083" width="61.4534" height="60.1993" filterUnits="userSpaceOnUse" color-interpolation-filters="sRGB">
<feFlood flood-opacity="0" result="BackgroundImageFix"/>
<feColorMatrix in="SourceAlpha" type="matrix" values="0 0 0 0 0 0 0 0 0 0 0 0 0 0 0 0 0 0 127 0" result="hardAlpha"/>
<feOffset dx="3.76245" dy="2.5083"/>
<feComposite in2="hardAlpha" operator="out"/>
<feColorMatrix type="matrix" values="0 0 0 0 0.172549 0 0 0 0 0.254902 0 0 0 0 0.407843 0 0 0 1 0"/>
<feBlend mode="normal" in2="BackgroundImageFix" result="effect1_dropShadow_36_10"/>
<feBlend mode="normal" in="SourceGraphic" in2="effect1_dropShadow_36_10" result="shape"/>
</filter>
</defs>
</svg>
