<svg width="62" height="61" viewBox="0 0 62 61" fill="none" xmlns="http://www.w3.org/2000/svg">
<g filter="url(#filter0_d_36_11)">
<rect width="57.691" height="57.691" rx="7.52491" fill="#1CB0F6"/>
</g>
<path d="M16.409 41.2811H18.9408L36.3082 23.9137L33.7763 21.3819L16.409 38.7492V41.2811ZM12.8555 44.8345V37.2835L36.3082 13.8752C36.6635 13.5495 37.0559 13.2978 37.4852 13.1201C37.9146 12.9425 38.3662 12.8536 38.84 12.8536C39.3138 12.8536 39.7727 12.9425 40.2169 13.1201C40.6611 13.2978 41.0461 13.5643 41.3718 13.9197L43.8148 16.4071C44.1701 16.7328 44.4292 17.1178 44.5921 17.5619C44.755 18.0061 44.8364 18.4503 44.8364 18.8945C44.8364 19.3683 44.755 19.8198 44.5921 20.2492C44.4292 20.6786 44.1701 21.0709 43.8148 21.4263L20.4066 44.8345H12.8555ZM35.02 22.67L33.7763 21.3819L36.3082 23.9137L35.02 22.67Z" fill="#0D141F"/>
<defs>
<filter id="filter0_d_36_11" x="0" y="0" width="61.4534" height="60.1993" filterUnits="userSpaceOnUse" color-interpolation-filters="sRGB">
<feFlood flood-opacity="0" result="BackgroundImageFix"/>
<feColorMatrix in="SourceAlpha" type="matrix" values="0 0 0 0 0 0 0 0 0 0 0 0 0 0 0 0 0 0 127 0" result="hardAlpha"/>
<feOffset dx="3.76245" dy="2.5083"/>
<feComposite in2="hardAlpha" operator="out"/>
<feColorMatrix type="matrix" values="0 0 0 0 0.172549 0 0 0 0 0.254902 0 0 0 0 0.407843 0 0 0 1 0"/>
<feBlend mode="normal" in2="BackgroundImageFix" result="effect1_dropShadow_36_11"/>
<feBlend mode="normal" in="SourceGraphic" in2="effect1_dropShadow_36_11" result="shape"/>
</filter>
</defs>
</svg>
