<svg width="39" height="38" viewBox="0 0 39 38" fill="none" xmlns="http://www.w3.org/2000/svg">
<path d="M30.8333 0H8.66667C4.29508 0 0.75 3.54508 0.75 7.91667V30.0833C0.75 34.4549 4.29508 38 8.66667 38H30.8333C35.2065 38 38.75 34.4549 38.75 30.0833V7.91667C38.75 3.54508 35.2065 0 30.8333 0ZM23.7622 31.0175C23.1209 31.141 22.9167 30.7467 22.9167 30.4095V26.9341C22.9167 25.7513 22.5018 24.9818 22.0458 24.5892C24.8673 24.2757 27.8313 23.2038 27.8313 18.3398C27.8313 16.9559 27.3373 15.8254 26.5283 14.9403C26.6581 14.6205 27.0919 13.3317 26.4032 11.5884C26.4032 11.5884 25.3407 11.248 22.923 12.8868C21.9097 12.6018 20.8267 12.464 19.75 12.4577C18.6733 12.4624 17.5903 12.6018 16.5786 12.8836C14.1593 11.2448 13.0953 11.5852 13.0953 11.5852C12.4081 13.3301 12.8419 14.6173 12.9733 14.9388C12.1627 15.8254 11.6687 16.9543 11.6687 18.3382C11.6687 23.1895 14.6248 24.2773 17.4399 24.5987C17.0773 24.9153 16.7496 25.4727 16.6356 26.2928C15.912 26.6158 14.0801 27.1747 12.9496 25.2383C12.9496 25.2383 12.2798 24.0223 11.0068 23.9321C11.0068 23.9321 9.77183 23.9163 10.9198 24.7032C10.9198 24.7032 11.751 25.0927 12.3273 26.5557C12.3273 26.5557 13.0604 28.8167 16.5833 28.0503V30.4079C16.5833 30.742 16.3791 31.1347 15.7473 31.0175C10.7123 29.3439 7.08333 24.5955 7.08333 19C7.08333 12.0033 12.7548 6.33333 19.75 6.33333C26.7452 6.33333 32.4167 12.0033 32.4167 19C32.4167 24.5939 28.7924 29.3408 23.7622 31.0175Z" fill="#1CB0F6"/>
</svg>
