<svg width="42" height="60" viewBox="0 0 42 60" fill="none" xmlns="http://www.w3.org/2000/svg">
<path d="M26.6867 6.37075C27.8878 5.98046 28.5717 4.64406 27.7624 3.67445C27.2557 3.06736 26.6294 2.5616 25.9147 2.19382C24.5159 1.474 22.8929 1.34161 21.4027 1.82579C19.9126 2.30996 18.6774 3.37103 17.9688 4.77557C17.6068 5.49322 17.3974 6.2705 17.3443 7.05949C17.2595 8.31963 18.5982 8.99884 19.7994 8.60856L26.6867 6.37075Z" fill="#EA2B2B"/>
<rect x="9.60791" y="8.23535" width="21.1427" height="36.067" rx="10.5714" fill="#FADD3D"/>
<rect x="12.9624" y="13.2109" width="4.15884" height="5.95187" rx="2.07942" fill="#333333"/>
<rect x="22.9121" y="13.2109" width="4.15884" height="5.95187" rx="2.07942" fill="#333333"/>
<path d="M12.353 22.8974C12.353 21.2427 13.6944 19.9014 15.349 19.9014H25.6545C27.3091 19.9014 28.6505 21.2427 28.6505 22.8974V22.8974C28.6505 23.6328 28.0543 24.2289 27.3189 24.2289H13.6846C12.9492 24.2289 12.353 23.6328 12.353 22.8974V22.8974Z" fill="#FFB100"/>
<path d="M15.8521 24.2295H25.1517V24.2295C25.1517 26.2127 23.544 27.8205 21.5608 27.8205H19.443C17.4598 27.8205 15.8521 26.2127 15.8521 24.2295V24.2295Z" fill="#FF9600"/>
<path d="M19.1631 30.377C19.8981 29.1619 21.6606 29.1619 22.3955 30.377L26.5215 37.1992L36.0635 31.3486C37.8727 30.2392 40.2616 31.041 40.7695 33.1016C41.2822 35.1813 41.5566 37.2526 41.5566 39.2227C41.5565 50.698 32.2537 60.001 20.7783 60.001C9.30298 60.0009 0.000140676 50.698 0 39.2227C1.90678e-05 37.3476 0.248825 35.3808 0.714844 33.4023C1.21543 31.2772 3.70185 30.4898 5.51562 31.7051L14.6553 37.8291L19.1631 30.377Z" fill="#D9D9D9"/>
<circle cx="15.9802" cy="50.1765" r="7.74685" fill="#5B921E"/>
<circle cx="30.7387" cy="42.3407" r="2.71472" fill="#5B921E"/>
<path d="M27.7961 9.87555C29.0574 9.94165 30.1747 8.93909 29.7666 7.74384C29.5111 6.99548 29.1077 6.29888 28.5722 5.69939C27.5243 4.52609 26.0566 3.82087 24.4919 3.73887C22.9272 3.65687 21.3938 4.2048 20.229 5.26213C19.6338 5.80237 19.1597 6.45299 18.8274 7.17054C18.2966 8.31658 19.3031 9.43045 20.5643 9.49655L27.7961 9.87555Z" fill="#FF4B4B"/>
</svg>
