<svg width="39" height="38" viewBox="0 0 39 38" fill="none" xmlns="http://www.w3.org/2000/svg">
<path d="M30.5833 0H8.41667C4.04508 0 0.5 3.54508 0.5 7.91667V30.0833C0.5 34.4549 4.04508 38 8.41667 38H30.5833C34.9565 38 38.5 34.4549 38.5 30.0833V7.91667C38.5 3.54508 34.9565 0 30.5833 0ZM13.1667 30.0833H8.41667V12.6667H13.1667V30.0833ZM10.7917 10.659C9.26217 10.659 8.02083 9.40817 8.02083 7.866C8.02083 6.32383 9.26217 5.073 10.7917 5.073C12.3212 5.073 13.5625 6.32383 13.5625 7.866C13.5625 9.40817 12.3228 10.659 10.7917 10.659ZM32.1667 30.0833H27.4167V21.2103C27.4167 15.8777 21.0833 16.2814 21.0833 21.2103V30.0833H16.3333V12.6667H21.0833V15.4613C23.2937 11.3668 32.1667 11.0643 32.1667 19.3816V30.0833Z" fill="#1CB0F6"/>
</svg>
