<svg width="132" height="92" viewBox="0 0 132 92" fill="none" xmlns="http://www.w3.org/2000/svg">
<rect x="0.865723" y="11.7598" width="130.36" height="73.285" rx="7.76439" fill="#B0691C"/>
<path d="M66.1143 5.84834C66.1143 4.2782 67.0742 2.85559 68.5561 2.33668C77.0284 -0.629976 83.4024 -0.708202 96.1502 3.24496C105.796 6.21402 111.952 7.01904 121.137 4.71621C123.653 4.08559 126.186 5.90853 126.186 8.50177V76.5299C126.186 78.6364 124.479 80.344 122.372 80.344H69.9283C67.8219 80.344 66.1143 78.6364 66.1143 76.5299V5.84834Z" fill="#F7F7F7"/>
<path d="M66.1143 5.84346C66.1143 4.27332 65.1544 2.8507 63.6724 2.3318C55.2001 -0.634858 48.8261 -0.713085 36.0783 3.24008C26.4329 6.20914 20.2767 7.01415 11.0913 4.71133C8.57592 4.08071 6.04238 5.90365 6.04238 8.49689V76.525C6.04238 78.6315 7.75 80.3391 9.85646 80.3391H62.3002C64.4066 80.3391 66.1143 78.6315 66.1143 76.525V5.84346Z" fill="#F7F7F7"/>
<rect opacity="0.63" x="14.0786" y="13.9385" width="43.9982" height="4.35896" rx="1.77083" fill="#4B4B4B"/>
<path opacity="0.63" d="M14.0786 28.513C14.0786 27.535 14.8714 26.7422 15.8494 26.7422H56.306C57.284 26.7422 58.0768 27.535 58.0768 28.513V29.3303C58.0768 30.3083 57.284 31.1011 56.306 31.1011H15.8494C14.8714 31.1011 14.0786 30.3083 14.0786 29.3303V28.513Z" fill="#4B4B4B"/>
<path opacity="0.63" d="M14.0786 41.3197C14.0786 40.3417 14.8714 39.5488 15.8494 39.5488H56.306C57.284 39.5488 58.0768 40.3417 58.0768 41.3197V42.137C58.0768 43.115 57.284 43.9078 56.306 43.9078H15.8494C14.8714 43.9078 14.0786 43.115 14.0786 42.137V41.3197Z" fill="#4B4B4B"/>
<path opacity="0.63" d="M14.0786 54.1234C14.0786 53.1454 14.8714 52.3525 15.8494 52.3525H56.306C57.284 52.3525 58.0768 53.1454 58.0768 54.1234V54.9407C58.0768 55.9187 57.284 56.7115 56.306 56.7115H15.8494C14.8714 56.7115 14.0786 55.9187 14.0786 54.9407V54.1234Z" fill="#4B4B4B"/>
<path opacity="0.63" d="M14.0786 66.9271C14.0786 65.9491 14.8714 65.1562 15.8494 65.1562H56.306C57.284 65.1562 58.0768 65.9491 58.0768 66.9271V67.7444C58.0768 68.7224 57.284 69.5152 56.306 69.5152H15.8494C14.8714 69.5152 14.0786 68.7224 14.0786 67.7444V66.9271Z" fill="#4B4B4B"/>
<rect opacity="0.63" x="74.1504" y="13.9385" width="43.9982" height="4.35896" rx="1.77083" fill="#4B4B4B"/>
<path opacity="0.63" d="M74.1504 28.513C74.1504 27.535 74.9432 26.7422 75.9212 26.7422H116.378C117.356 26.7422 118.149 27.535 118.149 28.513V29.3303C118.149 30.3083 117.356 31.1011 116.378 31.1011H75.9212C74.9432 31.1011 74.1504 30.3083 74.1504 29.3303V28.513Z" fill="#4B4B4B"/>
<path opacity="0.63" d="M74.1504 41.3197C74.1504 40.3417 74.9432 39.5488 75.9212 39.5488H116.378C117.356 39.5488 118.149 40.3417 118.149 41.3197V42.137C118.149 43.115 117.356 43.9078 116.378 43.9078H75.9212C74.9432 43.9078 74.1504 43.115 74.1504 42.137V41.3197Z" fill="#4B4B4B"/>
<path opacity="0.63" d="M74.1504 54.1234C74.1504 53.1454 74.9432 52.3525 75.9212 52.3525H116.378C117.356 52.3525 118.149 53.1454 118.149 54.1234V54.9407C118.149 55.9187 117.356 56.7115 116.378 56.7115H75.9212C74.9432 56.7115 74.1504 55.9187 74.1504 54.9407V54.1234Z" fill="#4B4B4B"/>
<path opacity="0.63" d="M74.1504 66.9271C74.1504 65.9491 74.9432 65.1562 75.9212 65.1562H116.378C117.356 65.1562 118.149 65.9491 118.149 66.9271V67.7444C118.149 68.7224 117.356 69.5152 116.378 69.5152H75.9212C74.9432 69.5152 74.1504 68.7224 74.1504 67.7444V66.9271Z" fill="#4B4B4B"/>
<path d="M72.9248 89.9492C72.9247 90.7013 72.3155 91.3113 71.5635 91.3115H69.792C69.0399 91.3114 68.4298 90.7013 68.4297 89.9492V2.41504C68.4525 2.40608 68.475 2.39522 68.498 2.38672C70.0256 1.82375 71.4851 1.35957 72.9248 1V89.9492Z" fill="#EA2B2B"/>
</svg>
