<svg width="40" height="49" viewBox="0 0 40 49" fill="none" xmlns="http://www.w3.org/2000/svg">
<path d="M14.3078 23.849C14.5083 23.5394 14.7734 23.2769 15.0849 23.0795L31.7742 12.4996C33.3297 11.5136 35.386 12.4456 35.6699 14.2653L37.8201 28.0522C38.0213 29.3422 37.2183 30.5767 35.9574 30.9156L10.6306 37.7239C8.36817 38.3321 6.54697 35.8306 7.82061 33.8643L14.3078 23.849Z" fill="#FFC800"/>
<path d="M15.7998 5.10807C17.6714 2.55423 21.4708 2.51259 23.398 5.0248L34.1397 19.0274C36.5361 22.1512 34.3089 26.6667 30.3718 26.6667H9.36797C5.47883 26.6667 3.23867 22.2475 5.53763 19.1106L15.7998 5.10807Z" fill="#FFC800"/>
<circle cx="19.9094" cy="30.5021" r="18.2648" fill="#FFC800"/>
<path d="M18.2985 24.4251C19.0164 23.4455 20.4737 23.4296 21.2129 24.3931L25.333 29.764C26.2521 30.9622 25.3979 32.6941 23.8877 32.6941H15.8315C14.3397 32.6941 13.4805 30.9991 14.3623 29.7959L18.2985 24.4251Z" fill="#FF9600"/>
<circle cx="19.8729" cy="34.1654" r="7.00569" fill="#FF9600"/>
</svg>
