<svg width="123" height="119" viewBox="0 0 123 119" fill="none" xmlns="http://www.w3.org/2000/svg">
<path d="M95.0068 0C98.4678 0 101.274 2.80567 101.274 6.2666V17.4221C101.274 18.1835 101.892 18.8008 102.653 18.8008H119.473L119.647 18.8057C121.44 18.8967 122.864 20.3786 122.864 22.1934V41.5967L122.857 42.1533C122.562 53.811 113.019 63.1709 101.29 63.1709L100.733 63.1641C99.3599 63.1293 98.0185 62.9649 96.7205 62.6844C96.1171 62.5541 95.4903 62.8075 95.1612 63.3298C88.1054 74.5294 75.6308 81.9717 61.416 81.9717C47.2035 81.9716 34.7304 74.5318 27.674 63.3351C27.3452 62.8135 26.7196 62.5601 26.1168 62.6895C24.6522 63.0041 23.1327 63.1709 21.5742 63.1709L21.0176 63.1641C9.54493 62.8734 0.297739 53.6259 0.00683594 42.1533L0 41.5967V22.1934C0 20.3784 1.42543 18.8965 3.21777 18.8057L3.39258 18.8008H20.1799C20.9413 18.8008 21.5586 18.1835 21.5586 17.422V6.2666C21.5588 2.80574 24.3643 0.000119208 27.8252 0H95.0068ZM10.9043 41.5967C10.9047 47.4891 15.6817 52.2664 21.5742 52.2666C22.2472 52.2666 22.6914 51.6073 22.5428 50.9509C21.8992 48.1086 21.5586 45.1512 21.5586 42.1143V31.0838C21.5586 30.3224 20.9413 29.7051 20.1799 29.7051H12.283C11.5216 29.7051 10.9043 30.3224 10.9043 31.0838V41.5967ZM101.274 42.1143C101.274 45.139 100.936 48.0846 100.297 50.9163C100.145 51.5897 100.6 52.2666 101.29 52.2666C107.183 52.2666 111.96 47.4892 111.96 41.5967V31.0838C111.96 30.3224 111.343 29.7051 110.581 29.7051H102.653C101.892 29.7051 101.274 30.3224 101.274 31.0838V42.1143Z" fill="#FFB100"/>
<rect x="50.6372" y="70.6914" width="21.5584" height="32.9642" fill="#FFB100"/>
<rect x="32.3374" y="91.999" width="58.0321" height="26.0706" rx="4.76289" fill="#B0691C"/>
</svg>
