<svg width="145" height="165" viewBox="0 0 145 165" fill="none" xmlns="http://www.w3.org/2000/svg">
<circle cx="97.4566" cy="137.618" r="17.2744" fill="#1453A3"/>
<path d="M18.076 65.5077C19.5296 57.5789 26.4399 51.8203 34.5009 51.8203H70.1169C78.7527 51.8203 85.9639 58.4049 86.7468 67.0052L93.9275 145.892C94.8177 155.671 87.1177 164.104 77.2976 164.104H20.0384C9.61007 164.104 1.73296 154.652 3.61347 144.394L18.076 65.5077Z" fill="#1453A3"/>
<path d="M135.666 67.6579C141.39 67.6579 146.202 62.8729 144.185 57.5156C144.075 57.2222 143.959 56.9303 143.839 56.6402C142.392 53.1471 140.272 49.9733 137.598 47.2998C134.925 44.6263 131.751 42.5056 128.258 41.0588C124.765 39.6119 121.021 38.8672 117.24 38.8672C113.459 38.8672 109.715 39.6119 106.222 41.0588C102.729 42.5056 99.5554 44.6263 96.882 47.2998C94.2085 49.9733 92.0878 53.1471 90.6409 56.6402C90.5208 56.9303 90.4054 57.2222 90.295 57.5156C88.2784 62.8729 93.0898 67.6579 98.814 67.6579L135.666 67.6579Z" fill="#1453A3"/>
<path d="M122.934 29.0396C127.735 25.9219 129.164 19.2885 124.555 15.8937C124.302 15.7078 124.047 15.5258 123.788 15.348C120.672 13.2065 117.165 11.6996 113.466 10.9136C109.768 10.1275 105.951 10.0775 102.234 10.7665C98.5163 11.4555 94.9709 12.87 91.8 14.9292C88.6291 16.9884 85.8949 19.652 83.7534 22.7679C81.6119 25.8838 80.1051 29.391 79.319 33.0892C78.5329 36.7875 78.4829 40.6043 79.1719 44.3218C79.2292 44.6306 79.2914 44.9382 79.3586 45.2445C80.5852 50.8358 87.2264 52.2284 92.0272 49.1107L122.934 29.0396Z" fill="#1453A3"/>
</svg>
