<svg width="675" height="737" viewBox="0 0 675 737" fill="none" xmlns="http://www.w3.org/2000/svg">
<circle cx="337.216" cy="399.6" r="337.216" fill="url(#paint0_radial_144_1146)"/>
<path d="M294.724 274.855L378.575 275.792L559.395 584.965H114.373L294.724 274.855Z" fill="#D2E4E8"/>
<ellipse cx="336.883" cy="591.055" rx="223.916" ry="53.871" fill="#0E898B"/>
<ellipse cx="336.414" cy="277.667" rx="42.6284" ry="14.9902" fill="#15D2D6"/>
<path d="M329.388 204.819C329.388 199.691 333.545 195.534 338.673 195.534C343.801 195.534 347.958 199.691 347.958 204.819V231.23H329.388V204.819Z" fill="#9069CD"/>
<rect x="330.112" y="196.771" width="17.0224" height="25.5851" rx="8.51118" fill="#FFC800"/>
<rect x="334.858" y="203.787" width="7.63427" height="11.4745" rx="3.81714" fill="#4B4B4B"/>
<mask id="mask0_144_1146" style="mask-type:alpha" maskUnits="userSpaceOnUse" x="330" y="196" width="18" height="27">
<rect x="330.113" y="196.771" width="17.0224" height="25.5851" rx="8.51118" fill="#FFC800"/>
<rect x="334.859" y="203.787" width="7.63427" height="11.4745" rx="3.81714" fill="#4B4B4B"/>
</mask>
<g mask="url(#mask0_144_1146)">
<rect x="320.828" y="191.535" width="25.2756" height="25.2756" rx="2.37282" transform="rotate(-45 320.828 191.535)" fill="#9069CD"/>
</g>
<path d="M337.452 190.277C337.928 189.229 339.417 189.229 339.893 190.277L343.249 197.659C343.566 198.356 343.236 199.183 342.511 199.428C339.682 200.383 337.656 200.391 334.828 199.43C334.105 199.184 333.778 198.359 334.094 197.663L337.452 190.277Z" fill="#D9D9D9"/>
<path d="M334.546 227.309C334.546 227.012 334.707 226.738 334.966 226.593C338.438 224.641 340.504 223.606 342.971 226.654C343.061 226.765 343.109 226.906 343.109 227.048C343.109 227.659 342.305 227.945 341.844 227.544C339.912 225.863 338.237 226.41 335.862 227.995C335.305 228.366 334.546 227.979 334.546 227.309Z" fill="#5B3399"/>
<rect x="253.5" y="236.607" width="167.026" height="41.3934" rx="20.6967" fill="#6F4EA1"/>
<circle cx="399.466" cy="257.305" r="7.26199" fill="#FFB100"/>
<circle cx="375.138" cy="257.305" r="7.26199" fill="#FFB100"/>
<circle cx="350.811" cy="257.305" r="7.26199" fill="#FFB100"/>
<circle cx="326.484" cy="257.305" r="7.26199" fill="#FFB100"/>
<circle cx="302.156" cy="257.305" r="7.26199" fill="#FFB100"/>
<circle cx="277.828" cy="257.305" r="7.26199" fill="#FFB100"/>
<path opacity="0.4" d="M402.372 236.61C402.372 228.265 400.728 220.003 397.535 212.293C394.342 204.584 389.661 197.579 383.761 191.679C377.86 185.778 370.856 181.098 363.146 177.904C355.437 174.711 347.174 173.067 338.83 173.067C330.485 173.067 322.222 174.711 314.513 177.904C306.804 181.098 299.799 185.778 293.898 191.679C287.998 197.579 283.317 204.584 280.124 212.293C276.931 220.003 275.287 228.265 275.287 236.61L338.83 236.61H402.372Z" fill="#7AF0F2"/>
<path opacity="0.4" d="M385.305 231.343C385.305 225.216 384.099 219.148 381.754 213.488C379.409 207.827 375.972 202.683 371.639 198.35C367.307 194.018 362.163 190.581 356.502 188.236C350.842 185.891 344.774 184.685 338.647 184.685C332.52 184.685 326.453 185.891 320.792 188.236C315.131 190.581 309.987 194.018 305.655 198.35C301.322 202.683 297.885 207.827 295.54 213.488C293.196 219.148 291.989 225.216 291.989 231.343L338.647 231.343H385.305Z" fill="#7AF0F2"/>
<circle cx="392.61" cy="168.389" r="14.524" transform="rotate(-32 392.61 168.389)" fill="#FFC800"/>
<mask id="mask1_144_1146" style="mask-type:alpha" maskUnits="userSpaceOnUse" x="378" y="153" width="30" height="30">
<circle cx="392.61" cy="168.389" r="14.524" transform="rotate(-32 392.61 168.389)" fill="#FFC800"/>
</mask>
<g mask="url(#mask1_144_1146)">
<path d="M399.756 151.165C402.016 152.638 399.329 160.305 393.756 168.291C388.182 176.276 381.831 181.556 379.571 180.082C377.311 178.609 379.998 170.942 385.571 162.956C391.145 154.971 397.496 149.691 399.756 151.165Z" fill="#FFB100"/>
</g>
<path d="M337.272 173.086C350.251 155.784 360.859 152.611 382.309 159.841C383.479 160.236 384.391 161.173 384.772 162.348L385.147 163.503C386.214 166.786 382.842 169.813 379.59 168.653C365.287 163.551 356.275 164.891 348.157 173.755C345.076 173.298 341.958 173.067 338.829 173.067C338.31 173.067 337.791 173.073 337.272 173.086Z" fill="#AFAFAF"/>
<mask id="mask2_144_1146" style="mask-type:alpha" maskUnits="userSpaceOnUse" x="378" y="153" width="30" height="30">
<circle cx="392.612" cy="168.388" r="14.524" transform="rotate(-32 392.612 168.388)" fill="#FFC800"/>
</mask>
<g mask="url(#mask2_144_1146)">
<path d="M354.492 246.048C348.571 241.079 344.232 234.852 342.913 229.313C318.264 125.794 341.63 96.0186 448.82 103.094C454.478 103.467 461.306 106.65 467.18 111.578L472.948 116.419C489.36 130.19 489.089 148.237 473.129 146.906C388.672 139.868 367.183 166.243 388.872 244.126C393.264 259.896 375.366 263.563 358.736 249.609L354.492 246.048Z" fill="#666666"/>
</g>
<circle cx="322.019" cy="498.082" r="15.4398" transform="rotate(53 322.019 498.082)" fill="#1453A3"/>
<path d="M330.793 402.632C337.235 399.404 345.062 401.24 349.398 406.994L368.556 432.417C373.201 438.581 372.38 447.271 366.662 452.456L314.214 500.014C307.712 505.91 297.551 504.95 292.268 497.94L261.469 457.067C255.859 449.624 258.37 438.916 266.703 434.741L330.793 402.632Z" fill="#1CB0F6"/>
<path d="M330.207 438.484C331.897 440.727 335.236 440.84 335.155 438.033C335.099 436.098 334.312 434.009 332.968 432.226C331.624 430.442 329.833 429.11 327.988 428.523C325.313 427.672 324.501 430.912 326.191 433.155L330.207 438.484Z" fill="#FFAADE"/>
<rect x="343.256" y="410.387" width="9.52124" height="15.9545" rx="4.76062" transform="rotate(53 343.256 410.387)" fill="#F7F7F7"/>
<rect x="351.308" y="421.073" width="9.52124" height="15.9545" rx="4.76062" transform="rotate(53 351.308 421.073)" fill="#F7F7F7"/>
<path d="M339.063 414.513C339.933 413.858 341.168 414.032 341.823 414.901L341.929 415.042C342.584 415.911 342.41 417.146 341.541 417.801L339.757 419.146C338.887 419.801 337.652 419.627 336.997 418.758L336.891 418.618C336.236 417.749 336.41 416.513 337.279 415.858L339.063 414.513Z" fill="#4B4B4B"/>
<path d="M347.116 425.199C347.985 424.544 349.221 424.717 349.876 425.587L349.982 425.727C350.637 426.596 350.463 427.832 349.594 428.487L347.809 429.832C346.94 430.487 345.704 430.313 345.049 429.444L344.944 429.303C344.289 428.434 344.462 427.198 345.331 426.543L347.116 425.199Z" fill="#4B4B4B"/>
<path d="M392.512 487.725C395.591 491.811 401.594 492.672 404.334 488.35C404.484 488.114 404.63 487.874 404.773 487.633C406.488 484.721 407.613 481.5 408.083 478.153C408.553 474.807 408.36 471.401 407.514 468.129C406.668 464.857 405.185 461.784 403.152 459.085C401.118 456.387 398.573 454.115 395.661 452.4C392.749 450.684 389.528 449.56 386.182 449.089C382.835 448.619 379.429 448.812 376.157 449.659C375.886 449.729 375.615 449.804 375.346 449.883C370.437 451.325 369.61 457.333 372.689 461.419L392.512 487.725Z" fill="#1453A3"/>
<path d="M413.229 457.863C418.037 459.613 423.541 457.065 423.485 451.949C423.482 451.669 423.474 451.388 423.462 451.108C423.314 447.732 422.503 444.418 421.075 441.355C419.647 438.292 417.63 435.541 415.138 433.258C412.647 430.975 409.73 429.205 406.554 428.049C403.379 426.893 400.007 426.374 396.631 426.522C393.254 426.669 389.94 427.48 386.878 428.908C383.815 430.336 381.064 432.354 378.781 434.845C378.591 435.052 378.405 435.262 378.222 435.475C374.891 439.358 377.469 444.848 382.277 446.597L413.229 457.863Z" fill="#1453A3"/>
<path d="M274.99 446.362C285.091 438.75 299.451 440.768 307.063 450.87C314.675 460.971 312.657 475.331 302.556 482.944L297.007 487.125C292.467 490.546 286.013 489.639 282.592 485.099L267.415 464.959C263.994 460.419 264.901 453.965 269.441 450.543L274.99 446.362Z" fill="#F7F7F7" fill-opacity="0.968627"/>
<path d="M304.845 434.546C311.574 429.657 320.725 430.784 325.286 437.061C329.847 443.339 328.09 452.391 321.362 457.279C314.633 462.167 313.743 455.039 309.183 448.761C304.622 442.484 298.117 439.434 304.845 434.546Z" fill="#4B4B4B"/>
<mask id="mask3_144_1146" style="mask-type:alpha" maskUnits="userSpaceOnUse" x="301" y="431" width="27" height="28">
<path d="M304.844 434.545C311.573 429.657 320.724 430.783 325.285 437.06C329.846 443.338 328.089 452.39 321.361 457.278C314.632 462.166 313.742 455.038 309.182 448.76C304.621 442.483 298.116 439.433 304.844 434.545Z" fill="black"/>
</mask>
<g mask="url(#mask3_144_1146)">
<path d="M316.643 433.202C318.812 431.008 322.43 431.283 324.243 433.778L328.026 438.985C329.833 441.473 328.988 444.986 326.248 446.38L317.5 450.831C315.309 451.946 312.633 451.302 311.188 449.314L309.246 446.641C307.806 444.66 308.014 441.928 309.735 440.187L316.643 433.202Z" fill="#F0F0F0"/>
</g>
<circle cx="118.447" cy="118.447" r="118.447" fill="#FF9600"/>
<mask id="mask4_144_1146" style="mask-type:alpha" maskUnits="userSpaceOnUse" x="0" y="0" width="237" height="237">
<circle cx="118.447" cy="118.447" r="118.447" fill="#ECBB75"/>
</mask>
<g mask="url(#mask4_144_1146)">
<circle cx="155.058" cy="98.2029" r="118.447" fill="#FFC800"/>
</g>
<circle cx="111.124" cy="46.0867" r="22.3972" fill="#FFB100"/>
<circle cx="157.212" cy="68.4841" r="6.03003" fill="#FFB100"/>
<g filter="url(#filter0_d_144_1146)">
<rect x="475.474" y="126.706" width="65.9273" height="65.9273" rx="13.918" transform="rotate(-45 475.474 126.706)" fill="#FFF4CC"/>
</g>
<g filter="url(#filter1_d_144_1146)">
<rect x="542.917" y="210.292" width="37.4906" height="37.4906" rx="7.91469" transform="rotate(-45 542.917 210.292)" fill="#FFF4CC"/>
</g>
<g filter="url(#filter2_d_144_1146)">
<rect x="579.168" y="134.698" width="47.424" height="47.424" rx="10.0117" transform="rotate(-45 579.168 134.698)" fill="#FFF4CC"/>
</g>
<defs>
<filter id="filter0_d_144_1146" x="454.431" y="62.417" width="135.322" height="135.322" filterUnits="userSpaceOnUse" color-interpolation-filters="sRGB">
<feFlood flood-opacity="0" result="BackgroundImageFix"/>
<feColorMatrix in="SourceAlpha" type="matrix" values="0 0 0 0 0 0 0 0 0 0 0 0 0 0 0 0 0 0 127 0" result="hardAlpha"/>
<feMorphology radius="12.6456" operator="dilate" in="SourceAlpha" result="effect1_dropShadow_144_1146"/>
<feOffset dy="3.37216"/>
<feGaussianBlur stdDeviation="7.08153"/>
<feComposite in2="hardAlpha" operator="out"/>
<feColorMatrix type="matrix" values="0 0 0 0 0 0 0 0 0 0 0 0 0 0 0 0 0 0 0.25 0"/>
<feBlend mode="normal" in2="BackgroundImageFix" result="effect1_dropShadow_144_1146"/>
<feBlend mode="normal" in="SourceGraphic" in2="effect1_dropShadow_144_1146" result="shape"/>
</filter>
<filter id="filter1_d_144_1146" x="519.387" y="163.624" width="100.08" height="100.08" filterUnits="userSpaceOnUse" color-interpolation-filters="sRGB">
<feFlood flood-opacity="0" result="BackgroundImageFix"/>
<feColorMatrix in="SourceAlpha" type="matrix" values="0 0 0 0 0 0 0 0 0 0 0 0 0 0 0 0 0 0 127 0" result="hardAlpha"/>
<feMorphology radius="12.6456" operator="dilate" in="SourceAlpha" result="effect1_dropShadow_144_1146"/>
<feOffset dy="3.37216"/>
<feGaussianBlur stdDeviation="7.08153"/>
<feComposite in2="hardAlpha" operator="out"/>
<feColorMatrix type="matrix" values="0 0 0 0 0 0 0 0 0 0 0 0 0 0 0 0 0 0 0.25 0"/>
<feBlend mode="normal" in2="BackgroundImageFix" result="effect1_dropShadow_144_1146"/>
<feBlend mode="normal" in="SourceGraphic" in2="effect1_dropShadow_144_1146" result="shape"/>
</filter>
<filter id="filter2_d_144_1146" x="556.507" y="81.875" width="112.391" height="112.391" filterUnits="userSpaceOnUse" color-interpolation-filters="sRGB">
<feFlood flood-opacity="0" result="BackgroundImageFix"/>
<feColorMatrix in="SourceAlpha" type="matrix" values="0 0 0 0 0 0 0 0 0 0 0 0 0 0 0 0 0 0 127 0" result="hardAlpha"/>
<feMorphology radius="12.6456" operator="dilate" in="SourceAlpha" result="effect1_dropShadow_144_1146"/>
<feOffset dy="3.37216"/>
<feGaussianBlur stdDeviation="7.08153"/>
<feComposite in2="hardAlpha" operator="out"/>
<feColorMatrix type="matrix" values="0 0 0 0 0 0 0 0 0 0 0 0 0 0 0 0 0 0 0.25 0"/>
<feBlend mode="normal" in2="BackgroundImageFix" result="effect1_dropShadow_144_1146"/>
<feBlend mode="normal" in="SourceGraphic" in2="effect1_dropShadow_144_1146" result="shape"/>
</filter>
<radialGradient id="paint0_radial_144_1146" cx="0" cy="0" r="1" gradientUnits="userSpaceOnUse" gradientTransform="translate(337.216 399.6) rotate(90) scale(337.216)">
<stop offset="0.9999" stop-color="#272E40"/>
<stop offset="1" stop-color="#737373" stop-opacity="0"/>
</radialGradient>
</defs>
</svg>
