<svg width="301" height="321" viewBox="0 0 301 321" fill="none" xmlns="http://www.w3.org/2000/svg">
<circle cx="215.871" cy="232.245" r="27.579" transform="rotate(-18 215.871 232.245)" fill="#1C233A"/>
<path d="M59.7658 161.917C58.0613 149.16 65.7127 137.008 77.9523 133.031L132.031 115.46C145.143 111.199 159.341 117.639 164.773 130.312L214.595 246.549C220.771 260.959 213.24 277.562 198.329 282.406L111.388 310.655C95.554 315.8 78.9301 305.334 76.725 288.831L59.7658 161.917Z" fill="#111A28"/>
<path d="M239.372 107.165C248.063 104.341 253.008 94.7018 247.303 87.5622C246.991 87.1711 246.672 86.7849 246.346 86.4036C242.426 81.8137 237.64 78.0408 232.262 75.3004C226.883 72.5601 221.018 70.9058 215 70.4323C208.983 69.9587 202.931 70.675 197.19 72.5402C191.449 74.4055 186.132 77.3833 181.542 81.3035C176.952 85.2237 173.179 90.0095 170.439 95.3878C167.699 100.766 166.044 106.632 165.571 112.649C165.532 113.149 165.5 113.649 165.477 114.149C165.059 123.278 174.725 128.17 183.416 125.346L239.372 107.165Z" fill="#1C233A"/>
<path d="M200.988 54.8098C206.739 47.7075 205.636 36.9304 196.963 34.0498C196.488 33.892 196.01 33.7418 195.529 33.5994C189.742 31.8851 183.673 31.3274 177.67 31.9584C171.667 32.5893 165.847 34.3965 160.542 37.2767C155.237 40.157 150.552 44.0538 146.753 48.7448C142.955 53.4358 140.117 58.8291 138.403 64.6168C136.688 70.4044 136.131 76.473 136.762 82.4761C137.393 88.4793 139.2 94.2993 142.08 99.6041C142.319 100.045 142.565 100.481 142.819 100.913C147.44 108.797 158.21 107.635 163.962 100.533L200.988 54.8098Z" fill="#1C233A"/>
<path d="M101.173 281.595C94.191 260.108 105.95 237.029 127.438 230.047C148.925 223.065 172.004 234.825 178.986 256.312L182.821 268.115C185.959 277.772 180.674 288.145 171.016 291.283L128.175 305.203C118.518 308.341 108.146 303.055 105.008 293.398L101.173 281.595Z" fill="#BBF2FF" fill-opacity="0.968627"/>
<rect x="28.0561" y="146.767" width="155.577" height="97.2358" rx="16.9106" transform="rotate(-18 28.0561 146.767)" fill="#121625" stroke="#272E40" stroke-width="6.76423"/>
<circle cx="151.359" cy="141.82" r="15.6423" transform="rotate(-18 151.359 141.82)" fill="#4EA5FF"/>
<path d="M87.0355 156.303L87.1516 156.265L90.0637 165.228L89.929 165.272L63.0684 187.024L58.2233 181.039L78.9018 164.292L52.7173 165.206L52.4484 157.511L87.0355 156.303Z" fill="#4EA5FF"/>
<rect x="104.667" y="198.553" width="35.9383" height="13.0538" transform="rotate(-18 104.667 198.553)" fill="#4EA5FF"/>
<rect x="88.4219" y="190.274" width="12.8927" height="12.8927" transform="rotate(-18 88.4219 190.274)" fill="#4EA5FF"/>
<rect x="134.863" y="175.186" width="12.8927" height="12.8927" transform="rotate(-18 134.863 175.186)" fill="#4EA5FF"/>
</svg>
