<svg width="226" height="262" viewBox="0 0 226 262" fill="none" xmlns="http://www.w3.org/2000/svg">
<circle cx="150.266" cy="219.712" r="27.5789" fill="#5A7425"/>
<path d="M211.268 108.018C220.407 108.018 228.089 100.378 224.869 91.8253C224.693 91.3568 224.509 90.8908 224.317 90.4276C222.007 84.8509 218.621 79.7838 214.353 75.5155C210.085 71.2473 205.017 67.8616 199.441 65.5516C193.864 63.2417 187.887 62.0527 181.851 62.0527C175.815 62.0527 169.837 63.2417 164.261 65.5516C158.684 67.8616 153.617 71.2473 149.349 75.5155C145.08 79.7838 141.695 84.8509 139.385 90.4276C139.193 90.8908 139.009 91.3568 138.832 91.8253C135.613 100.378 143.294 108.018 152.433 108.018L211.268 108.018Z" fill="#5A7425"/>
<path d="M190.941 46.3638C198.606 41.3864 200.887 30.796 193.529 25.3762C193.126 25.0793 192.718 24.7888 192.304 24.5049C187.33 21.0859 181.731 18.6803 175.826 17.4253C169.922 16.1703 163.828 16.0905 157.893 17.1905C151.958 18.2905 146.298 20.5488 141.235 23.8363C136.173 27.1239 131.808 31.3764 128.389 36.3509C124.97 41.3255 122.564 46.9248 121.309 52.8291C120.054 58.7334 119.974 64.8271 121.074 70.7622C121.166 71.2552 121.265 71.7462 121.372 72.2352C123.331 81.1618 133.934 83.3851 141.598 78.4077L190.941 46.3638Z" fill="#5A7425"/>
<path d="M25.9312 231.203C25.9312 208.61 44.2466 190.295 66.8399 190.295C89.4332 190.295 107.749 208.61 107.749 231.203V243.614C107.749 253.768 99.517 262 89.3627 262H44.3171C34.1628 262 25.9312 253.768 25.9312 243.614V231.203Z" fill="#F7F7F7" fill-opacity="0.968627"/>
<path d="M144.632 232.923C146.054 248.537 133.76 262 118.083 262H26.6675C10.0185 262 -2.55743 246.909 0.444839 230.533L17.0902 139.738C17.6996 136.414 20.5963 134 23.9755 134H129.237C132.857 134 135.88 136.761 136.208 140.366L144.632 232.923ZM106.619 82.7368C120.406 82.7368 131.919 93.2495 133.168 106.98L134.387 120.366C134.76 124.466 131.532 128 127.416 128H27.6427C23.2712 128 19.9691 124.038 20.7574 119.738L23.5347 104.589C25.8554 91.9308 36.8878 82.7368 49.7573 82.7368H106.619Z" fill="#96C13E"/>
<circle cx="34.6753" cy="112" r="5" fill="#4B4B4B"/>
<circle cx="99.6753" cy="113" r="5" fill="#4B4B4B"/>
<rect x="40.9536" y="75.9812" width="5.21977" height="15.0054" rx="2.60989" transform="rotate(-24 40.9536 75.9812)" fill="#96C13E"/>
<rect width="5.21977" height="15" rx="2.60989" transform="matrix(-0.913545 -0.406737 -0.406737 0.913545 115.619 75.8196)" fill="#96C13E"/>
</svg>
