<svg width="260" height="261" viewBox="0 0 260 261" fill="none" xmlns="http://www.w3.org/2000/svg">
<circle cx="198.58" cy="218.58" r="27.58" fill="#1453A3"/>
<path d="M66.7952 100.41C69.162 87.4996 80.4136 78.1233 93.5387 78.1233H151.53C165.591 78.1233 177.332 88.8445 178.607 102.848L190.299 231.293C191.748 247.217 179.211 260.947 163.222 260.947H69.9904C53.0107 260.947 40.1849 245.556 43.2469 228.855L66.7952 100.41Z" fill="#1CB0F6"/>
<mask id="mask0_325_183" style="mask-type:alpha" maskUnits="userSpaceOnUse" x="42" y="78" width="149" height="183">
<path d="M66.7952 100.41C69.162 87.4996 80.4136 78.1233 93.5387 78.1233H151.53C165.591 78.1233 177.332 88.8445 178.607 102.848L190.299 231.293C191.748 247.217 179.211 260.947 163.222 260.947H69.9904C53.0107 260.947 40.1849 245.556 43.2469 228.855L66.7952 100.41Z" fill="#1CB0F6"/>
</mask>
<g mask="url(#mask0_325_183)">
<path d="M30.5698 163.292L114.944 171.778L199.756 163.292V292.113H30.5698V163.292Z" fill="#B0691C"/>
<mask id="mask1_325_183" style="mask-type:alpha" maskUnits="userSpaceOnUse" x="30" y="163" width="170" height="130">
<path d="M30.5693 163.292L114.944 171.778L199.756 163.292V292.113H30.5693V163.292Z" fill="#E5A259"/>
</mask>
<g mask="url(#mask1_325_183)">
<path d="M112.189 249.321C112.943 252.11 116.899 252.11 117.653 249.321L137.733 175.101C138.22 173.302 136.865 171.532 135.001 171.532H94.8412C92.9772 171.532 91.6221 173.302 92.1089 175.101L112.189 249.321Z" fill="#D9D9D9"/>
<path d="M118.883 192.761C118.883 195.106 116.982 197.007 114.637 197.007C112.292 197.007 110.391 195.106 110.391 192.761C110.391 190.416 112.292 188.515 114.637 188.515C116.982 188.515 118.883 190.416 118.883 192.761Z" fill="#E5A259"/>
<circle cx="114.637" cy="211.442" r="4.24583" fill="#E5A259"/>
<path d="M61.624 182.67C57.6046 177.88 58.2294 170.738 63.0195 166.719L91.0173 143.226L115.034 171.848L87.0362 195.341C82.2461 199.36 75.1045 198.736 71.0851 193.945L61.624 182.67Z" fill="#E5A259"/>
<path d="M168.33 182.67C172.349 177.88 171.724 170.738 166.934 166.719L138.936 143.226L114.92 171.848L142.917 195.341C147.708 199.36 154.849 198.736 158.869 193.945L168.33 182.67Z" fill="#E5A259"/>
</g>
</g>
<rect x="93.9746" y="100.202" width="17.8751" height="29.967" rx="8.93753" fill="#F7F7F7"/>
<rect x="117.983" y="100.202" width="17.8835" height="29.967" rx="8.94177" fill="#F7F7F7"/>
<path d="M99.0566 113.191C99.0566 111.147 100.714 109.49 102.758 109.49H103.089C105.133 109.49 106.79 111.147 106.79 113.191V117.388C106.79 119.433 105.133 121.09 103.089 121.09H102.758C100.714 121.09 99.0566 119.433 99.0566 117.388V113.191Z" fill="#4B4B4B"/>
<path d="M123.065 113.191C123.065 111.147 124.722 109.49 126.766 109.49H127.097C129.141 109.49 130.798 111.147 130.798 113.191V117.388C130.798 119.433 129.141 121.09 127.097 121.09H126.766C124.722 121.09 123.065 119.433 123.065 117.388V113.191Z" fill="#4B4B4B"/>
<mask id="mask2_325_183" style="mask-type:alpha" maskUnits="userSpaceOnUse" x="93" y="100" width="43" height="31">
<rect x="93.9746" y="100.202" width="17.8751" height="29.967" rx="8.93753" fill="#F7F7F7"/>
<rect x="117.983" y="100.202" width="17.8835" height="29.967" rx="8.94177" fill="#F7F7F7"/>
<path d="M99.0566 113.191C99.0566 111.147 100.714 109.49 102.758 109.49H103.089C105.133 109.49 106.79 111.147 106.79 113.191V117.388C106.79 119.433 105.133 121.09 103.089 121.09H102.758C100.714 121.09 99.0566 119.433 99.0566 117.388V113.191Z" fill="#4B4B4B"/>
<path d="M123.065 113.191C123.065 111.147 124.722 109.49 126.766 109.49H127.097C129.141 109.49 130.798 111.147 130.798 113.191V117.388C130.798 119.433 129.141 121.09 127.097 121.09H126.766C124.722 121.09 123.065 119.433 123.065 117.388V113.191Z" fill="#4B4B4B"/>
</mask>
<g mask="url(#mask2_325_183)">
<rect x="93.9746" y="77.4197" width="41.8837" height="35.7501" fill="#1CB0F6"/>
<rect x="93.9746" y="117.901" width="41.8837" height="35.7501" fill="#1CB0F6"/>
</g>
<circle opacity="0.5" cx="134.451" cy="114.637" r="18.6345" fill="#D2E4E8"/>
<path d="M134.451 92.2761C146.801 92.2761 156.812 102.288 156.812 114.637C156.812 126.987 146.801 136.999 134.451 136.999C122.101 136.999 112.09 126.987 112.09 114.637C112.09 102.288 122.101 92.2762 134.451 92.2761ZM134.451 96.0027C124.16 96.0027 115.816 104.346 115.816 114.637C115.816 124.929 124.16 133.272 134.451 133.272C144.743 133.272 153.086 124.929 153.086 114.637C153.086 104.346 144.743 96.0027 134.451 96.0027Z" fill="#E7A601"/>
<mask id="mask3_325_183" style="mask-type:alpha" maskUnits="userSpaceOnUse" x="115" y="96" width="39" height="38">
<circle cx="134.452" cy="114.637" r="18.6345" fill="#D9D9D9"/>
</mask>
<g mask="url(#mask3_325_183)">
<rect opacity="0.4" x="156.247" y="105.113" width="45.5377" height="16.7971" transform="rotate(136 156.247 105.113)" fill="#DDF4FF"/>
</g>
<path d="M32.8267 95.6928C28.0361 89.777 33.2147 82.5855 40.489 80.3425C46.9917 78.3374 50.9262 71.5435 51.5492 53.3116C52.1366 33.0609 59.2123 27.7041 79.6255 27.3755C82.1298 27.3352 84.4965 28.4964 86.0727 30.4429L98.8845 46.2641C101.81 49.8762 101.253 55.1756 97.6404 58.1006L46.6507 99.3913C43.0386 102.316 37.7392 101.759 34.8142 98.1472L32.8267 95.6928Z" fill="#E5A259"/>
<mask id="mask4_325_183" style="mask-type:alpha" maskUnits="userSpaceOnUse" x="30" y="27" width="71" height="75">
<path d="M32.8272 95.6926C28.0366 89.7767 33.2152 82.5853 40.4895 80.3423C46.9922 78.3372 50.9266 71.5432 51.5497 53.3114C52.1371 33.0607 59.2128 27.7039 79.626 27.3752C82.1303 27.3349 84.497 28.4962 86.0732 30.4426L98.885 46.2639C101.81 49.876 101.253 55.1753 97.6409 58.1003L46.6511 99.3911C43.0391 102.316 37.7397 101.759 34.8147 98.147L32.8272 95.6926Z" fill="#E5A259"/>
</mask>
<g mask="url(#mask4_325_183)">
<path d="M20.0688 105.714L96.7052 43.6552L106.645 55.9303L30.009 117.989L20.0688 105.714Z" fill="#B0691C"/>
</g>
<rect x="23.6621" y="109.163" width="113.537" height="7.0039" rx="3.50195" transform="rotate(-39 23.6621 109.163)" fill="#E5A259"/>
<path d="M247.345 91.6172C255.096 91.6172 261.611 85.1378 258.881 77.8833C258.731 77.4859 258.575 77.0907 258.412 76.6979C256.453 71.9678 253.581 67.6701 249.961 64.0499C246.341 60.4297 242.043 57.558 237.313 55.5987C232.583 53.6395 227.514 52.6311 222.394 52.6311C217.274 52.6311 212.205 53.6395 207.475 55.5987C202.745 57.558 198.447 60.4297 194.827 64.0499C191.206 67.6701 188.335 71.9678 186.375 76.6979C186.213 77.0907 186.056 77.4859 185.907 77.8833C183.176 85.1378 189.691 91.6172 197.443 91.6172L247.345 91.6172Z" fill="#1453A3"/>
<path d="M230.104 39.3242C236.605 35.1026 238.54 26.1201 232.299 21.5232C231.957 21.2714 231.611 21.025 231.261 20.7841C227.041 17.8843 222.292 15.8439 217.284 14.7794C212.276 13.715 207.108 13.6473 202.074 14.5803C197.04 15.5133 192.239 17.4287 187.945 20.2171C183.652 23.0055 179.949 26.6123 177.049 30.8316C174.149 35.0509 172.109 39.8001 171.044 44.8079C169.98 49.8158 169.912 54.9842 170.845 60.0182C170.923 60.4364 171.007 60.8529 171.098 61.2676C172.759 68.8389 181.752 70.7246 188.253 66.5029L230.104 39.3242Z" fill="#1453A3"/>
<path d="M122.548 137.929C127.216 137.929 130.707 133.609 126.899 130.908C124.274 129.046 120.713 128 117 128C113.287 128 109.726 129.046 107.101 130.908C103.293 133.609 106.784 137.929 111.452 137.929L122.548 137.929Z" fill="#FFAADE"/>
<path d="M104.165 158.235C104.165 157.42 104.606 156.666 105.317 156.266C114.86 150.904 120.535 148.06 127.315 156.436C127.562 156.74 127.695 157.127 127.695 157.519C127.695 159.196 125.485 159.983 124.219 158.882C118.908 154.261 114.306 155.766 107.781 160.119C106.249 161.14 104.165 160.077 104.165 158.235Z" fill="#1453A3"/>
</svg>
