<svg width="278" height="270" viewBox="0 0 278 270" fill="none" xmlns="http://www.w3.org/2000/svg">
<circle cx="208.356" cy="234.902" r="24.3677" fill="#1453A3"/>
<path d="M71.9325 102.24C74.3981 88.7917 86.1191 79.0242 99.7919 79.0242H160.203C174.851 79.0242 187.082 90.1928 188.41 104.78L200.59 238.586C202.1 255.174 189.039 269.477 172.382 269.477H75.261C57.5728 269.477 44.2119 253.444 47.4015 236.046L71.9325 102.24Z" fill="#1CB0F6"/>
<mask id="mask0_325_265" style="mask-type:alpha" maskUnits="userSpaceOnUse" x="46" y="79" width="155" height="191">
<path d="M71.9325 102.24C74.3981 88.7917 86.1191 79.0242 99.7919 79.0242H160.203C174.851 79.0242 187.082 90.1928 188.41 104.78L200.59 238.586C202.1 255.174 189.039 269.477 172.382 269.477H75.261C57.5728 269.477 44.2119 253.444 47.4015 236.046L71.9325 102.24Z" fill="#1CB0F6"/>
</mask>
<g mask="url(#mask0_325_265)">
<path d="M34.1958 167.746L122.091 176.587L210.442 167.746V301.943H34.1958V167.746Z" fill="#4B4B4B"/>
<mask id="mask1_325_265" style="mask-type:alpha" maskUnits="userSpaceOnUse" x="34" y="167" width="177" height="135">
<path d="M34.1953 167.746L122.091 176.587L210.441 167.746V301.943H34.1953V167.746Z" fill="#4B4B4B"/>
</mask>
<g mask="url(#mask1_325_265)">
<rect x="76.5488" y="167.746" width="91.9941" height="151.425" fill="#D9D9D9"/>
</g>
<path d="M125.029 188.442C129.884 185.17 129.884 178.023 125.029 174.751L102.627 159.649C97.1435 155.952 89.7559 159.881 89.7559 166.495V196.698C89.7559 203.312 97.1435 207.241 102.627 203.544L125.029 188.442Z" fill="#EA2B2B"/>
<path d="M119.949 188.442C115.094 185.17 115.094 178.023 119.949 174.751L142.35 159.649C147.834 155.952 155.222 159.881 155.222 166.495V196.698C155.222 203.312 147.834 207.241 142.35 203.544L119.949 188.442Z" fill="#EA2B2B"/>
<ellipse cx="122.547" cy="223.964" rx="6.83125" ry="6.80053" fill="#4B4B4B"/>
<ellipse cx="122.547" cy="254.34" rx="6.83125" ry="6.80053" fill="#4B4B4B"/>
</g>
<rect x="34.7397" y="94.2979" width="82.3762" height="15.6666" rx="7.83332" transform="rotate(-40 34.7397 94.2979)" fill="#4B4B4B"/>
<rect x="17.7051" y="51.196" width="53.0644" height="55.6742" rx="12.3237" transform="rotate(-40 17.7051 51.196)" fill="#4B4B4B"/>
<rect x="36.3843" y="73.4568" width="53.0644" height="14.9086" transform="rotate(-40 36.3843 73.4568)" fill="#F0F5F7"/>
<rect x="23.6816" y="186.399" width="4.67239" height="42.3976" rx="2.3362" transform="rotate(-23 23.6816 186.399)" fill="#58A700"/>
<path d="M1.82565 178.757C0.817371 176.381 1.92561 173.638 4.30096 172.63L31.6997 161C34.075 159.992 36.818 161.1 37.8263 163.475L42.289 173.989C46.0233 182.786 41.9188 192.945 33.1212 196.68L28.9795 198.438C20.1819 202.172 10.0227 198.068 6.28835 189.27L1.82565 178.757Z" fill="#FF7878"/>
<mask id="mask2_325_265" style="mask-type:alpha" maskUnits="userSpaceOnUse" x="1" y="160" width="43" height="40">
<path d="M1.82565 178.757C0.817371 176.381 1.92561 173.638 4.30096 172.63L31.6997 161C34.075 159.992 36.818 161.1 37.8263 163.475L42.289 173.989C46.0233 182.786 41.9188 192.945 33.1212 196.68L28.9795 198.438C20.1819 202.172 10.0227 198.068 6.28835 189.27L1.82565 178.757Z" fill="#D9D9D9"/>
</mask>
<g mask="url(#mask2_325_265)">
<rect x="-26.3467" y="190.197" width="58.9899" height="41.0132" rx="16.4399" transform="rotate(-11 -26.3467 190.197)" fill="#EA2B2B"/>
<rect x="16.4072" y="184.763" width="58.9899" height="41.0132" rx="16.4399" transform="rotate(-35 16.4072 184.763)" fill="#FF4B4B"/>
</g>
<path d="M46.0867 208.156C45.9728 208.528 45.8252 208.895 45.6425 209.254C43.9461 212.583 39.8719 213.907 36.5425 212.211C33.2131 210.514 31.8894 206.44 33.5858 203.111C34.0113 202.275 34.5865 201.566 35.2619 201L44.462 192.717C47.2167 190.237 51.459 193.077 50.215 196.569L46.0867 208.156Z" fill="#58A700"/>
<path d="M265.323 95.44C273.397 95.44 280.184 88.6902 277.34 81.1331C277.184 80.7191 277.021 80.3074 276.852 79.8981C274.811 74.9708 271.819 70.4936 268.048 66.7224C264.277 62.9511 259.8 59.9596 254.872 57.9186C249.945 55.8776 244.664 54.8271 239.33 54.8271C233.997 54.8271 228.716 55.8776 223.789 57.9186C218.861 59.9596 214.384 62.9511 210.613 66.7224C206.842 70.4936 203.85 74.9708 201.809 79.8981C201.64 80.3074 201.477 80.7191 201.321 81.1331C198.476 88.6902 205.263 95.44 213.338 95.44L265.323 95.44Z" fill="#1453A3"/>
<path d="M247.363 40.9652C254.135 36.5674 256.151 27.21 249.65 22.4214C249.293 22.159 248.933 21.9024 248.568 21.6514C244.172 18.6306 239.225 16.5051 234.008 15.3962C228.791 14.2873 223.407 14.2168 218.163 15.1888C212.919 16.1607 207.918 18.156 203.445 21.0608C198.972 23.9655 195.115 27.7228 192.094 32.1182C189.073 36.5135 186.948 41.4609 185.839 46.6777C184.73 51.8945 184.66 57.2786 185.632 62.5227C185.712 62.9582 185.8 63.3921 185.895 63.8242C187.625 71.7114 196.993 73.6758 203.765 69.2779L247.363 40.9652Z" fill="#1453A3"/>
<rect x="99.6562" y="90.229" width="21.1925" height="35.5287" rx="10.5963" fill="#F7F7F7"/>
<rect x="128.121" y="90.229" width="21.2026" height="35.5287" rx="10.6013" fill="#F7F7F7"/>
<path d="M105.681 105.629C105.681 103.206 107.645 101.241 110.069 101.241H110.461C112.885 101.241 114.849 103.206 114.849 105.629V110.606C114.849 113.029 112.885 114.994 110.461 114.994H110.069C107.645 114.994 105.681 113.029 105.681 110.606V105.629Z" fill="#4B4B4B"/>
<path d="M134.146 105.629C134.146 103.206 136.111 101.241 138.535 101.241H138.927C141.35 101.241 143.315 103.206 143.315 105.629V110.606C143.315 113.029 141.35 114.994 138.927 114.994H138.535C136.111 114.994 134.146 113.029 134.146 110.606V105.629Z" fill="#4B4B4B"/>
<path d="M105.682 105.63C105.682 103.206 107.646 101.241 110.07 101.241H110.462C112.886 101.241 114.85 103.206 114.85 105.63V110.606C114.85 113.029 112.886 114.994 110.462 114.994H110.07C107.646 114.994 105.682 113.029 105.682 110.606V105.63Z" fill="#4B4B4B"/>
<path d="M134.146 105.63C134.146 103.206 136.111 101.241 138.534 101.241H138.926C141.35 101.241 143.315 103.206 143.315 105.63V110.606C143.315 113.029 141.35 114.994 138.926 114.994H138.534C136.111 114.994 134.146 113.029 134.146 110.606V105.63Z" fill="#4B4B4B"/>
<mask id="mask3_325_265" style="mask-type:alpha" maskUnits="userSpaceOnUse" x="99" y="90" width="22" height="36">
<rect x="99.6562" y="90.229" width="21.1925" height="35.5287" rx="10.5963" fill="#F7F7F7"/>
</mask>
<g mask="url(#mask3_325_265)">
<path d="M94.0469 90.229H126.459V106.111C113.649 102.892 106.554 102.994 94.0469 106.111V90.229Z" fill="#1CB0F6"/>
<path d="M94.0469 90.229H126.459V106.111C113.649 102.892 106.554 102.994 94.0469 106.111V90.229Z" fill="#1CB0F6"/>
</g>
<mask id="mask4_325_265" style="mask-type:alpha" maskUnits="userSpaceOnUse" x="128" y="90" width="22" height="36">
<rect x="128.121" y="90.229" width="21.2026" height="35.5287" rx="10.6013" fill="#F7F7F7"/>
</mask>
<g mask="url(#mask4_325_265)">
<path d="M126.458 90.229H158.871V106.111C146.06 102.892 138.966 102.994 126.458 106.111V90.229Z" fill="#1CB0F6"/>
<path d="M126.458 90.229H158.871V106.111C146.06 102.892 138.966 102.994 126.458 106.111V90.229Z" fill="#1CB0F6"/>
</g>
<path d="M132.583 139.305C137.911 139.305 141.895 134.373 137.55 131.291C134.553 129.166 130.489 127.972 126.251 127.972C122.013 127.972 117.948 129.166 114.952 131.291C110.606 134.373 114.59 139.305 119.918 139.305H132.583Z" fill="#FFAADE"/>
<rect x="114.989" y="150.972" width="16.5125" height="8.25626" rx="4.12813" fill="#1453A3"/>
</svg>
