<svg width="379" height="378" viewBox="0 0 379 378" fill="none" xmlns="http://www.w3.org/2000/svg">
<circle cx="286.775" cy="241.789" r="29.1579" transform="rotate(-29 286.775 241.789)" fill="#1453A3"/>
<path d="M110.578 200.293C106.236 187.399 111.725 173.243 123.626 166.646L176.205 137.501C188.954 130.434 204.988 134.254 213.182 146.31L288.337 256.893C297.654 270.602 293.187 289.352 278.69 297.388L194.159 344.245C178.764 352.778 159.4 345.27 153.782 328.588L110.578 200.293Z" fill="#1CB0F6"/>
<path d="M177.475 210.811C182.112 208.241 183.201 202.026 177.931 201.441C174.298 201.036 170.184 201.958 166.496 204.003C162.807 206.047 159.846 209.047 158.263 212.343C155.967 217.122 161.814 219.492 166.452 216.921L177.475 210.811Z" fill="#FFAADE"/>
<rect x="128.358" y="179.025" width="17.9807" height="30.1298" rx="8.99035" transform="rotate(-29 128.358 179.025)" fill="#F7F7F7"/>
<rect x="150.459" y="166.774" width="17.9807" height="30.1298" rx="8.99035" transform="rotate(-29 150.459 166.774)" fill="#F7F7F7"/>
<path d="M134.971 187.949C133.975 186.152 134.624 183.887 136.422 182.89L136.713 182.729C138.51 181.733 140.775 182.382 141.772 184.18L143.818 187.871C144.814 189.668 144.165 191.933 142.367 192.93L142.076 193.091C140.279 194.087 138.014 193.438 137.017 191.64L134.971 187.949Z" fill="#4B4B4B"/>
<path d="M157.072 175.698C156.076 173.901 156.725 171.636 158.523 170.639L158.814 170.478C160.611 169.482 162.876 170.131 163.873 171.929L165.919 175.62C166.915 177.417 166.266 179.682 164.468 180.679L164.177 180.84C162.38 181.836 160.115 181.187 159.118 179.389L157.072 175.698Z" fill="#4B4B4B"/>
<path d="M285.933 107.238C294.383 102.553 297.571 91.5521 290.21 85.2933C289.807 84.9504 289.398 84.6139 288.983 84.284C283.988 80.3112 278.26 77.3611 272.126 75.602C265.991 73.843 259.57 73.3094 253.229 74.0319C246.889 74.7543 240.752 76.7186 235.171 79.8125C229.589 82.9065 224.671 87.0695 220.699 92.064C216.726 97.0584 213.776 102.786 212.017 108.921C210.258 115.056 209.724 121.477 210.447 127.817C210.507 128.344 210.575 128.869 210.652 129.393C212.059 138.952 223.078 142.079 231.528 137.394L285.933 107.238Z" fill="#1453A3"/>
<path d="M235.535 60.6452C240.071 52.114 236.753 41.1517 227.17 39.9117C226.646 39.8438 226.119 39.7844 225.592 39.7336C219.239 39.1219 212.828 39.7675 206.726 41.6333C200.623 43.4992 194.947 46.5488 190.023 50.6081C185.098 54.6674 181.022 59.6569 178.026 65.2917C175.03 70.9265 173.173 77.0962 172.561 83.4486C171.949 89.801 172.595 96.2117 174.461 102.315C176.327 108.418 179.376 114.093 183.436 119.018C183.773 119.427 184.116 119.83 184.466 120.227C190.852 127.477 201.796 124.099 206.332 115.568L235.535 60.6452Z" fill="#1453A3"/>
<path d="M177.694 316.144C166.113 295.253 173.662 268.929 194.554 257.348C215.446 245.767 241.77 253.316 253.35 274.208L259.711 285.684C264.916 295.073 261.524 306.904 252.134 312.109L210.481 335.198C201.091 340.402 189.26 337.01 184.055 327.62L177.694 316.144Z" fill="#F7F7F7" fill-opacity="0.968627"/>
<path d="M165.033 243.337C163.288 241.766 163.147 239.078 164.718 237.333L191.054 208.084C192.625 206.339 195.313 206.199 197.058 207.77C206.88 216.613 207.673 231.744 198.829 241.566L-nan -nanL198.829 241.566C189.986 251.387 174.855 252.18 165.033 243.337Z" fill="#4B4B4B"/>
<path fill-rule="evenodd" clip-rule="evenodd" d="M171.309 229.953L185.919 248.281C187.398 250.136 190 250.652 192.075 249.502L204.757 242.472C206.84 241.318 207.779 238.824 206.975 236.582L197.666 210.631C196.725 208.008 193.806 206.751 191.294 207.757L171.309 229.953Z" fill="#F0F0F0"/>
<path d="M44.9695 216.287C44.4893 215.421 44.8023 214.33 45.6685 213.849L236.068 108.309C236.934 107.829 238.026 108.142 238.506 109.008L239.897 111.518C242.777 116.715 240.9 123.263 235.703 126.144L60.9868 222.991C55.7897 225.871 49.2412 223.994 46.3604 218.796L44.9695 216.287Z" fill="#FF7878"/>
<path d="M230.142 112.415C234.206 119.747 236.997 127.691 238.356 135.793C239.715 143.895 239.615 151.997 238.062 159.636C236.508 167.275 233.532 174.301 229.302 180.313C225.073 186.325 219.674 191.206 213.413 194.677C207.151 198.148 200.151 200.14 192.811 200.541C185.471 200.941 177.935 199.742 170.634 197.011C163.333 194.281 156.409 190.073 150.258 184.627C144.107 179.181 138.849 172.604 134.785 165.272L230.142 112.415Z" fill="#FF7878"/>
<path d="M147.96 157.968C152.024 165.301 154.815 173.245 156.174 181.347C157.533 189.449 157.433 197.551 155.879 205.19C154.326 212.828 151.35 219.854 147.12 225.867C142.891 231.879 137.492 236.76 131.231 240.231C124.969 243.701 117.969 245.694 110.629 246.094C103.289 246.495 95.7533 245.296 88.4521 242.565C81.1509 239.835 74.2271 235.626 68.0761 230.18C61.9251 224.734 56.6674 218.158 52.6031 210.825L147.96 157.968Z" fill="#FF7878"/>
<path d="M132.959 181.866C135.038 180.713 137.677 181.458 138.641 183.631C140.265 187.29 141.424 191.124 142.077 195.014C142.962 200.295 142.897 205.574 141.885 210.552C140.872 215.531 138.933 220.109 136.176 224.028C133.42 227.946 129.902 231.126 125.821 233.388C121.741 235.65 117.179 236.948 112.396 237.21C107.612 237.471 102.701 236.689 97.9432 234.91C93.185 233.13 88.6729 230.388 84.6644 226.839C81.7112 224.224 79.074 221.209 76.8309 217.892C75.4994 215.923 76.2661 213.291 78.345 212.139L132.959 181.866Z" fill="#4B4B4B"/>
<path d="M216.917 136.557C218.996 135.405 221.635 136.149 222.599 138.322C224.223 141.982 225.382 145.816 226.035 149.706C226.92 154.986 226.855 160.266 225.843 165.244C224.83 170.222 222.891 174.801 220.134 178.719C217.378 182.637 213.86 185.818 209.779 188.08C205.699 190.341 201.137 191.64 196.354 191.901C191.57 192.162 186.659 191.38 181.901 189.601C177.143 187.822 172.631 185.079 168.622 181.53C165.669 178.915 163.032 175.901 160.789 172.584C159.457 170.615 160.224 167.983 162.303 166.83L216.917 136.557Z" fill="#4B4B4B"/>
</svg>
