<svg width="286" height="282" viewBox="0 0 286 282" fill="none" xmlns="http://www.w3.org/2000/svg">
<circle cx="224.821" cy="240.052" r="28.0264" fill="#1453A3"/>
<path d="M77.3711 108.674C79.9183 94.7793 92.0277 84.6882 106.153 84.6882H168.566C183.699 84.6882 196.335 96.2268 197.707 111.298L210.29 249.536C211.85 266.673 198.357 281.45 181.149 281.45H80.8098C62.5357 281.45 48.7321 264.886 52.0274 246.912L77.3711 108.674Z" fill="#1CB0F6"/>
<mask id="mask0_325_334" style="mask-type:alpha" maskUnits="userSpaceOnUse" x="51" y="84" width="160" height="198">
<path d="M77.3711 108.674C79.9183 94.7793 92.0277 84.6882 106.153 84.6882H168.566C183.699 84.6882 196.335 96.2268 197.707 111.298L210.29 249.536C211.85 266.673 198.357 281.45 181.149 281.45H80.8098C62.5357 281.45 48.7321 264.886 52.0274 246.912L77.3711 108.674Z" fill="#1CB0F6"/>
</mask>
<g mask="url(#mask0_325_334)">
<path d="M38.3828 176.349L129.19 185.483L220.468 176.349V314.992H38.3828V176.349Z" fill="#4B4B4B"/>
<mask id="mask1_325_334" style="mask-type:alpha" maskUnits="userSpaceOnUse" x="38" y="176" width="183" height="139">
<path d="M38.3828 176.349L129.19 185.483L220.468 176.349V314.992H38.3828V176.349Z" fill="#4B4B4B"/>
</mask>
<g mask="url(#mask1_325_334)">
<rect x="82.1396" y="176.349" width="95.0417" height="156.442" fill="#D9D9D9"/>
</g>
<path d="M132.227 197.731C137.242 194.35 137.242 186.967 132.227 183.586L109.083 167.984C103.417 164.164 95.7852 168.224 95.7852 175.056V206.261C95.7852 213.093 103.418 217.153 109.083 213.334L132.227 197.731Z" fill="#6F4EA1"/>
<path d="M126.978 197.731C121.962 194.35 121.962 186.967 126.978 183.586L150.121 167.984C155.787 164.164 163.419 168.224 163.419 175.056V206.261C163.419 213.093 155.787 217.153 150.121 213.334L126.978 197.731Z" fill="#6F4EA1"/>
<ellipse cx="129.661" cy="234.43" rx="7.05755" ry="7.02582" fill="#4B4B4B"/>
<ellipse cx="129.661" cy="265.811" rx="7.05755" ry="7.02582" fill="#4B4B4B"/>
</g>
<path d="M38.2852 64.1968L93.7046 33.4773L109.951 62.7856C111.582 65.7286 110.519 69.4369 107.576 71.0682L62.8136 95.8802C59.8706 97.5115 56.1624 96.4482 54.5311 93.5052L38.2852 64.1968Z" fill="#4B4B4B"/>
<rect x="4.13574" y="69.1946" width="127.337" height="12.1854" rx="6.0927" transform="rotate(-29 4.13574 69.1946)" fill="#4B4B4B"/>
<path d="M57.8989 37.9998C57.5726 37.4112 56.8309 37.1985 56.2423 37.5248L16.8093 59.3829C15.632 60.0355 15.2067 61.5188 15.8593 62.696L38.1604 102.928C38.5683 103.664 39.4953 103.93 40.2311 103.522C40.9668 103.114 41.2327 102.187 40.8248 101.451L19.7052 63.3506C19.0526 62.1734 19.478 60.6901 20.6552 60.0376L57.4239 39.6563C58.0125 39.3301 58.2251 38.5884 57.8989 37.9998Z" fill="#F8DD17"/>
<path d="M54.1436 36.2503C53.0832 34.3374 53.7744 31.927 55.6873 30.8667C57.6003 29.8063 60.0107 30.4974 61.071 32.4104L66.2402 41.7358L59.3128 45.5757L54.1436 36.2503Z" fill="#4B4B4B"/>
<path d="M36.2607 109.554C34.5478 106.464 35.6643 102.571 38.7544 100.858C41.8446 99.1448 45.7382 100.261 47.4511 103.351L49.5188 107.082C50.0898 108.112 49.7176 109.41 48.6875 109.981L41.2272 114.116C40.1972 114.687 38.8993 114.315 38.3283 113.285L36.2607 109.554Z" fill="#F8DD17"/>
<rect x="111.496" y="98.7017" width="20.3518" height="34.1191" rx="10.1759" fill="#F7F7F7"/>
<rect x="138.831" y="98.7017" width="20.3614" height="34.1191" rx="10.1807" fill="#F7F7F7"/>
<path d="M113.147 111.17C113.147 108.843 115.034 106.956 117.362 106.956H117.738C120.066 106.956 121.952 108.843 121.952 111.17V115.949C121.952 118.277 120.066 120.163 117.738 120.163H117.362C115.034 120.163 113.147 118.277 113.147 115.949V111.17Z" fill="#4B4B4B"/>
<path d="M140.482 111.17C140.482 108.843 142.369 106.956 144.697 106.956H145.073C147.401 106.956 149.287 108.843 149.287 111.17V115.949C149.287 118.277 147.401 120.163 145.073 120.163H144.697C142.369 120.163 140.482 118.277 140.482 115.949V111.17Z" fill="#4B4B4B"/>
<path d="M143.848 162.048C142.433 160.477 143.195 157.967 145.196 157.282C151.627 155.08 154.941 152.285 157.059 147.199C157.857 145.284 160.413 144.643 161.8 146.184C162.436 146.89 162.639 147.891 162.297 148.777C159.273 156.612 155.578 160.045 146.72 162.849C145.691 163.174 144.57 162.85 143.848 162.048Z" fill="#1453A3"/>
<path d="M141.598 146.834C147.041 146.834 151.111 141.796 146.672 138.648C143.611 136.477 139.459 135.258 135.13 135.258C130.801 135.258 126.649 136.477 123.588 138.648C119.149 141.796 123.219 146.834 128.662 146.834L141.598 146.834Z" fill="#FFAADE"/>
<path d="M272.904 107.132C281.247 107.132 288.258 100.158 285.32 92.3507C285.159 91.9231 284.991 91.4977 284.815 91.0749C282.707 85.9843 279.616 81.3588 275.72 77.4626C271.824 73.5665 267.198 70.4758 262.108 68.3672C257.017 66.2586 251.561 65.1733 246.051 65.1733C240.541 65.1733 235.085 66.2586 229.994 68.3672C224.904 70.4758 220.278 73.5665 216.382 77.4626C212.486 81.3588 209.395 85.9843 207.287 91.0749C207.111 91.4977 206.943 91.9231 206.782 92.3507C203.844 100.158 210.855 107.132 219.198 107.132L272.904 107.132Z" fill="#1453A3"/>
<path d="M254.348 50.8519C261.345 46.3084 263.427 36.6411 256.71 31.6938C256.342 31.4228 255.97 31.1576 255.592 30.8984C251.052 27.7774 245.94 25.5815 240.551 24.4359C235.161 23.2903 229.599 23.2175 224.181 24.2216C218.763 25.2257 213.596 27.2871 208.975 30.2881C204.354 33.2891 200.369 37.1709 197.248 41.7118C194.127 46.2528 191.931 51.364 190.786 56.7537C189.64 62.1433 189.567 67.7058 190.571 73.1236C190.655 73.5736 190.745 74.0218 190.843 74.4682C192.631 82.6167 202.31 84.6462 209.306 80.1026L254.348 50.8519Z" fill="#1453A3"/>
</svg>
