<svg width="282" height="265" viewBox="0 0 282 265" fill="none" xmlns="http://www.w3.org/2000/svg">
<circle cx="211.979" cy="219.357" r="24.2747" fill="#1453A3"/>
<path d="M79.9012 104.566C82.0266 92.9741 92.1293 84.5554 103.914 84.5554H164.986C177.612 84.5554 188.154 94.1819 189.299 106.755L201.217 237.665C202.518 251.963 191.261 264.292 176.904 264.292H79.9111C64.6647 264.292 53.1483 250.472 55.898 235.475L79.9012 104.566Z" fill="#1CB0F6"/>
<path d="M269.008 97.8088C277.283 97.8088 284.238 90.8915 281.323 83.1468C281.163 82.7225 280.997 82.3006 280.823 81.8812C278.731 76.8315 275.665 72.2433 271.801 68.3784C267.936 64.5136 263.347 61.4478 258.298 59.3562C253.248 57.2645 247.836 56.188 242.37 56.188C236.905 56.188 231.492 57.2645 226.443 59.3562C221.393 61.4478 216.805 64.5136 212.94 68.3784C209.075 72.2433 206.009 76.8315 203.918 81.8812C203.744 82.3006 203.577 82.7225 203.417 83.1468C200.502 90.8915 207.458 97.8088 215.733 97.8088L269.008 97.8088Z" fill="#1453A3"/>
<path d="M250.601 41.9819C257.541 37.4749 259.607 27.8854 252.944 22.9778C252.579 22.709 252.21 22.446 251.836 22.1888C247.331 19.093 242.261 16.9147 236.915 15.7783C231.569 14.642 226.051 14.5697 220.677 15.5658C215.302 16.5618 210.177 18.6066 205.593 21.5835C201.009 24.5603 197.056 28.4109 193.961 32.9153C190.865 37.4198 188.687 42.4899 187.55 47.8362C186.414 53.1824 186.342 58.7002 187.338 64.0744C187.42 64.5208 187.51 64.9654 187.607 65.4082C189.381 73.4911 198.981 75.5043 205.921 70.9973L250.601 41.9819Z" fill="#1453A3"/>
<mask id="mask0_385_199" style="mask-type:alpha" maskUnits="userSpaceOnUse" x="55" y="84" width="147" height="181">
<path d="M79.9012 104.566C82.0266 92.9741 92.1293 84.5554 103.914 84.5554H164.986C177.612 84.5554 188.154 94.1819 189.299 106.755L201.217 237.665C202.518 251.963 191.261 264.292 176.904 264.292H79.9111C64.6647 264.292 53.1483 250.472 55.898 235.475L79.9012 104.566Z" fill="#1CB0F6"/>
</mask>
<g mask="url(#mask0_385_199)">
<path d="M50.6143 165.274L131.787 173.438L213.38 165.274V289.207H50.6143V165.274Z" fill="#E68700"/>
<path d="M86.0303 198.034C86.0303 192.084 90.8532 187.261 96.8026 187.261H168.963C174.912 187.261 179.735 192.084 179.735 198.034V289.23H86.0303V198.034Z" fill="#58A700"/>
<mask id="mask1_385_199" style="mask-type:alpha" maskUnits="userSpaceOnUse" x="50" y="165" width="164" height="125">
<path d="M50.6143 165.274L131.787 173.438L213.38 165.274V289.207H50.6143V165.274Z" fill="#E68700"/>
</mask>
<g mask="url(#mask1_385_199)">
<path d="M50.6143 157.01L104.197 206.986" stroke="#407A00" stroke-width="22.135" stroke-linecap="round"/>
<path d="M211.05 157.305L157.158 207.57" stroke="#407A00" stroke-width="22.135" stroke-linecap="round"/>
</g>
<circle cx="104.18" cy="207.183" r="5.7551" fill="#1D3800"/>
<circle cx="156.863" cy="207.773" r="5.7551" fill="#1D3800"/>
</g>
<rect x="104.183" y="93.2617" width="19.6454" height="32.9349" rx="9.8227" fill="#F7F7F7"/>
<rect x="130.57" y="93.262" width="19.6547" height="32.9349" rx="9.82735" fill="#F7F7F7"/>
<path d="M105.776 105.298C105.776 103.051 107.598 101.23 109.844 101.23H110.208C112.454 101.23 114.276 103.051 114.276 105.298V109.911C114.276 112.158 112.454 113.979 110.208 113.979H109.844C107.598 113.979 105.776 112.158 105.776 109.911V105.298Z" fill="#4B4B4B"/>
<path d="M132.163 105.298C132.163 103.051 133.984 101.23 136.231 101.23H136.594C138.841 101.23 140.662 103.051 140.662 105.298V109.911C140.662 112.158 138.841 113.979 136.594 113.979H136.231C133.984 113.979 132.163 112.158 132.163 109.911V105.298Z" fill="#4B4B4B"/>
<path d="M139.142 160.839C137.892 159.451 138.602 157.233 140.38 156.661C145.442 155.03 148.087 152.821 149.702 148.808C150.382 147.118 152.634 146.51 153.853 147.864C154.382 148.452 154.565 149.282 154.303 150.029C151.989 156.621 148.97 159.437 141.563 161.552C140.688 161.801 139.751 161.515 139.142 160.839Z" fill="#1453A3"/>
<path d="M134.332 146.238C140.298 146.238 144.76 140.716 139.894 137.264C136.538 134.884 131.986 133.547 127.241 133.547C122.495 133.547 117.943 134.884 114.588 137.264C109.721 140.716 114.183 146.238 120.149 146.238L134.332 146.238Z" fill="#FFAADE"/>
<rect x="17.4102" y="82.5503" width="78.0627" height="39.5479" rx="6.1978" transform="rotate(-47 17.4102 82.5503)" fill="#D9B56D"/>
<rect x="22.124" y="121.853" width="129.121" height="18.5934" rx="4.27943" transform="rotate(-47 22.124 121.853)" fill="#D9B56D"/>
<rect x="31.873" y="96.0361" width="78.0627" height="10.4772" transform="rotate(-47 31.873 96.0361)" fill="#FF0F0F"/>
<rect x="60.9199" y="42.8171" width="2.25872" height="9.38238" rx="1.12936" transform="rotate(-47 60.9199 42.8171)" fill="#CC9D3D"/>
<rect x="63.6445" y="39.8948" width="2.25872" height="9.38238" rx="1.12936" transform="rotate(-47 63.6445 39.8948)" fill="#CC9D3D"/>
<rect x="66.7246" y="36.5911" width="2.25872" height="9.38238" rx="1.12936" transform="rotate(-47 66.7246 36.5911)" fill="#CC9D3D"/>
<rect x="46.9062" y="101.984" width="2.25872" height="9.38238" rx="1.12936" transform="rotate(-47 46.9062 101.984)" fill="#CC9D3D"/>
<rect x="49.6309" y="99.0615" width="2.25872" height="9.38238" rx="1.12936" transform="rotate(-47 49.6309 99.0615)" fill="#CC9D3D"/>
<rect x="52.7129" y="95.7581" width="2.25872" height="9.38238" rx="1.12936" transform="rotate(-47 52.7129 95.7581)" fill="#CC9D3D"/>
</svg>
