<svg width="228" height="267" viewBox="0 0 228 267" fill="none" xmlns="http://www.w3.org/2000/svg">
<circle cx="155.258" cy="223.579" r="27.5789" fill="#636366"/>
<path d="M213.416 108.018C222.555 108.018 230.236 100.378 227.017 91.8253C226.841 91.3568 226.657 90.8908 226.465 90.4276C224.155 84.8509 220.769 79.7838 216.501 75.5155C212.233 71.2473 207.165 67.8616 201.589 65.5516C196.012 63.2417 190.035 62.0527 183.999 62.0527C177.962 62.0527 171.985 63.2417 166.409 65.5516C160.832 67.8616 155.765 71.2473 151.497 75.5155C147.228 79.7838 143.843 84.8509 141.533 90.4276C141.341 90.8908 141.157 91.3568 140.98 91.8253C137.761 100.378 145.442 108.018 154.581 108.018L213.416 108.018Z" fill="#636366"/>
<path d="M193.089 46.3638C200.754 41.3864 203.035 30.796 195.677 25.3762C195.274 25.0793 194.866 24.7888 194.452 24.5049C189.478 21.0859 183.879 18.6803 177.974 17.4253C172.07 16.1703 165.976 16.0905 160.041 17.1905C154.106 18.2905 148.446 20.5488 143.383 23.8363C138.321 27.1239 133.956 31.3764 130.537 36.3509C127.118 41.3255 124.712 46.9248 123.457 52.8291C122.202 58.7334 122.122 64.8271 123.222 70.7622C123.314 71.2552 123.413 71.7462 123.52 72.2352C125.479 81.1618 136.082 83.3851 143.746 78.4077L193.089 46.3638Z" fill="#636366"/>
<path d="M106.619 87.7368C120.406 87.7368 131.919 98.2495 133.168 111.98L144.632 237.923C146.054 253.537 133.76 267 118.083 267H26.6675C10.0185 267 -2.55743 251.909 0.444839 235.533L5.61341 207.339C6.2946 203.623 9.4977 200.951 13.2375 200.417C40.6181 196.503 61.6673 172.957 61.6675 144.495C61.6675 126.99 53.7059 111.346 41.2069 100.983C36.953 97.4565 36.2916 90.7289 41.549 89.0279C44.1452 88.1879 46.9063 87.7368 49.7573 87.7368H106.619Z" fill="#8E8E93"/>
<path d="M28.6143 34.4677L28.8141 34.682C39.3327 37.094 48.825 42.2372 56.243 50.192C63.6609 58.1469 68.1295 67.975 69.8019 78.6361L69.6021 78.4218C59.0835 76.0097 49.5913 70.8667 42.1732 62.9118C34.7551 54.9568 30.2868 45.129 28.6143 34.4677Z" fill="#8E8E93"/>
</svg>
