<svg width="282" height="310" viewBox="0 0 282 310" fill="none" xmlns="http://www.w3.org/2000/svg">
<circle cx="201.573" cy="232.158" r="27.5789" transform="rotate(-13 201.573 232.158)" fill="#636366"/>
<path d="M232.245 106.477C241.149 104.421 246.915 95.2494 241.854 87.6398C241.577 87.2229 241.293 86.8103 241.002 86.4022C237.497 81.488 233.058 77.3124 227.939 74.1137C222.82 70.915 217.121 68.7559 211.167 67.7596C205.214 66.7633 199.123 66.9495 193.241 68.3073C187.36 69.6652 181.803 72.1682 176.889 75.6734C171.975 79.1786 167.799 83.6175 164.601 88.7364C161.402 93.8554 159.243 99.5543 158.247 105.508C158.164 106.002 158.089 106.498 158.023 106.994C156.81 116.052 166.013 121.767 174.918 119.712L232.245 106.477Z" fill="#636366"/>
<path d="M198.57 50.9751C204.919 44.4011 204.759 33.5689 196.371 29.9433C195.911 29.7447 195.448 29.5535 194.981 29.3697C189.365 27.1575 183.368 26.073 177.333 26.1784C171.298 26.2837 165.342 27.5768 159.807 29.9837C154.271 32.3906 149.264 35.8643 145.071 40.2064C140.878 44.5485 137.581 49.6739 135.369 55.2901C133.156 60.9063 132.072 66.9032 132.177 72.9385C132.283 78.9738 133.576 84.9292 135.983 90.4648C136.183 90.9245 136.39 91.3807 136.604 91.833C140.521 100.09 151.352 99.8714 157.7 93.2975L198.57 50.9751Z" fill="#636366"/>
<path d="M123.622 110.74C137.056 107.638 150.639 115.292 154.945 128.389L194.446 248.526C199.343 263.419 190.394 279.302 175.118 282.829L86.0457 303.393C69.8234 307.138 54.1751 295.263 53.4166 278.631L52.1104 249.997C51.9383 246.223 54.4583 242.9 57.982 241.538C83.7805 231.565 98.9935 203.888 92.591 176.155C88.6534 159.099 77.3766 145.646 62.8669 138.361C57.9287 135.882 55.7708 129.475 60.5109 126.635C62.8515 125.233 65.4404 124.172 68.2184 123.531L123.622 110.74Z" fill="#8E8E93"/>
<path d="M35.635 76.3828L35.8779 76.5466C46.6694 76.5307 57.0754 79.4067 66.0928 85.4889C75.11 91.5712 81.6749 100.142 85.7027 110.154L85.4598 109.99C74.6682 110.006 64.2623 107.13 55.2449 101.048C46.2275 94.9653 39.6628 86.3946 35.635 76.3828Z" fill="#8E8E93"/>
</svg>
