<svg width="231" height="262" viewBox="0 0 231 262" fill="none" xmlns="http://www.w3.org/2000/svg">
<circle cx="155.591" cy="219.712" r="27.5789" fill="#438000"/>
<path d="M28.8587 104.589C31.1794 91.9304 42.2118 82.7368 55.0813 82.7368H111.943C125.73 82.7368 137.243 93.2492 138.493 106.98L149.957 232.924C151.378 248.537 139.085 262 123.407 262H31.9916C15.3426 262 2.7667 246.909 5.76897 230.533L28.8587 104.589Z" fill="#58CC02"/>
<path d="M216.593 108.018C225.732 108.018 233.413 100.378 230.194 91.8253C230.017 91.3568 229.833 90.8908 229.641 90.4276C227.332 84.8509 223.946 79.7838 219.678 75.5155C215.409 71.2473 210.342 67.8616 204.765 65.5516C199.189 63.2417 193.212 62.0527 187.175 62.0527C181.139 62.0527 175.162 63.2417 169.585 65.5516C164.009 67.8616 158.942 71.2473 154.673 75.5155C150.405 79.7838 147.019 84.8509 144.709 90.4276C144.518 90.8908 144.333 91.3568 144.157 91.8253C140.938 100.378 148.619 108.018 157.758 108.018L216.593 108.018Z" fill="#438000"/>
<path d="M196.266 46.3638C203.931 41.3864 206.212 30.796 198.854 25.3762C198.451 25.0793 198.042 24.7888 197.629 24.5049C192.655 21.0859 187.055 18.6803 181.151 17.4253C175.247 16.1703 169.153 16.0905 163.218 17.1905C157.283 18.2905 151.622 20.5488 146.56 23.8363C141.498 27.1239 137.132 31.3764 133.714 36.3509C130.295 41.3255 127.889 46.9248 126.634 52.8291C125.379 58.7334 125.299 64.8271 126.399 70.7622C126.491 71.2552 126.59 71.7462 126.697 72.2352C128.655 81.1618 139.258 83.3851 146.923 78.4077L196.266 46.3638Z" fill="#438000"/>
<path d="M31.2559 231.203C31.2559 208.61 49.5713 190.295 72.1646 190.295C94.7579 190.295 113.073 208.61 113.073 231.203V243.614C113.073 253.768 104.842 262 94.6874 262H49.6418C39.4875 262 31.2559 253.768 31.2559 243.614V231.203Z" fill="#D7FFB8" fill-opacity="0.968627"/>
<path d="M69 217C70.1046 217 71.0202 217.904 70.8007 218.987C70.4131 220.899 69.4711 222.671 68.0711 224.071C66.1957 225.946 63.6522 227 61 227C58.3478 227 55.8043 225.946 53.9289 224.071C52.5289 222.671 51.5869 220.899 51.1993 218.987C50.9798 217.904 51.8954 217 53 217L69 217Z" fill="#5AC705"/>
<path d="M90 217C91.1046 217 92.0202 217.904 91.8007 218.987C91.4131 220.899 90.4711 222.671 89.0711 224.071C87.1957 225.946 84.6522 227 82 227C79.3478 227 76.8043 225.946 74.9289 224.071C73.5289 222.671 72.5869 220.899 72.1993 218.987C71.9798 217.904 72.8954 217 74 217L90 217Z" fill="#5AC705"/>
<path d="M80 228C81.1046 228 82.0202 228.904 81.8007 229.987C81.4131 231.899 80.4711 233.671 79.0711 235.071C77.1957 236.946 74.6522 238 72 238C69.3478 238 66.8043 236.946 64.9289 235.071C63.5289 233.671 62.5869 231.899 62.1993 229.987C61.9798 228.904 62.8954 228 64 228L80 228Z" fill="#5AC705"/>
<circle cx="73.9156" cy="158.464" r="20.6539" fill="#FF9600"/>
<path d="M93.9689 154.317C96.7475 153.676 98.5255 150.869 97.3447 148.274C95.6291 144.502 93.0195 141.175 89.7112 138.597C85.0355 134.954 79.2489 133.031 73.3229 133.151C67.397 133.271 61.6927 135.426 57.168 139.254C53.9664 141.963 51.4933 145.393 49.9314 149.231C48.8564 151.873 50.7463 154.605 53.5485 155.134L72.7803 158.763C73.482 158.895 74.2035 158.88 74.8993 158.72L93.9689 154.317Z" fill="#FFC800"/>
<rect x="64.6211" y="141.941" width="16.0068" height="8.20861" rx="4.1043" fill="#FBE56D"/>
<path d="M129.139 58C149.473 58.0003 145.638 83.88 145.638 107.524C145.638 131.169 129.153 150.337 108.818 150.337C98.1373 150.337 88.5195 145.048 81.7946 136.6C78.8882 132.949 71.7501 132.949 68.8437 136.6C62.1189 145.048 52.5012 150.337 41.8202 150.337C21.4858 150.337 5.0018 131.169 5.0018 107.524C5.00176 83.8798 1.16552 58 21.4998 58C35.5658 58 57.5123 70.3837 69.7066 85.8447C72.3442 89.189 78.2941 89.189 80.9318 85.8447C93.1262 70.3836 115.073 58 129.139 58Z" fill="#A5ED6E"/>
<rect x="33" y="83" width="34.9217" height="58.5174" rx="17.4608" fill="#F7F7F7"/>
<rect x="82.0781" y="83" width="34.9217" height="58.5174" rx="17.4608" fill="#F7F7F7"/>
<path d="M42.6113 106.352C42.6113 102.36 45.8474 99.124 49.8393 99.124H50.4846C54.4765 99.124 57.7126 102.36 57.7126 106.352V114.548C57.7126 118.54 54.4765 121.776 50.4846 121.776H49.8394C45.8474 121.776 42.6113 118.54 42.6113 114.548V106.352Z" fill="#4B4B4B"/>
<path d="M91.8921 106.352C91.8921 102.36 95.1282 99.124 99.1201 99.124H99.7653C103.757 99.124 106.993 102.36 106.993 106.352V114.548C106.993 118.54 103.757 121.776 99.7653 121.776H99.1201C95.1282 121.776 91.8921 118.54 91.8921 114.548V106.352Z" fill="#4B4B4B"/>
<circle cx="44.6646" cy="97.0707" r="8.21348" fill="#F7F7F7"/>
<circle cx="93.9454" cy="97.0707" r="8.21348" fill="#F7F7F7"/>
</svg>
