<svg width="244" height="273" viewBox="0 0 244 273" fill="none" xmlns="http://www.w3.org/2000/svg">
<circle cx="165.364" cy="219.565" r="27.5789" transform="rotate(-4 165.364 219.565)" fill="#5A7425"/>
<path d="M218.427 103.888C227.543 103.25 234.673 95.0936 230.865 86.786C230.656 86.3309 230.44 85.8789 230.216 85.4302C227.523 80.0282 223.792 75.2096 219.237 71.2495C214.681 67.2894 209.39 64.2654 203.666 62.3501C197.941 60.4348 191.896 59.6657 185.874 60.0867C179.853 60.5078 173.973 62.1108 168.571 64.8041C163.169 67.4974 158.351 71.2284 154.391 75.784C150.431 80.3396 147.407 85.6305 145.491 91.3548C145.332 91.8303 145.181 92.3079 145.038 92.7876C142.423 101.544 150.618 108.629 159.735 107.992L218.427 103.888Z" fill="#5A7425"/>
<path d="M193.849 43.8015C201.148 38.3016 202.685 27.5778 194.966 22.6845C194.544 22.4165 194.116 22.1551 193.684 21.9007C188.483 18.8371 182.73 16.8279 176.752 15.9878C170.775 15.1477 164.69 15.4932 158.846 17.0046C153.002 18.5159 147.513 21.1635 142.693 24.7962C137.872 28.4288 133.814 32.9755 130.75 38.1764C127.687 43.3774 125.678 49.1309 124.838 55.1083C123.997 61.0858 124.343 67.1701 125.854 73.0141C125.98 73.4995 126.113 73.9824 126.254 74.4627C128.831 83.231 139.563 84.7092 146.861 79.2093L193.849 43.8015Z" fill="#5A7425"/>
<path d="M42.1339 239.702C40.5579 217.163 57.5511 197.615 80.0894 196.039C102.628 194.463 122.176 211.456 123.752 233.994L124.618 246.375C125.326 256.504 117.689 265.29 107.559 265.998L62.6233 269.141C52.4938 269.849 43.708 262.212 42.9996 252.082L42.1339 239.702Z" fill="#F7F7F7" fill-opacity="0.968627"/>
<path d="M160.667 233.137C163.174 248.613 151.849 262.901 136.21 263.994L45.0174 270.371C28.409 271.532 14.811 257.356 16.6636 240.81L26.935 149.076C27.311 145.718 30.0323 143.107 33.4032 142.872L138.408 135.529C142.019 135.276 145.227 137.819 145.806 141.393L160.667 233.137ZM112.269 85.9679C126.023 85.0064 138.241 94.6903 140.445 108.3L142.594 121.568C143.253 125.632 140.279 129.383 136.173 129.671L36.6419 136.63C32.2811 136.935 28.7107 133.213 29.1971 128.869L30.9109 113.563C32.3429 100.774 42.7073 90.8323 55.5453 89.9344L112.269 85.9679Z" fill="#96C13E"/>
<circle cx="42.5417" cy="120.178" r="5" transform="rotate(-4 42.5417 120.178)" fill="#4B4B4B"/>
<circle cx="107.454" cy="116.642" r="5" transform="rotate(-4 107.454 116.642)" fill="#4B4B4B"/>
<rect x="46.292" y="83.8096" width="5.21977" height="15.0054" rx="2.60989" transform="rotate(-28 46.292 83.8096)" fill="#96C13E"/>
<rect width="5.21977" height="15" rx="2.60989" transform="matrix(-0.939693 -0.34202 -0.34202 0.939693 120.765 78.4395)" fill="#96C13E"/>
</svg>
