<svg width="347" height="353" viewBox="0 0 347 353" fill="none" xmlns="http://www.w3.org/2000/svg">
<circle cx="227.101" cy="295.293" r="28.0264" transform="rotate(17 227.101 295.293)" fill="#1453A3"/>
<path d="M124.505 126.545C131.003 114.003 145.533 107.893 159.042 112.023L218.727 130.27C233.199 134.695 241.91 149.424 238.815 164.237L210.432 300.114C206.913 316.959 189.689 327.145 173.233 322.114L77.2781 292.778C59.8024 287.435 51.4449 267.559 59.8515 251.333L124.505 126.545Z" fill="#1CB0F6"/>
<mask id="mask0_144_737" style="mask-type:alpha" maskUnits="userSpaceOnUse" x="56" y="110" width="184" height="214">
<path d="M124.505 126.545C131.003 114.003 145.533 107.893 159.042 112.023L218.727 130.27C233.199 134.695 241.91 149.424 238.815 164.237L210.432 300.114C206.913 316.959 189.689 327.145 173.233 322.114L77.2781 292.778C59.8024 287.435 51.4449 267.559 59.8515 251.333L124.505 126.545Z" fill="#1CB0F6"/>
</mask>
<g mask="url(#mask0_144_737)">
<path d="M67.4336 179.864L151.603 215.148L241.562 233.101L201.027 365.685L26.8984 312.449L67.4336 179.864Z" fill="#4B4B4B"/>
<mask id="mask1_144_737" style="mask-type:alpha" maskUnits="userSpaceOnUse" x="26" y="179" width="216" height="187">
<path d="M67.4336 179.864L151.603 215.148L241.562 233.101L201.027 365.685L26.8984 312.449L67.4336 179.864Z" fill="#4B4B4B"/>
</mask>
<g mask="url(#mask1_144_737)">
<rect x="109.278" y="192.657" width="95.0417" height="156.442" transform="rotate(17 109.278 192.657)" fill="#D9D9D9"/>
</g>
<path d="M150.925 227.749C156.71 225.982 158.869 218.922 155.061 214.222L137.49 192.535C133.189 187.226 124.703 188.877 122.706 195.411L113.582 225.252C111.585 231.786 117.697 237.899 124.231 235.903L150.925 227.749Z" fill="#6F4EA1"/>
<path d="M145.906 226.215C142.098 221.515 144.256 214.455 150.041 212.688L176.735 204.534C183.27 202.538 189.382 208.651 187.384 215.185L178.261 245.026C176.263 251.56 167.778 253.211 163.476 247.902L145.906 226.215Z" fill="#6F4EA1"/>
<ellipse cx="137.743" cy="262.094" rx="7.05755" ry="7.02582" transform="rotate(17 137.743 262.094)" fill="#4B4B4B"/>
<ellipse cx="128.568" cy="292.105" rx="7.05755" ry="7.02582" transform="rotate(17 128.568 292.105)" fill="#4B4B4B"/>
<ellipse cx="119.392" cy="322.115" rx="7.05755" ry="7.02582" transform="rotate(17 119.392 322.115)" fill="#4B4B4B"/>
</g>
<path d="M100.13 72.584L162.109 59.4099L169.076 92.1874C169.776 95.4788 167.675 98.7141 164.384 99.4137L114.323 110.054C111.032 110.754 107.797 108.653 107.097 105.362L100.13 72.584Z" fill="#4B4B4B"/>
<rect x="66.0107" y="67.3779" width="127.337" height="12.1854" rx="6.0927" transform="rotate(-12 66.0107 67.3779)" fill="#4B4B4B"/>
<path d="M126.545 53.266C126.405 52.6077 125.758 52.1875 125.1 52.3274L80.9991 61.7013C79.6825 61.9812 78.8421 63.2753 79.1219 64.5918L88.6858 109.587C88.8607 110.409 89.6696 110.935 90.4924 110.76C91.3153 110.585 91.8405 109.776 91.6656 108.953L82.6084 66.3423C82.3286 65.0257 83.169 63.7316 84.4855 63.4518L125.607 54.7112C126.265 54.5713 126.685 53.9242 126.545 53.266Z" fill="#F8DD17"/>
<path d="M123.466 50.4948C123.011 48.3554 124.377 46.2525 126.516 45.7977C128.656 45.343 130.759 46.7086 131.213 48.848L133.43 59.2773L125.683 60.924L123.466 50.4948Z" fill="#4B4B4B"/>
<path d="M84.9326 115.368C84.198 111.912 86.4041 108.515 89.8601 107.78C93.316 107.046 96.7131 109.252 97.4477 112.708L98.3344 116.879C98.5793 118.031 97.8439 119.164 96.6919 119.409L88.3485 121.182C87.1966 121.427 86.0642 120.692 85.8193 119.54L84.9326 115.368Z" fill="#F8DD17"/>
<rect x="160.055" y="126.986" width="20.3518" height="34.1191" rx="10.1759" transform="rotate(17 160.055 126.986)" fill="#F7F7F7"/>
<rect x="186.195" y="134.979" width="20.3614" height="34.1191" rx="10.1807" transform="rotate(17 186.195 134.979)" fill="#F7F7F7"/>
<path d="M157.989 139.393C158.669 137.168 161.025 135.915 163.251 136.595L163.611 136.705C165.837 137.386 167.089 139.742 166.409 141.968L165.012 146.538C164.331 148.764 161.975 150.016 159.749 149.336L159.389 149.226C157.164 148.545 155.911 146.189 156.591 143.963L157.989 139.393Z" fill="#4B4B4B"/>
<path d="M184.129 147.385C184.81 145.159 187.166 143.906 189.392 144.587L189.751 144.697C191.977 145.377 193.23 147.733 192.549 149.959L191.152 154.529C190.472 156.755 188.116 158.007 185.89 157.327L185.53 157.217C183.304 156.536 182.052 154.18 182.732 151.955L184.129 147.385Z" fill="#4B4B4B"/>
<path d="M172.471 197.023C171.577 195.106 173.041 192.929 175.154 192.859C181.948 192.633 185.934 190.929 189.447 186.685C190.769 185.087 193.401 185.221 194.278 187.101C194.679 187.961 194.58 188.979 193.994 189.726C188.812 196.334 184.275 198.537 174.984 198.628C173.905 198.639 172.927 198.001 172.471 197.023Z" fill="#1453A3"/>
<path d="M174.769 181.816C179.973 183.407 185.338 179.78 182.014 175.471C179.721 172.5 176.107 170.12 171.968 168.854C167.828 167.589 163.501 167.541 159.939 168.722C154.773 170.435 157.193 176.442 162.397 178.033L174.769 181.816Z" fill="#FFAADE"/>
<path d="M311.944 182.238C319.922 184.677 328.666 180.059 328.139 171.733C328.11 171.277 328.073 170.821 328.03 170.366C327.501 164.881 325.898 159.554 323.311 154.689C320.725 149.824 317.205 145.516 312.953 142.011C308.702 138.506 303.801 135.873 298.532 134.262C293.263 132.651 287.728 132.094 282.243 132.622C276.758 133.15 271.431 134.754 266.566 137.34C261.701 139.927 257.393 143.447 253.888 147.699C253.597 148.052 253.312 148.409 253.033 148.771C247.94 155.378 252.607 164.097 260.585 166.536L311.944 182.238Z" fill="#1453A3"/>
<path d="M310.655 122.994C318.674 120.694 323.492 112.058 318.515 105.363C318.243 104.996 317.964 104.634 317.679 104.276C314.249 99.9634 310.003 96.3691 305.184 93.6978C300.365 91.0264 295.066 89.3305 289.592 88.7067C284.117 88.083 278.573 88.5436 273.277 90.0624C267.98 91.5812 263.035 94.1283 258.722 97.5584C254.41 100.988 250.816 105.234 248.145 110.054C245.473 114.873 243.777 120.171 243.153 125.645C243.102 126.1 243.057 126.555 243.02 127.011C242.348 135.326 251.01 140.097 259.029 137.797L310.655 122.994Z" fill="#1453A3"/>
</svg>
