<svg width="277" height="275" viewBox="0 0 277 275" fill="none" xmlns="http://www.w3.org/2000/svg">
<circle cx="212.58" cy="232.58" r="27.58" fill="#1453A3"/>
<path d="M77.8875 107.615C80.3546 94.1578 92.0828 84.3843 105.764 84.3843H166.212C180.869 84.3843 193.108 95.5598 194.437 110.156L206.624 244.044C208.135 260.642 195.066 274.955 178.399 274.955H81.218C63.5189 274.955 50.1497 258.912 53.3414 241.503L77.8875 107.615Z" fill="#1CB0F6"/>
<mask id="mask0_325_231" style="mask-type:alpha" maskUnits="userSpaceOnUse" x="52" y="84" width="155" height="191">
<path d="M77.888 107.615C80.3551 94.1578 92.0833 84.3843 105.765 84.3843H166.213C180.87 84.3843 193.109 95.5598 194.437 110.156L206.624 244.044C208.135 260.642 195.067 274.955 178.4 274.955H81.2185C63.5194 274.955 50.1502 258.912 53.3418 241.503L77.888 107.615Z" fill="#1CB0F6"/>
</mask>
<g mask="url(#mask0_325_231)">
<path d="M40.1274 173.161L128.077 182.007L216.482 173.161V307.441H40.1274V173.161Z" fill="#4B4B4B"/>
<mask id="mask1_325_231" style="mask-type:alpha" maskUnits="userSpaceOnUse" x="40" y="173" width="177" height="135">
<path d="M40.1274 173.161L128.077 182.007L216.482 173.161V307.441H40.1274V173.161Z" fill="#4B4B4B"/>
</mask>
<g mask="url(#mask1_325_231)">
<rect x="107.988" y="170.538" width="39.5365" height="151.655" fill="#D9D9D9"/>
<rect x="107.988" y="238.99" width="39.5365" height="39.5365" fill="#EA2B2B"/>
<circle cx="127.757" cy="194.437" r="4.42573" fill="#4B4B4B"/>
</g>
</g>
<path d="M135.791 189.474C137.538 182.557 130.286 176.827 123.96 180.127L98.0735 193.631C92.6905 196.439 92.0738 203.9 96.9226 207.554L115.807 221.784C120.525 225.34 127.342 222.937 128.789 217.209L135.791 189.474Z" fill="#ED4545"/>
<path d="M136.331 179.813C130.499 175.704 122.551 180.421 123.365 187.509L126.695 216.516C127.387 222.548 134.131 225.797 139.28 222.58L159.333 210.049C164.343 206.918 164.543 199.693 159.713 196.29L136.331 179.813Z" fill="#EA2B2B"/>
<rect x="17.7075" y="106.572" width="147.635" height="15.7963" rx="7.89815" transform="rotate(-32 17.7075 106.572)" fill="#4B4B4B"/>
<path d="M100.176 59.6968C94.9243 51.2929 88.0017 44.412 80.9307 40.5677C73.8598 36.7234 67.2197 36.2307 62.4712 39.1979C57.7227 42.1651 55.2547 48.3492 55.6102 56.3897C55.9658 64.4303 59.1157 73.6686 64.367 82.0725L100.176 59.6968Z" fill="#4B4B4B"/>
<mask id="mask2_325_231" style="mask-type:alpha" maskUnits="userSpaceOnUse" x="20" y="31" width="129" height="86">
<rect x="17.708" y="106.572" width="147.635" height="15.7963" rx="7.89815" transform="rotate(-32 17.708 106.572)" fill="#D9D9D9"/>
</mask>
<g mask="url(#mask2_325_231)">
<rect x="14.874" y="114.074" width="158.571" height="6.0755" transform="rotate(-32 14.874 114.074)" fill="#FF4B4B"/>
</g>
<path d="M133.284 143.4C137.726 143.4 141.048 139.289 137.425 136.719C134.927 134.948 131.538 133.952 128.005 133.952C124.473 133.952 121.084 134.947 118.586 136.719C114.963 139.289 118.285 143.4 122.727 143.4L133.284 143.4Z" fill="#FFAADE"/>
<path d="M108.055 136.013C108.275 138.879 113.19 139.091 118.406 138.492C124.778 137.761 130.908 142.354 130.908 148.768C130.908 153.5 127.495 157.542 122.831 158.336L118.539 159.067C105.935 161.212 96.2221 147.035 104.747 137.508C106.651 135.38 107.942 134.545 108.055 136.013Z" fill="black"/>
<path d="M148.047 136.751C147.827 139.617 142.912 139.829 137.696 139.23C131.324 138.499 125.194 143.092 125.194 149.506C125.194 154.238 128.607 158.281 133.272 159.075L137.563 159.805C150.167 161.95 159.88 147.774 151.355 138.246C149.451 136.118 148.16 135.284 148.047 136.751Z" fill="black"/>
<path d="M264.315 105.531C272.395 105.531 279.186 98.777 276.34 91.2152C276.184 90.801 276.021 90.389 275.852 89.9795C273.809 85.0491 270.816 80.5692 267.042 76.7956C263.269 73.0221 258.789 70.0287 253.858 67.9864C248.928 65.9442 243.644 64.8931 238.307 64.8931C232.97 64.8931 227.686 65.9442 222.756 67.9864C217.825 70.0287 213.345 73.0221 209.572 76.7956C205.798 80.5692 202.805 85.0491 200.762 89.9795C200.593 90.389 200.43 90.801 200.274 91.2152C197.428 98.777 204.219 105.531 212.299 105.531H264.315Z" fill="#1453A3"/>
<path d="M246.344 51.0223C253.121 46.6218 255.138 37.2587 248.632 32.4671C248.276 32.2046 247.915 31.9477 247.55 31.6967C243.152 28.674 238.201 26.5471 232.981 25.4376C227.761 24.328 222.374 24.2575 217.126 25.23C211.879 26.2025 206.875 28.1991 202.399 31.1056C197.923 34.0122 194.064 37.7718 191.041 42.1699C188.019 46.5679 185.892 51.5183 184.782 56.7384C183.673 61.9584 183.602 67.3458 184.575 72.5931C184.655 73.029 184.743 73.4631 184.838 73.8954C186.569 81.7875 195.943 83.7531 202.72 79.3526L246.344 51.0223Z" fill="#1453A3"/>
<rect x="103.857" y="98.9729" width="18.6324" height="31.2367" rx="9.31622" fill="#F7F7F7"/>
<rect x="128.883" y="98.9729" width="18.6413" height="31.2367" rx="9.32064" fill="#F7F7F7"/>
<path d="M105.368 110.388C105.368 108.257 107.096 106.53 109.226 106.53H109.571C111.702 106.53 113.429 108.257 113.429 110.388V114.763C113.429 116.894 111.702 118.622 109.571 118.622H109.226C107.096 118.622 105.368 116.894 105.368 114.763V110.388Z" fill="#4B4B4B"/>
<path d="M130.395 110.388C130.395 108.257 132.122 106.53 134.253 106.53H134.597C136.728 106.53 138.456 108.257 138.456 110.388V114.763C138.456 116.894 136.728 118.622 134.597 118.622H134.253C132.122 118.622 130.395 116.894 130.395 114.763V110.388Z" fill="#4B4B4B"/>
</svg>
