<svg width="345" height="349" viewBox="0 0 345 349" fill="none" xmlns="http://www.w3.org/2000/svg">
<circle cx="259.186" cy="218.168" r="27.579" transform="rotate(-39 259.186 218.168)" fill="#438000"/>
<path d="M88.2468 208.455C82.0841 197.157 84.8721 183.069 94.8736 174.97L139.063 139.186C149.778 130.509 165.341 131.434 174.953 141.318L263.121 231.98C274.052 243.219 272.971 261.418 260.787 271.285L189.743 328.815C176.805 339.292 157.534 335.478 149.562 320.862L88.2468 208.455Z" fill="#58CC02"/>
<path d="M236.302 92.9746C243.405 87.2233 244.567 76.4524 236.682 71.8315C236.25 71.5784 235.814 71.3321 235.373 71.0929C230.068 68.2127 224.248 66.4055 218.245 65.7745C212.242 65.1436 206.174 65.7012 200.386 67.4156C194.598 69.13 189.205 71.9675 184.514 75.7662C179.823 79.5649 175.926 84.2504 173.046 89.5551C170.166 94.8598 168.358 100.68 167.727 106.683C167.097 112.686 167.654 118.755 169.369 124.542C169.511 125.023 169.661 125.501 169.819 125.976C172.7 134.649 183.477 135.752 190.579 130.001L236.302 92.9746Z" fill="#438000"/>
<path d="M181.705 57.8529C184.529 49.1614 179.637 39.4953 170.508 39.9141C170.008 39.937 169.508 39.9681 169.008 40.0075C162.99 40.4811 157.125 42.1353 151.747 44.8757C146.369 47.616 141.583 51.3889 137.662 55.9789C133.742 60.5688 130.765 65.886 128.899 71.6268C127.034 77.3675 126.318 83.4195 126.791 89.4371C127.265 95.4547 128.919 101.32 131.659 106.698C134.4 112.077 138.173 116.862 142.763 120.783C143.144 121.108 143.53 121.427 143.921 121.74C151.061 127.445 160.7 122.5 163.524 113.808L181.705 57.8529Z" fill="#438000"/>
<path d="M169.792 305.345C155.573 287.787 158.281 262.026 175.839 247.808C193.397 233.59 219.157 236.297 233.376 253.855L241.186 263.5C247.576 271.392 246.359 282.969 238.468 289.359L203.461 317.708C195.57 324.098 183.992 322.881 177.602 314.99L169.792 305.345Z" fill="#D7FFB8" fill-opacity="0.968627"/>
<path d="M190.186 270.554C191.044 269.859 192.325 269.985 192.835 270.965C193.737 272.695 194.121 274.665 193.914 276.634C193.636 279.272 192.323 281.691 190.262 283.36C188.201 285.029 185.561 285.811 182.923 285.534C180.954 285.327 179.107 284.542 177.602 283.3C176.75 282.597 176.893 281.318 177.751 280.623L190.186 270.554Z" fill="#5AC705"/>
<path d="M206.506 257.338C207.364 256.643 208.645 256.77 209.156 257.749C210.058 259.479 210.441 261.449 210.234 263.418C209.957 266.056 208.643 268.475 206.582 270.144C204.521 271.813 201.881 272.595 199.244 272.318C197.274 272.111 195.427 271.327 193.923 270.085C193.071 269.381 193.213 268.103 194.072 267.407L206.506 257.338Z" fill="#5AC705"/>
<path d="M205.657 272.18C206.516 271.485 207.796 271.611 208.307 272.591C209.209 274.321 209.592 276.291 209.385 278.26C209.108 280.898 207.794 283.317 205.733 284.986C203.672 286.655 201.033 287.437 198.395 287.16C196.426 286.953 194.578 286.168 193.074 284.926C192.222 284.223 192.365 282.944 193.223 282.249L205.657 272.18Z" fill="#5AC705"/>
<circle cx="157.168" cy="221.969" r="20.6539" transform="rotate(-39 157.168 221.969)" fill="#FF9600"/>
<path d="M170.142 206.126C171.898 203.879 171.514 200.579 168.963 199.305C165.256 197.454 161.134 196.51 156.941 196.589C151.015 196.701 145.307 198.848 140.777 202.67C136.247 206.492 133.171 211.757 132.064 217.58C131.28 221.7 131.517 225.922 132.718 229.888C133.545 232.617 136.733 233.551 139.244 232.198L156.473 222.915C157.102 222.577 157.654 222.111 158.093 221.549L170.142 206.126Z" fill="#FFC800"/>
<rect x="139.546" y="214.978" width="16.0068" height="8.20861" rx="4.1043" transform="rotate(-39 139.546 214.978)" fill="#FBE56D"/>
<path d="M136.861 109.141C152.664 96.3445 165.969 118.871 180.849 137.246C195.729 155.621 194.981 180.892 179.178 193.689C170.877 200.41 160.074 202.353 149.532 200.02C144.975 199.011 139.428 203.503 139.467 208.17C139.557 218.967 135.411 229.13 127.111 235.852C111.308 248.649 86.4346 244.126 71.5546 225.751C56.6745 207.376 37.4065 189.677 53.2092 176.881C64.1405 168.029 88.9895 163.841 108.196 168.182C112.351 169.122 116.975 165.377 116.92 161.118C116.667 141.429 125.93 117.993 136.861 109.141Z" fill="#A5ED6E"/>
<rect x="77.8789" y="189.071" width="34.9217" height="58.5174" rx="17.4608" transform="rotate(-39 77.8789 189.071)" fill="#F7F7F7"/>
<rect x="116.02" y="158.186" width="34.9217" height="58.5174" rx="17.4608" transform="rotate(-39 116.02 158.186)" fill="#F7F7F7"/>
<path d="M100.044 201.171C97.5317 198.069 98.01 193.517 101.112 191.005L101.614 190.599C104.716 188.087 109.268 188.565 111.78 191.667L116.938 198.037C119.45 201.139 118.971 205.691 115.869 208.203L115.368 208.609C112.265 211.121 107.714 210.643 105.202 207.54L100.044 201.171Z" fill="#4B4B4B"/>
<path d="M138.343 170.157C135.83 167.055 136.309 162.503 139.411 159.991L139.913 159.585C143.015 157.073 147.566 157.551 150.079 160.654L155.236 167.023C157.749 170.125 157.27 174.677 154.168 177.189L153.666 177.595C150.564 180.107 146.013 179.629 143.501 176.527L138.343 170.157Z" fill="#4B4B4B"/>
<circle cx="95.799" cy="192.665" r="8.21348" transform="rotate(-39 95.799 192.665)" fill="#F7F7F7"/>
<circle cx="134.097" cy="161.652" r="8.21348" transform="rotate(-39 134.097 161.652)" fill="#F7F7F7"/>
</svg>
