<svg width="337" height="360" viewBox="0 0 337 360" fill="none" xmlns="http://www.w3.org/2000/svg">
<circle cx="261.763" cy="188.926" r="27.0664" transform="rotate(-42 261.763 188.926)" fill="#1453A3"/>
<path d="M81.471 186.237C74.4335 174.802 76.569 159.973 86.5468 150.989L130.632 111.294C141.321 101.669 157.586 101.783 168.14 111.556L264.949 201.198C276.95 212.311 276.817 231.331 264.662 242.275L193.787 306.092C180.879 317.714 160.594 314.793 151.49 300.001L81.471 186.237Z" fill="#1CB0F6"/>
<mask id="mask0_144_805" style="mask-type:alpha" maskUnits="userSpaceOnUse" x="77" y="104" width="197" height="210">
<path d="M81.471 186.237C74.4335 174.802 76.569 159.973 86.5468 150.989L130.632 111.294C141.321 101.669 157.586 101.783 168.14 111.556L264.949 201.198C276.95 212.311 276.817 231.331 264.662 242.275L193.787 306.092C180.879 317.714 160.594 314.793 151.49 300.001L81.471 186.237Z" fill="#1CB0F6"/>
</mask>
<g mask="url(#mask0_144_805)">
<path d="M96.9746 258.836L166.926 207.534L225.591 143.029L313.769 240.96L185.152 356.767L96.9746 258.836Z" fill="#4B4B4B"/>
<mask id="mask1_144_805" style="mask-type:alpha" maskUnits="userSpaceOnUse" x="96" y="143" width="218" height="214">
<path d="M96.9746 258.836L166.926 207.534L225.591 143.029L313.769 240.96L185.152 356.767L96.9746 258.836Z" fill="#4B4B4B"/>
</mask>
<g mask="url(#mask1_144_805)">
<rect x="144.743" y="212.361" width="38.8003" height="148.831" transform="rotate(-42 144.743 212.361)" fill="#D9D9D9"/>
<rect x="189.693" y="262.283" width="38.8003" height="38.8003" transform="rotate(-42 189.693 262.283)" fill="#EA2B2B"/>
<circle cx="174.855" cy="216.81" r="4.34332" transform="rotate(-42 174.855 216.81)" fill="#4B4B4B"/>
</g>
</g>
<path d="M177.455 207.914C174.186 201.722 165.134 202.306 162.688 208.866L152.676 235.714C150.595 241.297 155.044 247.143 160.98 246.623L184.097 244.601C189.873 244.095 193.267 237.867 190.56 232.739L177.455 207.914Z" fill="#ED4545"/>
<path d="M171.505 200.513C164.553 201.346 161.854 210.005 167.102 214.64L188.579 233.608C193.045 237.553 200.097 235.494 201.739 229.766L208.135 207.46C209.734 201.886 205.135 196.485 199.378 197.175L171.505 200.513Z" fill="#EA2B2B"/>
<rect x="36.8965" y="224.995" width="144.886" height="15.5022" rx="7.75108" transform="rotate(-74 36.8965 224.995)" fill="#4B4B4B"/>
<path d="M66.2599 136.654C56.9115 133.973 47.3444 133.501 39.663 135.34C31.9817 137.18 26.8155 141.181 25.3008 146.463C23.7862 151.745 26.0472 157.876 31.5865 163.507C37.1258 169.137 45.4896 173.807 54.8379 176.487L66.2599 136.654Z" fill="#4B4B4B"/>
<mask id="mask2_144_805" style="mask-type:alpha" maskUnits="userSpaceOnUse" x="38" y="87" width="52" height="141">
<rect x="36.8965" y="224.995" width="144.886" height="15.5022" rx="7.75108" transform="rotate(-74 36.8965 224.995)" fill="#D9D9D9"/>
</mask>
<g mask="url(#mask2_144_805)">
<rect x="39.7563" y="232.327" width="155.618" height="5.96237" transform="rotate(-74 39.7563 232.327)" fill="#FF4B4B"/>
</g>
<path d="M145.37 175.957C148.609 173.041 148.332 167.861 144.003 168.367C141.017 168.715 137.893 170.214 135.316 172.534C132.74 174.854 130.922 177.805 130.264 180.737C129.309 184.99 134.431 185.807 137.67 182.89L145.37 175.957Z" fill="#FFAADE"/>
<path d="M122.119 187.138C124.162 189.084 127.886 186.011 131.296 182.149C135.463 177.431 142.95 176.756 147.162 181.434C150.269 184.885 150.435 190.074 147.554 193.716L144.904 197.067C137.121 206.909 120.728 202.947 120.689 190.4C120.68 187.599 121.073 186.142 122.119 187.138Z" fill="black"/>
<path d="M151.771 161.415C153.492 163.65 150.047 167.032 145.85 170.02C140.722 173.671 139.268 181.046 143.48 185.724C146.587 189.175 151.73 189.883 155.654 187.398L159.264 185.113C169.865 178.401 167.639 161.684 155.165 160.333C152.379 160.032 150.889 160.271 151.771 161.415Z" fill="black"/>
<path d="M216.071 62.2974C221.964 56.9917 222.482 47.6064 215.44 43.9606C215.054 43.7609 214.665 43.5674 214.273 43.3801C209.545 41.1254 204.421 39.8238 199.19 39.5497C193.96 39.2756 188.727 40.0344 183.791 41.7826C178.854 43.5308 174.31 46.2343 170.417 49.7388C166.525 53.2432 163.362 57.4799 161.107 62.207C158.852 66.9341 157.551 72.059 157.277 77.2891C157.003 82.5192 157.761 87.752 159.51 92.6889C159.655 93.099 159.807 93.5063 159.965 93.9108C162.855 101.295 172.243 101.761 178.135 96.4552L216.071 62.2974Z" fill="#1453A3"/>
<path d="M167.17 34.3454C169.223 26.6863 164.545 18.5332 156.654 19.3106C156.222 19.3532 155.79 19.4028 155.359 19.4596C150.166 20.1432 145.159 21.8429 140.624 24.4615C136.088 27.0801 132.113 30.5665 128.924 34.7215C125.736 38.8765 123.397 43.6188 122.042 48.6776C120.686 53.7365 120.341 59.0127 121.024 64.2052C121.708 69.3977 123.407 74.4046 126.026 78.9403C128.645 83.4759 132.131 87.4513 136.286 90.6395C136.631 90.9044 136.98 91.1633 137.333 91.4163C143.779 96.0351 151.906 91.313 153.958 83.6539L167.17 34.3454Z" fill="#1453A3"/>
<rect x="94.7339" y="162.881" width="18.2855" height="30.6551" rx="9.14274" transform="rotate(-42 94.7339 162.881)" fill="#F7F7F7"/>
<rect x="112.986" y="146.447" width="18.2942" height="30.6551" rx="9.14708" transform="rotate(-42 112.986 146.447)" fill="#F7F7F7"/>
<path d="M103.333 170.214C101.934 168.66 102.059 166.266 103.613 164.867L103.864 164.641C105.418 163.241 107.813 163.367 109.212 164.921L112.085 168.112C113.484 169.666 113.359 172.06 111.805 173.459L111.553 173.685C109.999 175.085 107.605 174.959 106.206 173.405L103.333 170.214Z" fill="#4B4B4B"/>
<path d="M121.584 153.78C120.185 152.226 120.311 149.831 121.865 148.432L122.116 148.206C123.67 146.807 126.064 146.932 127.463 148.486L130.336 151.677C131.736 153.231 131.61 155.625 130.056 157.025L129.805 157.251C128.251 158.65 125.857 158.525 124.457 156.97L121.584 153.78Z" fill="#4B4B4B"/>
</svg>
