<svg width="231" height="262" viewBox="0 0 231 262" fill="none" xmlns="http://www.w3.org/2000/svg">
<circle cx="155.591" cy="219.712" r="27.5789" fill="#1C233A"/>
<path d="M28.8587 104.589C31.1794 91.9304 42.2118 82.7368 55.0813 82.7368H111.943C125.73 82.7368 137.243 93.2492 138.493 106.98L149.957 232.924C151.378 248.537 139.085 262 123.407 262H31.9916C15.3426 262 2.7667 246.909 5.76897 230.533L28.8587 104.589Z" fill="#111A28"/>
<path d="M216.593 108.018C225.732 108.018 233.413 100.378 230.194 91.8253C230.017 91.3568 229.833 90.8908 229.641 90.4276C227.332 84.8509 223.946 79.7838 219.678 75.5155C215.409 71.2473 210.342 67.8616 204.765 65.5516C199.189 63.2417 193.212 62.0527 187.175 62.0527C181.139 62.0527 175.162 63.2417 169.585 65.5516C164.009 67.8616 158.942 71.2473 154.673 75.5155C150.405 79.7838 147.019 84.8509 144.709 90.4276C144.518 90.8908 144.333 91.3568 144.157 91.8253C140.938 100.378 148.619 108.018 157.758 108.018L216.593 108.018Z" fill="#1C233A"/>
<path d="M196.266 46.3638C203.931 41.3864 206.212 30.796 198.854 25.3762C198.451 25.0793 198.042 24.7888 197.629 24.5049C192.655 21.0859 187.055 18.6803 181.151 17.4253C175.247 16.1703 169.153 16.0905 163.218 17.1905C157.283 18.2905 151.622 20.5488 146.56 23.8363C141.498 27.1239 137.132 31.3764 133.714 36.3509C130.295 41.3255 127.889 46.9248 126.634 52.8291C125.379 58.7334 125.299 64.8271 126.399 70.7622C126.491 71.2552 126.59 71.7462 126.697 72.2352C128.655 81.1618 139.258 83.3851 146.923 78.4077L196.266 46.3638Z" fill="#1C233A"/>
<path d="M31.2559 231.203C31.2559 208.61 49.5713 190.295 72.1646 190.295C94.7579 190.295 113.073 208.61 113.073 231.203V243.614C113.073 253.768 104.842 262 94.6874 262H49.6418C39.4875 262 31.2559 253.768 31.2559 243.614V231.203Z" fill="#BBF2FF" fill-opacity="0.968627"/>
<rect x="3.38211" y="80.3821" width="155.577" height="97.2358" rx="16.9106" fill="#121625" stroke="#272E40" stroke-width="6.76423"/>
<circle cx="122.179" cy="113.78" r="15.6423" fill="#4EA5FF"/>
<path d="M56.5278 107.677H56.6499V117.101H56.5083L24.2407 129.488L21.4819 122.299L46.3237 112.761L21.1382 105.539L23.2603 98.1379L56.5278 107.677Z" fill="#4EA5FF"/>
<rect x="60.2407" y="153.307" width="35.9383" height="13.0538" fill="#4EA5FF"/>
<rect x="47.3486" y="140.415" width="12.8927" height="12.8927" fill="#4EA5FF"/>
<rect x="96.1797" y="140.415" width="12.8927" height="12.8927" fill="#4EA5FF"/>
</svg>
