<svg width="382" height="521" viewBox="0 0 382 521" fill="none" xmlns="http://www.w3.org/2000/svg">
<ellipse cx="27.4669" cy="31.568" rx="27.4669" ry="31.568" transform="matrix(0.769537 0.638602 -0.620148 0.784485 56.3203 372.271)" fill="#1F2433"/>
<ellipse cx="13.7334" cy="16.1632" rx="13.7334" ry="16.1632" transform="matrix(0.769537 0.638602 -0.620148 0.784485 69.0117 340.809)" fill="#1F2433"/>
<ellipse cx="13.7334" cy="16.1632" rx="13.7334" ry="16.1632" transform="matrix(0.769537 0.638602 -0.620148 0.784485 104.415 349.129)" fill="#1F2433"/>
<ellipse cx="13.7334" cy="16.1632" rx="13.7334" ry="16.1632" transform="matrix(0.769537 0.638602 -0.620148 0.784485 108.738 387.938)" fill="#1F2433"/>
<ellipse cx="27.4669" cy="31.568" rx="27.4669" ry="31.568" transform="matrix(0.769537 0.638602 -0.620148 0.784485 175.835 363.059)" fill="#1F2433"/>
<ellipse cx="13.7334" cy="16.1632" rx="13.7334" ry="16.1632" transform="matrix(0.769537 0.638602 -0.620148 0.784485 188.527 331.596)" fill="#1F2433"/>
<ellipse cx="13.7334" cy="16.1632" rx="13.7334" ry="16.1632" transform="matrix(0.769537 0.638602 -0.620148 0.784485 223.93 339.918)" fill="#1F2433"/>
<ellipse cx="13.7334" cy="16.1632" rx="13.7334" ry="16.1632" transform="matrix(0.769537 0.638602 -0.620148 0.784485 228.252 378.727)" fill="#1F2433"/>
<ellipse cx="27.4669" cy="31.568" rx="27.4669" ry="31.568" transform="matrix(0.769537 0.638602 -0.620148 0.784485 115.644 214.348)" fill="#1F2433"/>
<ellipse cx="13.7334" cy="16.1632" rx="13.7334" ry="16.1632" transform="matrix(0.769537 0.638602 -0.620148 0.784485 128.336 182.885)" fill="#1F2433"/>
<ellipse cx="13.7334" cy="16.1632" rx="13.7334" ry="16.1632" transform="matrix(0.769537 0.638602 -0.620148 0.784485 163.738 191.203)" fill="#1F2433"/>
<ellipse cx="13.7334" cy="16.1632" rx="13.7334" ry="16.1632" transform="matrix(0.769537 0.638602 -0.620148 0.784485 168.062 230.016)" fill="#1F2433"/>
<ellipse cx="27.4669" cy="31.568" rx="27.4669" ry="31.568" transform="matrix(0.769537 0.638602 -0.620148 0.784485 261.318 170.617)" fill="#1F2433"/>
<ellipse cx="13.7334" cy="16.1632" rx="13.7334" ry="16.1632" transform="matrix(0.769537 0.638602 -0.620148 0.784485 274.01 139.152)" fill="#1F2433"/>
<ellipse cx="13.7334" cy="16.1632" rx="13.7334" ry="16.1632" transform="matrix(0.769537 0.638602 -0.620148 0.784485 309.414 147.473)" fill="#1F2433"/>
<ellipse cx="13.7334" cy="16.1632" rx="13.7334" ry="16.1632" transform="matrix(0.769537 0.638602 -0.620148 0.784485 313.736 186.283)" fill="#1F2433"/>
<ellipse cx="27.4669" cy="31.568" rx="27.4669" ry="31.568" transform="matrix(0.769537 0.638602 -0.620148 0.784485 167.496 62.9062)" fill="#1F2433"/>
<ellipse cx="13.7334" cy="16.1632" rx="13.7334" ry="16.1632" transform="matrix(0.769537 0.638602 -0.620148 0.784485 180.188 31.4414)" fill="#1F2433"/>
<ellipse cx="13.7334" cy="16.1632" rx="13.7334" ry="16.1632" transform="matrix(0.769537 0.638602 -0.620148 0.784485 215.591 39.7617)" fill="#1F2433"/>
<ellipse cx="13.7334" cy="16.1632" rx="13.7334" ry="16.1632" transform="matrix(0.769537 0.638602 -0.620148 0.784485 219.914 78.5703)" fill="#1F2433"/>
</svg>
