<svg width="103" height="103" viewBox="0 0 103 103" fill="none" xmlns="http://www.w3.org/2000/svg">
<rect x="65.228" y="41.08" width="4.84188" height="4.84188" rx="1.37187" transform="rotate(-67 65.228 41.08)" fill="#FFF4CC"/>
<rect x="72.4358" y="22.1882" width="3.51001" height="3.51001" rx="0.994503" transform="rotate(-67 72.4358 22.1882)" fill="#FFF4CC"/>
<rect x="27.689" y="53.5875" width="7.5088" height="7.5088" rx="2.12749" transform="rotate(-67 27.689 53.5875)" fill="#FFF4CC"/>
<circle cx="59.6547" cy="40.0495" r="4.21104" transform="rotate(-22 59.6547 40.0495)" fill="#FFB100"/>
<path d="M35.128 31.0007C34.7325 29.0758 35.7685 27.1432 37.5904 26.4071L45.6404 23.1547C47.5923 22.3661 49.8235 23.1958 50.7858 25.0682L59.6127 42.2426C60.7069 44.3717 59.7366 46.9808 57.5171 47.8776L44.5752 53.1065C42.2182 54.0588 39.5746 52.6416 39.063 50.1515L35.128 31.0007Z" fill="#FFC800"/>
<path d="M61.9019 20.7478C63.1957 20.2251 63.8462 18.7042 62.9012 17.6775C62.8494 17.6212 62.7967 17.5658 62.7431 17.5112C62.097 16.8538 61.3279 16.3301 60.4795 15.97C59.6311 15.6099 58.7201 15.4204 57.7984 15.4123C56.8768 15.4043 55.9626 15.5779 55.108 15.9231C54.2535 16.2684 53.4753 16.7786 52.8179 17.4246C52.1605 18.0706 51.6368 18.8398 51.2767 19.6882C50.9166 20.5366 50.7271 21.4476 50.7191 22.3692C50.7184 22.4458 50.719 22.5223 50.7208 22.5987C50.7542 23.9937 52.2787 24.6358 53.5725 24.1131L61.9019 20.7478Z" fill="#FFB100"/>
<path d="M55.498 13.182C56.2984 12.0389 56.0157 10.4091 54.6639 10.0627C54.5899 10.0437 54.5155 10.026 54.4407 10.0094C53.5409 9.80991 52.6106 9.78961 51.7029 9.94966C50.7953 10.1097 49.928 10.447 49.1507 10.9422C48.3734 11.4374 47.7012 12.0809 47.1725 12.8358C46.6439 13.5908 46.2691 14.4426 46.0696 15.3424C45.8702 16.2422 45.8499 17.1725 46.0099 18.0802C46.17 18.9878 46.5072 19.8551 47.0024 20.6324C47.0436 20.697 47.0857 20.7608 47.1289 20.8239C47.9167 21.9756 49.5449 21.6839 50.3453 20.5409L55.498 13.182Z" fill="#FFB100"/>
<path fill-rule="evenodd" clip-rule="evenodd" d="M42.9984 32.5826C42.2479 32.8859 41.8775 33.7208 42.1711 34.4475L42.5391 35.3585L44.8912 34.4082L44.9935 34.6612L41.596 36.0339C40.8455 36.3371 40.4751 37.1721 40.7687 37.8988L41.5661 39.8726C41.8597 40.5993 42.7062 40.9425 43.4567 40.6393L44.2407 40.3225L43.7909 39.2092C43.4973 38.4825 43.8677 37.6475 44.6183 37.3442L47.1271 36.3306C47.7622 36.074 48.0756 35.3675 47.8272 34.7526L46.9275 32.5258C46.6339 31.7991 45.7875 31.4558 45.0369 31.759L42.9984 32.5826ZM43.3392 34.3288C43.5989 34.2239 43.7272 33.9348 43.6255 33.6833C43.5239 33.4317 43.2309 33.3129 42.9711 33.4179C42.7113 33.5228 42.5831 33.8119 42.6847 34.0634C42.7863 34.315 43.0793 34.4338 43.3392 34.3288Z" fill="#FF9600"/>
<path fill-rule="evenodd" clip-rule="evenodd" d="M48.9012 41.3246C49.6517 41.0213 50.0222 40.1864 49.7286 39.4597L49.3605 38.5487L47.0084 39.499L46.9062 39.246L50.3036 37.8733C51.0542 37.5701 51.4246 36.7351 51.131 36.0084L50.3335 34.0347C50.0399 33.308 49.1935 32.9646 48.4429 33.2679L47.6589 33.5847L48.1087 34.698C48.4023 35.4248 48.0319 36.2597 47.2814 36.563L44.7725 37.5766C44.1374 37.8332 43.824 38.5397 44.0724 39.1546L44.9721 41.3814C45.2657 42.1081 46.1122 42.4514 46.8627 42.1482L48.9012 41.3246ZM48.5605 39.5784C48.3007 39.6834 48.1725 39.9724 48.2741 40.2239C48.3757 40.4755 48.6687 40.5943 48.9285 40.4893C49.1883 40.3844 49.3166 40.0954 49.2149 39.8438C49.1133 39.5922 48.8203 39.4734 48.5605 39.5784Z" fill="#FF9600"/>
<rect x="38.6487" y="56.4453" width="27.0728" height="10.4068" rx="2.48859" transform="rotate(-22 38.6487 56.4453)" fill="#B0691C"/>
<rect x="39.217" y="62.8848" width="30.9188" height="4.5247" rx="2.26235" transform="rotate(-22 39.217 62.8848)" fill="#844F15"/>
<rect x="28.2964" y="33.2089" width="3.94038" height="3.94038" rx="1.11644" transform="rotate(-67 28.2964 33.2089)" fill="#FFF4CC"/>
<rect x="27.6809" y="25.8009" width="6.05495" height="6.05495" rx="1.71557" transform="rotate(-67 27.6809 25.8009)" fill="#FFF4CC"/>
<path d="M29.9038 73.091C29.996 73.2236 30.0771 73.3635 30.1479 73.509L30.2027 73.6017C30.2039 73.6039 30.2024 73.6067 30.1998 73.6067C30.1975 73.6067 30.1959 73.6091 30.1969 73.6113C30.3638 73.9891 30.4565 74.4042 30.4565 74.8401C30.4565 76.5878 28.9729 78.0051 27.1431 78.0051C25.3134 78.005 23.8306 76.5878 23.8306 74.8401C23.8307 74.1652 24.0522 73.5402 24.4292 73.0266C24.9253 72.1707 25.3355 71.4633 25.7567 70.7369C26.3715 69.6767 27.9012 69.6731 28.5207 70.7305L29.9038 73.091Z" fill="#3E7500"/>
<path d="M31.5139 82.7725C31.5921 82.6171 31.6843 82.4689 31.7876 82.3283L31.8369 82.2476C31.8381 82.2456 31.841 82.2457 31.842 82.2478C31.8431 82.2497 31.8457 82.2499 31.847 82.2482C32.1023 81.9234 32.4259 81.6472 32.8108 81.4425C34.354 80.622 36.3019 81.2666 37.161 82.8823C38.0197 84.4978 37.4646 86.4725 35.9215 87.2929C35.3243 87.6104 34.6667 87.7085 34.0349 87.6158C33.0484 87.5797 32.2325 87.5498 31.3946 87.5191C30.17 87.4743 29.4487 86.1254 30.0914 85.082L31.5139 82.7725Z" fill="#3E7500"/>
<path d="M12.7164 73.9571C12.8608 73.8587 13.0138 73.7735 13.1731 73.7004L13.2538 73.6544C13.2556 73.6534 13.2579 73.6547 13.2578 73.6568C13.2578 73.6587 13.2598 73.66 13.2615 73.6593C13.6421 73.4991 14.0589 73.4151 14.4945 73.4227C16.242 73.4532 17.6331 74.9605 17.6013 76.7899C17.5693 78.6194 16.1264 80.0781 14.3789 80.0476C13.7042 80.0357 13.0831 79.8032 12.5761 79.4174C11.7294 78.9067 11.0297 78.4843 10.3111 78.0505C9.26182 77.4172 9.28508 75.8875 10.3532 75.2866L12.7164 73.9571Z" fill="#3E7500"/>
<path d="M7.97162 66.8182C8.11112 66.724 8.2583 66.6416 8.41155 66.571L8.49635 66.5226C8.49855 66.5214 8.50127 66.523 8.50123 66.5255C8.50118 66.5279 8.50358 66.5295 8.50576 66.5286C8.88647 66.3683 9.30311 66.2828 9.73892 66.2904C11.4864 66.3209 12.8776 67.8291 12.8456 69.6586C12.8135 71.4879 11.3707 72.9458 9.62328 72.9153C8.94778 72.9035 8.32587 72.6707 7.81859 72.2841C6.97244 71.7737 6.27292 71.3516 5.55457 70.9181C4.50527 70.2849 4.5285 68.7552 5.59664 68.1543L7.97162 66.8182Z" fill="#3E7500"/>
<path d="M5.68235 67.3252C5.81951 67.2328 5.96395 67.1515 6.1144 67.0818L6.20511 67.0306C6.20731 67.0293 6.21003 67.031 6.20998 67.0335C6.20994 67.0358 6.21235 67.0375 6.21453 67.0366C6.59521 66.8763 7.01191 66.7908 7.44767 66.7984C9.19518 66.8289 10.5863 68.337 10.5544 70.1666C10.5224 71.996 9.07949 73.4548 7.33202 73.4243C6.65493 73.4124 6.03141 73.1783 5.52347 72.7901L3.26309 71.4266C2.21376 70.7936 2.23687 69.2641 3.30486 68.6631L5.68235 67.3252Z" fill="#3E7500"/>
<path d="M21.0542 78.1499C21.1443 78.0111 21.2455 77.8799 21.3567 77.7569L21.4202 77.6744C21.4218 77.6724 21.4249 77.6728 21.4259 77.6751C21.4268 77.6773 21.4296 77.6779 21.4312 77.6762C21.7191 77.3799 22.0692 77.1384 22.4733 76.9751C24.0938 76.3204 25.9637 77.1651 26.6491 78.8616C27.3344 80.5582 26.5759 82.4639 24.9554 83.1186C24.3282 83.3719 23.664 83.4008 23.0454 83.2425C22.0681 83.1034 21.2598 82.9885 20.4298 82.8704C19.2165 82.6978 18.6402 81.2808 19.3884 80.3103L21.0542 78.1499Z" fill="#3E7500"/>
<path d="M15.4444 41.7023C15.5498 41.8408 15.6426 41.9886 15.7237 42.1431L15.7746 42.2228C15.7758 42.2247 15.7745 42.2273 15.7722 42.2273C15.7701 42.2274 15.7687 42.2297 15.7696 42.2316C15.9496 42.6035 16.0561 43.0154 16.0713 43.4511C16.1322 45.1976 14.6998 46.6657 12.8713 46.7298C11.0426 46.7936 9.51036 45.429 9.44934 43.6823C9.42573 43.0061 9.62563 42.3714 9.9861 41.8441C10.4509 40.9735 10.8356 40.2537 11.2306 39.5145C11.8083 38.4336 13.3372 38.3768 13.9932 39.412L15.4444 41.7023Z" fill="#3E7500"/>
<path d="M8.41664 59.5827C8.5595 59.6854 8.693 59.8006 8.81687 59.9262L8.88495 59.9842C8.88652 59.9856 8.88604 59.9881 8.88408 59.9888C8.88226 59.9894 8.88168 59.9917 8.88299 59.9931C9.16429 60.2963 9.38651 60.6598 9.52861 61.0724C10.0976 62.7248 9.15684 64.5475 7.42701 65.1434C5.69691 65.7391 3.83264 64.8821 3.26362 63.2296C3.04464 62.5935 3.04853 61.9321 3.23589 61.3253C3.4268 60.3521 3.58495 59.5484 3.74735 58.723C3.98394 57.5206 5.4294 57.0192 6.3594 57.8173L8.41664 59.5827Z" fill="#3E7500"/>
<path d="M14.9553 57.6978C14.9519 57.8105 14.939 57.9206 14.9185 58.028L14.9074 58.126C14.9071 58.1279 14.9048 58.1288 14.9034 58.1274C14.9021 58.1262 14.8999 58.1268 14.8994 58.1286C14.8285 58.4169 14.6926 58.6797 14.4887 58.8984C13.6707 59.7754 12.0659 59.6087 10.9041 58.5254C9.74229 57.442 9.46339 55.8521 10.2812 54.9749C10.5957 54.6377 11.0269 54.4553 11.5042 54.4195C12.1649 54.2941 12.7197 54.189 13.2784 54.0832C14.3369 53.8827 15.2871 54.7645 15.166 55.8349L14.9553 57.6978Z" fill="#3E7500"/>
<path d="M8.85895 50.0187C8.9579 50.1047 9.04762 50.1993 9.132 50.2982L9.22006 50.3878C9.22164 50.3894 9.22082 50.3921 9.21861 50.3926C9.21655 50.393 9.21565 50.3954 9.21694 50.3971C9.43375 50.6794 9.59014 51.007 9.66721 51.3695C9.97617 52.823 8.8934 54.2854 7.2484 54.6351C5.60329 54.9848 4.01846 54.0894 3.70949 52.6358C3.59074 52.0769 3.67932 51.5172 3.92504 51.0196C4.19975 50.2677 4.43008 49.6377 4.66253 49.0018C5.06665 47.8963 6.48612 47.5911 7.30885 48.4328L8.85895 50.0187Z" fill="#3E7500"/>
<path d="M45.6717 78.5314C45.7795 78.668 45.8748 78.8141 45.9585 78.9671L46.0109 79.046C46.0121 79.0479 46.0108 79.0505 46.0086 79.0506C46.0064 79.0507 46.0051 79.053 46.0061 79.0549C46.1926 79.4236 46.3061 79.8335 46.3289 80.2689C46.4204 82.0142 45.0138 83.5071 43.1866 83.6029C41.3593 83.6987 39.8035 82.361 39.712 80.6157C39.6767 79.9415 39.8652 79.3051 40.2149 78.7724C40.6653 77.8921 41.0379 77.1646 41.4204 76.4174C41.979 75.3266 43.5067 75.2431 44.1806 76.2667L45.6717 78.5314Z" fill="#3E7500"/>
<path d="M21.6404 67.2376C21.7482 67.3742 21.8435 67.5203 21.9273 67.6733L21.9796 67.7522C21.9809 67.7541 21.9796 67.7566 21.9773 67.7568C21.9752 67.7569 21.9738 67.7592 21.9748 67.7611C22.1613 68.1297 22.2758 68.5397 22.2987 68.975C22.3901 70.7204 20.9826 72.2133 19.1554 72.3091C17.3281 72.4049 15.7723 71.0672 15.6808 69.3218C15.6455 68.6477 15.8339 68.0113 16.1836 67.4785C16.634 66.5984 17.0066 65.8708 17.3892 65.1236C17.9478 64.0328 19.4754 63.9493 20.1494 64.9729L21.6404 67.2376Z" fill="#3E7500"/>
<path d="M18.0436 54.9786C17.9474 55.1103 17.841 55.2342 17.7251 55.3495L17.6574 55.4286C17.6558 55.4306 17.6527 55.43 17.6518 55.4276C17.6511 55.4253 17.6483 55.4246 17.6465 55.4262C17.3436 55.7071 16.9813 55.9299 16.5692 56.0718C14.9167 56.6409 13.0936 55.6994 12.4978 53.9693C11.9023 52.2393 12.7595 50.3759 14.412 49.8069C15.0504 49.5871 15.7139 49.5927 16.3225 49.7822C17.2928 49.9725 18.095 50.1299 18.9187 50.2915C20.1212 50.5275 20.6226 51.9725 19.8247 52.9026L18.0436 54.9786Z" fill="#3E7500"/>
<path d="M18.0436 54.9786C17.9474 55.1103 17.841 55.2342 17.7251 55.3495L17.6574 55.4286C17.6558 55.4306 17.6527 55.43 17.6518 55.4276C17.6511 55.4253 17.6483 55.4246 17.6465 55.4262C17.3436 55.7071 16.9813 55.9299 16.5692 56.0718C14.9167 56.6409 13.0936 55.6994 12.4978 53.9693C11.9023 52.2393 12.7595 50.3759 14.412 49.8069C15.0504 49.5871 15.7139 49.5927 16.3225 49.7822C17.2928 49.9725 18.095 50.1299 18.9187 50.2915C20.1212 50.5275 20.6226 51.9725 19.8247 52.9026L18.0436 54.9786Z" fill="#3E7500"/>
<path d="M18.0436 54.9786C17.9474 55.1103 17.841 55.2342 17.7251 55.3495L17.6574 55.4286C17.6558 55.4306 17.6527 55.43 17.6518 55.4276C17.6511 55.4253 17.6483 55.4246 17.6465 55.4262C17.3436 55.7071 16.9813 55.9299 16.5692 56.0718C14.9167 56.6409 13.0936 55.6994 12.4978 53.9693C11.9023 52.2393 12.7595 50.3759 14.412 49.8069C15.0504 49.5871 15.7139 49.5927 16.3225 49.7822C17.2928 49.9725 18.095 50.1299 18.9187 50.2915C20.1212 50.5275 20.6226 51.9725 19.8247 52.9026L18.0436 54.9786Z" fill="#3E7500"/>
<path d="M18.0436 54.9786C17.9474 55.1103 17.841 55.2342 17.7251 55.3495L17.6574 55.4286C17.6558 55.4306 17.6527 55.43 17.6518 55.4276C17.6511 55.4253 17.6483 55.4246 17.6465 55.4262C17.3436 55.7071 16.9813 55.9299 16.5692 56.0718C14.9167 56.6409 13.0936 55.6994 12.4978 53.9693C11.9023 52.2393 12.7595 50.3759 14.412 49.8069C15.0504 49.5871 15.7139 49.5927 16.3225 49.7822C17.2928 49.9725 18.095 50.1299 18.9187 50.2915C20.1212 50.5275 20.6226 51.9725 19.8247 52.9026L18.0436 54.9786Z" fill="#3E7500"/>
<path d="M15.9236 39.5242C16.3729 38.6835 17.5617 38.6391 18.072 39.4441L18.741 40.4988C19.2099 40.4 19.6633 40.3053 20.1218 40.2087C21.6185 39.8937 22.8988 41.3098 22.4353 42.7673L21.405 46.0095C21.3584 46.2118 21.294 46.4096 21.2156 46.6023L21.1775 46.7244C21.1766 46.7272 21.1727 46.7285 21.1707 46.7263C21.1688 46.7243 21.166 46.7248 21.1648 46.7273C20.9537 47.1978 20.6453 47.6308 20.241 47.9949C20.2176 48.0159 20.1925 48.0351 20.1687 48.0554C19.5955 48.9254 18.7703 49.6134 17.7957 50.0154C17.7056 51.9867 16.5237 53.6727 14.8396 54.4822C15.0526 55.0515 15.1697 55.6677 15.1697 56.3113C15.1697 57.6214 14.6854 58.8173 13.8884 59.7341C13.9822 59.9285 14.0631 60.1299 14.1326 60.3367C14.391 60.3191 14.6413 60.3031 14.8943 60.2859C15.736 60.2288 16.3266 61.1005 15.9617 61.8611L15.156 63.5418C15.1158 63.6484 15.0642 63.7502 15.0076 63.8494L14.9705 63.9265H14.9636C14.9778 63.9443 14.9917 63.9623 15.0056 63.9802C15.8121 63.2533 17.1079 63.653 17.3601 64.7146L17.9207 67.072C17.9685 67.2156 18 67.3637 18.0242 67.5134L18.0496 67.617L18.0437 67.6228C18.0524 67.6949 18.0554 67.7676 18.0583 67.8406C18.627 68.0645 19.1466 68.3847 19.5974 68.782C19.6035 68.7689 19.6098 68.756 19.616 68.7429C20.0822 67.7481 21.4488 67.6253 22.0847 68.5212L23.5007 70.5154C23.5888 70.6205 23.6661 70.7342 23.738 70.8513L23.8113 70.9539C23.8126 70.9557 23.8116 70.9585 23.8093 70.9587C23.8072 70.959 23.8063 70.9608 23.8074 70.9627C23.8799 71.0944 23.9377 71.234 23.988 71.3777C24.1344 71.5168 24.2727 71.664 24.4021 71.8191C24.5083 71.8127 24.6156 71.8084 24.7234 71.8084C26.0746 71.8085 27.306 72.3217 28.2332 73.1638C28.4082 72.9043 28.6243 72.6784 28.8718 72.4929C29.5233 71.8875 30.0623 71.3874 30.615 70.8738C31.4198 70.1262 32.732 70.5238 32.9861 71.5925L33.5515 73.9744C33.5936 74.1043 33.6235 74.2379 33.6462 74.3728L33.6755 74.4959C33.6761 74.4981 33.6738 74.5004 33.6716 74.4998C33.6696 74.4992 33.6675 74.5006 33.6677 74.5027C33.6753 74.5664 33.6773 74.6307 33.6804 74.6951C34.2596 74.9984 34.7742 75.4074 35.2 75.8962C35.4148 75.8023 35.6372 75.7227 35.866 75.658C36.0418 75.3144 36.2146 74.9781 36.3884 74.6384C37.0853 73.2769 38.9917 73.1724 39.8328 74.45L41.699 77.2839C41.8295 77.4502 41.9455 77.6276 42.0476 77.8132L42.1169 77.9177C42.1185 77.9201 42.1168 77.9242 42.114 77.9246C42.1114 77.9247 42.1092 77.9271 42.1101 77.9295C42.3317 78.3675 42.4701 78.8526 42.5076 79.367C42.5232 79.3668 42.5388 79.366 42.5544 79.366C45.4387 79.366 47.7771 81.7044 47.7771 84.5886C47.777 86.994 46.1503 89.0176 43.9373 89.6238C43.8492 89.66 43.7597 89.6945 43.6677 89.7244C42.8665 89.9847 42.0382 89.9631 41.283 89.7136C40.0758 89.4549 39.0781 89.2409 38.0535 89.0212C36.6185 88.7136 36.0136 87.0311 36.865 85.8855C35.579 85.7818 34.425 85.2139 33.571 84.3474C33.5702 84.3481 33.57 84.3496 33.5691 84.3503C33.1071 84.738 32.5512 84.947 31.9832 84.9851C31.1072 85.138 30.3834 85.264 29.6404 85.3933C28.5581 85.5815 27.6745 84.5325 28.0437 83.4978L28.0603 83.449C27.5068 83.0189 27.0426 82.4798 26.699 81.864C26.0893 82.1135 25.4228 82.2526 24.7234 82.2527C23.1111 82.2527 21.6696 81.522 20.7117 80.3738C20.6058 80.3802 20.4989 80.3845 20.3914 80.3845C18.5186 80.3844 16.8765 79.3987 15.9548 77.9177C13.8732 77.8425 12.1013 76.5505 11.3328 74.7302C10.9236 74.6273 10.5352 74.5296 10.1414 74.4304C9.12897 74.1756 8.73579 72.9749 9.34937 72.1736C7.57057 71.6284 6.1973 70.1595 5.78687 68.3259C5.41054 68.1225 5.11524 67.8207 4.91772 67.4627C4.51498 66.8853 4.18282 66.4084 3.84155 65.9187C3.39027 65.2712 3.72561 64.4014 4.43921 64.1863C4.13234 63.5213 3.96069 62.7812 3.96069 62.0007C3.96071 60.6907 4.44317 59.4937 5.23999 58.5769C4.90964 57.8917 4.72534 57.1229 4.72534 56.3113C4.72536 55.8417 4.78781 55.3868 4.90405 54.9539C4.57057 54.4216 4.59406 53.6876 5.09448 53.1804L6.80347 51.45C6.89522 51.3396 6.99743 51.2385 7.10522 51.1433L7.19019 51.0574C7.19157 51.056 7.19439 51.0566 7.19507 51.0584C7.19553 51.0601 7.19749 51.0611 7.19897 51.0603C7.2856 50.9905 7.37807 50.9271 7.47339 50.8679C7.39806 50.5149 7.35816 50.1487 7.35815 49.7732C7.35815 48.8995 7.57263 48.076 7.9519 47.3523C7.92737 47.2494 7.90927 47.1449 7.89819 47.0398C7.73846 46.2819 7.60661 45.6566 7.47144 45.0144C7.27509 44.0816 8.15774 43.2832 9.06616 43.572L10.7 44.0906C11.1957 41.7707 13.2317 40.0229 15.6863 39.9675C15.7656 39.8192 15.8444 39.6723 15.9236 39.5242Z" fill="#58A700"/>
<path d="M37.051 82.3515C37.1296 82.1954 37.2221 82.0467 37.3259 81.9055L37.3743 81.8261C37.3754 81.8244 37.3779 81.8245 37.3789 81.8263C37.3798 81.828 37.3822 81.8282 37.3834 81.8267C37.6387 81.5019 37.9626 81.2253 38.3475 81.0206C39.8906 80.2003 41.8377 80.8454 42.6967 82.4608C43.5557 84.0764 43.0016 86.0513 41.4586 86.8719C40.8627 87.1888 40.2061 87.2868 39.5755 87.1952C38.5874 87.1589 37.7705 87.1288 36.9317 87.0978C35.707 87.0525 34.9857 85.7033 35.6286 84.6599L37.051 82.3515Z" fill="#5EB300"/>
<path d="M27.1639 70.9135C27.2854 71.0381 27.3955 71.1734 27.4948 71.3169L27.5551 71.3898C27.5565 71.3916 27.5555 71.3943 27.5533 71.3946C27.5511 71.395 27.5501 71.3974 27.5512 71.3992C27.7752 71.7463 27.931 72.1422 27.9992 72.5728C28.2726 74.2989 27.0298 75.9307 25.2226 76.217C23.4154 76.5033 21.7282 75.3355 21.4548 73.6093C21.349 72.941 21.47 72.2867 21.7636 71.7194C22.1188 70.7987 22.4129 70.0373 22.7149 69.2554C23.1565 68.1122 24.6671 67.8695 25.4443 68.8171L27.1639 70.9135Z" fill="#5EB300"/>
<path d="M10.7641 68.9699C10.9283 68.9124 11.0975 68.8699 11.2695 68.8405L11.3611 68.8167C11.3633 68.8161 11.3653 68.8182 11.3647 68.8204C11.3641 68.8224 11.3658 68.8244 11.3679 68.8241C11.7772 68.7678 12.2019 68.794 12.6209 68.9141C14.3008 69.3958 15.2543 71.2119 14.7503 72.9707C14.2459 74.7296 12.4746 75.7651 10.7945 75.2834C10.1441 75.0968 9.60225 74.7107 9.21217 74.2049C8.52792 73.4938 7.96215 72.9055 7.38116 72.3013C6.53167 71.418 6.95009 69.9463 8.13735 69.6424L10.7641 68.9699Z" fill="#5EB300"/>
<path d="M17.5812 61.3719C17.63 61.539 17.6636 61.7102 17.6839 61.8835L17.7029 61.9761C17.7034 61.9784 17.7012 61.9803 17.699 61.9795C17.697 61.9788 17.6949 61.9805 17.6951 61.9826C17.7299 62.3943 17.6825 62.8172 17.5406 63.2295C16.9716 64.882 15.1073 65.739 13.3772 65.1433C11.6471 64.5476 10.7057 62.7245 11.2747 61.0719C11.4945 60.4337 11.9077 59.9142 12.4315 59.5512C13.1788 58.9038 13.7968 58.3688 14.4314 57.8194C15.358 57.0172 16.8057 57.5121 17.0471 58.7136L17.5812 61.3719Z" fill="#5EB300"/>
<path d="M10.7641 68.9699C10.9283 68.9124 11.0975 68.8699 11.2695 68.8405L11.3611 68.8167C11.3633 68.8161 11.3653 68.8182 11.3647 68.8204C11.3641 68.8224 11.3658 68.8244 11.3679 68.8241C11.7772 68.7678 12.2019 68.794 12.6209 68.9141C14.3008 69.3958 15.2543 71.2119 14.7503 72.9707C14.2459 74.7296 12.4746 75.7651 10.7945 75.2834C10.1441 75.0968 9.60225 74.7107 9.21217 74.2049C8.52792 73.4938 7.96215 72.9055 7.38116 72.3013C6.53167 71.418 6.95009 69.9463 8.13735 69.6424L10.7641 68.9699Z" fill="#5EB300"/>
<path d="M7.12334 54.5928C7.28143 54.6656 7.43265 54.7525 7.57679 54.8509L7.6592 54.8973C7.6612 54.8985 7.66122 54.9013 7.65923 54.9025C7.65737 54.9036 7.65723 54.9062 7.65896 54.9075C7.99255 55.1513 8.28062 55.4645 8.49863 55.8421C9.37252 57.3557 8.79625 59.3249 7.2116 60.2398C5.62695 61.1547 3.6334 60.6691 2.75952 59.1555C2.42203 58.571 2.30107 57.9183 2.37073 57.2849C2.37244 56.2961 2.37409 55.4787 2.37578 54.6393C2.37825 53.4138 3.70148 52.6458 4.76668 53.2519L7.12334 54.5928Z" fill="#5EB300"/>
<path d="M20.6207 48.6621C20.5212 48.7942 20.411 48.918 20.2915 49.0329L20.2224 49.1109C20.2207 49.1128 20.2176 49.1121 20.2168 49.1097C20.2161 49.1075 20.2133 49.1067 20.2115 49.1083C19.9038 49.3838 19.5376 49.6003 19.1231 49.735C17.4609 50.2751 15.6545 49.302 15.0891 47.5617C14.5237 45.8215 15.4131 43.9725 17.0753 43.4324C17.7194 43.2232 18.3851 43.2415 18.9918 43.4432L21.5729 43.9965C22.7712 44.2534 23.2473 45.7071 22.4331 46.6231L20.6207 48.6621Z" fill="#5EB300"/>
<path d="M73.0513 72.2751C72.9493 72.4191 72.8601 72.5716 72.7837 72.7312L72.7392 72.8072C72.7381 72.809 72.7394 72.8112 72.7415 72.8112C72.7434 72.8112 72.7447 72.8132 72.7439 72.815C72.5767 73.1932 72.4839 73.6093 72.4839 74.0456C72.4842 75.7932 73.9677 77.2097 75.7974 77.2097C77.6269 77.2096 79.1106 75.7931 79.1108 74.0456C79.1108 73.3725 78.8903 72.748 78.5151 72.2351C78.0182 71.3778 77.6075 70.6696 77.1858 69.9424C76.571 68.8823 75.0412 68.8787 74.4217 69.9361L73.0513 72.2751Z" fill="#3E7500"/>
<path d="M71.4204 81.9646C71.3442 81.8148 71.2559 81.6714 71.1564 81.5355L71.1045 81.4512C71.1033 81.4492 71.1004 81.4493 71.0994 81.4514C71.0984 81.4532 71.0957 81.4535 71.0944 81.4518C70.839 81.1267 70.5149 80.8504 70.1297 80.6457C68.5866 79.8252 66.6395 80.4703 65.7805 82.0859C64.9218 83.7014 65.476 85.6756 67.019 86.4961C67.6151 86.813 68.2715 86.9111 68.9021 86.8193C69.8906 86.7831 70.7076 86.753 71.5467 86.7222C72.7715 86.6771 73.4928 85.3279 72.8499 84.2845L71.4204 81.9646Z" fill="#3E7500"/>
<path d="M90.2144 73.1541C90.0752 73.06 89.9284 72.9775 89.7755 72.9068L89.6892 72.8582C89.6872 72.8571 89.6848 72.8586 89.6848 72.8609C89.6848 72.863 89.6827 72.8645 89.6807 72.8636C89.2997 72.7031 88.8824 72.6187 88.4461 72.6263C86.6987 72.6568 85.3076 74.1641 85.3394 75.9935C85.3713 77.823 86.8143 79.2817 88.5618 79.2512C89.2355 79.2395 89.856 79.0078 90.3626 78.623C91.2108 78.1114 91.9114 77.6884 92.6309 77.2541C93.68 76.6207 93.6568 75.091 92.5888 74.4901L90.2144 73.1541Z" fill="#3E7500"/>
<path d="M94.9691 66.0224C94.8283 65.9272 94.68 65.8436 94.5252 65.7723L94.4429 65.7256C94.4409 65.7245 94.4384 65.726 94.4385 65.7283C94.4385 65.7304 94.4363 65.7319 94.4343 65.7311C94.0535 65.5707 93.6367 65.4851 93.2008 65.4927C91.4533 65.5232 90.0621 67.0314 90.094 68.8609C90.126 70.6903 91.569 72.1491 93.3164 72.1186C93.99 72.1068 94.6107 71.8751 95.1173 71.4904C95.9652 70.9789 96.6657 70.556 97.3851 70.1217C98.4343 69.4883 98.411 67.9584 97.3428 67.3576L94.9691 66.0224Z" fill="#3E7500"/>
<path d="M97.2739 66.5371C97.1301 66.4391 96.9776 66.3542 96.8191 66.2813L96.7368 66.2346C96.7348 66.2334 96.7324 66.2349 96.7324 66.2372C96.7324 66.2394 96.7303 66.2408 96.7283 66.24C96.3475 66.0797 95.9306 65.995 95.4947 66.0026C93.7473 66.0331 92.3562 67.5405 92.388 69.3698C92.4199 71.1993 93.8629 72.6581 95.6104 72.6276C96.2869 72.6157 96.9103 72.3829 97.418 71.9953C98.263 71.4856 98.9617 71.0638 99.6792 70.6306C100.728 69.9972 100.705 68.4674 99.637 67.8665L97.2739 66.5371Z" fill="#3E7500"/>
<path d="M81.8882 77.3548C81.796 77.2126 81.6922 77.0781 81.5779 76.9524L81.5204 76.8773C81.519 76.8754 81.5161 76.8758 81.5152 76.878C81.5144 76.8799 81.5119 76.8805 81.5104 76.8789C81.2225 76.5826 80.8718 76.3417 80.4676 76.1784C78.8472 75.5237 76.9778 76.3677 76.2922 78.064C75.6067 79.7606 76.365 81.6672 77.9855 82.3219C78.6112 82.5746 79.2738 82.6032 79.8912 82.4462C80.8704 82.3068 81.6799 82.1915 82.5111 82.0731C83.7244 81.9003 84.3008 80.4831 83.5523 79.5126L81.8882 77.3548Z" fill="#3E7500"/>
<path d="M87.49 40.9174C87.3885 41.0519 87.2977 41.1943 87.2191 41.3437L87.167 41.4264C87.1658 41.4283 87.1671 41.4308 87.1694 41.4309C87.1716 41.431 87.1729 41.4333 87.172 41.4352C86.992 41.807 86.8856 42.219 86.8704 42.6546C86.8094 44.4012 88.2419 45.8693 90.0704 45.9333C91.8991 45.9972 93.4313 44.6326 93.4923 42.8859C93.5158 42.2115 93.3161 41.5791 92.9573 41.0526C92.4915 40.1801 92.1063 39.4589 91.7107 38.7183C91.1333 37.6372 89.6045 37.5804 88.9485 38.6156L87.49 40.9174Z" fill="#3E7500"/>
<path d="M94.5142 58.7955C94.377 58.8951 94.2482 59.0057 94.1286 59.1265L94.0566 59.1879C94.0548 59.1893 94.0554 59.1922 94.0576 59.1929C94.0596 59.1936 94.0602 59.1962 94.0588 59.1977C93.7779 59.5007 93.5558 59.8636 93.4138 60.2757C92.8448 61.9281 93.7855 63.7509 95.5154 64.3468C97.2455 64.9425 99.1097 64.0855 99.6788 62.4329C99.8984 61.7949 99.8923 61.1317 99.7032 60.5234C99.5127 59.5527 99.3552 58.7504 99.1935 57.9265C98.9574 56.7239 97.512 56.2225 96.582 57.0207L94.5142 58.7955Z" fill="#3E7500"/>
<path d="M87.9854 56.9014C87.9888 57.0127 88.0023 57.1213 88.0224 57.2274L88.0333 57.3295C88.0335 57.3315 88.0359 57.3324 88.0373 57.331C88.0386 57.3298 88.0408 57.3304 88.0412 57.3322C88.1121 57.6205 88.2481 57.8833 88.452 58.102C89.2699 58.9791 90.8747 58.8123 92.0366 57.729C93.1984 56.6455 93.4774 55.0557 92.6594 54.1785C92.345 53.8415 91.9142 53.6596 91.4372 53.6238C90.7762 53.4984 90.2212 53.3931 89.6622 53.2871C88.6038 53.0864 87.6536 53.9681 87.7746 55.0385L87.9854 56.9014Z" fill="#3E7500"/>
<path d="M94.0959 49.2082C93.9884 49.3002 93.8918 49.4027 93.8012 49.5099L93.7217 49.5908C93.7202 49.5922 93.721 49.5947 93.723 49.5951C93.7248 49.5955 93.7256 49.5977 93.7245 49.5992C93.5073 49.8818 93.3508 50.21 93.2737 50.5729C92.965 52.0264 94.0478 53.488 95.6927 53.8376C97.3377 54.1872 98.9213 53.2924 99.2305 51.839C99.3488 51.2826 99.2629 50.7248 99.0197 50.2288C98.7439 49.474 98.5128 48.8421 98.2796 48.2044C97.8755 47.0989 96.456 46.7937 95.6332 47.6354L94.0959 49.2082Z" fill="#3E7500"/>
<path d="M57.2721 77.7309C57.1621 77.87 57.065 78.019 56.9799 78.1752L56.9308 78.2493C56.9295 78.2512 56.9308 78.2538 56.9331 78.2539C56.9352 78.254 56.9366 78.2563 56.9356 78.2582C56.7491 78.6269 56.6346 79.0367 56.6117 79.4721C56.5203 81.2175 57.9278 82.7095 59.7551 82.8053C61.5822 82.9008 63.1371 81.5641 63.2286 79.8189C63.2639 79.1457 63.0764 78.51 62.7276 77.9777C62.2767 77.0965 61.9039 76.3684 61.5211 75.6206C60.9625 74.5298 59.435 74.4462 58.761 75.4698L57.2721 77.7309Z" fill="#3E7500"/>
<path d="M81.301 66.4404C81.1925 66.5779 81.0963 66.7248 81.0121 66.879L80.9618 66.955C80.9606 66.9569 80.9619 66.9595 80.9641 66.9596C80.9663 66.9597 80.9676 66.962 80.9666 66.9639C80.7799 67.3328 80.6656 67.7432 80.6427 68.1788C80.5515 69.9241 81.9589 71.4162 83.7861 71.512C85.6131 71.6075 87.168 70.2707 87.2596 68.5256C87.2949 67.8539 87.1087 67.2191 86.7614 66.6874C86.3096 65.8046 85.9361 65.0756 85.5525 64.327C84.9936 63.2363 83.466 63.1528 82.792 64.1763L81.301 66.4404Z" fill="#3E7500"/>
<path d="M84.8836 54.1647C84.9857 54.3066 85.1003 54.439 85.225 54.5621L85.2852 54.633C85.2865 54.6346 85.289 54.6341 85.2897 54.6321C85.2904 54.6303 85.2926 54.6297 85.2941 54.631C85.597 54.9119 85.9602 55.1344 86.3724 55.2763C88.0248 55.8451 89.8471 54.9034 90.4428 53.1735C91.0385 51.4435 90.1823 49.5796 88.5299 49.0104C87.8917 48.7907 87.2279 48.7965 86.6194 48.9857C85.6491 49.1761 84.8471 49.3337 84.0234 49.4955C82.8208 49.7317 82.3195 51.1772 83.1177 52.1072L84.8836 54.1647Z" fill="#3E7500"/>
<path d="M84.8836 54.1647C84.9857 54.3066 85.1003 54.439 85.225 54.5621L85.2852 54.633C85.2865 54.6346 85.289 54.6341 85.2897 54.6321C85.2904 54.6303 85.2926 54.6297 85.2941 54.631C85.597 54.9119 85.9602 55.1344 86.3724 55.2763C88.0248 55.8451 89.8471 54.9034 90.4428 53.1735C91.0385 51.4435 90.1823 49.5796 88.5299 49.0104C87.8917 48.7907 87.2279 48.7965 86.6194 48.9857C85.6491 49.1761 84.8471 49.3337 84.0234 49.4955C82.8208 49.7317 82.3195 51.1772 83.1177 52.1072L84.8836 54.1647Z" fill="#3E7500"/>
<path d="M84.8836 54.1647C84.9857 54.3066 85.1003 54.439 85.225 54.5621L85.2852 54.633C85.2865 54.6346 85.289 54.6341 85.2897 54.6321C85.2904 54.6303 85.2926 54.6297 85.2941 54.631C85.597 54.9119 85.9602 55.1344 86.3724 55.2763C88.0248 55.8451 89.8471 54.9034 90.4428 53.1735C91.0385 51.4435 90.1823 49.5796 88.5299 49.0104C87.8917 48.7907 87.2279 48.7965 86.6194 48.9857C85.6491 49.1761 84.8471 49.3337 84.0234 49.4955C82.8208 49.7317 82.3195 51.1772 83.1177 52.1072L84.8836 54.1647Z" fill="#3E7500"/>
<path d="M84.8836 54.1647C84.9857 54.3066 85.1003 54.439 85.225 54.5621L85.2852 54.633C85.2865 54.6346 85.289 54.6341 85.2897 54.6321C85.2904 54.6303 85.2926 54.6297 85.2941 54.631C85.597 54.9119 85.9602 55.1344 86.3724 55.2763C88.0248 55.8451 89.8471 54.9034 90.4428 53.1735C91.0385 51.4435 90.1823 49.5796 88.5299 49.0104C87.8917 48.7907 87.2279 48.7965 86.6194 48.9857C85.6491 49.1761 84.8471 49.3337 84.0234 49.4955C82.8208 49.7317 82.3195 51.1772 83.1177 52.1072L84.8836 54.1647Z" fill="#3E7500"/>
<path d="M87.0183 38.7279C86.5691 37.8874 85.3802 37.8429 84.8699 38.6478L84.2019 39.7035C83.7327 39.6046 83.2789 39.5092 82.8201 39.4125C81.3238 39.0975 80.0435 40.5137 80.5066 41.9711L81.5359 45.2123C81.5829 45.4166 81.6478 45.6164 81.7273 45.8109L81.7644 45.9291C81.7653 45.9319 81.7683 45.9323 81.7703 45.9301C81.772 45.9281 81.7758 45.9288 81.7771 45.931C81.9882 46.4016 82.2965 46.8345 82.7009 47.1986C82.7234 47.2189 82.7474 47.2376 82.7703 47.2572C83.3438 48.129 84.1709 48.8177 85.1472 49.2201C85.2375 51.1909 86.4187 52.8764 88.1023 53.6859C87.8892 54.2554 87.7722 54.8722 87.7722 55.516C87.7723 56.8259 88.2567 58.0212 89.0535 58.9379C88.9597 59.1322 88.8788 59.3336 88.8093 59.5404C88.5512 59.5229 88.3013 59.5068 88.0486 59.4896C87.2069 59.4325 86.6163 60.3042 86.9812 61.0648L87.7888 62.7494C87.8279 62.8525 87.8779 62.9511 87.9324 63.0473L87.9724 63.1303C87.973 63.1316 87.9744 63.1322 87.9753 63.1312H87.9773C87.9631 63.149 87.9492 63.167 87.9353 63.185C87.1289 62.4574 85.8323 62.8567 85.5798 63.9184L85.0056 66.3334C84.97 66.448 84.9432 66.5655 84.9226 66.684L84.8904 66.8207C84.8898 66.8231 84.8919 66.8253 84.8943 66.8246C84.8964 66.824 84.8982 66.8254 84.8982 66.8275C84.8896 66.8992 84.8875 66.9719 84.8845 67.0443C84.3159 67.2681 83.7963 67.5885 83.3455 67.9857C83.3392 67.9725 83.3322 67.959 83.3259 67.9457C82.8591 66.9514 81.4929 66.829 80.8572 67.725L79.45 69.7084C79.3555 69.8199 79.2731 69.9407 79.197 70.0658L79.1306 70.1576L79.1345 70.1654C79.0613 70.2984 79.0016 70.4391 78.9509 70.5844C78.8057 70.7226 78.6684 70.8688 78.5398 71.0228C78.4339 71.0164 78.327 71.0131 78.2195 71.0131C76.8681 71.0131 75.637 71.5263 74.7097 72.3685C74.536 72.1102 74.3217 71.8845 74.0759 71.6996C73.4228 71.0926 72.8837 70.5917 72.3298 70.0775C71.5247 69.33 70.2118 69.7284 69.9578 70.7973L69.3923 73.1771C69.3494 73.3096 69.3185 73.4457 69.2957 73.5834L69.2673 73.6996C69.2668 73.7016 69.2693 73.7041 69.2712 73.7035C69.2729 73.703 69.2741 73.7038 69.2742 73.7055C69.2665 73.7697 69.2646 73.8349 69.2615 73.8998C68.6827 74.203 68.1685 74.6116 67.7429 75.1C67.5281 75.006 67.3057 74.9265 67.0769 74.8617C66.9008 74.5177 66.7275 74.1812 66.5535 73.8412C65.8565 72.4799 63.9503 72.3756 63.1091 73.6527L61.238 76.4945C61.1086 76.6601 60.9927 76.8371 60.8914 77.0219L60.825 77.1225C60.8237 77.1247 60.8252 77.1272 60.8279 77.1273C60.8304 77.1275 60.832 77.1309 60.8308 77.1332C60.6092 77.5712 60.4717 78.0563 60.4343 78.5707C60.4187 78.5706 60.4031 78.5707 60.3875 78.5707C57.5033 78.5707 55.1649 80.9082 55.1648 83.7924C55.1648 86.1989 56.793 88.2233 59.0076 88.8285C59.0951 88.8644 59.1838 88.8994 59.2751 88.9291C60.0751 89.1889 60.9018 89.1677 61.656 88.9193C62.8638 88.6604 63.8624 88.4459 64.8875 88.226C66.3225 87.918 66.9274 86.2348 66.0759 85.0892C67.3616 84.9859 68.5158 84.4191 69.3699 83.5531C69.3709 83.554 69.3717 83.5552 69.3728 83.556C69.8349 83.9437 70.3906 84.1508 70.9587 84.1889C71.8342 84.3417 72.5579 84.4676 73.3005 84.5971C74.3828 84.7855 75.2666 83.7373 74.8972 82.7025L74.8806 82.6537C75.4344 82.2235 75.8991 81.6847 76.2429 81.0687C76.8527 81.3184 77.5198 81.4574 78.2195 81.4574C79.8317 81.4574 81.2732 80.7266 82.2312 79.5785C82.3365 79.5848 82.4426 79.5892 82.5496 79.5892C84.4225 79.5892 86.0644 78.6027 86.9861 77.1215C89.0686 77.0469 90.8404 75.7549 91.6091 73.934C92.0183 73.8311 92.4067 73.7342 92.8005 73.6351C93.8128 73.3807 94.2065 72.1796 93.5935 71.3783C95.3721 70.8332 96.7454 69.364 97.156 67.5307C97.5323 67.3271 97.8267 67.0244 98.0242 66.6664C98.4268 66.0892 98.7599 65.612 99.1013 65.1225C99.5526 64.4749 99.2166 63.6058 98.5027 63.391C98.8097 62.7259 98.9812 61.9851 98.9812 61.2045C98.9811 59.8945 98.4978 58.6983 97.7009 57.7816C98.0315 57.0963 98.2165 56.3278 98.2166 55.516C98.2166 55.0462 98.1542 54.5907 98.0378 54.1576C98.3711 53.6255 98.348 52.8922 97.8474 52.3851L96.1199 50.6351C96.0341 50.534 95.94 50.4402 95.8406 50.3519L95.7517 50.2621C95.7501 50.2607 95.7475 50.2611 95.7468 50.2631C95.7463 50.2652 95.7436 50.2664 95.7419 50.265C95.6554 50.1953 95.5637 50.1318 95.4685 50.0726C95.5439 49.7193 95.5847 49.3528 95.5847 48.9769C95.5847 48.1036 95.37 47.2805 94.991 46.557C95.0161 46.4515 95.0347 46.3446 95.0457 46.2367C95.2047 45.4821 95.3367 44.8583 95.4714 44.2182C95.6675 43.2856 94.7849 42.4873 93.8767 42.7758L92.241 43.2953C91.7454 40.9758 89.7105 39.2284 87.2566 39.1723C87.1772 39.0236 87.0976 38.8763 87.0183 38.7279Z" fill="#58A700"/>
<path d="M65.8803 81.5364C65.805 81.3893 65.7178 81.2485 65.62 81.1148L65.5681 81.0305C65.5669 81.0285 65.5641 81.0286 65.563 81.0307C65.562 81.0326 65.5593 81.0328 65.558 81.0311C65.3027 80.706 64.9785 80.4298 64.5934 80.225C63.0503 79.4045 61.1028 80.0485 60.2437 81.6638C59.3846 83.2795 59.9395 85.2548 61.4827 86.0754C62.0777 86.3917 62.7327 86.49 63.3623 86.399C64.3525 86.3627 65.1706 86.3325 66.0108 86.3016C67.2354 86.2564 67.9568 84.9074 67.3141 83.864L65.8803 81.5364Z" fill="#5EB300"/>
<path d="M75.7702 70.1258C75.6525 70.2473 75.5447 70.3784 75.448 70.5177L75.3863 70.5934C75.3848 70.5952 75.3859 70.5979 75.3881 70.5982C75.3903 70.5985 75.3913 70.601 75.3902 70.6028C75.1662 70.9499 75.0104 71.3458 74.9422 71.7764C74.6688 73.5025 75.9117 75.1342 77.7188 75.4206C79.526 75.7069 81.2132 74.5391 81.4866 72.8129C81.592 72.1469 81.4713 71.4952 81.1798 70.9292C80.8235 70.0058 80.5291 69.2426 80.2267 68.4589C79.7856 67.3156 78.2753 67.0727 77.498 68.0201L75.7702 70.1258Z" fill="#5EB300"/>
<path d="M92.179 68.1727C92.0148 68.1153 91.8456 68.0727 91.6736 68.0434L91.582 68.0195C91.5798 68.019 91.5778 68.021 91.5784 68.0232C91.579 68.0253 91.5773 68.0273 91.5752 68.027C91.1659 67.9707 90.7413 67.9968 90.3222 68.1169C88.6423 68.5987 87.6887 70.4147 88.1928 72.1735C88.6972 73.9324 90.4685 74.968 92.1486 74.4862C92.799 74.2997 93.3408 73.9135 93.7309 73.4077C94.4152 72.6967 94.981 72.1083 95.562 71.5042C96.4114 70.6208 95.993 69.1492 94.8058 68.8452L92.179 68.1727Z" fill="#5EB300"/>
<path d="M85.358 60.5882C85.3116 60.7497 85.2784 60.9148 85.2585 61.0821L85.2389 61.1791C85.2385 61.1814 85.2406 61.1832 85.2428 61.1825C85.2448 61.1818 85.2469 61.1834 85.2467 61.1856C85.2117 61.5975 85.2605 62.0205 85.4024 62.433C85.9714 64.0855 87.8349 64.9427 89.5649 64.3472C91.295 63.7515 92.2365 61.9284 91.6674 60.2758C91.4468 59.6352 91.0317 59.114 90.5051 58.7508C89.76 58.1054 89.1435 57.5715 88.5104 57.0233C87.584 56.221 86.1364 56.7157 85.8949 57.9172L85.358 60.5882Z" fill="#5EB300"/>
<path d="M92.179 68.1727C92.0148 68.1153 91.8456 68.0727 91.6736 68.0434L91.582 68.0195C91.5798 68.019 91.5778 68.021 91.5784 68.0232C91.579 68.0253 91.5773 68.0273 91.5752 68.027C91.1659 67.9707 90.7413 67.9968 90.3222 68.1169C88.6423 68.5987 87.6887 70.4147 88.1928 72.1735C88.6972 73.9324 90.4685 74.968 92.1486 74.4862C92.799 74.2997 93.3408 73.9135 93.7309 73.4077C94.4152 72.6967 94.981 72.1083 95.562 71.5042C96.4114 70.6208 95.993 69.1492 94.8058 68.8452L92.179 68.1727Z" fill="#5EB300"/>
<path d="M95.8069 53.8023C95.6542 53.8732 95.5079 53.9571 95.3684 54.052L95.2823 54.1009C95.2803 54.102 95.2803 54.1049 95.2823 54.106C95.2841 54.1071 95.2843 54.1098 95.2825 54.111C94.9486 54.3549 94.6606 54.6686 94.4424 55.0465C93.5685 56.5601 94.1448 58.5293 95.7294 59.4442C97.3141 60.359 99.3068 59.873 100.181 58.3595C100.517 57.7771 100.639 57.1275 100.571 56.4963C100.569 55.5039 100.567 54.6844 100.566 53.8426C100.563 52.6171 99.2402 51.8491 98.175 52.4551L95.8069 53.8023Z" fill="#5EB300"/>
<path d="M82.3197 47.8624C82.4216 47.9978 82.5344 48.1247 82.6573 48.2422L82.7199 48.3131C82.7214 48.3148 82.7242 48.3143 82.725 48.3121C82.7256 48.31 82.7282 48.3093 82.7298 48.3108C83.0376 48.5864 83.4039 48.803 83.8185 48.9378C85.4807 49.4779 87.2871 48.5048 87.8526 46.7645C88.418 45.0243 87.5286 43.1753 85.8664 42.6352C85.2263 42.4273 84.5649 42.4443 83.9613 42.6425C82.992 42.8503 82.1913 43.0222 81.369 43.1987C80.1708 43.456 79.6947 44.91 80.509 45.8259L82.3197 47.8624Z" fill="#5EB300"/>
<circle cx="52.0725" cy="90.964" r="11.428" fill="#FFB100"/>
<circle cx="52.0532" cy="90.9443" r="9.84711" fill="#FFC800"/>
<path d="M50.5855 86.4024C50.5855 86.1569 50.7845 85.9579 51.03 85.9579H54.5859C54.8314 85.9579 55.0304 86.1569 55.0304 86.4024V95.4344C55.0304 95.6799 54.8314 95.8789 54.5859 95.8789H51.03C50.7845 95.8789 50.5855 95.6799 50.5855 95.4344V86.4024Z" fill="#FF9600"/>
<path d="M50.5044 86.2537C50.6919 86.0902 50.7856 86.0085 50.889 85.9825C50.98 85.9597 51.0759 85.9662 51.1629 86.0011C51.2619 86.0408 51.3437 86.1345 51.5074 86.3218L53.203 88.2623C53.3671 88.4502 53.4492 88.5442 53.4753 88.6478C53.4982 88.739 53.4916 88.8351 53.4564 88.9223C53.4165 89.0215 53.3223 89.1033 53.134 89.267L50.3878 91.6542C50.2 91.8175 50.106 91.8992 50.0025 91.925C49.9114 91.9477 49.8155 91.941 49.7284 91.9058C49.6295 91.8659 49.5478 91.7719 49.3845 91.5841L47.6975 89.6434C47.5345 89.4558 47.4529 89.362 47.4271 89.2586C47.4043 89.1676 47.411 89.0718 47.446 88.9848C47.4858 88.8859 47.5795 88.8042 47.7669 88.6408L50.5044 86.2537Z" fill="#FF9600"/>
</svg>
