<svg width="420" height="420" viewBox="0 0 420 420" fill="none" xmlns="http://www.w3.org/2000/svg">
<circle cx="210" cy="210" r="210" fill="#EA2B2B"/>
<circle cx="144.054" cy="223.522" r="57.1697" fill="#D9D9D9"/>
<circle cx="137.663" cy="224.509" r="57.1697" fill="#3A2418"/>
<circle cx="124.17" cy="200.086" r="57.1697" fill="#3A2418"/>
<circle cx="148.316" cy="161.736" r="57.1697" fill="#3A2418"/>
<circle cx="170.17" cy="140.17" r="57.1697" fill="#3A2418"/>
<circle cx="258.17" cy="140.17" r="57.1697" fill="#3A2418"/>
<circle cx="294.613" cy="200.086" r="57.1697" fill="#3A2418"/>
<circle cx="281.12" cy="224.509" r="57.1697" fill="#3A2418"/>
<path d="M131 171.681C131 168.544 133.544 166 136.681 166H284.319C287.456 166 290 168.544 290 171.681V276C290 314.66 258.66 346 220 346H201C162.34 346 131 314.66 131 276V171.681Z" fill="#EDBF8C"/>
<rect x="171.7" y="216.157" width="32.1656" height="53.9247" rx="16.0828" fill="#F7F7F7"/>
<rect x="214.902" y="216.157" width="32.1808" height="53.9247" rx="16.0904" fill="#F7F7F7"/>
<path d="M180.845 239.531C180.845 235.852 183.827 232.87 187.505 232.87H188.1C191.779 232.87 194.761 235.852 194.761 239.531V247.083C194.761 250.762 191.779 253.744 188.1 253.744H187.505C183.827 253.744 180.845 250.762 180.845 247.083V239.531Z" fill="#4B4B4B"/>
<path d="M224.048 239.531C224.048 235.852 227.03 232.87 230.709 232.87H231.303C234.982 232.87 237.964 235.852 237.964 239.531V247.083C237.964 250.762 234.982 253.744 231.303 253.744H230.709C227.03 253.744 224.048 250.762 224.048 247.083V239.531Z" fill="#4B4B4B"/>
<mask id="mask0_258_3" style="mask-type:alpha" maskUnits="userSpaceOnUse" x="214" y="216" width="34" height="55">
<rect x="214.902" y="216.157" width="32.1808" height="53.9247" rx="16.0904" fill="#F7F7F7"/>
</mask>
<g mask="url(#mask0_258_3)">
<rect x="214.72" y="187.888" width="56.4474" height="46.3563" rx="13.8754" transform="rotate(4 214.72 187.888)" fill="#E6A660"/>
</g>
<mask id="mask1_258_3" style="mask-type:alpha" maskUnits="userSpaceOnUse" x="171" y="216" width="33" height="55">
<rect x="171.7" y="216.157" width="32.1656" height="53.9247" rx="16.0828" fill="#F7F7F7"/>
</mask>
<g mask="url(#mask1_258_3)">
<rect x="170.258" y="183.045" width="56.4474" height="46.3563" rx="14.1907" transform="rotate(18 170.258 183.045)" fill="#E6A660"/>
</g>
<path d="M216.72 286.368C216.72 290.416 213.439 293.697 209.391 293.697C205.344 293.697 202.062 290.416 202.062 286.368C202.062 282.321 205.344 274.789 209.391 274.789C213.439 274.789 216.72 282.321 216.72 286.368Z" fill="#E6A660"/>
<rect x="199" y="308" width="21" height="10.5" rx="5.25" fill="#E1923D"/>
<circle cx="133.593" cy="155.016" r="57.1697" fill="#3A2418"/>
<circle cx="215.17" cy="148.17" r="57.1697" fill="#3A2418"/>
<circle cx="215.17" cy="126.17" r="57.1697" fill="#3A2418"/>
<circle cx="294.83" cy="152.922" r="57.1697" fill="#3A2418"/>
</svg>
