<svg width="420" height="420" viewBox="0 0 420 420" fill="none" xmlns="http://www.w3.org/2000/svg">
<circle cx="210" cy="210" r="210" fill="#3E7500"/>
<path d="M128 131H299V239.5C299 286.72 260.72 325 213.5 325C166.28 325 128 286.72 128 239.5V131Z" fill="#FFE2BD"/>
<path d="M218.309 255.496C218.309 261.255 213.64 265.924 207.881 265.924C202.121 265.924 197.452 261.255 197.452 255.496C197.452 249.736 202.121 239.019 207.881 239.019C213.64 239.019 218.309 249.736 218.309 255.496Z" fill="#FFCE8E"/>
<path d="M294.233 128.903C291.695 146.961 256.543 156.949 219.114 151.689C181.686 146.429 154.849 114.725 157.387 96.6664C159.925 78.6081 190.876 81.0336 228.305 86.2938C265.734 91.5541 296.771 110.844 294.233 128.903Z" fill="#212121"/>
<path d="M299.386 131.003C300.197 154.228 257.668 174.565 208.824 176.27C159.981 177.976 118.707 144.145 117.896 120.92C117.085 97.6945 157.044 93.869 205.887 92.1633C254.73 90.4577 298.575 107.778 299.386 131.003Z" fill="#212121"/>
<path d="M293.564 125.456C289.452 143.267 246.311 142.269 226.696 137.74C207.081 133.212 197.237 102.483 201.349 84.6722C205.461 66.8613 221.972 68.7126 241.587 73.2411C261.202 77.7695 297.676 107.646 293.564 125.456Z" fill="#212121"/>
<path d="M267.017 133.138C265.763 131.417 266.992 129 269.121 129H296.396C297.834 129 299 130.166 299 131.604V169.01C299 171.53 295.777 172.58 294.292 170.544L267.017 133.138Z" fill="#212121"/>
<rect x="171.415" y="177.396" width="35.2058" height="59.0215" rx="17.6029" fill="#F7F7F7"/>
<rect x="218.702" y="177.396" width="35.2225" height="59.0215" rx="17.6113" fill="#F7F7F7"/>
<path d="M181.424 202.98C181.424 198.953 184.688 195.689 188.714 195.689H189.365C193.391 195.689 196.655 198.953 196.655 202.98V211.246C196.655 215.272 193.391 218.536 189.365 218.536H188.714C184.688 218.536 181.424 215.272 181.424 211.246V202.98Z" fill="#4B4B4B"/>
<path d="M228.711 202.98C228.711 198.953 231.975 195.689 236.001 195.689H236.652C240.678 195.689 243.942 198.953 243.942 202.98V211.246C243.942 215.272 240.678 218.536 236.652 218.536H236.001C231.975 218.536 228.711 215.272 228.711 211.246V202.98Z" fill="#4B4B4B"/>
<path d="M181.424 202.98C181.424 198.953 184.688 195.689 188.714 195.689H189.365C193.391 195.689 196.655 198.953 196.655 202.98V211.246C196.655 215.272 193.391 218.536 189.365 218.536H188.714C184.688 218.536 181.424 215.272 181.424 211.246V202.98Z" fill="#4B4B4B"/>
<path d="M228.711 202.98C228.711 198.953 231.975 195.689 236.001 195.689H236.652C240.678 195.689 243.942 198.953 243.942 202.98V211.246C243.942 215.272 240.678 218.536 236.652 218.536H236.001C231.975 218.536 228.711 215.272 228.711 211.246V202.98Z" fill="#4B4B4B"/>
<mask id="mask0_258_4" style="mask-type:alpha" maskUnits="userSpaceOnUse" x="171" y="177" width="36" height="60">
<rect x="171.415" y="177.396" width="35.2058" height="59.0215" rx="17.6029" fill="#F7F7F7"/>
</mask>
<g mask="url(#mask0_258_4)">
<path d="M162.096 177.396H215.94V203.78C194.659 198.432 182.874 198.602 162.096 203.78V177.396Z" fill="#FFCE8E"/>
<path d="M162.096 177.396H215.94V203.78C194.659 198.432 182.874 198.602 162.096 203.78V177.396Z" fill="#FFCE8E"/>
</g>
<mask id="mask1_258_4" style="mask-type:alpha" maskUnits="userSpaceOnUse" x="218" y="177" width="36" height="60">
<rect x="218.702" y="177.396" width="35.2225" height="59.0215" rx="17.6113" fill="#F7F7F7"/>
</mask>
<g mask="url(#mask1_258_4)">
<path d="M215.94 177.396H269.785V203.78C248.504 198.432 236.718 198.602 215.94 203.78V177.396Z" fill="#FFCE8E"/>
<path d="M215.94 177.396H269.785V203.78C248.504 198.432 236.718 198.602 215.94 203.78V177.396Z" fill="#FFCE8E"/>
</g>
<path d="M235.046 289.536C234.958 287.862 233.971 286.363 232.469 285.62C212.311 275.643 200.36 270.417 187.347 288.333C186.874 288.984 186.642 289.793 186.684 290.596C186.865 294.038 191.484 295.415 193.963 293.019C204.365 282.966 213.971 285.559 227.828 293.789C231.081 295.721 235.244 293.314 235.046 289.536Z" fill="#FFCE8E"/>
<ellipse cx="209.02" cy="316.138" rx="11.6449" ry="18.484" fill="#212121"/>
<ellipse cx="203.787" cy="315.178" rx="11.6449" ry="18.484" transform="rotate(27 203.787 315.178)" fill="#212121"/>
<ellipse cx="215.327" cy="314.83" rx="11.6449" ry="18.484" transform="rotate(-30 215.327 314.83)" fill="#212121"/>
</svg>
