<svg width="420" height="420" viewBox="0 0 420 420" fill="none" xmlns="http://www.w3.org/2000/svg">
<circle cx="210" cy="210" r="210" fill="#066693"/>
<path d="M100 167C100 154.85 109.85 145 122 145H299C311.15 145 321 154.85 321 167V271C321 301.376 296.376 326 266 326H155C124.624 326 100 301.376 100 271V167Z" fill="#A56644"/>
<rect x="278" y="93" width="43" height="74" rx="21.5" fill="#212121"/>
<rect x="232" y="93" width="46" height="74" rx="23" fill="#212121"/>
<rect x="186" y="93" width="46" height="74" rx="23" fill="#212121"/>
<rect x="140" y="93" width="46" height="74" rx="23" fill="#212121"/>
<rect x="99" y="93" width="41" height="74" rx="20.5" fill="#212121"/>
<rect x="99" y="142" width="222" height="31" fill="#212121"/>
<path d="M207.031 262.984C207.031 269.62 201.651 275 195.016 275C188.38 275 183 269.62 183 262.984C183 256.349 188.38 244 195.016 244C201.651 244 207.031 256.349 207.031 262.984Z" fill="#5E3A27"/>
<rect x="152" y="180" width="36.269" height="60.8039" rx="18.1345" fill="#F7F7F7"/>
<rect x="203.714" y="180" width="36.2862" height="60.8039" rx="18.1431" fill="#F7F7F7"/>
<path d="M154.942 202.221C154.942 198.073 158.305 194.711 162.453 194.711H163.123C167.271 194.711 170.634 198.073 170.634 202.221V210.737C170.634 214.885 167.271 218.248 163.123 218.248H162.453C158.305 218.248 154.942 214.885 154.942 210.737V202.221Z" fill="#4B4B4B"/>
<path d="M206.656 202.221C206.656 198.073 210.019 194.711 214.167 194.711H214.837C218.985 194.711 222.348 198.073 222.348 202.221V210.737C222.348 214.885 218.985 218.248 214.837 218.248H214.167C210.019 218.248 206.656 214.885 206.656 210.737V202.221Z" fill="#4B4B4B"/>
<path d="M205.356 300.139C202.957 297.474 204.32 293.219 207.732 292.12C217.448 288.991 222.525 284.75 225.624 277.047C226.929 273.804 231.251 272.637 233.59 275.235C234.608 276.365 234.958 277.957 234.454 279.392C230.014 292.044 224.219 297.449 210.003 301.507C208.324 301.987 206.524 301.436 205.356 300.139Z" fill="#5E3A27"/>
<path d="M297.5 173H321V206H307C307.393 193.775 306.092 186.675 297.5 173Z" fill="url(#paint0_linear_258_2)"/>
<path d="M237.413 172.665C249.351 172.665 259.844 175.242 267.275 180.518C274.583 185.705 279.162 193.653 279.162 205.087C279.162 228.144 260.47 246.835 237.413 246.835C214.356 246.835 195.665 228.144 195.665 205.087C195.665 193.653 200.244 185.705 207.551 180.518C214.982 175.242 225.475 172.665 237.413 172.665Z" fill="#1CB0F6" fill-opacity="0.22" stroke="#212121" stroke-width="5.32961"/>
<path d="M152.414 172.665C140.476 172.665 129.984 175.242 122.552 180.518C115.245 185.705 110.665 193.653 110.665 205.087C110.665 228.144 129.357 246.835 152.414 246.835C175.471 246.835 194.162 228.144 194.162 205.087C194.162 193.653 189.583 185.705 182.276 180.518C174.845 175.242 164.352 172.665 152.414 172.665Z" fill="#1CB0F6" fill-opacity="0.22" stroke="#212121" stroke-width="5.32961"/>
<rect x="278" y="203" width="43" height="7" fill="#212121"/>
<rect x="100" y="203" width="11" height="7" fill="#212121"/>
<defs>
<linearGradient id="paint0_linear_258_2" x1="309.25" y1="173" x2="309.25" y2="206" gradientUnits="userSpaceOnUse">
<stop stop-color="#212121"/>
<stop offset="1" stop-color="#A56644"/>
</linearGradient>
</defs>
</svg>
