<svg width="600" height="600" viewBox="0 0 600 600" fill="none" xmlns="http://www.w3.org/2000/svg">
<circle cx="404.399" cy="441.399" r="56.3988" fill="#5B921E"/>
<path d="M514.05 247.836C530.579 247.836 544.472 234.02 538.649 218.55C538.33 217.703 537.997 216.86 537.65 216.022C533.473 205.936 527.349 196.771 519.629 189.052C511.909 181.332 502.745 175.208 492.658 171.03C482.572 166.852 471.762 164.702 460.844 164.702C449.927 164.702 439.117 166.852 429.03 171.03C418.944 175.208 409.779 181.332 402.06 189.052C394.34 196.771 388.216 205.936 384.038 216.022C383.691 216.86 383.358 217.703 383.039 218.55C377.217 234.02 391.109 247.836 407.638 247.836L514.05 247.836Z" fill="#5B921E"/>
<path d="M477.286 136.326C491.148 127.324 495.275 108.169 481.966 98.3669C481.237 97.8299 480.499 97.3045 479.752 96.7909C470.754 90.6072 460.627 86.2563 449.948 83.9864C439.27 81.7166 428.248 81.5723 417.514 83.5618C406.779 85.5513 396.542 89.6357 387.386 95.5817C378.23 101.528 370.334 109.219 364.151 118.216C357.967 127.214 353.616 137.341 351.346 148.019C349.076 158.698 348.932 169.719 350.922 180.454C351.087 181.346 351.267 182.234 351.461 183.118C355.003 199.263 374.179 203.284 388.042 194.282L477.286 136.326Z" fill="#5B921E"/>
<path d="M166.973 231.343C171.164 208.549 191.034 192 214.209 192H316.68C341.513 192 362.251 210.931 364.509 235.662L385.136 461.605C387.704 489.738 365.556 514 337.307 514H172.664C142.661 514 120.002 486.795 125.428 457.286L166.973 231.343Z" fill="#C5FF99"/>
<path d="M262.833 300.217C271.867 300.217 278.624 291.855 271.255 286.628C266.174 283.025 259.282 281 252.096 281C244.909 281 238.018 283.025 232.936 286.628C225.567 291.855 232.324 300.217 241.358 300.217L262.833 300.217Z" fill="#1453A3"/>
<rect x="214" y="220" width="33" height="55" rx="16.5" fill="#1453A3"/>
<rect x="258.129" y="220" width="33" height="55" rx="16.5" fill="#1453A3"/>
<rect x="214" y="220" width="33" height="55" rx="16.5" fill="#F7F7F7"/>
<rect x="258.129" y="220" width="33" height="55" rx="16.5" fill="#F7F7F7"/>
<path d="M216.665 240.414C216.665 236.488 219.847 233.306 223.772 233.306C227.697 233.306 230.879 236.488 230.879 240.414V247.49C230.879 251.415 227.697 254.597 223.772 254.597C219.847 254.597 216.665 251.415 216.665 247.49V240.414Z" fill="#4B4B4B"/>
<path d="M260.794 240.414C260.794 236.488 263.976 233.306 267.901 233.306C271.826 233.306 275.008 236.488 275.008 240.414V247.49C275.008 251.415 271.826 254.597 267.901 254.597C263.976 254.597 260.794 251.415 260.794 247.49V240.414Z" fill="#4B4B4B"/>
<path d="M171 458.698C171 417.996 203.996 385 244.698 385V385C285.401 385 318.396 417.996 318.396 458.698V480.677C318.396 498.97 303.567 513.8 285.274 513.8H204.123C185.83 513.8 171 498.97 171 480.677V458.698Z" fill="#92E154"/>
<mask id="mask0_1060_4682" style="mask-type:alpha" maskUnits="userSpaceOnUse" x="171" y="385" width="148" height="129">
<path d="M171 458.698C171 417.996 203.996 385 244.698 385V385C285.401 385 318.396 417.996 318.396 458.698V480.677C318.396 498.97 303.567 513.8 285.274 513.8H204.123C185.83 513.8 171 498.97 171 480.677V458.698Z" fill="#3B0202" fill-opacity="0.968627"/>
</mask>
<g mask="url(#mask0_1060_4682)">
<path d="M76 368C203.353 430.711 277.629 433.283 414 368" stroke="#59911B" stroke-width="17"/>
<path d="M76 407C203.353 469.711 277.629 472.283 414 407" stroke="#59911B" stroke-width="17"/>
<path d="M76 445C203.353 507.711 277.629 510.283 414 445" stroke="#59911B" stroke-width="17"/>
</g>
<path d="M225.081 341.529C236.254 357.996 260.517 357.996 271.69 341.529L357.568 214.965C370.256 196.266 356.861 170.99 334.264 170.99H162.508C139.91 170.99 126.515 196.266 139.203 214.965L225.081 341.529Z" fill="#83BF40"/>
<circle cx="156.619" cy="196.619" r="68.6186" fill="#4B4B4B"/>
<circle cx="142.895" cy="192.502" r="38.4264" fill="#F0F5F7"/>
<circle cx="333.539" cy="196.619" r="68.6186" fill="#4B4B4B"/>
<circle cx="319.815" cy="192.502" r="38.4264" fill="#F0F5F7"/>
<path d="M244.232 315.671C240.097 311.079 242.445 303.744 248.327 301.85C265.074 296.456 273.823 289.147 279.165 275.87C281.415 270.28 288.865 268.269 292.897 272.747C294.65 274.694 295.253 277.439 294.386 279.911C286.732 301.719 276.744 311.036 252.241 318.03C249.347 318.856 246.245 317.907 244.232 315.671Z" fill="#5B921E"/>
</svg>
