<svg width="426" height="432" viewBox="0 0 426 432" fill="none" xmlns="http://www.w3.org/2000/svg">
<circle cx="290.055" cy="359.4" r="56.3988" fill="#1453A3"/>
<path d="M399.707 165.837C416.236 165.837 430.128 152.021 424.306 136.551C423.987 135.704 423.654 134.861 423.307 134.023C419.129 123.937 413.005 114.772 405.285 107.053C397.566 99.3329 388.401 93.2092 378.315 89.0313C368.228 84.8535 357.418 82.7031 346.501 82.7031C335.583 82.7031 324.773 84.8535 314.687 89.0313C304.6 93.2092 295.436 99.3329 287.716 107.053C279.996 114.772 273.872 123.937 269.695 134.023C269.348 134.861 269.015 135.704 268.696 136.551C262.873 152.021 276.766 165.837 293.295 165.837L399.707 165.837Z" fill="#1453A3"/>
<path d="M362.942 54.3269C376.805 45.3246 380.931 26.1703 367.623 16.3678C366.893 15.8309 366.155 15.3055 365.408 14.7918C356.411 8.60819 346.283 4.25723 335.605 1.98738C324.926 -0.282455 313.905 -0.426734 303.17 1.56279C292.436 3.55232 282.198 7.63669 273.042 13.5827C263.886 19.5287 255.991 27.2199 249.807 36.2172C243.623 45.2145 239.272 55.3416 237.003 66.0204C234.733 76.6992 234.588 87.7205 236.578 98.455C236.743 99.3466 236.923 100.235 237.117 101.119C240.659 117.264 259.836 121.285 273.698 112.283L362.942 54.3269Z" fill="#1453A3"/>
<path d="M52.6292 149.344C56.8203 126.55 76.6901 110.001 99.8654 110.001H202.336C227.169 110.001 247.907 128.932 250.165 153.663L270.792 379.606C273.361 407.739 251.212 432.001 222.963 432.001H58.3205C28.3168 432.001 5.65842 404.796 11.0843 375.287L52.6292 149.344Z" fill="#1CB0F6"/>
<path d="M56.9648 376.899C56.9648 336.197 89.9607 303.201 130.663 303.201C171.366 303.201 204.361 336.197 204.361 376.899V398.878C204.361 417.171 189.532 432.001 171.239 432.001H90.0877C71.7944 432.001 56.9648 417.171 56.9648 398.878V376.899Z" fill="#F7F7F7" fill-opacity="0.968627"/>
<path d="M148.49 218.218C157.524 218.218 164.28 209.856 156.911 204.629C151.83 201.026 144.938 199.001 137.752 199.001C130.566 199.001 123.674 201.026 118.592 204.629C111.223 209.856 117.98 218.218 127.014 218.218H148.49Z" fill="#1453A3"/>
<rect x="99.6562" y="138.001" width="33" height="55" rx="16.5" fill="#1453A3"/>
<rect x="143.785" y="138.001" width="33" height="55" rx="16.5" fill="#1453A3"/>
<rect x="99.6562" y="138.001" width="33" height="55" rx="16.5" fill="#F7F7F7"/>
<rect x="143.785" y="138.001" width="33" height="55" rx="16.5" fill="#F7F7F7"/>
<path d="M102.321 158.415C102.321 154.489 105.503 151.307 109.429 151.307C113.354 151.307 116.536 154.489 116.536 158.415V165.49C116.536 169.416 113.354 172.598 109.429 172.598C105.503 172.598 102.321 169.416 102.321 165.49V158.415Z" fill="#4B4B4B"/>
<path d="M146.45 158.415C146.45 154.489 149.632 151.307 153.557 151.307C157.483 151.307 160.665 154.489 160.665 158.415V165.49C160.665 169.416 157.483 172.598 153.557 172.598C149.632 172.598 146.45 169.416 146.45 165.49V158.415Z" fill="#4B4B4B"/>
<rect x="99.6562" y="138.001" width="33" height="55" rx="16.5" fill="#F7F7F7"/>
<rect x="143.785" y="138.001" width="33" height="55" rx="16.5" fill="#F7F7F7"/>
<path d="M102.321 158.415C102.321 154.489 105.503 151.307 109.429 151.307C113.354 151.307 116.536 154.489 116.536 158.415V165.49C116.536 169.416 113.354 172.598 109.429 172.598C105.503 172.598 102.321 169.416 102.321 165.49V158.415Z" fill="#4B4B4B"/>
<path d="M146.45 158.415C146.45 154.489 149.632 151.307 153.557 151.307C157.483 151.307 160.665 154.489 160.665 158.415V165.49C160.665 169.416 157.483 172.598 153.557 172.598C149.632 172.598 146.45 169.416 146.45 165.49V158.415Z" fill="#4B4B4B"/>
<path d="M105.45 254.396C104.459 251.52 105.988 248.385 108.864 247.395L157.077 230.794C159.953 229.804 163.088 231.333 164.078 234.209C169.653 250.399 161.047 268.042 144.857 273.617L-nan -nanL144.857 273.617C128.668 279.192 111.024 270.586 105.45 254.396Z" fill="#4B4B4B"/>
<path d="M105.45 254.397C104.459 251.52 105.988 248.386 108.864 247.395L157.077 230.794C159.953 229.804 163.088 231.333 164.078 234.209C169.653 250.399 161.047 268.043 144.857 273.617L-nan -nanL144.857 273.617C128.668 279.192 111.024 270.586 105.45 254.397Z" fill="#4B4B4B"/>
<path fill-rule="evenodd" clip-rule="evenodd" d="M119.656 243.599L124.7 273.544C125.21 276.575 127.834 278.794 130.907 278.794H149.694C152.779 278.794 155.41 276.558 155.907 273.513L161.658 238.26C162.24 234.697 159.722 231.438 156.243 231.001L119.656 243.599Z" fill="#F0F0F0"/>
<path d="M148.49 218.218C157.524 218.218 164.28 209.856 156.911 204.629C151.83 201.026 144.938 199.001 137.752 199.001C130.566 199.001 123.674 201.026 118.592 204.629C111.223 209.856 117.98 218.218 127.014 218.218H148.49Z" fill="#FFAADE"/>
</svg>
