<svg width="600" height="600" viewBox="0 0 600 600" fill="none" xmlns="http://www.w3.org/2000/svg">
<circle cx="418.399" cy="461.399" r="56.3988" fill="#1453A3"/>
<path d="M528.05 267.836C544.579 267.836 558.472 254.02 552.649 238.55C552.33 237.703 551.997 236.86 551.65 236.022C547.473 225.936 541.349 216.771 533.629 209.052C525.909 201.332 516.745 195.208 506.658 191.03C496.572 186.852 485.762 184.702 474.844 184.702C463.927 184.702 453.117 186.852 443.03 191.03C432.944 195.208 423.779 201.332 416.06 209.052C408.34 216.771 402.216 225.936 398.038 236.022C397.691 236.86 397.358 237.703 397.039 238.55C391.217 254.02 405.109 267.836 421.638 267.836L528.05 267.836Z" fill="#1453A3"/>
<path d="M491.286 156.326C505.148 147.324 509.275 128.169 495.966 118.367C495.237 117.83 494.499 117.304 493.752 116.791C484.754 110.607 474.627 106.256 463.948 103.986C453.27 101.717 442.248 101.572 431.514 103.562C420.779 105.551 410.542 109.636 401.386 115.582C392.23 121.528 384.334 129.219 378.151 138.216C371.967 147.214 367.616 157.341 365.346 168.019C363.076 178.698 362.932 189.719 364.922 200.454C365.087 201.346 365.267 202.234 365.461 203.118C369.003 219.263 388.179 223.284 402.042 214.282L491.286 156.326Z" fill="#1453A3"/>
<path d="M180.973 251.343C185.164 228.549 205.034 212 228.209 212H330.68C355.513 212 376.251 230.931 378.509 255.662L399.136 481.605C401.704 509.738 379.556 534 351.307 534H186.664C156.661 534 134.002 506.795 139.428 477.286L180.973 251.343Z" fill="#1CB0F6"/>
<path d="M185.309 478.898C185.309 438.196 218.304 405.2 259.007 405.2V405.2C299.709 405.2 332.705 438.196 332.705 478.898V500.877C332.705 519.171 317.875 534 299.582 534H218.431C200.138 534 185.309 519.171 185.309 500.877V478.898Z" fill="#F7F7F7" fill-opacity="0.968627"/>
<path d="M276.833 320.217C285.867 320.217 292.624 311.855 285.255 306.628C280.174 303.025 273.282 301 266.096 301C258.909 301 252.018 303.025 246.936 306.628C239.567 311.855 246.324 320.217 255.358 320.217L276.833 320.217Z" fill="#1453A3"/>
<rect x="272" y="240" width="33" height="55" rx="16.5" fill="#F7F7F7"/>
<rect width="6.03711" height="18.5827" rx="3.01856" transform="matrix(0.896153 -0.443744 0.433032 0.901378 282.174 260.691)" fill="#4B4B4B"/>
<rect width="6.03711" height="18.5827" rx="3.01856" transform="matrix(-0.896153 -0.443744 -0.433032 0.901378 295.632 260.691)" fill="#4B4B4B"/>
<rect x="228" y="240" width="33" height="55" rx="16.5" fill="#F7F7F7"/>
<rect width="6.03711" height="18.5827" rx="3.01856" transform="matrix(0.896153 -0.443744 0.433032 0.901378 237.504 260.691)" fill="#4B4B4B"/>
<rect width="6.03711" height="18.5827" rx="3.01856" transform="matrix(-0.896153 -0.443744 -0.433032 0.901378 250.961 260.691)" fill="#4B4B4B"/>
<rect x="89.3521" y="195.75" width="125.146" height="63.4011" rx="9.936" transform="rotate(-40 89.3521 195.75)" fill="#D9B56D"/>
<rect x="89.1738" y="259.208" width="207" height="29.808" rx="6.86057" transform="rotate(-40 89.1738 259.208)" fill="#D9B56D"/>
<rect x="109.729" y="220.034" width="125.146" height="16.7966" transform="rotate(-40 109.729 220.034)" fill="#FF0F0F"/>
<rect x="166.345" y="141.027" width="3.62107" height="15.0414" rx="1.81053" transform="rotate(-40 166.345 141.027)" fill="#CC9D3D"/>
<rect x="171.253" y="136.909" width="3.62107" height="15.0414" rx="1.81053" transform="rotate(-40 171.253 136.909)" fill="#CC9D3D"/>
<rect x="176.801" y="132.254" width="3.62107" height="15.0414" rx="1.81053" transform="rotate(-40 176.801 132.254)" fill="#CC9D3D"/>
<rect x="132.488" y="232.436" width="3.62107" height="15.0414" rx="1.81053" transform="rotate(-40 132.488 232.436)" fill="#CC9D3D"/>
<rect x="137.396" y="228.318" width="3.62107" height="15.0414" rx="1.81053" transform="rotate(-40 137.396 228.318)" fill="#CC9D3D"/>
<rect x="142.944" y="223.663" width="3.62107" height="15.0414" rx="1.81053" transform="rotate(-40 142.944 223.663)" fill="#CC9D3D"/>
<mask id="mask0_1060_4682" style="mask-type:alpha" maskUnits="userSpaceOnUse" x="137" y="212" width="263" height="322">
<path d="M181.656 247.714C185.461 227.023 203.499 212 224.537 212H334.794C357.337 212 376.164 229.186 378.214 251.636L399.656 486.434C401.988 511.973 381.881 534 356.235 534H181.352C154.113 534 133.543 509.301 138.47 482.512L181.656 247.714Z" fill="#1CB0F6"/>
</mask>
<g mask="url(#mask0_1060_4682)">
<path d="M129 356.608L274.873 371.235L421.501 356.608V578.636H129V356.608Z" fill="#E68700"/>
<path d="M192.644 415.238C192.644 404.612 201.258 395.999 211.883 395.999H341.799C352.425 395.999 361.038 404.612 361.038 415.238V578.677H192.644V415.238Z" fill="#58A700"/>
<mask id="mask1_1060_4682" style="mask-type:alpha" maskUnits="userSpaceOnUse" x="128" y="356" width="294" height="223">
<path d="M128.999 356.608L274.872 371.235L421.501 356.608V578.636H128.999V356.608Z" fill="#E68700"/>
</mask>
<g mask="url(#mask1_1060_4682)">
<path d="M128.999 341.803L225.291 431.336" stroke="#407A00" stroke-width="39.532" stroke-linecap="round"/>
<path d="M417.313 342.332L320.465 432.382" stroke="#407A00" stroke-width="39.532" stroke-linecap="round"/>
</g>
<ellipse cx="225.261" cy="431.689" rx="10.3423" ry="10.3103" fill="#1D3800"/>
<ellipse cx="319.934" cy="432.746" rx="10.3423" ry="10.3103" fill="#1D3800"/>
</g>
<path d="M276.833 320.217C285.867 320.217 292.624 311.855 285.255 306.628C280.174 303.025 273.282 301 266.096 301C258.909 301 252.018 303.025 246.936 306.628C239.567 311.855 246.324 320.217 255.358 320.217L276.833 320.217Z" fill="#FFAADE"/>
<rect x="228" y="240" width="32.8553" height="55" rx="16.4276" fill="#F7F7F7"/>
<rect x="272.129" y="240" width="32.8709" height="55" rx="16.4354" fill="#F7F7F7"/>
<path d="M237.341 264.154C237.341 260.229 240.523 257.047 244.449 257.047C248.374 257.047 251.556 260.229 251.556 264.154V271.23C251.556 275.155 248.374 278.337 244.449 278.337C240.523 278.337 237.341 275.155 237.341 271.23V264.154Z" fill="#4B4B4B"/>
<path d="M281.47 264.154C281.47 260.229 284.652 257.047 288.577 257.047C292.503 257.047 295.685 260.229 295.685 264.154V271.23C295.685 275.155 292.503 278.337 288.577 278.337C284.652 278.337 281.47 275.155 281.47 271.23V264.154Z" fill="#4B4B4B"/>
<mask id="mask2_1060_4682" style="mask-type:alpha" maskUnits="userSpaceOnUse" x="228" y="240" width="33" height="55">
<rect x="228" y="240" width="33" height="55" rx="16.5" fill="#F7F7F7"/>
</mask>
<g mask="url(#mask2_1060_4682)">
<rect width="43.4699" height="33.7836" transform="matrix(0.874922 0.484265 -0.485355 0.874317 239.243 218.45)" fill="#1453A3"/>
</g>
<mask id="mask3_1060_4682" style="mask-type:alpha" maskUnits="userSpaceOnUse" x="272" y="240" width="33" height="55">
<rect x="272" y="240" width="33" height="55" rx="16.5" fill="#F7F7F7"/>
</mask>
<g mask="url(#mask3_1060_4682)">
<rect width="43.4699" height="33.7836" transform="matrix(-0.874922 0.484265 0.485355 0.874317 293.734 217.164)" fill="#1453A3"/>
</g>
<path d="M244 343.945C244 342.454 244.807 341.077 246.106 340.347C263.545 330.548 273.915 325.351 286.306 340.657C286.756 341.212 287 341.92 287 342.635C287 345.701 282.962 347.139 280.648 345.126C270.942 336.682 262.532 339.432 250.609 347.386C247.809 349.254 244 347.31 244 343.945Z" fill="#1453A3"/>
</svg>
