<svg width="426" height="432" viewBox="0 0 426 432" fill="none" xmlns="http://www.w3.org/2000/svg">
<circle cx="289.813" cy="359.4" r="56.3988" fill="#636366"/>
<path d="M399.464 165.838C415.993 165.838 429.886 152.021 424.063 136.551C423.745 135.704 423.411 134.861 423.064 134.024C418.887 123.937 412.763 114.773 405.043 107.053C397.324 99.3331 388.159 93.2095 378.073 89.0316C367.986 84.8537 357.176 82.7034 346.258 82.7034C335.341 82.7034 324.531 84.8537 314.444 89.0316C304.358 93.2095 295.193 99.3331 287.474 107.053C279.754 114.773 273.63 123.937 269.452 134.024C269.105 134.861 268.772 135.704 268.453 136.551C262.631 152.021 276.524 165.838 293.052 165.838L399.464 165.838Z" fill="#636366"/>
<path d="M362.7 54.3273C376.563 45.325 380.689 26.1706 367.38 16.3682C366.651 15.8312 365.913 15.3058 365.166 14.7922C356.168 8.60855 346.041 4.2576 335.363 1.98775C324.684 -0.282088 313.662 -0.426368 302.928 1.56316C292.193 3.55269 281.956 7.63706 272.8 13.5831C263.644 19.5291 255.748 27.2203 249.565 36.2176C243.381 45.2148 239.03 55.342 236.76 66.0208C234.491 76.6995 234.346 87.7208 236.336 98.4554C236.501 99.347 236.681 100.235 236.875 101.12C240.417 117.265 259.593 121.286 273.456 112.283L362.7 54.3273Z" fill="#636366"/>
<path d="M200.907 110.001C225.855 110.001 246.698 129.001 249.001 153.842L269.9 379.241C272.526 407.556 250.243 432.001 221.807 432.001H53.7285C23.5006 432.001 0.700927 404.549 6.25 374.834L17.3207 315.549C18.1919 310.883 22.9098 308.027 27.5667 308.944C33.5417 310.121 39.7217 310.739 46.0479 310.739C97.8439 310.738 139.833 269.383 139.833 218.369C139.833 176.742 111.874 141.547 73.4423 130.004C67.3788 128.183 64.8273 120.721 70.1925 117.359C77.6674 112.676 86.4786 110.001 95.8223 110.001H200.907Z" fill="#8E8E93"/>
<path d="M145.902 96.5721C124.504 91.6654 105.195 81.2021 90.1044 65.0197C75.014 48.8372 65.9232 28.845 62.5211 7.15699L145.902 96.5721ZM118.726 39.1445C133.816 55.3267 142.906 75.3188 146.308 97.0064L62.928 7.592C84.3256 12.4987 103.635 22.9622 118.726 39.1445Z" fill="#8E8E93"/>
</svg>
