<svg width="600" height="600" viewBox="0 0 600 600" fill="none" xmlns="http://www.w3.org/2000/svg">
<circle cx="418.399" cy="461.399" r="56.3988" fill="#1453A3"/>
<path d="M528.05 267.836C544.579 267.836 558.472 254.02 552.649 238.55C552.33 237.703 551.997 236.86 551.65 236.022C547.473 225.936 541.349 216.771 533.629 209.052C525.909 201.332 516.745 195.208 506.658 191.03C496.572 186.852 485.762 184.702 474.844 184.702C463.927 184.702 453.117 186.852 443.03 191.03C432.944 195.208 423.779 201.332 416.06 209.052C408.34 216.771 402.216 225.936 398.038 236.022C397.691 236.86 397.358 237.703 397.039 238.55C391.217 254.02 405.109 267.836 421.638 267.836L528.05 267.836Z" fill="#1453A3"/>
<path d="M491.286 156.326C505.148 147.324 509.275 128.169 495.966 118.367C495.237 117.83 494.499 117.304 493.752 116.791C484.754 110.607 474.627 106.256 463.948 103.986C453.27 101.717 442.248 101.572 431.514 103.562C420.779 105.551 410.542 109.636 401.386 115.582C392.23 121.528 384.334 129.219 378.151 138.216C371.967 147.214 367.616 157.341 365.346 168.019C363.076 178.698 362.932 189.719 364.922 200.454C365.087 201.346 365.267 202.234 365.461 203.118C369.003 219.263 388.179 223.284 402.042 214.282L491.286 156.326Z" fill="#1453A3"/>
<path d="M180.973 251.343C185.164 228.549 205.034 212 228.209 212H330.68C355.513 212 376.251 230.931 378.509 255.662L399.136 481.605C401.704 509.738 379.556 534 351.307 534H186.664C156.661 534 134.002 506.795 139.428 477.286L180.973 251.343Z" fill="#1CB0F6"/>
<path d="M185.309 478.898C185.309 438.196 218.304 405.2 259.007 405.2V405.2C299.709 405.2 332.705 438.196 332.705 478.898V500.877C332.705 519.171 317.875 534 299.582 534H218.431C200.138 534 185.309 519.171 185.309 500.877V478.898Z" fill="#F7F7F7" fill-opacity="0.968627"/>
<path d="M276.833 320.217C285.867 320.217 292.624 311.855 285.255 306.628C280.174 303.025 273.282 301 266.096 301C258.909 301 252.018 303.025 246.936 306.628C239.567 311.855 246.324 320.217 255.358 320.217L276.833 320.217Z" fill="#1453A3"/>
<rect x="272" y="240" width="33" height="55" rx="16.5" fill="#F7F7F7"/>
<rect width="6.03711" height="18.5827" rx="3.01856" transform="matrix(0.896153 -0.443744 0.433032 0.901378 282.174 260.691)" fill="#4B4B4B"/>
<rect width="6.03711" height="18.5827" rx="3.01856" transform="matrix(-0.896153 -0.443744 -0.433032 0.901378 295.632 260.691)" fill="#4B4B4B"/>
<rect x="228" y="240" width="33" height="55" rx="16.5" fill="#F7F7F7"/>
<rect width="6.03711" height="18.5827" rx="3.01856" transform="matrix(0.896153 -0.443744 0.433032 0.901378 237.504 260.691)" fill="#4B4B4B"/>
<rect width="6.03711" height="18.5827" rx="3.01856" transform="matrix(-0.896153 -0.443744 -0.433032 0.901378 250.961 260.691)" fill="#4B4B4B"/>
<rect x="80.4614" y="269.719" width="230" height="24.6091" rx="12.3045" transform="rotate(-40 80.4614 269.719)" fill="#4B4B4B"/>
<path d="M197.526 179.522C187.602 167.696 175.431 158.581 163.688 154.184C151.946 149.786 141.596 150.466 134.913 156.073C128.231 161.68 125.764 171.755 128.056 184.083C130.348 196.41 137.21 209.98 147.134 221.806L197.526 179.522Z" fill="#4B4B4B"/>
<mask id="mask0_1060_4682" style="mask-type:alpha" maskUnits="userSpaceOnUse" x="85" y="126" width="183" height="158">
<rect x="80.4619" y="269.72" width="230" height="24.6091" rx="12.3045" transform="rotate(-40 80.4619 269.72)" fill="#D9D9D9"/>
</mask>
<g mask="url(#mask0_1060_4682)">
<rect x="77.7158" y="281.908" width="247.037" height="9.46502" transform="rotate(-40 77.7158 281.908)" fill="#FF4B4B"/>
</g>
<mask id="mask1_1060_4682" style="mask-type:alpha" maskUnits="userSpaceOnUse" x="138" y="212" width="262" height="322">
<path d="M180.989 251.34C185.181 228.548 205.05 212 228.224 212H330.753C355.586 212 376.324 230.93 378.582 255.66L399.215 481.604C401.784 509.737 379.636 534 351.386 534H186.667C156.663 534 134.004 506.794 139.432 477.284L180.989 251.34Z" fill="#1CB0F6"/>
</mask>
<g mask="url(#mask1_1060_4682)">
<path d="M116.997 362.003L266.083 376.95L415.942 362.003V588.891H116.997V362.003Z" fill="#4B4B4B"/>
<mask id="mask2_1060_4682" style="mask-type:alpha" maskUnits="userSpaceOnUse" x="116" y="362" width="300" height="227">
<path d="M116.997 362.003L266.083 376.95L415.942 362.003V588.891H116.997V362.003Z" fill="#4B4B4B"/>
</mask>
<g mask="url(#mask2_1060_4682)">
<rect x="232.03" y="357.572" width="67.0197" height="256.246" fill="#D9D9D9"/>
<rect x="232.03" y="473.231" width="67.0197" height="66.8035" fill="#EA2B2B"/>
<ellipse cx="265.54" cy="397.953" rx="7.5022" ry="7.478" fill="#4B4B4B"/>
</g>
</g>
<path d="M279.154 389.589C282.119 377.887 269.821 368.201 259.085 373.783L215.262 396.57C206.121 401.323 205.067 413.951 213.295 420.131L245.264 444.144C253.27 450.158 264.844 446.085 267.3 436.388L279.154 389.589Z" fill="#ED4545"/>
<path d="M280.084 373.25C270.186 366.299 256.715 374.267 258.096 386.257L263.734 435.206C264.91 445.419 276.36 450.931 285.096 445.489L319.045 424.345C327.546 419.05 327.874 406.817 319.67 401.054L280.084 373.25Z" fill="#EA2B2B"/>
<rect x="228" y="240" width="32.8553" height="55" rx="16.4276" fill="#F7F7F7"/>
<rect x="272.129" y="240" width="32.8709" height="55" rx="16.4354" fill="#F7F7F7"/>
<path d="M237.341 264.154C237.341 260.229 240.523 257.047 244.449 257.047C248.374 257.047 251.556 260.229 251.556 264.154V271.23C251.556 275.155 248.374 278.337 244.449 278.337C240.523 278.337 237.341 275.155 237.341 271.23V264.154Z" fill="#4B4B4B"/>
<path d="M281.47 264.154C281.47 260.229 284.652 257.047 288.577 257.047C292.503 257.047 295.685 260.229 295.685 264.154V271.23C295.685 275.155 292.503 278.337 288.577 278.337C284.652 278.337 281.47 275.155 281.47 271.23V264.154Z" fill="#4B4B4B"/>
<mask id="mask3_1060_4682" style="mask-type:alpha" maskUnits="userSpaceOnUse" x="272" y="240" width="33" height="55">
<rect x="272" y="240" width="33" height="55" rx="16.5" fill="#F7F7F7"/>
</mask>
<g mask="url(#mask3_1060_4682)">
<rect width="57.6574" height="47.281" rx="23.6405" transform="matrix(0.997571 0.0696545 -0.0698586 0.997557 274.601 209.746)" fill="#1453A3"/>
</g>
<mask id="mask4_1060_4682" style="mask-type:alpha" maskUnits="userSpaceOnUse" x="228" y="240" width="33" height="55">
<rect x="228" y="240" width="33" height="55" rx="16.5" fill="#F7F7F7"/>
</mask>
<g mask="url(#mask4_1060_4682)">
<rect width="57.6497" height="47.2873" rx="23.6437" transform="matrix(0.95119 0.308606 -0.309428 0.950923 226.526 206.228)" fill="#1453A3"/>
</g>
<path d="M276.833 320.217C285.867 320.217 292.624 311.855 285.255 306.628C280.174 303.025 273.282 301 266.096 301C258.909 301 252.018 303.025 246.936 306.628C239.567 311.855 246.324 320.217 255.358 320.217L276.833 320.217Z" fill="#FFAADE"/>
<rect width="25" height="12.5" rx="6.25" transform="matrix(1 0 0 -1 254 339.5)" fill="#1453A3"/>
</svg>
