<svg width="551" height="511" viewBox="0 0 551 511" fill="none" xmlns="http://www.w3.org/2000/svg">
<circle cx="415.055" cy="438.399" r="56.3988" fill="#438000"/>
<path d="M524.707 244.836C541.236 244.836 555.128 231.02 549.306 215.55C548.987 214.703 548.654 213.86 548.307 213.022C544.129 202.936 538.005 193.771 530.285 186.052C522.566 178.332 513.401 172.208 503.315 168.03C493.228 163.852 482.418 161.702 471.501 161.702C460.583 161.702 449.773 163.852 439.687 168.03C429.6 172.208 420.436 178.332 412.716 186.052C404.996 193.771 398.872 202.936 394.695 213.022C394.348 213.86 394.015 214.703 393.696 215.55C387.873 231.02 401.766 244.836 418.295 244.836L524.707 244.836Z" fill="#438000"/>
<path d="M487.942 133.326C501.805 124.324 505.931 105.169 492.623 95.3669C491.893 94.8299 491.155 94.3045 490.408 93.7909C481.411 87.6072 471.283 83.2563 460.605 80.9864C449.926 78.7166 438.905 78.5723 428.17 80.5618C417.436 82.5513 407.198 86.6357 398.042 92.5817C388.886 98.5277 380.991 106.219 374.807 115.216C368.623 124.214 364.272 134.341 362.003 145.019C359.733 155.698 359.588 166.719 361.578 177.454C361.743 178.346 361.923 179.234 362.117 180.118C365.659 196.263 384.836 200.284 398.698 191.282L487.942 133.326Z" fill="#438000"/>
<path d="M177.629 228.343C181.82 205.549 201.69 189 224.865 189H327.336C352.169 189 372.907 207.931 375.165 232.662L395.792 458.605C398.361 486.738 376.212 511 347.963 511H183.321C153.317 511 130.658 483.796 136.084 454.286L177.629 228.343Z" fill="#58CC02"/>
<path d="M181.965 455.898C181.965 415.196 214.961 382.2 255.663 382.2C296.366 382.2 329.361 415.196 329.361 455.898V477.877C329.361 496.171 314.532 511 296.239 511H215.088C196.794 511 181.965 496.171 181.965 477.877V455.898Z" fill="#D3FDB2"/>
<path d="M252.495 230.903C249.401 216.526 237.709 205.579 223.16 203.437C183.418 197.587 166.385 252.112 202.391 269.923L220.775 279.018C224.271 280.747 228.119 281.647 232.019 281.647C248.172 281.647 260.208 266.746 256.81 250.954L252.495 230.903Z" fill="#4B4B4B"/>
<path d="M284.818 230.903C287.911 216.526 299.603 205.579 314.153 203.437C353.895 197.587 370.927 252.111 334.921 269.923L316.538 279.017C313.042 280.747 309.194 281.646 305.294 281.646C289.141 281.646 277.105 266.745 280.503 250.954L284.818 230.903Z" fill="#4B4B4B"/>
<rect x="191.833" y="216.459" width="20.5101" height="25.9795" rx="10.2551" fill="#666666"/>
<rect x="294.608" y="216.459" width="20.5101" height="25.9795" rx="10.2551" fill="#666666"/>
<path opacity="0.5" d="M126.206 129.525C127.114 122.216 133.51 116.849 140.866 117.224L279.027 124.275C290.067 124.839 296.121 137.35 289.509 146.209C240.694 211.609 199.639 244.772 129.083 280.697C119.186 285.736 107.82 277.589 109.189 266.568L126.206 129.525Z" fill="#D2E4E8"/>
<rect x="80.3008" y="184.377" width="163.253" height="26.0937" rx="13.0468" transform="rotate(-40 80.3008 184.377)" fill="#777777"/>
<path d="M191.009 91.4815C182.112 80.8787 168.504 74.9694 153.177 75.0536C137.851 75.1377 122.063 81.2084 109.285 91.9302C96.5072 102.652 87.787 117.147 85.0428 132.225C82.2986 147.304 85.755 161.732 94.6518 172.335L142.83 131.908L191.009 91.4815Z" fill="#84D8FF" fill-opacity="0.968627"/>
<path d="M108.274 92.8069C107.667 81.6784 110.804 76.9119 121.666 72.6608C122.259 72.4288 122.93 72.4965 123.47 72.8339L124.001 73.1652C125.51 74.1081 125.181 76.4206 123.513 77.0404C116.178 79.764 113.064 83.2775 112.795 89.4642C111.426 90.3048 110.119 91.2476 108.882 92.2849C108.678 92.4567 108.474 92.6304 108.274 92.8069Z" fill="#AFAFAF"/>
<mask id="mask0_974_2038" style="mask-type:alpha" maskUnits="userSpaceOnUse" x="121" y="65" width="16" height="16">
<circle cx="128.553" cy="72.6306" r="7.48538" transform="rotate(-72 128.553 72.6306)" fill="#FFC800"/>
</mask>
<g mask="url(#mask0_974_2038)">
<path d="M139.231 115.92C135.246 115.92 131.471 114.898 129.115 113.148C85.0896 80.4449 84.4508 60.9483 129.113 28.232C131.471 26.5051 135.221 25.4995 139.173 25.4995L143.054 25.4995C154.096 25.4995 159.967 32.7141 153.225 37.4763C117.549 62.6764 117.803 80.2083 152.167 103.771C159.125 108.543 153.274 115.92 142.085 115.92L139.231 115.92Z" fill="#666666"/>
<circle cx="135.731" cy="71.9217" r="11.0396" transform="rotate(-40 135.731 71.9217)" fill="#FF9600"/>
</g>
<circle cx="99.1529" cy="186.026" r="4.68348" transform="rotate(-40 99.1529 186.026)" fill="#FFC800"/>
<circle cx="116.58" cy="171.403" r="4.68348" transform="rotate(-40 116.58 171.403)" fill="#FFC800"/>
<circle cx="168.858" cy="127.536" r="4.68348" transform="rotate(-40 168.858 127.536)" fill="#FFC800"/>
<circle cx="186.285" cy="112.914" r="4.68348" transform="rotate(-40 186.285 112.914)" fill="#FFC800"/>
<circle cx="203.711" cy="98.2919" r="4.68348" transform="rotate(-40 203.711 98.2919)" fill="#FFC800"/>
<circle cx="151.432" cy="142.159" r="4.68348" transform="rotate(-40 151.432 142.159)" fill="#FFC800"/>
<circle cx="134.005" cy="156.781" r="4.68348" transform="rotate(-40 134.005 156.781)" fill="#FFC800"/>
<rect x="241.656" y="291.52" width="11.0383" height="20.1844" rx="5.51917" transform="rotate(-30 241.656 291.52)" fill="#58A700"/>
<rect x="273.423" y="286" width="11.0383" height="20.1844" rx="5.51917" transform="rotate(30 273.423 286)" fill="#58A700"/>
</svg>
