<svg width="426" height="432" viewBox="0 0 426 432" fill="none" xmlns="http://www.w3.org/2000/svg">
<circle cx="290.055" cy="359.4" r="56.3988" fill="#438000"/>
<path d="M399.707 165.838C416.236 165.838 430.128 152.021 424.306 136.551C423.987 135.704 423.654 134.861 423.307 134.024C419.129 123.937 413.005 114.773 405.285 107.053C397.566 99.3331 388.401 93.2095 378.315 89.0316C368.228 84.8537 357.418 82.7034 346.501 82.7034C335.583 82.7034 324.773 84.8537 314.687 89.0316C304.6 93.2095 295.436 99.3331 287.716 107.053C279.996 114.773 273.872 123.937 269.695 134.024C269.348 134.861 269.015 135.704 268.696 136.551C262.873 152.021 276.766 165.838 293.295 165.838L399.707 165.838Z" fill="#438000"/>
<path d="M362.942 54.3273C376.805 45.325 380.931 26.1706 367.623 16.3682C366.893 15.8312 366.155 15.3058 365.408 14.7922C356.411 8.60855 346.283 4.2576 335.605 1.98775C324.926 -0.282088 313.905 -0.426368 303.17 1.56316C292.436 3.55269 282.198 7.63706 273.042 13.5831C263.886 19.5291 255.991 27.2203 249.807 36.2176C243.623 45.2148 239.272 55.342 237.003 66.0208C234.733 76.6995 234.588 87.7208 236.578 98.4554C236.743 99.347 236.923 100.235 237.117 101.12C240.659 117.265 259.836 121.286 273.698 112.283L362.942 54.3273Z" fill="#438000"/>
<path d="M52.6292 149.344C56.8203 126.551 76.6901 110.001 99.8654 110.001H202.336C227.169 110.001 247.907 128.932 250.165 153.663L270.792 379.607C273.361 407.739 251.212 432.001 222.963 432.001H58.3205C28.3168 432.001 5.65842 404.797 11.0843 375.288L52.6292 149.344Z" fill="#58CC02"/>
<path d="M56.9648 376.9C56.9648 336.197 89.9607 303.201 130.663 303.201C171.366 303.201 204.361 336.197 204.361 376.9V398.878C204.361 417.172 189.532 432.001 171.239 432.001H90.0877C71.7944 432.001 56.9648 417.172 56.9648 398.878V376.9Z" fill="#D3FDB2"/>
<path d="M148.49 218.218C157.524 218.218 164.28 209.856 156.911 204.63C151.83 201.026 144.938 199.001 137.752 199.001C130.566 199.001 123.674 201.026 118.592 204.63C111.223 209.856 117.98 218.218 127.014 218.218H148.49Z" fill="#1453A3"/>
<rect x="99.6562" y="138.001" width="33" height="55" rx="16.5" fill="#1453A3"/>
<rect x="143.785" y="138.001" width="33" height="55" rx="16.5" fill="#1453A3"/>
<rect x="99.6562" y="138.001" width="33" height="55" rx="16.5" fill="#F7F7F7"/>
<rect x="143.785" y="138.001" width="33" height="55" rx="16.5" fill="#F7F7F7"/>
<path d="M102.321 158.415C102.321 154.49 105.503 151.308 109.429 151.308C113.354 151.308 116.536 154.49 116.536 158.415V165.491C116.536 169.416 113.354 172.598 109.429 172.598C105.503 172.598 102.321 169.416 102.321 165.491V158.415Z" fill="#4B4B4B"/>
<path d="M146.45 158.415C146.45 154.49 149.632 151.308 153.557 151.308C157.483 151.308 160.665 154.49 160.665 158.415V165.491C160.665 169.416 157.483 172.598 153.557 172.598C149.632 172.598 146.45 169.416 146.45 165.491V158.415Z" fill="#4B4B4B"/>
<circle cx="135.732" cy="237.376" r="34.425" fill="#FF9600"/>
<path d="M156.661 245.44C169.64 241.936 179.561 229.352 172.694 217.794C170.903 214.778 168.73 211.971 166.208 209.449C158.238 201.479 147.428 197.001 136.156 197.001C124.885 197.001 114.075 201.479 106.104 209.449C103.582 211.971 101.41 214.778 99.6181 217.794C92.7517 229.352 102.672 241.936 115.651 245.44L128.401 248.882C133.48 250.254 138.832 250.254 143.911 248.882L156.661 245.44Z" fill="#FFC800"/>
<rect x="121.656" y="211.001" width="29" height="14" rx="7" fill="#FBE56D"/>
<path d="M228.134 70.0012C262.695 70.0013 256.175 113.988 256.175 154.175C256.175 194.362 228.158 226.94 193.597 226.941C175.668 226.941 159.502 218.174 148.093 204.126C142.939 197.781 130.381 197.781 125.228 204.126C113.819 218.174 97.6518 226.941 79.7236 226.941C45.1627 226.941 17.1455 194.362 17.1455 154.175C17.1455 113.988 10.6256 70.0012 45.1865 70.0012C68.9646 70.0012 105.993 90.8227 126.784 116.903C131.435 122.737 141.886 122.737 146.537 116.903C167.328 90.8227 204.356 70.0012 228.134 70.0012Z" fill="#A5ED6E"/>
<rect x="58.6562" y="104.001" width="62.4" height="104" rx="31.2" fill="#F7F7F7"/>
<path d="M77.5654 149.586C77.5654 142.164 83.5823 136.147 91.0045 136.147C98.4267 136.147 104.444 142.164 104.444 149.586V162.966C104.444 170.388 98.4267 176.405 91.0045 176.405C83.5823 176.405 77.5654 170.388 77.5654 162.966V149.586Z" fill="#4B4B4B"/>
<circle cx="77.5655" cy="139.928" r="13.2364" fill="#F7F7F7"/>
<rect x="151.656" y="104.001" width="62.4" height="104" rx="31.2" fill="#F7F7F7"/>
<path d="M170.321 149.586C170.321 142.164 176.338 136.147 183.76 136.147C191.183 136.147 197.199 142.164 197.199 149.586V162.966C197.199 170.388 191.183 176.405 183.76 176.405C176.338 176.405 170.321 170.388 170.321 162.966V149.586Z" fill="#4B4B4B"/>
<circle cx="170.321" cy="139.928" r="13.2364" fill="#F7F7F7"/>
<path d="M176.448 340.001C181.73 340.001 186.18 344.442 184.159 349.322C182.935 352.277 181.141 354.962 178.879 357.224C176.617 359.485 173.932 361.28 170.977 362.504C168.022 363.728 164.855 364.358 161.656 364.358C158.458 364.358 155.291 363.728 152.335 362.504C149.38 361.28 146.695 359.485 144.434 357.224C142.172 354.962 140.378 352.277 139.154 349.322C137.132 344.442 141.582 340.001 146.865 340.001L176.448 340.001Z" fill="#5AC705"/>
<path d="M144.448 369.001C149.73 369.001 154.18 373.442 152.159 378.322C150.935 381.277 149.141 383.962 146.879 386.224C144.617 388.485 141.932 390.28 138.977 391.504C136.022 392.728 132.855 393.358 129.656 393.358C126.458 393.358 123.291 392.728 120.335 391.504C117.38 390.28 114.695 388.485 112.434 386.224C110.172 383.962 108.378 381.277 107.154 378.322C105.132 373.442 109.582 369.001 114.865 369.001L144.448 369.001Z" fill="#5AC705"/>
<path d="M112.448 340.001C117.73 340.001 122.18 344.442 120.159 349.322C118.935 352.277 117.141 354.962 114.879 357.224C112.617 359.485 109.932 361.28 106.977 362.504C104.022 363.728 100.855 364.358 97.6562 364.358C94.4577 364.358 91.2905 363.728 88.3355 362.504C85.3804 361.28 82.6954 359.485 80.4337 357.224C78.172 354.962 76.3779 352.277 75.1539 349.322C73.1324 344.442 77.5821 340.001 82.8645 340.001L112.448 340.001Z" fill="#5AC705"/>
</svg>
