<svg width="453" height="432" viewBox="0 0 453 432" fill="none" xmlns="http://www.w3.org/2000/svg">
<circle cx="316.641" cy="359.4" r="56.3988" fill="#5B921E"/>
<path d="M426.292 165.838C442.821 165.838 456.714 152.021 450.892 136.551C450.573 135.704 450.24 134.861 449.893 134.024C445.715 123.937 439.591 114.773 431.871 107.053C424.152 99.3331 414.987 93.2095 404.901 89.0316C394.814 84.8537 384.004 82.7034 373.087 82.7034C362.169 82.7034 351.359 84.8537 341.272 89.0316C331.186 93.2095 322.021 99.3331 314.302 107.053C306.582 114.773 300.458 123.937 296.28 134.024C295.933 134.861 295.6 135.704 295.281 136.551C289.459 152.021 303.352 165.838 319.881 165.838L426.292 165.838Z" fill="#5B921E"/>
<path d="M389.528 54.3273C403.391 45.325 407.517 26.1706 394.208 16.3682C393.479 15.8312 392.741 15.3058 391.994 14.7922C382.997 8.60855 372.869 4.2576 362.191 1.98775C351.512 -0.282088 340.491 -0.426368 329.756 1.56316C319.022 3.55269 308.784 7.63706 299.628 13.5831C290.472 19.5291 282.577 27.2203 276.393 36.2176C270.209 45.2148 265.858 55.342 263.588 66.0208C261.319 76.6995 261.174 87.7208 263.164 98.4554C263.329 99.347 263.509 100.235 263.703 101.12C267.245 117.265 286.421 121.286 300.284 112.283L389.528 54.3273Z" fill="#5B921E"/>
<path d="M79.2152 149.344C83.4062 126.551 103.276 110.001 126.451 110.001H228.922C253.755 110.001 274.493 128.932 276.751 153.663L297.378 379.607C299.947 407.739 277.798 432.001 249.549 432.001H84.9065C54.9028 432.001 32.2444 404.797 37.6703 375.288L79.2152 149.344Z" fill="#C5FF99"/>
<path d="M175.075 218.218C184.11 218.218 190.866 209.856 183.497 204.63C178.416 201.026 171.524 199.001 164.338 199.001C157.152 199.001 150.26 201.026 145.178 204.63C137.809 209.856 144.566 218.218 153.6 218.218H175.075Z" fill="#1453A3"/>
<rect x="126.242" y="138.001" width="33" height="55" rx="16.5" fill="#1453A3"/>
<rect x="170.371" y="138.001" width="33" height="55" rx="16.5" fill="#1453A3"/>
<rect x="126.242" y="138.001" width="33" height="55" rx="16.5" fill="#F7F7F7"/>
<rect x="170.371" y="138.001" width="33" height="55" rx="16.5" fill="#F7F7F7"/>
<path d="M128.907 158.415C128.907 154.49 132.089 151.308 136.014 151.308C139.94 151.308 143.122 154.49 143.122 158.415V165.491C143.122 169.416 139.94 172.598 136.014 172.598C132.089 172.598 128.907 169.416 128.907 165.491V158.415Z" fill="#4B4B4B"/>
<path d="M173.036 158.415C173.036 154.49 176.218 151.308 180.143 151.308C184.069 151.308 187.251 154.49 187.251 158.415V165.491C187.251 169.416 184.069 172.598 180.143 172.598C176.218 172.598 173.036 169.416 173.036 165.491V158.415Z" fill="#4B4B4B"/>
<path d="M83.2422 376.699C83.2422 335.997 116.238 303.001 156.94 303.001C197.643 303.001 230.639 335.997 230.639 376.699V398.678C230.639 416.972 215.809 431.801 197.516 431.801H116.365C98.0718 431.801 83.2422 416.972 83.2422 398.678V376.699Z" fill="#92E154"/>
<mask id="mask0_962_3491" style="mask-type:alpha" maskUnits="userSpaceOnUse" x="83" y="303" width="148" height="129">
<path d="M83.2422 376.699C83.2422 335.997 116.238 303.001 156.94 303.001C197.643 303.001 230.639 335.997 230.639 376.699V398.678C230.639 416.972 215.809 431.801 197.516 431.801H116.365C98.0718 431.801 83.2422 416.972 83.2422 398.678V376.699Z" fill="#3B0202" fill-opacity="0.968627"/>
</mask>
<g mask="url(#mask0_962_3491)">
<path d="M-11.7578 286.001C115.595 348.713 189.872 351.284 326.242 286.001" stroke="#59911B" stroke-width="17"/>
<path d="M-11.7578 325.001C115.595 387.713 189.872 390.284 326.242 325.001" stroke="#59911B" stroke-width="17"/>
<path d="M-11.7578 363.001C115.595 425.713 189.872 428.284 326.242 363.001" stroke="#59911B" stroke-width="17"/>
</g>
<path d="M137.323 259.53C148.497 275.997 172.759 275.997 183.932 259.53L269.81 132.967C282.498 114.267 269.104 88.991 246.506 88.991H74.7499C52.152 88.991 38.7571 114.267 51.4454 132.967L137.323 259.53Z" fill="#83BF40"/>
<circle cx="68.8608" cy="114.62" r="68.6186" fill="#4B4B4B"/>
<circle cx="55.1373" cy="110.503" r="38.4264" fill="#F0F5F7"/>
<circle cx="245.781" cy="114.62" r="68.6186" fill="#4B4B4B"/>
<circle cx="232.057" cy="110.503" r="38.4264" fill="#F0F5F7"/>
<path d="M156.474 233.672C152.34 229.08 154.687 221.745 160.569 219.851C177.316 214.458 186.066 207.148 191.408 193.871C193.657 188.281 201.107 186.27 205.139 190.748C206.892 192.695 207.495 195.44 206.628 197.912C198.974 219.72 188.986 229.037 164.483 236.031C161.59 236.857 158.488 235.908 156.474 233.672Z" fill="#5B921E"/>
</svg>
