<svg width="600" height="600" viewBox="0 0 600 600" fill="none" xmlns="http://www.w3.org/2000/svg">
<circle cx="397.399" cy="441.399" r="56.3988" fill="#438000"/>
<path d="M507.05 247.836C523.579 247.836 537.472 234.02 531.649 218.55C531.33 217.703 530.997 216.86 530.65 216.022C526.473 205.936 520.349 196.771 512.629 189.052C504.909 181.332 495.745 175.208 485.658 171.03C475.572 166.852 464.762 164.702 453.844 164.702C442.927 164.702 432.117 166.852 422.03 171.03C411.944 175.208 402.779 181.332 395.06 189.052C387.34 196.771 381.216 205.936 377.038 216.022C376.691 216.86 376.358 217.703 376.039 218.55C370.217 234.02 384.109 247.836 400.638 247.836L507.05 247.836Z" fill="#438000"/>
<path d="M470.286 136.326C484.148 127.324 488.275 108.169 474.966 98.3669C474.237 97.8299 473.499 97.3045 472.752 96.7909C463.754 90.6072 453.627 86.2563 442.948 83.9864C432.27 81.7166 421.248 81.5723 410.514 83.5618C399.779 85.5513 389.542 89.6357 380.386 95.5817C371.23 101.528 363.334 109.219 357.151 118.216C350.967 127.214 346.616 137.341 344.346 148.019C342.076 158.698 341.932 169.719 343.922 180.454C344.087 181.346 344.267 182.234 344.461 183.118C348.003 199.263 367.179 203.284 381.042 194.282L470.286 136.326Z" fill="#438000"/>
<path d="M159.973 231.343C164.164 208.549 184.034 192 207.209 192H309.68C334.513 192 355.251 210.931 357.509 235.662L378.136 461.605C380.704 489.738 358.556 514 330.307 514H165.664C135.661 514 113.002 486.795 118.428 457.286L159.973 231.343Z" fill="#58CC02"/>
<path d="M164.309 458.898C164.309 418.196 197.304 385.2 238.007 385.2V385.2C278.709 385.2 311.705 418.196 311.705 458.898V480.877C311.705 499.171 296.875 514 278.582 514H197.431C179.138 514 164.309 499.171 164.309 480.877V458.898Z" fill="#D3FDB2"/>
<path d="M255.833 300.217C264.867 300.217 271.624 291.855 264.255 286.628C259.174 283.025 252.282 281 245.096 281C237.909 281 231.018 283.025 225.936 286.628C218.567 291.855 225.324 300.217 234.358 300.217L255.833 300.217Z" fill="#1453A3"/>
<rect x="207" y="220" width="33" height="55" rx="16.5" fill="#1453A3"/>
<rect x="251.129" y="220" width="33" height="55" rx="16.5" fill="#1453A3"/>
<rect x="207" y="220" width="33" height="55" rx="16.5" fill="#F7F7F7"/>
<rect x="251.129" y="220" width="33" height="55" rx="16.5" fill="#F7F7F7"/>
<path d="M209.665 240.414C209.665 236.488 212.847 233.306 216.772 233.306C220.697 233.306 223.879 236.488 223.879 240.414V247.49C223.879 251.415 220.697 254.597 216.772 254.597C212.847 254.597 209.665 251.415 209.665 247.49V240.414Z" fill="#4B4B4B"/>
<path d="M253.794 240.414C253.794 236.488 256.976 233.306 260.901 233.306C264.826 233.306 268.008 236.488 268.008 240.414V247.49C268.008 251.415 264.826 254.597 260.901 254.597C256.976 254.597 253.794 251.415 253.794 247.49V240.414Z" fill="#4B4B4B"/>
<circle cx="243.075" cy="319.375" r="34.425" fill="#FF9600"/>
<path d="M264.005 327.439C276.984 323.934 286.905 311.35 280.038 299.792C278.247 296.777 276.074 293.97 273.552 291.448C265.582 283.478 254.772 279 243.5 279C232.228 279 221.418 283.478 213.448 291.448C210.926 293.97 208.753 296.777 206.962 299.792C200.095 311.35 210.016 323.934 222.995 327.439L235.745 330.881C240.824 332.253 246.176 332.253 251.255 330.881L264.005 327.439Z" fill="#FFC800"/>
<rect x="229" y="293" width="29" height="14" rx="7" fill="#FBE56D"/>
<path d="M335.478 152C370.038 152 363.519 195.987 363.519 236.174C363.519 276.361 335.501 308.939 300.94 308.939C283.012 308.939 266.845 300.173 255.437 286.125C250.283 279.78 237.725 279.78 232.571 286.125C221.163 300.173 204.996 308.939 187.067 308.939C152.506 308.939 124.489 276.361 124.489 236.174C124.489 195.987 117.969 152 152.53 152C176.308 152 213.336 172.821 234.127 198.901C238.779 204.736 249.229 204.736 253.881 198.901C274.672 172.821 311.7 152 335.478 152Z" fill="#A5ED6E"/>
<rect x="166" y="186" width="62.4" height="104" rx="31.2" fill="#F7F7F7"/>
<path d="M184.909 231.585C184.909 224.162 190.926 218.146 198.348 218.146C205.77 218.146 211.787 224.162 211.787 231.585V244.964C211.787 252.387 205.77 258.404 198.348 258.404C190.926 258.404 184.909 252.387 184.909 244.964V231.585Z" fill="#4B4B4B"/>
<circle cx="184.909" cy="221.927" r="13.2364" fill="#F7F7F7"/>
<rect x="259" y="186" width="62.4" height="104" rx="31.2" fill="#F7F7F7"/>
<path d="M277.665 231.585C277.665 224.162 283.682 218.146 291.104 218.146C298.526 218.146 304.543 224.162 304.543 231.585V244.964C304.543 252.387 298.526 258.404 291.104 258.404C283.682 258.404 277.665 252.387 277.665 244.964V231.585Z" fill="#4B4B4B"/>
<circle cx="277.665" cy="221.927" r="13.2364" fill="#F7F7F7"/>
<path d="M283.792 422C289.074 422 293.524 426.44 291.502 431.321C290.278 434.276 288.484 436.961 286.223 439.223C283.961 441.484 281.276 443.278 278.321 444.502C275.366 445.726 272.199 446.356 269 446.356C265.801 446.356 262.634 445.726 259.679 444.502C256.724 443.278 254.039 441.484 251.777 439.223C249.516 436.961 247.722 434.276 246.498 431.321C244.476 426.44 248.926 422 254.208 422L283.792 422Z" fill="#5AC705"/>
<path d="M251.792 451C257.074 451 261.524 455.44 259.502 460.321C258.278 463.276 256.484 465.961 254.223 468.223C251.961 470.484 249.276 472.278 246.321 473.502C243.366 474.726 240.199 475.356 237 475.356C233.801 475.356 230.634 474.726 227.679 473.502C224.724 472.278 222.039 470.484 219.777 468.223C217.516 465.961 215.722 463.276 214.498 460.321C212.476 455.44 216.926 451 222.208 451L251.792 451Z" fill="#5AC705"/>
<path d="M219.792 422C225.074 422 229.524 426.44 227.502 431.321C226.278 434.276 224.484 436.961 222.223 439.223C219.961 441.484 217.276 443.278 214.321 444.502C211.366 445.726 208.199 446.356 205 446.356C201.801 446.356 198.634 445.726 195.679 444.502C192.724 443.278 190.039 441.484 187.777 439.223C185.516 436.961 183.722 434.276 182.498 431.321C180.476 426.44 184.926 422 190.208 422L219.792 422Z" fill="#5AC705"/>
</svg>
