<svg width="600" height="600" viewBox="0 0 600 600" fill="none" xmlns="http://www.w3.org/2000/svg">
<circle cx="418.399" cy="461.399" r="56.3988" fill="#438000"/>
<path d="M528.05 267.836C544.579 267.836 558.472 254.02 552.649 238.55C552.33 237.703 551.997 236.86 551.65 236.022C547.473 225.936 541.349 216.771 533.629 209.052C525.909 201.332 516.745 195.208 506.658 191.03C496.572 186.852 485.762 184.702 474.844 184.702C463.927 184.702 453.117 186.852 443.03 191.03C432.944 195.208 423.779 201.332 416.06 209.052C408.34 216.771 402.216 225.936 398.038 236.022C397.691 236.86 397.358 237.703 397.039 238.55C391.217 254.02 405.109 267.836 421.638 267.836L528.05 267.836Z" fill="#438000"/>
<path d="M491.286 156.326C505.148 147.324 509.275 128.169 495.966 118.367C495.237 117.83 494.499 117.304 493.752 116.791C484.754 110.607 474.627 106.256 463.948 103.986C453.27 101.717 442.248 101.572 431.514 103.562C420.779 105.551 410.542 109.636 401.386 115.582C392.23 121.528 384.334 129.219 378.151 138.216C371.967 147.214 367.616 157.341 365.346 168.019C363.076 178.698 362.932 189.719 364.922 200.454C365.087 201.346 365.267 202.234 365.461 203.118C369.003 219.263 388.179 223.284 402.042 214.282L491.286 156.326Z" fill="#438000"/>
<path d="M180.973 251.343C185.164 228.549 205.034 212 228.209 212H330.68C355.513 212 376.251 230.931 378.509 255.662L399.136 481.605C401.704 509.738 379.556 534 351.307 534H186.664C156.661 534 134.002 506.795 139.428 477.286L180.973 251.343Z" fill="#58CC02"/>
<path d="M185.309 478.898C185.309 438.196 218.304 405.2 259.007 405.2V405.2C299.709 405.2 332.705 438.196 332.705 478.898V500.877C332.705 519.171 317.875 534 299.582 534H218.431C200.138 534 185.309 519.171 185.309 500.877V478.898Z" fill="#D3FDB2"/>
<path d="M255.839 253.903C252.745 239.526 241.053 228.579 226.504 226.437C186.762 220.587 169.729 275.112 205.735 292.923L224.119 302.018C227.615 303.747 231.462 304.647 235.363 304.647C251.516 304.647 263.551 289.746 260.153 273.954L255.839 253.903Z" fill="#4B4B4B"/>
<path d="M288.162 253.903C291.255 239.526 302.947 228.579 317.496 226.437C357.239 220.587 374.271 275.111 338.265 292.923L319.881 302.017C316.385 303.747 312.538 304.646 308.638 304.646C292.485 304.646 280.449 289.745 283.847 273.954L288.162 253.903Z" fill="#4B4B4B"/>
<rect x="195.176" y="239.459" width="20.5101" height="25.9795" rx="10.2551" fill="#666666"/>
<rect x="297.952" y="239.459" width="20.5101" height="25.9795" rx="10.2551" fill="#666666"/>
<path opacity="0.5" d="M129.55 152.525C130.457 145.216 136.854 139.849 144.209 140.224L282.37 147.275C293.411 147.839 299.465 160.35 292.852 169.209C244.038 234.609 202.983 267.772 132.427 303.697C122.53 308.736 111.164 300.589 112.533 289.568L129.55 152.525Z" fill="#D2E4E8"/>
<rect x="83.645" y="207.377" width="163.253" height="26.0937" rx="13.0468" transform="rotate(-40 83.645 207.377)" fill="#777777"/>
<path d="M194.353 114.482C185.456 103.879 171.848 97.9694 156.522 98.0536C141.195 98.1377 125.407 104.208 112.629 114.93C99.8514 125.652 91.1313 140.147 88.387 155.225C85.6428 170.304 89.0993 184.732 97.9961 195.335L146.175 154.908L194.353 114.482Z" fill="#84D8FF" fill-opacity="0.968627"/>
<path d="M111.618 115.807C111.011 104.678 114.147 99.9117 125.01 95.6606C125.603 95.4285 126.274 95.4963 126.814 95.8337L127.344 96.165C128.853 97.1079 128.525 99.4204 126.857 100.04C119.521 102.764 116.408 106.277 116.139 112.464C114.77 113.305 113.462 114.247 112.226 115.285C112.021 115.456 111.818 115.63 111.618 115.807Z" fill="#AFAFAF"/>
<mask id="mask0_1060_4682" style="mask-type:alpha" maskUnits="userSpaceOnUse" x="124" y="88" width="16" height="16">
<circle cx="131.897" cy="95.6306" r="7.48538" transform="rotate(-72 131.897 95.6306)" fill="#FFC800"/>
</mask>
<g mask="url(#mask0_1060_4682)">
<path d="M142.575 138.92C138.591 138.92 134.815 137.898 132.459 136.148C88.4338 103.445 87.7951 83.9483 132.458 51.232C134.815 49.5051 138.566 48.4995 142.517 48.4995L146.398 48.4995C157.44 48.4995 163.311 55.7141 156.569 60.4763C120.893 85.6764 121.147 103.208 155.511 126.771C162.47 131.543 156.618 138.92 145.43 138.92L142.575 138.92Z" fill="#666666"/>
<circle cx="139.074" cy="94.9217" r="11.0396" transform="rotate(-40 139.074 94.9217)" fill="#FF9600"/>
</g>
<circle cx="102.497" cy="209.026" r="4.68348" transform="rotate(-40 102.497 209.026)" fill="#FFC800"/>
<circle cx="119.923" cy="194.403" r="4.68348" transform="rotate(-40 119.923 194.403)" fill="#FFC800"/>
<circle cx="172.202" cy="150.536" r="4.68348" transform="rotate(-40 172.202 150.536)" fill="#FFC800"/>
<circle cx="189.628" cy="135.914" r="4.68348" transform="rotate(-40 189.628 135.914)" fill="#FFC800"/>
<circle cx="207.054" cy="121.292" r="4.68348" transform="rotate(-40 207.054 121.292)" fill="#FFC800"/>
<circle cx="154.775" cy="165.159" r="4.68348" transform="rotate(-40 154.775 165.159)" fill="#FFC800"/>
<circle cx="137.35" cy="179.781" r="4.68348" transform="rotate(-40 137.35 179.781)" fill="#FFC800"/>
<rect x="245" y="314.52" width="11.0383" height="20.1844" rx="5.51917" transform="rotate(-30 245 314.52)" fill="#58A700"/>
<rect x="276.767" y="309" width="11.0383" height="20.1844" rx="5.51917" transform="rotate(30 276.767 309)" fill="#58A700"/>
</svg>
