<svg width="600" height="600" viewBox="0 0 600 600" fill="none" xmlns="http://www.w3.org/2000/svg">
<circle cx="397.399" cy="441.399" r="56.3988" fill="#1C233A"/>
<path d="M507.05 247.836C523.579 247.836 537.472 234.02 531.649 218.55C531.33 217.703 530.997 216.86 530.65 216.022C526.473 205.936 520.349 196.771 512.629 189.052C504.909 181.332 495.745 175.208 485.658 171.03C475.572 166.852 464.762 164.702 453.844 164.702C442.927 164.702 432.117 166.852 422.03 171.03C411.944 175.208 402.779 181.332 395.06 189.052C387.34 196.771 381.216 205.936 377.038 216.022C376.691 216.86 376.358 217.703 376.039 218.55C370.217 234.02 384.109 247.836 400.638 247.836L507.05 247.836Z" fill="#1C233A"/>
<path d="M470.286 136.326C484.148 127.324 488.275 108.169 474.966 98.3669C474.237 97.8299 473.499 97.3045 472.752 96.7909C463.754 90.6072 453.627 86.2563 442.948 83.9864C432.27 81.7166 421.248 81.5723 410.514 83.5618C399.779 85.5513 389.542 89.6357 380.386 95.5817C371.23 101.528 363.334 109.219 357.151 118.216C350.967 127.214 346.616 137.341 344.346 148.019C342.076 158.698 341.932 169.719 343.922 180.454C344.087 181.346 344.267 182.234 344.461 183.118C348.003 199.263 367.179 203.284 381.042 194.282L470.286 136.326Z" fill="#1C233A"/>
<path d="M159.973 231.343C164.164 208.549 184.034 192 207.209 192H309.68C334.513 192 355.251 210.931 357.509 235.662L378.136 461.605C380.704 489.738 358.556 514 330.307 514H165.664C135.661 514 113.002 486.795 118.428 457.286L159.973 231.343Z" fill="#111928"/>
<path d="M164.309 458.898C164.309 418.196 197.304 385.2 238.007 385.2V385.2C278.709 385.2 311.705 418.196 311.705 458.898V480.877C311.705 499.171 296.875 514 278.582 514H197.431C179.138 514 164.309 499.171 164.309 480.877V458.898Z" fill="#B6EBF8"/>
<path d="M255.833 300.217C264.867 300.217 271.624 291.855 264.255 286.628C259.174 283.025 252.282 281 245.096 281C237.909 281 231.018 283.025 225.936 286.628C218.567 291.855 225.324 300.217 234.358 300.217L255.833 300.217Z" fill="#1453A3"/>
<rect x="207" y="220" width="33" height="55" rx="16.5" fill="#1453A3"/>
<rect x="251.129" y="220" width="33" height="55" rx="16.5" fill="#1453A3"/>
<rect x="207" y="220" width="33" height="55" rx="16.5" fill="#F7F7F7"/>
<rect x="251.129" y="220" width="33" height="55" rx="16.5" fill="#F7F7F7"/>
<path d="M209.665 240.414C209.665 236.488 212.847 233.306 216.772 233.306C220.697 233.306 223.879 236.488 223.879 240.414V247.49C223.879 251.415 220.697 254.597 216.772 254.597C212.847 254.597 209.665 251.415 209.665 247.49V240.414Z" fill="#4B4B4B"/>
<path d="M253.794 240.414C253.794 236.488 256.976 233.306 260.901 233.306C264.826 233.306 268.008 236.488 268.008 240.414V247.49C268.008 251.415 264.826 254.597 260.901 254.597C256.976 254.597 253.794 251.415 253.794 247.49V240.414Z" fill="#4B4B4B"/>
<rect x="120.792" y="182.792" width="266.417" height="166.51" rx="28.9583" fill="#121625" stroke="#272E40" stroke-width="11.5833"/>
<circle cx="335.666" cy="239.283" r="26.7865" fill="#4EA5FF"/>
<path d="M223.24 228.832H223.452V244.969H223.212L167.954 266.18L163.228 253.871L205.771 237.539L162.64 225.171L166.275 212.497L223.24 228.832Z" fill="#4EA5FF"/>
<rect x="229.601" y="306.971" width="61.5421" height="22.3539" fill="#4EA5FF"/>
<rect x="207.524" y="284.893" width="22.0779" height="22.0779" fill="#4EA5FF"/>
<rect x="291.144" y="284.893" width="22.0779" height="22.0779" fill="#4EA5FF"/>
</svg>
