<svg width="600" height="600" viewBox="0 0 600 600" fill="none" xmlns="http://www.w3.org/2000/svg">
<circle cx="397.399" cy="441.399" r="56.3988" fill="#1453A3"/>
<path d="M507.05 247.836C523.579 247.836 537.472 234.02 531.649 218.55C531.33 217.703 530.997 216.86 530.65 216.022C526.473 205.936 520.349 196.771 512.629 189.052C504.909 181.332 495.745 175.208 485.658 171.03C475.572 166.852 464.762 164.702 453.844 164.702C442.927 164.702 432.117 166.852 422.03 171.03C411.944 175.208 402.779 181.332 395.06 189.052C387.34 196.771 381.216 205.936 377.038 216.022C376.691 216.86 376.358 217.703 376.039 218.55C370.217 234.02 384.109 247.836 400.638 247.836L507.05 247.836Z" fill="#1453A3"/>
<path d="M470.286 136.326C484.148 127.324 488.275 108.169 474.966 98.3669C474.237 97.8299 473.499 97.3045 472.752 96.7909C463.754 90.6072 453.627 86.2563 442.948 83.9864C432.27 81.7166 421.248 81.5723 410.514 83.5618C399.779 85.5513 389.542 89.6357 380.386 95.5817C371.23 101.528 363.334 109.219 357.151 118.216C350.967 127.214 346.616 137.341 344.346 148.019C342.076 158.698 341.932 169.719 343.922 180.454C344.087 181.346 344.267 182.234 344.461 183.118C348.003 199.263 367.179 203.284 381.042 194.282L470.286 136.326Z" fill="#1453A3"/>
<path d="M159.973 231.343C164.164 208.549 184.034 192 207.209 192H309.68C334.513 192 355.251 210.931 357.509 235.662L378.136 461.605C380.704 489.738 358.556 514 330.307 514H165.664C135.661 514 113.002 486.795 118.428 457.286L159.973 231.343Z" fill="#1CB0F6"/>
<path d="M164.309 458.898C164.309 418.196 197.304 385.2 238.007 385.2V385.2C278.709 385.2 311.705 418.196 311.705 458.898V480.877C311.705 499.171 296.875 514 278.582 514H197.431C179.138 514 164.309 499.171 164.309 480.877V458.898Z" fill="#F7F7F7" fill-opacity="0.968627"/>
<path d="M255.833 300.217C264.867 300.217 271.624 291.855 264.255 286.628C259.174 283.025 252.282 281 245.096 281C237.909 281 231.018 283.025 225.936 286.628C218.567 291.855 225.324 300.217 234.358 300.217L255.833 300.217Z" fill="#1453A3"/>
<rect x="207" y="220" width="33" height="55" rx="16.5" fill="#1453A3"/>
<rect x="251.129" y="220" width="33" height="55" rx="16.5" fill="#1453A3"/>
<rect x="207" y="220" width="33" height="55" rx="16.5" fill="#F7F7F7"/>
<rect x="251.129" y="220" width="33" height="55" rx="16.5" fill="#F7F7F7"/>
<path d="M209.665 240.414C209.665 236.488 212.847 233.306 216.772 233.306C220.697 233.306 223.879 236.488 223.879 240.414V247.49C223.879 251.415 220.697 254.597 216.772 254.597C212.847 254.597 209.665 251.415 209.665 247.49V240.414Z" fill="#4B4B4B"/>
<path d="M253.794 240.414C253.794 236.488 256.976 233.306 260.901 233.306C264.826 233.306 268.008 236.488 268.008 240.414V247.49C268.008 251.415 264.826 254.597 260.901 254.597C256.976 254.597 253.794 251.415 253.794 247.49V240.414Z" fill="#4B4B4B"/>
<rect x="207" y="220" width="32.8553" height="55" rx="16.4276" fill="#F7F7F7"/>
<rect x="251.129" y="220" width="32.8709" height="55" rx="16.4354" fill="#F7F7F7"/>
<path d="M216.341 244.154C216.341 240.229 219.523 237.047 223.449 237.047C227.374 237.047 230.556 240.229 230.556 244.154V251.23C230.556 255.155 227.374 258.337 223.449 258.337C219.523 258.337 216.341 255.155 216.341 251.23V244.154Z" fill="#4B4B4B"/>
<path d="M260.471 244.154C260.471 240.229 263.653 237.047 267.578 237.047C271.503 237.047 274.685 240.229 274.685 244.154V251.23C274.685 255.155 271.503 258.337 267.578 258.337C263.653 258.337 260.471 255.155 260.471 251.23V244.154Z" fill="#4B4B4B"/>
<path d="M216.341 244.154C216.341 240.229 219.523 237.047 223.449 237.047C227.374 237.047 230.556 240.229 230.556 244.154V251.23C230.556 255.155 227.374 258.337 223.449 258.337C219.523 258.337 216.341 255.155 216.341 251.23V244.154Z" fill="#4B4B4B"/>
<path d="M260.47 244.154C260.47 240.229 263.652 237.047 267.577 237.047C271.503 237.047 274.685 240.229 274.685 244.154V251.23C274.685 255.155 271.503 258.337 267.577 258.337C263.652 258.337 260.47 255.155 260.47 251.23V244.154Z" fill="#4B4B4B"/>
<mask id="mask0_1060_4682" style="mask-type:alpha" maskUnits="userSpaceOnUse" x="207" y="220" width="33" height="55">
<rect x="207" y="220" width="32.8553" height="55" rx="16.4276" fill="#F7F7F7"/>
</mask>
<g mask="url(#mask0_1060_4682)">
<path d="M198.303 220H248.552V244.586C228.692 239.603 217.694 239.761 198.303 244.586V220Z" fill="#1453A3"/>
<path d="M198.303 220H248.552V244.586C228.692 239.603 217.694 239.761 198.303 244.586V220Z" fill="#1453A3"/>
</g>
<mask id="mask1_1060_4682" style="mask-type:alpha" maskUnits="userSpaceOnUse" x="251" y="220" width="33" height="55">
<rect x="251" y="220" width="33" height="55" rx="16.5" fill="#F7F7F7"/>
</mask>
<g mask="url(#mask1_1060_4682)">
<path d="M248.552 220H298.801V244.586C278.941 239.603 267.943 239.761 248.552 244.586V220Z" fill="#1453A3"/>
<path d="M248.552 220H298.801V244.586C278.941 239.603 267.943 239.761 248.552 244.586V220Z" fill="#1453A3"/>
</g>
<mask id="mask2_1060_4682" style="mask-type:alpha" maskUnits="userSpaceOnUse" x="207" y="220" width="33" height="55">
<rect x="207" y="220" width="33" height="55" rx="16.5" fill="#F7F7F7"/>
</mask>
<g mask="url(#mask2_1060_4682)">
</g>
<path d="M255.833 300.217C264.867 300.217 271.624 291.855 264.255 286.628C259.174 283.025 252.282 281 245.096 281C237.909 281 231.018 283.025 225.936 286.628C218.567 291.855 225.324 300.217 234.358 300.217L255.833 300.217Z" fill="#FFAADE"/>
<path d="M223 328.945C223 327.454 223.807 326.077 225.106 325.347C242.545 315.548 252.915 310.351 265.306 325.657C265.756 326.212 266 326.92 266 327.635C266 330.701 261.962 332.139 259.648 330.126C249.942 321.682 241.532 324.432 229.609 332.386C226.809 334.254 223 332.31 223 328.945Z" fill="#1453A3"/>
</svg>
