<svg width="428" height="432" viewBox="0 0 428 432" fill="none" xmlns="http://www.w3.org/2000/svg">
<circle cx="291.641" cy="359.4" r="56.3988" fill="#1453A3"/>
<path d="M401.292 165.837C417.821 165.837 431.714 152.021 425.892 136.551C425.573 135.704 425.24 134.861 424.893 134.023C420.715 123.937 414.591 114.772 406.871 107.053C399.152 99.3329 389.987 93.2092 379.901 89.0313C369.814 84.8535 359.004 82.7031 348.087 82.7031C337.169 82.7031 326.359 84.8535 316.272 89.0313C306.186 93.2092 297.021 99.3329 289.302 107.053C281.582 114.772 275.458 123.937 271.28 134.023C270.933 134.861 270.6 135.704 270.281 136.551C264.459 152.021 278.352 165.837 294.881 165.837L401.292 165.837Z" fill="#1453A3"/>
<path d="M364.528 54.3269C378.391 45.3246 382.517 26.1703 369.208 16.3678C368.479 15.8309 367.741 15.3055 366.994 14.7918C357.997 8.60819 347.869 4.25723 337.191 1.98738C326.512 -0.282455 315.491 -0.426734 304.756 1.56279C294.022 3.55232 283.784 7.63669 274.628 13.5827C265.472 19.5287 257.577 27.2199 251.393 36.2172C245.209 45.2145 240.858 55.3416 238.588 66.0204C236.319 76.6992 236.174 87.7205 238.164 98.455C238.329 99.3466 238.509 100.235 238.703 101.119C242.245 117.264 261.421 121.285 275.284 112.283L364.528 54.3269Z" fill="#1453A3"/>
<path d="M54.2152 149.344C58.4062 126.55 78.2761 110.001 101.451 110.001H203.922C228.755 110.001 249.493 128.932 251.751 153.663L272.378 379.606C274.947 407.739 252.798 432.001 224.549 432.001H59.9065C29.9028 432.001 7.24435 404.796 12.6703 375.287L54.2152 149.344Z" fill="#1CB0F6"/>
<path d="M58.5508 376.899C58.5508 336.197 91.5466 303.201 132.249 303.201C172.951 303.201 205.947 336.197 205.947 376.899V398.878C205.947 417.171 191.118 432.001 172.824 432.001H91.6736C73.3804 432.001 58.5508 417.171 58.5508 398.878V376.899Z" fill="#F7F7F7" fill-opacity="0.968627"/>
<path d="M150.075 218.218C159.11 218.218 165.866 209.856 158.497 204.629C153.416 201.026 146.524 199.001 139.338 199.001C132.152 199.001 125.26 201.026 120.178 204.629C112.809 209.856 119.566 218.218 128.6 218.218H150.075Z" fill="#1453A3"/>
<rect x="101.242" y="138.001" width="33" height="55" rx="16.5" fill="#1453A3"/>
<rect x="145.371" y="138.001" width="33" height="55" rx="16.5" fill="#1453A3"/>
<rect x="101.242" y="138.001" width="33" height="55" rx="16.5" fill="#F7F7F7"/>
<rect x="145.371" y="138.001" width="33" height="55" rx="16.5" fill="#F7F7F7"/>
<path d="M103.907 158.415C103.907 154.489 107.089 151.307 111.014 151.307C114.94 151.307 118.122 154.489 118.122 158.415V165.49C118.122 169.416 114.94 172.598 111.014 172.598C107.089 172.598 103.907 169.416 103.907 165.49V158.415Z" fill="#4B4B4B"/>
<path d="M148.036 158.415C148.036 154.489 151.218 151.307 155.143 151.307C159.069 151.307 162.251 154.489 162.251 158.415V165.49C162.251 169.416 159.069 172.598 155.143 172.598C151.218 172.598 148.036 169.416 148.036 165.49V158.415Z" fill="#4B4B4B"/>
<path d="M0.242188 139.254C0.242188 138.01 1.25082 137.001 2.49502 137.001H275.989C277.234 137.001 278.242 138.01 278.242 139.254V142.858C278.242 150.324 272.19 156.375 264.725 156.375H13.7592C6.29398 156.375 0.242188 150.324 0.242188 142.858V139.254Z" fill="#FF7878"/>
<path d="M266.978 137.902C266.978 148.434 265.207 158.863 261.765 168.594C258.323 178.324 253.279 187.165 246.919 194.613C240.56 202.06 233.01 207.968 224.701 211.998C216.391 216.029 207.486 218.103 198.492 218.103C189.498 218.103 180.593 216.029 172.284 211.998C163.974 207.968 156.425 202.06 150.065 194.613C143.705 187.165 138.661 178.324 135.219 168.594C131.777 158.863 130.006 148.434 130.006 137.902L266.978 137.902Z" fill="#FF7878"/>
<path d="M148.929 137.902C148.929 148.434 147.158 158.863 143.716 168.594C140.275 178.324 135.23 187.165 128.87 194.613C122.511 202.06 114.961 207.968 106.652 211.998C98.3427 216.029 89.437 218.103 80.4433 218.103C71.4495 218.103 62.5438 216.029 54.2347 211.998C45.9256 207.968 38.3757 202.06 32.0162 194.613C25.6566 187.165 20.612 178.324 17.1702 168.594C13.7285 158.863 11.957 148.434 11.957 137.902L148.929 137.902Z" fill="#FF7878"/>
<path d="M117.891 155.024C120.877 155.024 123.323 157.449 123.059 160.423C122.615 165.434 121.553 170.353 119.901 175.025C117.658 181.366 114.37 187.128 110.226 191.981C106.081 196.834 101.161 200.684 95.7464 203.311C90.3314 205.938 84.5277 207.289 78.6666 207.289C72.8055 207.289 67.0018 205.938 61.5869 203.311C56.172 200.684 51.2518 196.834 47.1074 191.981C42.963 187.128 39.6755 181.366 37.4325 175.025C35.7801 170.353 34.7184 165.434 34.274 160.423C34.0102 157.449 36.4559 155.024 39.442 155.024L117.891 155.024Z" fill="#4B4B4B"/>
<path d="M237.742 156.375C240.728 156.375 243.174 158.801 242.91 161.775C242.465 166.786 241.404 171.705 239.751 176.377C237.508 182.718 234.221 188.479 230.076 193.333C225.932 198.186 221.012 202.036 215.597 204.663C210.182 207.289 204.378 208.641 198.517 208.641C192.656 208.641 186.852 207.289 181.437 204.663C176.023 202.036 171.102 198.186 166.958 193.333C162.814 188.479 159.526 182.718 157.283 176.377C155.631 171.705 154.569 166.786 154.125 161.775C153.861 158.801 156.306 156.375 159.293 156.375L237.742 156.375Z" fill="#4B4B4B"/>
<path d="M150.075 218.218C159.11 218.218 165.866 209.856 158.497 204.629C153.416 201.026 146.524 199.001 139.338 199.001C132.152 199.001 125.26 201.026 120.178 204.629C112.809 209.856 119.566 218.218 128.6 218.218H150.075Z" fill="#FFAADE"/>
<rect width="25" height="12.5" rx="6.25" transform="matrix(1 0 0 -1 126.242 236.501)" fill="#1453A3"/>
</svg>
