<svg width="600" height="600" viewBox="0 0 600 600" fill="none" xmlns="http://www.w3.org/2000/svg">
<circle cx="396.399" cy="441.399" r="56.3988" fill="#1453A3"/>
<path d="M506.05 247.836C522.579 247.836 536.472 234.02 530.649 218.55C530.33 217.703 529.997 216.86 529.65 216.022C525.473 205.936 519.349 196.771 511.629 189.052C503.909 181.332 494.745 175.208 484.658 171.03C474.572 166.852 463.762 164.702 452.844 164.702C441.927 164.702 431.117 166.852 421.03 171.03C410.944 175.208 401.779 181.332 394.06 189.052C386.34 196.771 380.216 205.936 376.038 216.022C375.691 216.86 375.358 217.703 375.039 218.55C369.217 234.02 383.109 247.836 399.638 247.836L506.05 247.836Z" fill="#1453A3"/>
<path d="M469.286 136.326C483.148 127.324 487.275 108.169 473.966 98.3669C473.237 97.8299 472.499 97.3045 471.752 96.7909C462.754 90.6072 452.627 86.2563 441.948 83.9864C431.27 81.7166 420.248 81.5723 409.514 83.5618C398.779 85.5513 388.542 89.6357 379.386 95.5817C370.23 101.528 362.334 109.219 356.151 118.216C349.967 127.214 345.616 137.341 343.346 148.019C341.076 158.698 340.932 169.719 342.922 180.454C343.087 181.346 343.267 182.234 343.461 183.118C347.003 199.263 366.179 203.284 380.042 194.282L469.286 136.326Z" fill="#1453A3"/>
<path d="M158.973 231.343C163.164 208.549 183.034 192 206.209 192H308.68C333.513 192 354.251 210.931 356.509 235.662L377.136 461.605C379.704 489.738 357.556 514 329.307 514H164.664C134.661 514 112.002 486.795 117.428 457.286L158.973 231.343Z" fill="#1CB0F6"/>
<path d="M163.309 458.898C163.309 418.196 196.304 385.2 237.007 385.2V385.2C277.709 385.2 310.705 418.196 310.705 458.898V480.877C310.705 499.171 295.875 514 277.582 514H196.431C178.138 514 163.309 499.171 163.309 480.877V458.898Z" fill="#F7F7F7" fill-opacity="0.968627"/>
<path d="M254.833 300.217C263.867 300.217 270.624 291.855 263.255 286.628C258.174 283.025 251.282 281 244.096 281C236.909 281 230.018 283.025 224.936 286.628C217.567 291.855 224.324 300.217 233.358 300.217L254.833 300.217Z" fill="#1453A3"/>
<rect x="206" y="220" width="33" height="55" rx="16.5" fill="#1453A3"/>
<rect x="250.129" y="220" width="33" height="55" rx="16.5" fill="#1453A3"/>
<rect x="206" y="220" width="33" height="55" rx="16.5" fill="#F7F7F7"/>
<rect x="250.129" y="220" width="33" height="55" rx="16.5" fill="#F7F7F7"/>
<path d="M208.665 240.414C208.665 236.488 211.847 233.306 215.772 233.306C219.697 233.306 222.879 236.488 222.879 240.414V247.49C222.879 251.415 219.697 254.597 215.772 254.597C211.847 254.597 208.665 251.415 208.665 247.49V240.414Z" fill="#4B4B4B"/>
<path d="M252.794 240.414C252.794 236.488 255.976 233.306 259.901 233.306C263.826 233.306 267.008 236.488 267.008 240.414V247.49C267.008 251.415 263.826 254.597 259.901 254.597C255.976 254.597 252.794 251.415 252.794 247.49V240.414Z" fill="#4B4B4B"/>
<path d="M105 221.253C105 220.009 106.009 219 107.253 219H380.747C381.991 219 383 220.009 383 221.253V224.857C383 232.323 376.948 238.374 369.483 238.374H118.517C111.052 238.374 105 232.323 105 224.857V221.253Z" fill="#FF7878"/>
<path d="M371.736 219.901C371.736 230.433 369.964 240.862 366.522 250.593C363.081 260.323 358.036 269.164 351.676 276.612C345.317 284.059 337.767 289.967 329.458 293.997C321.149 298.028 312.243 300.102 303.249 300.102C294.256 300.102 285.35 298.028 277.041 293.997C268.732 289.967 261.182 284.059 254.822 276.612C248.463 269.164 243.418 260.323 239.976 250.593C236.535 240.862 234.763 230.433 234.763 219.901L371.736 219.901Z" fill="#FF7878"/>
<path d="M253.687 219.901C253.687 230.433 251.916 240.862 248.474 250.593C245.032 260.323 239.988 269.164 233.628 276.612C227.269 284.059 219.719 289.967 211.41 293.997C203.1 298.028 194.195 300.102 185.201 300.102C176.207 300.102 167.302 298.028 158.993 293.997C150.683 289.967 143.134 284.059 136.774 276.612C130.414 269.164 125.37 260.323 121.928 250.593C118.486 240.862 116.715 230.433 116.715 219.901L253.687 219.901Z" fill="#FF7878"/>
<path d="M222.649 237.023C225.635 237.023 228.08 239.448 227.817 242.423C227.372 247.433 226.311 252.352 224.658 257.024C222.415 263.365 219.128 269.127 214.983 273.98C210.839 278.834 205.919 282.683 200.504 285.31C195.089 287.937 189.285 289.289 183.424 289.289C177.563 289.289 171.759 287.937 166.344 285.31C160.929 282.683 156.009 278.834 151.865 273.98C147.72 269.127 144.433 263.365 142.19 257.024C140.537 252.352 139.476 247.433 139.031 242.423C138.767 239.448 141.213 237.023 144.199 237.023L222.649 237.023Z" fill="#4B4B4B"/>
<path d="M342.5 238.374C345.486 238.374 347.931 240.8 347.668 243.774C347.223 248.785 346.162 253.704 344.509 258.376C342.266 264.717 338.979 270.479 334.834 275.332C330.69 280.185 325.77 284.035 320.355 286.662C314.94 289.288 309.136 290.64 303.275 290.64C297.414 290.64 291.61 289.288 286.195 286.662C280.78 284.035 275.86 280.185 271.716 275.332C267.571 270.479 264.284 264.717 262.041 258.376C260.388 253.704 259.327 248.785 258.882 243.774C258.619 240.8 261.064 238.374 264.05 238.374L342.5 238.374Z" fill="#4B4B4B"/>
<path d="M254.833 300.217C263.867 300.217 270.624 291.855 263.255 286.628C258.174 283.025 251.282 281 244.096 281C236.909 281 230.018 283.025 224.936 286.628C217.567 291.855 224.324 300.217 233.358 300.217L254.833 300.217Z" fill="#FFAADE"/>
<rect width="25" height="12.5" rx="6.25" transform="matrix(1 0 0 -1 231 318.5)" fill="#1453A3"/>
</svg>
