<svg width="600" height="600" viewBox="0 0 600 600" fill="none" xmlns="http://www.w3.org/2000/svg">
<circle cx="418.399" cy="461.399" r="56.3988" fill="#1453A3"/>
<path d="M528.05 267.836C544.579 267.836 558.472 254.02 552.649 238.55C552.33 237.703 551.997 236.86 551.65 236.022C547.473 225.936 541.349 216.771 533.629 209.052C525.909 201.332 516.745 195.208 506.658 191.03C496.572 186.852 485.762 184.702 474.844 184.702C463.927 184.702 453.117 186.852 443.03 191.03C432.944 195.208 423.779 201.332 416.06 209.052C408.34 216.771 402.216 225.936 398.038 236.022C397.691 236.86 397.358 237.703 397.039 238.55C391.217 254.02 405.109 267.836 421.638 267.836L528.05 267.836Z" fill="#1453A3"/>
<path d="M491.286 156.326C505.148 147.324 509.275 128.169 495.966 118.367C495.237 117.83 494.499 117.304 493.752 116.791C484.754 110.607 474.627 106.256 463.948 103.986C453.27 101.717 442.248 101.572 431.514 103.562C420.779 105.551 410.542 109.636 401.386 115.582C392.23 121.528 384.334 129.219 378.151 138.216C371.967 147.214 367.616 157.341 365.346 168.019C363.076 178.698 362.932 189.719 364.922 200.454C365.087 201.346 365.267 202.234 365.461 203.118C369.003 219.263 388.179 223.284 402.042 214.282L491.286 156.326Z" fill="#1453A3"/>
<path d="M180.973 251.343C185.164 228.549 205.034 212 228.209 212H330.68C355.513 212 376.251 230.931 378.509 255.662L399.136 481.605C401.704 509.738 379.556 534 351.307 534H186.664C156.661 534 134.002 506.795 139.428 477.286L180.973 251.343Z" fill="#1CB0F6"/>
<path d="M185.309 478.898C185.309 438.196 218.304 405.2 259.007 405.2V405.2C299.709 405.2 332.705 438.196 332.705 478.898V500.877C332.705 519.171 317.875 534 299.582 534H218.431C200.138 534 185.309 519.171 185.309 500.877V478.898Z" fill="#F7F7F7" fill-opacity="0.968627"/>
<path d="M276.833 320.217C285.867 320.217 292.624 311.855 285.255 306.628C280.174 303.025 273.282 301 266.096 301C258.909 301 252.018 303.025 246.936 306.628C239.567 311.855 246.324 320.217 255.358 320.217L276.833 320.217Z" fill="#1453A3"/>
<path d="M109.455 196.32L189.124 129.47L227.048 174.667C229.178 177.205 228.847 180.99 226.309 183.12L155.833 242.256C153.294 244.386 149.51 244.055 147.38 241.517L109.455 196.32Z" fill="#4B4B4B"/>
<rect x="55.999" y="215.067" width="209" height="20" rx="10" transform="rotate(-40 55.999 215.067)" fill="#4B4B4B"/>
<path d="M132.85 147.971C132.14 147.125 130.878 147.014 130.032 147.724L73.3449 195.29C71.6526 196.71 71.4319 199.233 72.8519 200.926L121.382 258.762C122.27 259.82 123.847 259.958 124.904 259.07C125.962 258.183 126.1 256.606 125.213 255.548L79.2533 200.776C77.8333 199.084 78.054 196.561 79.7463 195.141L132.603 150.788C133.45 150.078 133.56 148.817 132.85 147.971Z" fill="#F8DD17"/>
<path d="M126.25 146.329C123.943 143.579 124.302 139.479 127.052 137.171V137.171C129.802 134.864 133.901 135.222 136.209 137.972L147.458 151.378L137.499 159.734L126.25 146.329Z" fill="#4B4B4B"/>
<path d="M120.396 270.033C116.669 265.59 117.248 258.968 121.69 255.24V255.24C126.133 251.512 132.756 252.092 136.483 256.534L140.983 261.896C142.225 263.377 142.032 265.585 140.551 266.827L129.827 275.826C128.346 277.069 126.138 276.876 124.896 275.395L120.396 270.033Z" fill="#F8DD17"/>
<mask id="mask0_1060_4682" style="mask-type:alpha" maskUnits="userSpaceOnUse" x="138" y="212" width="262" height="322">
<path d="M180.973 251.343C185.164 228.549 205.034 212 228.209 212H330.68C355.513 212 376.251 230.931 378.509 255.662L399.136 481.605C401.704 509.738 379.556 534 351.307 534H186.664C156.661 534 134.002 506.796 139.428 477.286L180.973 251.343Z" fill="#1CB0F6"/>
</mask>
<g mask="url(#mask0_1060_4682)">
<path d="M117 362.003L266.043 376.95L415.857 362.003V588.891H117V362.003Z" fill="#4B4B4B"/>
<mask id="mask1_1060_4682" style="mask-type:alpha" maskUnits="userSpaceOnUse" x="117" y="362" width="299" height="227">
<path d="M117 362.003L266.043 376.95L415.857 362.003V588.891H117V362.003Z" fill="#4B4B4B"/>
</mask>
<g mask="url(#mask1_1060_4682)">
<rect x="188.818" y="362.003" width="155.993" height="256.016" fill="#D9D9D9"/>
</g>
<path d="M270.958 397.039C279.211 391.492 279.211 379.349 270.958 373.801L233.023 348.302C223.723 342.051 211.213 348.715 211.213 359.921V410.919C211.213 422.125 223.723 428.789 233.023 422.538L270.958 397.039Z" fill="#EA2B2B"/>
<path d="M262.477 397.039C254.224 391.492 254.224 379.349 262.477 373.801L300.412 348.302C309.712 342.051 322.222 348.715 322.222 359.921V410.919C322.222 422.125 309.712 428.789 300.412 422.538L262.477 397.039Z" fill="#EA2B2B"/>
<ellipse cx="266.815" cy="457.051" rx="11.5836" ry="11.4977" fill="#4B4B4B"/>
<ellipse cx="266.815" cy="508.407" rx="11.5836" ry="11.4977" fill="#4B4B4B"/>
</g>
<path d="M276.833 320.217C285.867 320.217 292.624 311.855 285.255 306.628C280.174 303.025 273.282 301 266.096 301C258.909 301 252.018 303.025 246.936 306.628C239.567 311.855 246.324 320.217 255.358 320.217L276.833 320.217Z" fill="#FFAADE"/>
<path d="M242.945 262.407C261.416 252.129 271.767 251.888 290.238 262.407" stroke="#EA2B2B" stroke-width="13.0055"/>
<circle cx="209.84" cy="265.84" r="47.5884" fill="#F7F7F7" stroke="#EA2B2B" stroke-width="6.50276"/>
<path d="M187.375 258.818C187.375 251.922 192.966 246.332 199.862 246.332H200.976C207.872 246.332 213.463 251.922 213.463 258.818V272.976C213.463 279.872 207.872 285.463 200.976 285.463H199.862C192.966 285.463 187.375 279.872 187.375 272.976V258.818Z" fill="#4B4B4B"/>
<circle cx="322.16" cy="265.84" r="47.5884" fill="#F7F7F7" stroke="#EA2B2B" stroke-width="6.50276"/>
<path d="M296.149 258.818C296.149 251.922 301.74 246.332 308.636 246.332H309.75C316.646 246.332 322.237 251.922 322.237 258.818V272.976C322.237 279.872 316.646 285.463 309.75 285.463H308.636C301.74 285.463 296.149 279.872 296.149 272.976V258.818Z" fill="#4B4B4B"/>
<path d="M279.928 345.648C277.721 343.197 278.974 339.282 282.113 338.271C291.053 335.392 295.723 331.49 298.574 324.403C299.775 321.42 303.751 320.346 305.904 322.736C306.839 323.776 307.161 325.241 306.698 326.561C302.613 338.201 297.282 343.174 284.203 346.907C282.658 347.348 281.002 346.841 279.928 345.648Z" fill="#1453A3"/>
</svg>
