<svg width="600" height="600" viewBox="0 0 600 600" fill="none" xmlns="http://www.w3.org/2000/svg">
<circle cx="419.399" cy="441.399" r="56.3988" fill="#1453A3"/>
<path d="M529.05 247.836C545.579 247.836 559.472 234.02 553.649 218.55C553.33 217.703 552.997 216.86 552.65 216.022C548.473 205.936 542.349 196.771 534.629 189.052C526.909 181.332 517.745 175.208 507.658 171.03C497.572 166.852 486.762 164.702 475.844 164.702C464.927 164.702 454.117 166.852 444.03 171.03C433.944 175.208 424.779 181.332 417.06 189.052C409.34 196.771 403.216 205.936 399.038 216.022C398.691 216.86 398.358 217.703 398.039 218.55C392.217 234.02 406.109 247.836 422.638 247.836L529.05 247.836Z" fill="#1453A3"/>
<path d="M492.286 136.326C506.148 127.324 510.275 108.169 496.966 98.3669C496.237 97.8299 495.499 97.3045 494.752 96.7909C485.754 90.6072 475.627 86.2563 464.948 83.9864C454.27 81.7166 443.248 81.5723 432.514 83.5618C421.779 85.5513 411.542 89.6357 402.386 95.5817C393.23 101.528 385.334 109.219 379.151 118.216C372.967 127.214 368.616 137.341 366.346 148.019C364.076 158.698 363.932 169.719 365.922 180.454C366.087 181.346 366.267 182.234 366.461 183.118C370.003 199.263 389.179 203.284 403.042 194.282L492.286 136.326Z" fill="#1453A3"/>
<path d="M181.973 231.343C186.164 208.549 206.034 192 229.209 192H331.68C356.513 192 377.251 210.931 379.509 235.662L400.136 461.605C402.704 489.738 380.556 514 352.307 514H187.664C157.661 514 135.002 486.795 140.428 457.286L181.973 231.343Z" fill="#1CB0F6"/>
<path d="M186.309 458.898C186.309 418.196 219.304 385.2 260.007 385.2V385.2C300.709 385.2 333.705 418.196 333.705 458.898V480.877C333.705 499.171 318.875 514 300.582 514H219.431C201.138 514 186.309 499.171 186.309 480.877V458.898Z" fill="#F7F7F7" fill-opacity="0.968627"/>
<path d="M277.833 300.217C286.867 300.217 293.624 291.855 286.255 286.628C281.174 283.025 274.282 281 267.096 281C259.909 281 253.018 283.025 247.936 286.628C240.567 291.855 247.324 300.217 256.358 300.217L277.833 300.217Z" fill="#1453A3"/>
<rect x="229" y="220" width="33" height="55" rx="16.5" fill="#1453A3"/>
<rect x="273.129" y="220" width="33" height="55" rx="16.5" fill="#1453A3"/>
<rect x="229" y="220" width="33" height="55" rx="16.5" fill="#F7F7F7"/>
<rect x="273.129" y="220" width="33" height="55" rx="16.5" fill="#F7F7F7"/>
<path d="M231.665 240.414C231.665 236.488 234.847 233.306 238.772 233.306C242.697 233.306 245.879 236.488 245.879 240.414V247.49C245.879 251.415 242.697 254.597 238.772 254.597C234.847 254.597 231.665 251.415 231.665 247.49V240.414Z" fill="#4B4B4B"/>
<path d="M275.794 240.414C275.794 236.488 278.976 233.306 282.901 233.306C286.826 233.306 290.008 236.488 290.008 240.414V247.49C290.008 251.415 286.826 254.597 282.901 254.597C278.976 254.597 275.794 251.415 275.794 247.49V240.414Z" fill="#4B4B4B"/>
<mask id="mask0_1060_4682" style="mask-type:alpha" maskUnits="userSpaceOnUse" x="139" y="192" width="262" height="322">
<path d="M181.989 231.34C186.181 208.548 206.05 192 229.224 192H331.753C356.586 192 377.324 210.93 379.582 235.66L400.215 461.604C402.784 489.737 380.636 514 352.386 514H187.667C157.663 514 135.004 486.794 140.432 457.284L181.989 231.34Z" fill="#1CB0F6"/>
</mask>
<g mask="url(#mask0_1060_4682)">
<path d="M117.997 342.003L267.083 356.95L416.942 342.003V568.891H117.997V342.003Z" fill="#B0691C"/>
<mask id="mask1_1060_4682" style="mask-type:alpha" maskUnits="userSpaceOnUse" x="117" y="342" width="300" height="227">
<path d="M117.997 342.003L267.083 356.95L416.942 342.003V568.891H117.997V342.003Z" fill="#E5A259"/>
</mask>
<g mask="url(#mask1_1060_4682)">
</g>
<mask id="mask2_1060_4682" style="mask-type:alpha" maskUnits="userSpaceOnUse" x="117" y="342" width="300" height="227">
<path d="M117.997 342.003L267.083 356.95L416.942 342.003V568.891H117.997V342.003Z" fill="#E5A259"/>
</mask>
<g mask="url(#mask2_1060_4682)">
<path d="M262.217 493.532C263.552 498.453 270.532 498.453 271.868 493.532L307.344 362.826C308.207 359.646 305.813 356.516 302.519 356.516H231.566C228.272 356.516 225.877 359.646 226.74 362.826L262.217 493.532Z" fill="#D9D9D9"/>
<path d="M274.042 393.906C274.042 398.036 270.683 401.384 266.54 401.384C262.396 401.384 259.038 398.036 259.038 393.906C259.038 389.776 262.396 386.428 266.54 386.428C270.683 386.428 274.042 389.776 274.042 393.906Z" fill="#E5A259"/>
<ellipse cx="266.54" cy="426.809" rx="7.5022" ry="7.478" fill="#E5A259"/>
<path d="M172.889 376.158C165.775 367.708 166.877 355.113 175.35 348.026L224.805 306.663L267.241 357.073L217.787 398.437C209.314 405.523 196.679 404.418 189.565 395.968L172.889 376.158Z" fill="#E5A259"/>
<path d="M361.393 376.158C368.506 367.708 367.404 355.113 358.932 348.026L309.477 306.663L267.04 357.073L316.495 398.437C324.968 405.523 337.603 404.418 344.717 395.968L361.393 376.158Z" fill="#E5A259"/>
</g>
</g>
<path d="M277.833 300.217C286.867 300.217 293.624 291.855 286.255 286.628C281.174 283.025 274.282 281 267.096 281C259.909 281 253.018 283.025 247.936 286.628C240.567 291.855 247.324 300.217 256.358 300.217L277.833 300.217Z" fill="#FFAADE"/>
<path d="M233.675 293.241C236.438 290.153 238.312 288.942 238.476 291.071C238.796 295.231 245.93 295.539 253.5 294.67C259.103 294.027 264.575 296.221 268.02 300.119C271.471 296.898 276.432 295.161 281.5 295.742C289.069 296.611 296.204 296.303 296.524 292.144C296.688 290.013 298.561 291.224 301.325 294.312C313.699 308.142 299.601 328.719 281.307 325.605L275.078 324.545C271.844 323.994 269.026 322.367 266.963 320.07C265.039 321.798 262.627 323.013 259.922 323.474L253.693 324.533C235.399 327.647 221.301 307.07 233.675 293.241Z" fill="black"/>
<rect x="27" y="292.474" width="21.652" height="159.719" rx="10.4042" transform="rotate(-32 27 292.474)" fill="#6C432D"/>
<path d="M290.928 344.648C288.721 342.197 289.974 338.282 293.113 337.271C302.053 334.392 306.723 330.49 309.574 323.403C310.775 320.42 314.751 319.346 316.904 321.736C317.839 322.776 318.161 324.241 317.698 325.561C313.613 337.201 308.282 342.174 295.203 345.907C293.658 346.348 292.002 345.841 290.928 344.648Z" fill="#1453A3"/>
</svg>
