<svg width="499" height="458" viewBox="0 0 499 458" fill="none" xmlns="http://www.w3.org/2000/svg">
<circle cx="362.813" cy="385.399" r="56.3988" fill="#1453A3"/>
<path d="M472.464 191.836C488.993 191.836 502.886 178.02 497.063 162.55C496.745 161.703 496.411 160.86 496.064 160.022C491.887 149.936 485.763 140.771 478.043 133.052C470.324 125.332 461.159 119.208 451.073 115.03C440.986 110.852 430.176 108.702 419.258 108.702C408.341 108.702 397.531 110.852 387.444 115.03C377.358 119.208 368.193 125.332 360.474 133.052C352.754 140.771 346.63 149.936 342.452 160.022C342.105 160.86 341.772 161.703 341.453 162.55C335.631 178.02 349.524 191.836 366.052 191.836L472.464 191.836Z" fill="#1453A3"/>
<path d="M435.7 80.326C449.563 71.3236 453.689 52.1693 440.38 42.3669C439.651 41.8299 438.913 41.3045 438.166 40.7909C429.168 34.6072 419.041 30.2563 408.363 27.9864C397.684 25.7166 386.662 25.5723 375.928 27.5618C365.193 29.5513 354.956 33.6357 345.8 39.5817C336.644 45.5277 328.748 53.219 322.565 62.2162C316.381 71.2135 312.03 81.3406 309.76 92.0194C307.491 102.698 307.346 113.719 309.336 124.454C309.501 125.346 309.681 126.234 309.875 127.118C313.417 143.263 332.593 147.284 346.456 138.282L435.7 80.326Z" fill="#1453A3"/>
<path d="M125.387 175.343C129.578 152.549 149.448 136 172.623 136H275.094C299.927 136 320.665 154.931 322.923 179.662L343.55 405.605C346.118 433.738 323.97 458 295.721 458H131.078C101.075 458 78.4162 430.796 83.8421 401.286L125.387 175.343Z" fill="#1CB0F6"/>
<path d="M129.723 402.898C129.723 362.196 162.718 329.2 203.421 329.2C244.123 329.2 277.119 362.196 277.119 402.898V424.877C277.119 443.171 262.29 458 243.996 458H162.845C144.552 458 129.723 443.171 129.723 424.877V402.898Z" fill="#F7F7F7" fill-opacity="0.968627"/>
<path d="M221.247 244.217C230.282 244.217 237.038 235.855 229.669 230.628C224.588 227.025 217.696 225 210.51 225C203.323 225 196.432 227.025 191.35 230.628C183.981 235.855 190.738 244.217 199.772 244.217H221.247Z" fill="#1453A3"/>
<rect x="216.414" y="164" width="33" height="55" rx="16.5" fill="#F7F7F7"/>
<rect width="6.03711" height="18.5827" rx="3.01856" transform="matrix(0.896153 -0.443744 0.433032 0.901378 226.588 184.691)" fill="#4B4B4B"/>
<rect width="6.03711" height="18.5827" rx="3.01856" transform="matrix(-0.896153 -0.443744 -0.433032 0.901378 240.046 184.691)" fill="#4B4B4B"/>
<rect x="172.414" y="164" width="33" height="55" rx="16.5" fill="#F7F7F7"/>
<rect width="6.03711" height="18.5827" rx="3.01856" transform="matrix(0.896153 -0.443744 0.433032 0.901378 181.918 184.691)" fill="#4B4B4B"/>
<rect width="6.03711" height="18.5827" rx="3.01856" transform="matrix(-0.896153 -0.443744 -0.433032 0.901378 195.375 184.691)" fill="#4B4B4B"/>
<rect x="52.2236" y="183.297" width="180.664" height="14.9887" rx="7.49434" transform="rotate(-40 52.2236 183.297)" fill="#4B4B4B"/>
<path d="M44.3624 126.051C34.7675 114.616 36.259 97.5685 47.6938 87.9735L95.436 47.9131C106.871 38.3181 123.919 39.8096 133.514 51.2444L170.344 95.1373C172.474 97.6757 172.143 101.46 169.605 103.59L88.8798 171.326C86.7645 173.101 83.6107 172.825 81.8357 170.71L44.3624 126.051Z" fill="#4B4B4B"/>
<rect x="54.9463" y="138.314" width="116.379" height="32.6969" transform="rotate(-40 54.9463 138.314)" fill="#F0F5F7"/>
<path d="M221.247 244.217C230.282 244.217 237.038 235.855 229.669 230.628C224.588 227.025 217.696 225 210.51 225C203.323 225 196.432 227.025 191.35 230.628C183.981 235.855 190.738 244.217 199.772 244.217H221.247Z" fill="#FFAADE"/>
<rect x="172.414" y="164" width="32.8553" height="55" rx="16.4276" fill="#F7F7F7"/>
<rect x="216.543" y="164" width="32.8709" height="55" rx="16.4354" fill="#F7F7F7"/>
<path d="M181.756 188.154C181.756 184.229 184.938 181.047 188.863 181.047C192.788 181.047 195.97 184.229 195.97 188.154V195.23C195.97 199.155 192.788 202.337 188.863 202.337C184.938 202.337 181.756 199.155 181.756 195.23V188.154Z" fill="#4B4B4B"/>
<path d="M225.885 188.154C225.885 184.229 229.067 181.047 232.992 181.047C236.917 181.047 240.099 184.229 240.099 188.154V195.23C240.099 199.155 236.917 202.337 232.992 202.337C229.067 202.337 225.885 199.155 225.885 195.23V188.154Z" fill="#4B4B4B"/>
<path d="M181.756 188.154C181.756 184.229 184.938 181.047 188.863 181.047C192.788 181.047 195.97 184.229 195.97 188.154V195.23C195.97 199.155 192.788 202.337 188.863 202.337C184.938 202.337 181.756 199.155 181.756 195.23V188.154Z" fill="#4B4B4B"/>
<path d="M225.885 188.154C225.885 184.229 229.067 181.047 232.992 181.047C236.917 181.047 240.099 184.229 240.099 188.154V195.23C240.099 199.155 236.917 202.337 232.992 202.337C229.067 202.337 225.885 199.155 225.885 195.23V188.154Z" fill="#4B4B4B"/>
<mask id="mask0_905_427" style="mask-type:alpha" maskUnits="userSpaceOnUse" x="172" y="164" width="34" height="55">
<rect x="172.414" y="164" width="32.8553" height="55" rx="16.4276" fill="#F7F7F7"/>
</mask>
<g mask="url(#mask0_905_427)">
<path d="M163.717 164H213.966V188.586C194.106 183.603 183.107 183.761 163.717 188.586V164Z" fill="#1453A3"/>
<path d="M163.717 164H213.966V188.586C194.106 183.603 183.107 183.761 163.717 188.586V164Z" fill="#1453A3"/>
</g>
<mask id="mask1_905_427" style="mask-type:alpha" maskUnits="userSpaceOnUse" x="216" y="164" width="34" height="55">
<rect x="216.414" y="164" width="33" height="55" rx="16.5" fill="#F7F7F7"/>
</mask>
<g mask="url(#mask1_905_427)">
<path d="M213.967 164H264.216V188.586C244.356 183.603 233.357 183.761 213.967 188.586V164Z" fill="#1453A3"/>
<path d="M213.967 164H264.216V188.586C244.356 183.603 233.357 183.761 213.967 188.586V164Z" fill="#1453A3"/>
</g>
<mask id="mask2_905_427" style="mask-type:alpha" maskUnits="userSpaceOnUse" x="172" y="164" width="34" height="55">
<rect x="172.414" y="164" width="33" height="55" rx="16.5" fill="#F7F7F7"/>
</mask>
<g mask="url(#mask2_905_427)">
</g>
<rect width="25" height="12.5" rx="6.25" transform="matrix(1 0 0 -1 197.414 265.5)" fill="#1453A3"/>
<mask id="mask3_905_427" style="mask-type:alpha" maskUnits="userSpaceOnUse" x="83" y="136" width="261" height="322">
<path d="M125.387 175.343C129.578 152.549 149.448 136 172.623 136H275.094C299.927 136 320.665 154.931 322.923 179.662L343.55 405.605C346.118 433.738 323.97 458 295.721 458H131.078C101.075 458 78.4162 430.796 83.8421 401.286L125.387 175.343Z" fill="#1CB0F6"/>
</mask>
<g mask="url(#mask3_905_427)">
<path d="M61.4141 286.003L210.457 300.95L360.271 286.003V512.891H61.4141V286.003Z" fill="#4B4B4B"/>
<mask id="mask4_905_427" style="mask-type:alpha" maskUnits="userSpaceOnUse" x="61" y="286" width="300" height="227">
<path d="M61.4141 286.003L210.457 300.95L360.271 286.003V512.891H61.4141V286.003Z" fill="#4B4B4B"/>
</mask>
<g mask="url(#mask4_905_427)">
<rect x="133.232" y="286.003" width="155.993" height="256.016" fill="#D9D9D9"/>
</g>
<path d="M215.372 321.039C223.625 315.492 223.625 303.349 215.372 297.801L177.437 272.302C168.137 266.051 155.627 272.715 155.627 283.921V334.919C155.627 346.125 168.137 352.789 177.437 346.538L215.372 321.039Z" fill="#EA2B2B"/>
<path d="M206.891 321.039C198.637 315.492 198.637 303.349 206.891 297.801L244.826 272.302C254.126 266.051 266.636 272.715 266.636 283.921V334.919C266.636 346.125 254.126 352.789 244.826 346.538L206.891 321.039Z" fill="#EA2B2B"/>
<ellipse cx="211.228" cy="381.051" rx="11.5836" ry="11.4977" fill="#4B4B4B"/>
<ellipse cx="211.228" cy="432.407" rx="11.5836" ry="11.4977" fill="#4B4B4B"/>
</g>
<rect x="38.7207" y="310.264" width="7.17075" height="65.0679" rx="3.58538" transform="rotate(-30 38.7207 310.264)" fill="#58A700"/>
<path d="M3.99944 302.71C2.01929 299.28 3.1944 294.895 6.62412 292.915L46.1845 270.074C49.6142 268.094 53.9997 269.269 55.9799 272.699L64.7441 287.879C72.078 300.582 67.7258 316.825 55.0231 324.159L49.0431 327.611C36.3404 334.945 20.0976 330.593 12.7637 317.89L3.99944 302.71Z" fill="#FF7878"/>
<mask id="mask5_905_427" style="mask-type:alpha" maskUnits="userSpaceOnUse" x="3" y="269" width="66" height="63">
<path d="M3.99944 302.71C2.01929 299.28 3.1944 294.895 6.62412 292.915L46.1845 270.074C49.6142 268.094 53.9997 269.269 55.9799 272.699L64.7441 287.879C72.078 300.582 67.7258 316.825 55.0231 324.159L49.0431 327.611C36.3404 334.945 20.0976 330.593 12.7637 317.89L3.99944 302.71Z" fill="#D9D9D9"/>
</mask>
<g mask="url(#mask5_905_427)">
<rect x="-36.7754" y="325.406" width="90.5322" height="62.9433" rx="25.2304" transform="rotate(-18 -36.7754 325.406)" fill="#EA2B2B"/>
<rect x="27.334" y="309.132" width="90.5322" height="62.9433" rx="25.2304" transform="rotate(-42 27.334 309.132)" fill="#FF4B4B"/>
</g>
<path d="M76.9192 339.215C76.8153 339.803 76.659 340.39 76.4478 340.97C74.4864 346.359 68.5279 349.137 63.1391 347.176C57.7503 345.215 54.9718 339.256 56.9332 333.867C57.4252 332.515 58.1687 331.328 59.0917 330.338L71.5567 316C75.2889 311.707 82.2823 315.241 81.0404 320.792L76.9192 339.215Z" fill="#58A700"/>
</svg>
