<svg width="426" height="432" viewBox="0 0 426 432" fill="none" xmlns="http://www.w3.org/2000/svg">
<circle cx="290.227" cy="359.4" r="56.3988" fill="#1C233A"/>
<path d="M399.878 165.838C416.407 165.838 430.3 152.021 424.478 136.551C424.159 135.704 423.826 134.861 423.479 134.024C419.301 123.937 413.177 114.773 405.457 107.053C397.738 99.3331 388.573 93.2095 378.487 89.0316C368.4 84.8537 357.59 82.7034 346.672 82.7034C335.755 82.7034 324.945 84.8537 314.858 89.0316C304.772 93.2095 295.607 99.3331 287.888 107.053C280.168 114.773 274.044 123.937 269.866 134.024C269.519 134.861 269.186 135.704 268.867 136.551C263.045 152.021 276.938 165.838 293.467 165.838L399.878 165.838Z" fill="#1C233A"/>
<path d="M363.114 54.3273C376.977 45.325 381.103 26.1706 367.794 16.3682C367.065 15.8312 366.327 15.3058 365.58 14.7922C356.582 8.60855 346.455 4.2576 335.777 1.98775C325.098 -0.282088 314.077 -0.426368 303.342 1.56316C292.607 3.55269 282.37 7.63706 273.214 13.5831C264.058 19.5291 256.163 27.2203 249.979 36.2176C243.795 45.2148 239.444 55.342 237.174 66.0208C234.905 76.6995 234.76 87.7208 236.75 98.4554C236.915 99.347 237.095 100.235 237.289 101.12C240.831 117.265 260.007 121.286 273.87 112.283L363.114 54.3273Z" fill="#1C233A"/>
<path d="M52.8011 149.344C56.9922 126.551 76.862 110.001 100.037 110.001H202.508C227.341 110.001 248.079 128.932 250.337 153.663L270.964 379.607C273.532 407.739 251.384 432.001 223.135 432.001H58.4924C28.4887 432.001 5.83029 404.797 11.2562 375.288L52.8011 149.344Z" fill="#111928"/>
<path d="M57.1367 376.9C57.1367 336.197 90.1325 303.201 130.835 303.201C171.537 303.201 204.533 336.197 204.533 376.9V398.878C204.533 417.172 189.704 432.001 171.41 432.001H90.2595C71.9663 432.001 57.1367 417.172 57.1367 398.878V376.9Z" fill="#B6EBF8"/>
<path d="M148.661 218.218C157.696 218.218 164.452 209.856 157.083 204.63C152.002 201.026 145.11 199.001 137.924 199.001C130.738 199.001 123.846 201.026 118.764 204.63C111.395 209.856 118.152 218.218 127.186 218.218H148.661Z" fill="#1453A3"/>
<rect x="99.8281" y="138.001" width="33" height="55" rx="16.5" fill="#1453A3"/>
<rect x="143.957" y="138.001" width="33" height="55" rx="16.5" fill="#1453A3"/>
<rect x="99.8281" y="138.001" width="33" height="55" rx="16.5" fill="#F7F7F7"/>
<rect x="143.957" y="138.001" width="33" height="55" rx="16.5" fill="#F7F7F7"/>
<path d="M102.493 158.415C102.493 154.49 105.675 151.308 109.6 151.308C113.526 151.308 116.708 154.49 116.708 158.415V165.491C116.708 169.416 113.526 172.598 109.6 172.598C105.675 172.598 102.493 169.416 102.493 165.491V158.415Z" fill="#4B4B4B"/>
<path d="M146.622 158.415C146.622 154.49 149.804 151.308 153.729 151.308C157.654 151.308 160.836 154.49 160.836 158.415V165.491C160.836 169.416 157.654 172.598 153.729 172.598C149.804 172.598 146.622 169.416 146.622 165.491V158.415Z" fill="#4B4B4B"/>
<rect x="13.6198" y="100.793" width="266.417" height="166.51" rx="28.9583" fill="#121625" stroke="#272E40" stroke-width="11.5833"/>
<circle cx="228.494" cy="157.285" r="26.7865" fill="#4EA5FF"/>
<path d="M116.067 146.833H116.279V162.97H116.04L60.7812 184.181L56.0557 171.872L98.5986 155.54L55.4678 143.173L59.1025 130.498L116.067 146.833Z" fill="#4EA5FF"/>
<rect x="122.43" y="224.972" width="61.5421" height="22.3539" fill="#4EA5FF"/>
<rect x="100.353" y="202.894" width="22.0779" height="22.0779" fill="#4EA5FF"/>
<rect x="183.973" y="202.894" width="22.0779" height="22.0779" fill="#4EA5FF"/>
</svg>
