<svg width="498" height="458" viewBox="0 0 498 458" fill="none" xmlns="http://www.w3.org/2000/svg">
<circle cx="362.399" cy="385.399" r="56.3988" fill="#1453A3"/>
<path d="M472.05 191.836C488.579 191.836 502.472 178.02 496.649 162.55C496.33 161.703 495.997 160.86 495.65 160.022C491.473 149.936 485.349 140.771 477.629 133.052C469.909 125.332 460.745 119.208 450.658 115.03C440.572 110.852 429.762 108.702 418.844 108.702C407.927 108.702 397.117 110.852 387.03 115.03C376.944 119.208 367.779 125.332 360.06 133.052C352.34 140.771 346.216 149.936 342.038 160.022C341.691 160.86 341.358 161.703 341.039 162.55C335.217 178.02 349.109 191.836 365.638 191.836L472.05 191.836Z" fill="#1453A3"/>
<path d="M435.286 80.326C449.148 71.3236 453.275 52.1693 439.966 42.3669C439.237 41.8299 438.499 41.3045 437.752 40.7909C428.754 34.6072 418.627 30.2563 407.948 27.9864C397.27 25.7166 386.248 25.5723 375.514 27.5618C364.779 29.5513 354.542 33.6357 345.386 39.5817C336.23 45.5277 328.334 53.219 322.151 62.2162C315.967 71.2135 311.616 81.3406 309.346 92.0194C307.076 102.698 306.932 113.719 308.922 124.454C309.087 125.346 309.267 126.234 309.461 127.118C313.003 143.263 332.179 147.284 346.042 138.282L435.286 80.326Z" fill="#1453A3"/>
<path d="M124.973 175.343C129.164 152.549 149.034 136 172.209 136H274.68C299.513 136 320.251 154.931 322.509 179.662L343.136 405.605C345.704 433.738 323.556 458 295.307 458H130.664C100.661 458 78.0022 430.796 83.4281 401.286L124.973 175.343Z" fill="#1CB0F6"/>
<path d="M129.309 402.898C129.309 362.196 162.304 329.2 203.007 329.2C243.709 329.2 276.705 362.196 276.705 402.898V424.877C276.705 443.171 261.875 458 243.582 458H162.431C144.138 458 129.309 443.171 129.309 424.877V402.898Z" fill="#F7F7F7" fill-opacity="0.968627"/>
<path d="M220.833 244.217C229.867 244.217 236.624 235.855 229.255 230.628C224.174 227.025 217.282 225 210.096 225C202.909 225 196.018 227.025 190.936 230.628C183.567 235.855 190.324 244.217 199.358 244.217H220.833Z" fill="#1453A3"/>
<rect x="216" y="164" width="33" height="55" rx="16.5" fill="#F7F7F7"/>
<rect width="6.03711" height="18.5827" rx="3.01856" transform="matrix(0.896153 -0.443744 0.433032 0.901378 226.174 184.691)" fill="#4B4B4B"/>
<rect width="6.03711" height="18.5827" rx="3.01856" transform="matrix(-0.896153 -0.443744 -0.433032 0.901378 239.632 184.691)" fill="#4B4B4B"/>
<rect x="172" y="164" width="33" height="55" rx="16.5" fill="#F7F7F7"/>
<rect width="6.03711" height="18.5827" rx="3.01856" transform="matrix(0.896153 -0.443744 0.433032 0.901378 181.504 184.691)" fill="#4B4B4B"/>
<rect width="6.03711" height="18.5827" rx="3.01856" transform="matrix(-0.896153 -0.443744 -0.433032 0.901378 194.961 184.691)" fill="#4B4B4B"/>
<path d="M72.6549 163.595C65.4616 155.023 72.8889 144.319 83.5236 140.836C93.0302 137.722 98.639 127.635 99.0871 100.82C99.4309 71.0395 109.694 62.9842 139.69 61.9774C143.37 61.8538 146.878 63.5 149.245 66.3206L168.483 89.247C172.875 94.4812 172.192 102.285 166.958 106.677L93.0691 168.677C87.8349 173.069 80.0312 172.386 75.6392 167.152L72.6549 163.595Z" fill="#E5A259"/>
<mask id="mask0_905_313" style="mask-type:alpha" maskUnits="userSpaceOnUse" x="69" y="61" width="103" height="111">
<path d="M72.6558 163.594C65.4626 155.022 72.8898 144.319 83.5245 140.835C93.0312 137.721 98.64 127.634 99.088 100.82C99.4319 71.0387 109.695 62.9834 139.691 61.9766C143.371 61.8531 146.879 63.4993 149.246 66.3199L168.484 89.2462C172.876 94.4805 172.193 102.284 166.959 106.676L93.0701 168.676C87.8358 173.068 80.0322 172.385 75.6402 167.151L72.6558 163.594Z" fill="#E5A259"/>
</mask>
<g mask="url(#mask0_905_313)">
<path d="M54.1592 178.652L165.212 85.4678L180.138 103.255L69.0848 196.44L54.1592 178.652Z" fill="#B0691C"/>
</g>
<rect x="59.5303" y="183.63" width="166.909" height="10.2963" rx="5.14817" transform="rotate(-40 59.5303 183.63)" fill="#E5A259"/>
<mask id="mask1_905_313" style="mask-type:alpha" maskUnits="userSpaceOnUse" x="82" y="136" width="262" height="322">
<path d="M124.989 175.34C129.181 152.548 149.05 136 172.224 136H274.753C299.586 136 320.324 154.93 322.582 179.66L343.215 405.604C345.784 433.737 323.636 458 295.386 458H130.667C100.663 458 78.004 430.794 83.4316 401.284L124.989 175.34Z" fill="#1CB0F6"/>
</mask>
<g mask="url(#mask1_905_313)">
<path d="M60.9961 286.003L210.082 300.95L359.941 286.003V512.891H60.9961V286.003Z" fill="#B0691C"/>
<mask id="mask2_905_313" style="mask-type:alpha" maskUnits="userSpaceOnUse" x="60" y="286" width="300" height="227">
<path d="M60.9961 286.003L210.082 300.95L359.941 286.003V512.891H60.9961V286.003Z" fill="#E5A259"/>
</mask>
<g mask="url(#mask2_905_313)">
</g>
<mask id="mask3_905_313" style="mask-type:alpha" maskUnits="userSpaceOnUse" x="60" y="286" width="300" height="227">
<path d="M60.9961 286.003L210.082 300.95L359.941 286.003V512.891H60.9961V286.003Z" fill="#E5A259"/>
</mask>
<g mask="url(#mask3_905_313)">
<path d="M205.216 437.532C206.552 442.453 213.532 442.453 214.867 437.532L250.344 306.826C251.207 303.646 248.813 300.516 245.518 300.516H174.565C171.271 300.516 168.877 303.646 169.74 306.826L205.216 437.532Z" fill="#D9D9D9"/>
<path d="M217.042 337.906C217.042 342.036 213.683 345.384 209.539 345.384C205.396 345.384 202.037 342.036 202.037 337.906C202.037 333.776 205.396 330.428 209.539 330.428C213.683 330.428 217.042 333.776 217.042 337.906Z" fill="#E5A259"/>
<ellipse cx="209.539" cy="370.809" rx="7.5022" ry="7.478" fill="#E5A259"/>
<path d="M115.888 320.158C108.774 311.708 109.876 299.113 118.349 292.026L167.804 250.663L210.24 301.073L160.786 342.437C152.313 349.523 139.678 348.418 132.564 339.968L115.888 320.158Z" fill="#E5A259"/>
<path d="M304.392 320.158C311.506 311.708 310.404 299.113 301.931 292.026L252.476 250.663L210.04 301.073L259.495 342.437C267.967 349.523 280.603 348.418 287.716 339.968L304.392 320.158Z" fill="#E5A259"/>
</g>
</g>
<rect x="172" y="164" width="32.8553" height="55" rx="16.4276" fill="#F7F7F7"/>
<rect x="216.129" y="164" width="32.8709" height="55" rx="16.4354" fill="#F7F7F7"/>
<path d="M181.342 188.154C181.342 184.229 184.524 181.047 188.449 181.047C192.374 181.047 195.556 184.229 195.556 188.154V195.23C195.556 199.155 192.374 202.337 188.449 202.337C184.524 202.337 181.342 199.155 181.342 195.23V188.154Z" fill="#4B4B4B"/>
<path d="M225.471 188.154C225.471 184.229 228.653 181.047 232.578 181.047C236.503 181.047 239.685 184.229 239.685 188.154V195.23C239.685 199.155 236.503 202.337 232.578 202.337C228.653 202.337 225.471 199.155 225.471 195.23V188.154Z" fill="#4B4B4B"/>
<path d="M181.342 188.154C181.342 184.229 184.524 181.047 188.449 181.047C192.374 181.047 195.556 184.229 195.556 188.154V195.23C195.556 199.155 192.374 202.337 188.449 202.337C184.524 202.337 181.342 199.155 181.342 195.23V188.154Z" fill="#4B4B4B"/>
<path d="M225.471 188.154C225.471 184.229 228.653 181.047 232.578 181.047C236.503 181.047 239.685 184.229 239.685 188.154V195.23C239.685 199.155 236.503 202.337 232.578 202.337C228.653 202.337 225.471 199.155 225.471 195.23V188.154Z" fill="#4B4B4B"/>
<mask id="mask4_905_313" style="mask-type:alpha" maskUnits="userSpaceOnUse" x="172" y="164" width="33" height="55">
<rect x="172" y="164" width="32.8553" height="55" rx="16.4276" fill="#F7F7F7"/>
</mask>
<g mask="url(#mask4_905_313)">
<path d="M163.303 164H213.552V188.586C193.692 183.603 182.693 183.761 163.303 188.586V164Z" fill="#1453A3"/>
<path d="M163.303 164H213.552V188.586C193.692 183.603 182.693 183.761 163.303 188.586V164Z" fill="#1453A3"/>
</g>
<mask id="mask5_905_313" style="mask-type:alpha" maskUnits="userSpaceOnUse" x="216" y="164" width="33" height="55">
<rect x="216" y="164" width="33" height="55" rx="16.5" fill="#F7F7F7"/>
</mask>
<g mask="url(#mask5_905_313)">
<path d="M213.553 164H263.802V188.586C243.942 183.603 232.943 183.761 213.553 188.586V164Z" fill="#1453A3"/>
<path d="M213.553 164H263.802V188.586C243.942 183.603 232.943 183.761 213.553 188.586V164Z" fill="#1453A3"/>
</g>
<mask id="mask6_905_313" style="mask-type:alpha" maskUnits="userSpaceOnUse" x="172" y="164" width="33" height="55">
<rect x="172" y="164" width="33" height="55" rx="16.5" fill="#F7F7F7"/>
</mask>
<g mask="url(#mask6_905_313)">
</g>
<circle opacity="0.5" cx="244.5" cy="195.5" r="32.9167" fill="#D2E4E8"/>
<path d="M244.5 156C266.315 156 284 173.685 284 195.5C284 217.315 266.315 235 244.5 235C222.685 235 205 217.315 205 195.5C205 173.685 222.685 156 244.5 156ZM244.5 162.583C226.321 162.583 211.583 177.321 211.583 195.5C211.583 213.679 226.321 228.417 244.5 228.417C262.679 228.417 277.417 213.679 277.417 195.5C277.417 177.321 262.679 162.583 244.5 162.583Z" fill="#E7A601"/>
<mask id="mask7_905_313" style="mask-type:alpha" maskUnits="userSpaceOnUse" x="211" y="162" width="67" height="67">
<circle cx="244.5" cy="195.5" r="32.9167" fill="#D9D9D9"/>
</mask>
<g mask="url(#mask7_905_313)">
<rect opacity="0.4" x="282.999" y="178.675" width="80.4396" height="29.671" transform="rotate(136 282.999 178.675)" fill="#DDF4FF"/>
</g>
<rect width="25" height="12.5" rx="6.25" transform="matrix(1 0 0 -1 198 283.5)" fill="#1453A3"/>
<path d="M220.833 244.217C229.867 244.217 236.624 235.855 229.255 230.628C224.174 227.025 217.282 225 210.096 225C202.909 225 196.018 227.025 190.936 230.628C183.567 235.855 190.324 244.217 199.358 244.217H220.833Z" fill="#FFAADE"/>
<path d="M176.675 237.241C179.438 234.153 181.311 232.942 181.476 235.071C181.796 239.231 188.93 239.539 196.5 238.67C202.103 238.027 207.576 240.221 211.021 244.119C214.471 240.898 219.433 239.161 224.5 239.742C232.07 240.611 239.203 240.303 239.523 236.144C239.687 234.013 241.561 235.225 244.324 238.312C256.698 252.142 242.601 272.719 224.307 269.605L218.077 268.545C214.844 267.994 212.027 266.367 209.964 264.07C208.039 265.798 205.626 267.013 202.922 267.474L196.692 268.533C178.399 271.647 164.301 251.07 176.675 237.241Z" fill="black"/>
</svg>
