<svg width="499" height="458" viewBox="0 0 499 458" fill="none" xmlns="http://www.w3.org/2000/svg">
<circle cx="363.055" cy="385.399" r="56.3988" fill="#1453A3"/>
<path d="M472.707 191.836C489.236 191.836 503.128 178.02 497.306 162.55C496.987 161.703 496.654 160.86 496.307 160.022C492.129 149.936 486.005 140.771 478.285 133.052C470.566 125.332 461.401 119.208 451.315 115.03C441.228 110.852 430.418 108.702 419.501 108.702C408.583 108.702 397.773 110.852 387.687 115.03C377.6 119.208 368.436 125.332 360.716 133.052C352.996 140.771 346.872 149.936 342.695 160.022C342.348 160.86 342.015 161.703 341.696 162.55C335.873 178.02 349.766 191.836 366.295 191.836L472.707 191.836Z" fill="#1453A3"/>
<path d="M435.942 80.326C449.805 71.3236 453.931 52.1693 440.623 42.3669C439.893 41.8299 439.155 41.3045 438.408 40.7909C429.411 34.6072 419.283 30.2563 408.605 27.9864C397.926 25.7166 386.905 25.5723 376.17 27.5618C365.436 29.5513 355.198 33.6357 346.042 39.5817C336.886 45.5277 328.991 53.219 322.807 62.2162C316.623 71.2135 312.272 81.3406 310.003 92.0194C307.733 102.698 307.588 113.719 309.578 124.454C309.743 125.346 309.923 126.234 310.117 127.118C313.659 143.263 332.836 147.284 346.698 138.282L435.942 80.326Z" fill="#1453A3"/>
<path d="M125.629 175.343C129.82 152.549 149.69 136 172.865 136H275.336C300.169 136 320.907 154.931 323.165 179.662L343.792 405.605C346.361 433.738 324.212 458 295.963 458H131.321C101.317 458 78.6584 430.796 84.0843 401.286L125.629 175.343Z" fill="#1CB0F6"/>
<path d="M129.965 402.898C129.965 362.196 162.961 329.2 203.663 329.2C244.366 329.2 277.361 362.196 277.361 402.898V424.877C277.361 443.171 262.532 458 244.239 458H163.088C144.794 458 129.965 443.171 129.965 424.877V402.898Z" fill="#F7F7F7" fill-opacity="0.968627"/>
<path d="M221.49 244.217C230.524 244.217 237.28 235.855 229.911 230.628C224.83 227.025 217.938 225 210.752 225C203.566 225 196.674 227.025 191.592 230.628C184.223 235.855 190.98 244.217 200.014 244.217H221.49Z" fill="#1453A3"/>
<rect x="216.656" y="164" width="33" height="55" rx="16.5" fill="#F7F7F7"/>
<rect width="6.03711" height="18.5827" rx="3.01856" transform="matrix(0.896153 -0.443744 0.433032 0.901378 226.83 184.691)" fill="#4B4B4B"/>
<rect width="6.03711" height="18.5827" rx="3.01856" transform="matrix(-0.896153 -0.443744 -0.433032 0.901378 240.288 184.691)" fill="#4B4B4B"/>
<rect x="172.656" y="164" width="33" height="55" rx="16.5" fill="#F7F7F7"/>
<rect width="6.03711" height="18.5827" rx="3.01856" transform="matrix(0.896153 -0.443744 0.433032 0.901378 182.16 184.691)" fill="#4B4B4B"/>
<rect width="6.03711" height="18.5827" rx="3.01856" transform="matrix(-0.896153 -0.443744 -0.433032 0.901378 195.617 184.691)" fill="#4B4B4B"/>
<rect x="34.0088" y="119.75" width="125.146" height="63.4011" rx="9.936" transform="rotate(-40 34.0088 119.75)" fill="#D9B56D"/>
<rect x="33.8301" y="183.208" width="207" height="29.808" rx="6.86057" transform="rotate(-40 33.8301 183.208)" fill="#D9B56D"/>
<rect x="54.3848" y="144.034" width="125.146" height="16.7966" transform="rotate(-40 54.3848 144.034)" fill="#FF0F0F"/>
<rect x="111.001" y="65.0271" width="3.62107" height="15.0414" rx="1.81053" transform="rotate(-40 111.001 65.0271)" fill="#CC9D3D"/>
<rect x="115.909" y="60.9087" width="3.62107" height="15.0414" rx="1.81053" transform="rotate(-40 115.909 60.9087)" fill="#CC9D3D"/>
<rect x="121.457" y="56.2537" width="3.62107" height="15.0414" rx="1.81053" transform="rotate(-40 121.457 56.2537)" fill="#CC9D3D"/>
<rect x="77.1445" y="156.436" width="3.62107" height="15.0414" rx="1.81053" transform="rotate(-40 77.1445 156.436)" fill="#CC9D3D"/>
<rect x="82.0527" y="152.318" width="3.62107" height="15.0414" rx="1.81053" transform="rotate(-40 82.0527 152.318)" fill="#CC9D3D"/>
<rect x="87.6006" y="147.663" width="3.62107" height="15.0414" rx="1.81053" transform="rotate(-40 87.6006 147.663)" fill="#CC9D3D"/>
<mask id="mask0_906_1481" style="mask-type:alpha" maskUnits="userSpaceOnUse" x="82" y="136" width="263" height="322">
<path d="M126.312 171.714C130.117 151.023 148.155 136 169.194 136H279.45C301.994 136 320.82 153.186 322.87 175.636L344.312 410.434C346.644 435.973 326.537 458 300.892 458H126.008C98.769 458 78.199 433.301 83.1263 406.512L126.312 171.714Z" fill="#1CB0F6"/>
</mask>
<g mask="url(#mask0_906_1481)">
<path d="M73.6553 280.608L219.528 295.235L366.157 280.608V502.636H73.6553V280.608Z" fill="#E68700"/>
<path d="M137.301 339.238C137.301 328.612 145.914 319.999 156.54 319.999H286.456C297.081 319.999 305.695 328.612 305.695 339.238V502.677H137.301V339.238Z" fill="#58A700"/>
<mask id="mask1_906_1481" style="mask-type:alpha" maskUnits="userSpaceOnUse" x="73" y="280" width="294" height="223">
<path d="M73.6553 280.608L219.528 295.235L366.157 280.608V502.636H73.6553V280.608Z" fill="#E68700"/>
</mask>
<g mask="url(#mask1_906_1481)">
<path d="M73.6553 265.803L169.947 355.336" stroke="#407A00" stroke-width="39.532" stroke-linecap="round"/>
<path d="M361.97 266.332L265.122 356.382" stroke="#407A00" stroke-width="39.532" stroke-linecap="round"/>
</g>
<ellipse cx="169.918" cy="355.689" rx="10.3423" ry="10.3103" fill="#1D3800"/>
<ellipse cx="264.59" cy="356.746" rx="10.3423" ry="10.3103" fill="#1D3800"/>
</g>
<path d="M221.49 244.217C230.524 244.217 237.28 235.855 229.911 230.628C224.83 227.025 217.938 225 210.752 225C203.566 225 196.674 227.025 191.592 230.628C184.223 235.855 190.98 244.217 200.014 244.217H221.49Z" fill="#FFAADE"/>
<rect x="172.656" y="164" width="32.8553" height="55" rx="16.4276" fill="#F7F7F7"/>
<rect x="216.785" y="164" width="32.8709" height="55" rx="16.4354" fill="#F7F7F7"/>
<path d="M181.998 188.154C181.998 184.229 185.18 181.047 189.105 181.047C193.03 181.047 196.212 184.229 196.212 188.154V195.23C196.212 199.155 193.03 202.337 189.105 202.337C185.18 202.337 181.998 199.155 181.998 195.23V188.154Z" fill="#4B4B4B"/>
<path d="M226.127 188.154C226.127 184.229 229.309 181.047 233.234 181.047C237.159 181.047 240.341 184.229 240.341 188.154V195.23C240.341 199.155 237.159 202.337 233.234 202.337C229.309 202.337 226.127 199.155 226.127 195.23V188.154Z" fill="#4B4B4B"/>
<mask id="mask2_906_1481" style="mask-type:alpha" maskUnits="userSpaceOnUse" x="172" y="164" width="34" height="55">
<rect x="172.656" y="164" width="33" height="55" rx="16.5" fill="#F7F7F7"/>
</mask>
<g mask="url(#mask2_906_1481)">
<rect width="43.4699" height="33.7836" transform="matrix(0.874922 0.484265 -0.485355 0.874317 183.899 142.45)" fill="#1453A3"/>
</g>
<mask id="mask3_906_1481" style="mask-type:alpha" maskUnits="userSpaceOnUse" x="216" y="164" width="34" height="55">
<rect x="216.656" y="164" width="33" height="55" rx="16.5" fill="#F7F7F7"/>
</mask>
<g mask="url(#mask3_906_1481)">
<rect width="43.4699" height="33.7836" transform="matrix(-0.874922 0.484265 0.485355 0.874317 238.391 141.164)" fill="#1453A3"/>
</g>
<path d="M188.656 267.945C188.656 266.454 189.463 265.077 190.763 264.347C208.201 254.548 218.572 249.351 230.963 264.657C231.412 265.212 231.656 265.92 231.656 266.635C231.656 269.701 227.618 271.139 225.305 269.126C215.599 260.682 207.188 263.432 195.265 271.386C192.466 273.254 188.656 271.31 188.656 267.945Z" fill="#1453A3"/>
</svg>
