<svg width="600" height="600" viewBox="0 0 600 600" fill="none" xmlns="http://www.w3.org/2000/svg">
<circle cx="418.399" cy="461.399" r="56.3988" fill="#1453A3"/>
<path d="M528.05 267.836C544.579 267.836 558.472 254.02 552.649 238.55C552.33 237.703 551.997 236.86 551.65 236.022C547.473 225.936 541.349 216.771 533.629 209.052C525.909 201.332 516.745 195.208 506.658 191.03C496.572 186.852 485.762 184.702 474.844 184.702C463.927 184.702 453.117 186.852 443.03 191.03C432.944 195.208 423.779 201.332 416.06 209.052C408.34 216.771 402.216 225.936 398.038 236.022C397.691 236.86 397.358 237.703 397.039 238.55C391.217 254.02 405.109 267.836 421.638 267.836L528.05 267.836Z" fill="#1453A3"/>
<path d="M491.286 156.326C505.148 147.324 509.275 128.169 495.966 118.367C495.237 117.83 494.499 117.304 493.752 116.791C484.754 110.607 474.627 106.256 463.948 103.986C453.27 101.717 442.248 101.572 431.514 103.562C420.779 105.551 410.542 109.636 401.386 115.582C392.23 121.528 384.334 129.219 378.151 138.216C371.967 147.214 367.616 157.341 365.346 168.019C363.076 178.698 362.932 189.719 364.922 200.454C365.087 201.346 365.267 202.234 365.461 203.118C369.003 219.263 388.179 223.284 402.042 214.282L491.286 156.326Z" fill="#1453A3"/>
<path d="M180.973 251.343C185.164 228.549 205.034 212 228.209 212H330.68C355.513 212 376.251 230.931 378.509 255.662L399.136 481.605C401.704 509.738 379.556 534 351.307 534H186.664C156.661 534 134.002 506.795 139.428 477.286L180.973 251.343Z" fill="#1CB0F6"/>
<path d="M185.309 478.898C185.309 438.196 218.304 405.2 259.007 405.2V405.2C299.709 405.2 332.705 438.196 332.705 478.898V500.877C332.705 519.171 317.875 534 299.582 534H218.431C200.138 534 185.309 519.171 185.309 500.877V478.898Z" fill="#F7F7F7" fill-opacity="0.968627"/>
<path d="M276.833 320.217C285.867 320.217 292.624 311.855 285.255 306.628C280.174 303.025 273.282 301 266.096 301C258.909 301 252.018 303.025 246.936 306.628C239.567 311.855 246.324 320.217 255.358 320.217L276.833 320.217Z" fill="#1453A3"/>
<rect x="272" y="240" width="33" height="55" rx="16.5" fill="#F7F7F7"/>
<rect width="6.03711" height="18.5827" rx="3.01856" transform="matrix(0.896153 -0.443744 0.433032 0.901378 282.174 260.691)" fill="#4B4B4B"/>
<rect width="6.03711" height="18.5827" rx="3.01856" transform="matrix(-0.896153 -0.443744 -0.433032 0.901378 295.632 260.691)" fill="#4B4B4B"/>
<rect x="228" y="240" width="33" height="55" rx="16.5" fill="#F7F7F7"/>
<rect width="6.03711" height="18.5827" rx="3.01856" transform="matrix(0.896153 -0.443744 0.433032 0.901378 237.504 260.691)" fill="#4B4B4B"/>
<rect width="6.03711" height="18.5827" rx="3.01856" transform="matrix(-0.896153 -0.443744 -0.433032 0.901378 250.961 260.691)" fill="#4B4B4B"/>
<path d="M128.655 239.595C121.462 231.023 128.889 220.319 139.524 216.836C149.031 213.722 154.639 203.635 155.088 176.82C155.431 147.039 165.694 138.984 195.69 137.977C199.37 137.854 202.879 139.5 205.246 142.321L224.483 165.247C228.875 170.481 228.192 178.285 222.958 182.677L149.07 244.677C143.835 249.069 136.032 248.386 131.64 243.152L128.655 239.595Z" fill="#E5A259"/>
<mask id="mask0_1060_4682" style="mask-type:alpha" maskUnits="userSpaceOnUse" x="125" y="137" width="103" height="111">
<path d="M128.655 239.594C121.462 231.022 128.889 220.319 139.524 216.835C149.031 213.721 154.639 203.634 155.088 176.82C155.431 147.039 165.694 138.983 195.69 137.977C199.37 137.853 202.879 139.499 205.246 142.32L224.483 165.246C228.875 170.48 228.192 178.284 222.958 182.676L149.07 244.676C143.835 249.068 136.032 248.385 131.64 243.151L128.655 239.594Z" fill="#E5A259"/>
</mask>
<g mask="url(#mask0_1060_4682)">
<path d="M110.159 254.652L221.212 161.468L236.138 179.255L125.085 272.44L110.159 254.652Z" fill="#B0691C"/>
</g>
<rect x="115.531" y="259.63" width="166.909" height="10.2963" rx="5.14817" transform="rotate(-40 115.531 259.63)" fill="#E5A259"/>
<mask id="mask1_1060_4682" style="mask-type:alpha" maskUnits="userSpaceOnUse" x="138" y="212" width="262" height="322">
<path d="M180.989 251.34C185.181 228.548 205.05 212 228.224 212H330.753C355.586 212 376.324 230.93 378.582 255.66L399.215 481.604C401.784 509.737 379.636 534 351.386 534H186.667C156.663 534 134.004 506.794 139.432 477.284L180.989 251.34Z" fill="#1CB0F6"/>
</mask>
<g mask="url(#mask1_1060_4682)">
<path d="M116.997 362.003L266.083 376.95L415.942 362.003V588.891H116.997V362.003Z" fill="#B0691C"/>
<mask id="mask2_1060_4682" style="mask-type:alpha" maskUnits="userSpaceOnUse" x="116" y="362" width="300" height="227">
<path d="M116.997 362.003L266.083 376.95L415.942 362.003V588.891H116.997V362.003Z" fill="#E5A259"/>
</mask>
<g mask="url(#mask2_1060_4682)">
</g>
<mask id="mask3_1060_4682" style="mask-type:alpha" maskUnits="userSpaceOnUse" x="116" y="362" width="300" height="227">
<path d="M116.997 362.003L266.083 376.95L415.942 362.003V588.891H116.997V362.003Z" fill="#E5A259"/>
</mask>
<g mask="url(#mask3_1060_4682)">
<path d="M261.217 513.532C262.552 518.453 269.532 518.453 270.868 513.532L306.344 382.826C307.207 379.646 304.813 376.516 301.519 376.516H230.566C227.272 376.516 224.877 379.646 225.74 382.826L261.217 513.532Z" fill="#D9D9D9"/>
<path d="M273.042 413.906C273.042 418.036 269.683 421.384 265.54 421.384C261.396 421.384 258.038 418.036 258.038 413.906C258.038 409.776 261.396 406.428 265.54 406.428C269.683 406.428 273.042 409.776 273.042 413.906Z" fill="#E5A259"/>
<ellipse cx="265.54" cy="446.809" rx="7.5022" ry="7.478" fill="#E5A259"/>
<path d="M171.889 396.158C164.775 387.708 165.877 375.113 174.35 368.026L223.805 326.663L266.241 377.073L216.787 418.437C208.314 425.523 195.679 424.418 188.565 415.968L171.889 396.158Z" fill="#E5A259"/>
<path d="M360.393 396.158C367.506 387.708 366.404 375.113 357.932 368.026L308.477 326.663L266.04 377.073L315.495 418.437C323.968 425.523 336.603 424.418 343.717 415.968L360.393 396.158Z" fill="#E5A259"/>
</g>
</g>
<rect x="228" y="240" width="32.8553" height="55" rx="16.4276" fill="#F7F7F7"/>
<rect x="272.129" y="240" width="32.8709" height="55" rx="16.4354" fill="#F7F7F7"/>
<path d="M237.341 264.154C237.341 260.229 240.523 257.047 244.449 257.047C248.374 257.047 251.556 260.229 251.556 264.154V271.23C251.556 275.155 248.374 278.337 244.449 278.337C240.523 278.337 237.341 275.155 237.341 271.23V264.154Z" fill="#4B4B4B"/>
<path d="M281.471 264.154C281.471 260.229 284.653 257.047 288.578 257.047C292.503 257.047 295.685 260.229 295.685 264.154V271.23C295.685 275.155 292.503 278.337 288.578 278.337C284.653 278.337 281.471 275.155 281.471 271.23V264.154Z" fill="#4B4B4B"/>
<path d="M237.341 264.154C237.341 260.229 240.523 257.047 244.449 257.047C248.374 257.047 251.556 260.229 251.556 264.154V271.23C251.556 275.155 248.374 278.337 244.449 278.337C240.523 278.337 237.341 275.155 237.341 271.23V264.154Z" fill="#4B4B4B"/>
<path d="M281.47 264.154C281.47 260.229 284.652 257.047 288.577 257.047C292.503 257.047 295.685 260.229 295.685 264.154V271.23C295.685 275.155 292.503 278.337 288.577 278.337C284.652 278.337 281.47 275.155 281.47 271.23V264.154Z" fill="#4B4B4B"/>
<mask id="mask4_1060_4682" style="mask-type:alpha" maskUnits="userSpaceOnUse" x="228" y="240" width="33" height="55">
<rect x="228" y="240" width="32.8553" height="55" rx="16.4276" fill="#F7F7F7"/>
</mask>
<g mask="url(#mask4_1060_4682)">
<path d="M219.303 240H269.552V264.586C249.692 259.603 238.694 259.761 219.303 264.586V240Z" fill="#1453A3"/>
<path d="M219.303 240H269.552V264.586C249.692 259.603 238.694 259.761 219.303 264.586V240Z" fill="#1453A3"/>
</g>
<mask id="mask5_1060_4682" style="mask-type:alpha" maskUnits="userSpaceOnUse" x="272" y="240" width="33" height="55">
<rect x="272" y="240" width="33" height="55" rx="16.5" fill="#F7F7F7"/>
</mask>
<g mask="url(#mask5_1060_4682)">
<path d="M269.552 240H319.801V264.586C299.941 259.603 288.943 259.761 269.552 264.586V240Z" fill="#1453A3"/>
<path d="M269.552 240H319.801V264.586C299.941 259.603 288.943 259.761 269.552 264.586V240Z" fill="#1453A3"/>
</g>
<mask id="mask6_1060_4682" style="mask-type:alpha" maskUnits="userSpaceOnUse" x="228" y="240" width="33" height="55">
<rect x="228" y="240" width="33" height="55" rx="16.5" fill="#F7F7F7"/>
</mask>
<g mask="url(#mask6_1060_4682)">
</g>
<circle opacity="0.5" cx="300.5" cy="271.5" r="32.9167" fill="#D2E4E8"/>
<path d="M300.5 232C322.315 232 340 249.685 340 271.5C340 293.315 322.315 311 300.5 311C278.685 311 261 293.315 261 271.5C261 249.685 278.685 232 300.5 232ZM300.5 238.583C282.321 238.583 267.583 253.321 267.583 271.5C267.583 289.679 282.321 304.417 300.5 304.417C318.679 304.417 333.417 289.679 333.417 271.5C333.417 253.321 318.679 238.583 300.5 238.583Z" fill="#E7A601"/>
<mask id="mask7_1060_4682" style="mask-type:alpha" maskUnits="userSpaceOnUse" x="267" y="238" width="67" height="67">
<circle cx="300.5" cy="271.5" r="32.9167" fill="#D9D9D9"/>
</mask>
<g mask="url(#mask7_1060_4682)">
<rect opacity="0.4" x="339" y="254.675" width="80.4396" height="29.671" transform="rotate(136 339 254.675)" fill="#DDF4FF"/>
</g>
<rect width="25" height="12.5" rx="6.25" transform="matrix(1 0 0 -1 254 359.5)" fill="#1453A3"/>
<path d="M276.833 320.217C285.867 320.217 292.624 311.855 285.255 306.628C280.174 303.025 273.282 301 266.096 301C258.909 301 252.018 303.025 246.936 306.628C239.567 311.855 246.324 320.217 255.358 320.217L276.833 320.217Z" fill="#FFAADE"/>
<path d="M232.675 313.241C235.438 310.153 237.312 308.942 237.476 311.071C237.796 315.231 244.93 315.539 252.5 314.67C258.103 314.027 263.575 316.221 267.02 320.119C270.471 316.898 275.432 315.161 280.5 315.742C288.069 316.611 295.204 316.303 295.524 312.144C295.688 310.013 297.561 311.224 300.325 314.312C312.699 328.142 298.601 348.719 280.307 345.605L274.078 344.545C270.844 343.994 268.026 342.367 265.963 340.07C264.039 341.798 261.627 343.013 258.922 343.474L252.693 344.533C234.399 347.647 220.301 327.07 232.675 313.241Z" fill="black"/>
</svg>
