<svg width="425" height="432" viewBox="0 0 425 432" fill="none" xmlns="http://www.w3.org/2000/svg">
<circle cx="289.399" cy="359.4" r="56.3988" fill="#5A7425"/>
<path d="M399.05 165.838C415.579 165.838 429.472 152.021 423.649 136.551C423.33 135.704 422.997 134.861 422.65 134.024C418.473 123.937 412.349 114.773 404.629 107.053C396.909 99.3331 387.745 93.2095 377.658 89.0316C367.572 84.8537 356.762 82.7034 345.844 82.7034C334.927 82.7034 324.117 84.8537 314.03 89.0316C303.944 93.2095 294.779 99.3331 287.06 107.053C279.34 114.773 273.216 123.937 269.038 134.024C268.691 134.861 268.358 135.704 268.039 136.551C262.217 152.021 276.109 165.838 292.638 165.838L399.05 165.838Z" fill="#5A7425"/>
<path d="M362.286 54.3273C376.148 45.325 380.275 26.1706 366.966 16.3682C366.237 15.8312 365.499 15.3058 364.752 14.7922C355.754 8.60855 345.627 4.2576 334.948 1.98775C324.27 -0.282088 313.248 -0.426368 302.514 1.56316C291.779 3.55269 281.542 7.63706 272.386 13.5831C263.23 19.5291 255.334 27.2203 249.151 36.2176C242.967 45.2148 238.616 55.342 236.346 66.0208C234.076 76.6995 233.932 87.7208 235.922 98.4554C236.087 99.347 236.267 100.235 236.461 101.12C240.003 117.265 259.179 121.286 273.042 112.283L362.286 54.3273Z" fill="#5A7425"/>
<path d="M274.672 379.369C277.388 407.584 255.208 432.002 226.863 432.002H48.0459C17.8516 432.002 -4.85348 404.471 0.894531 374.828L33.2926 207.75C33.9308 204.459 36.8124 202.082 40.1646 202.082H251.245C254.851 202.082 257.867 204.822 258.213 208.411L274.672 379.369ZM205.11 110.001C229.853 110.001 250.548 128.799 252.919 153.428L255.827 183.634C256.223 187.746 252.99 191.305 248.859 191.305H44.9693C40.5687 191.305 37.2596 187.292 38.0973 182.972L44.707 148.888C49.0856 126.308 68.8577 110.001 91.8584 110.001H205.11Z" fill="#96C13E"/>
<circle cx="79.5" cy="156.501" r="9.5" fill="#4B4B4B"/>
<circle cx="184.5" cy="156.501" r="9.5" fill="#4B4B4B"/>
<rect width="12" height="32" rx="6" transform="matrix(-0.913545 -0.406737 -0.406737 0.913545 211.007 96.9331)" fill="#96C13E"/>
<rect width="12" height="32" rx="6" transform="matrix(-0.913545 0.406737 0.406737 0.913545 104.347 90.3606)" fill="#96C13E"/>
</svg>
