<svg width="600" height="600" viewBox="0 0 600 600" fill="none" xmlns="http://www.w3.org/2000/svg">
<circle cx="397.399" cy="441.399" r="56.3988" fill="#5A7425"/>
<path d="M507.05 247.836C523.579 247.836 537.472 234.02 531.649 218.55C531.33 217.703 530.997 216.86 530.65 216.022C526.473 205.936 520.349 196.771 512.629 189.052C504.909 181.332 495.745 175.208 485.658 171.03C475.572 166.852 464.762 164.702 453.844 164.702C442.927 164.702 432.117 166.852 422.03 171.03C411.944 175.208 402.779 181.332 395.06 189.052C387.34 196.771 381.216 205.936 377.038 216.022C376.691 216.86 376.358 217.703 376.039 218.55C370.217 234.02 384.109 247.836 400.638 247.836L507.05 247.836Z" fill="#5A7425"/>
<path d="M470.286 136.326C484.148 127.324 488.275 108.169 474.966 98.3669C474.237 97.8299 473.499 97.3045 472.752 96.7909C463.754 90.6072 453.627 86.2563 442.948 83.9864C432.27 81.7166 421.248 81.5723 410.514 83.5618C399.779 85.5513 389.542 89.6357 380.386 95.5817C371.23 101.528 363.334 109.219 357.151 118.216C350.967 127.214 346.616 137.341 344.346 148.019C342.076 158.698 341.932 169.719 343.922 180.454C344.087 181.346 344.267 182.234 344.461 183.118C348.003 199.263 367.179 203.284 381.042 194.282L470.286 136.326Z" fill="#5A7425"/>
<path d="M382.671 461.368C385.388 489.583 363.208 514.001 334.863 514.001H156.045C125.851 514.001 103.146 486.469 108.894 456.827L141.292 289.749C141.93 286.458 144.812 284.081 148.164 284.081H359.245C362.851 284.081 365.867 286.821 366.212 290.41L382.671 461.368ZM313.11 192C337.853 192 358.547 210.798 360.918 235.427L363.826 265.633C364.222 269.745 360.99 273.304 356.859 273.304H152.969C148.568 273.304 145.259 269.291 146.097 264.971L152.707 230.887C157.085 208.306 176.858 192 199.859 192H313.11Z" fill="#96C13E"/>
<circle cx="187.5" cy="238.5" r="9.5" fill="#4B4B4B"/>
<circle cx="292.5" cy="238.5" r="9.5" fill="#4B4B4B"/>
<rect width="12" height="32" rx="6" transform="matrix(-0.913545 -0.406737 -0.406737 0.913545 319.007 178.932)" fill="#96C13E"/>
<rect width="12" height="32" rx="6" transform="matrix(-0.913545 0.406737 0.406737 0.913545 212.347 172.359)" fill="#96C13E"/>
</svg>
