<svg width="508" height="464" viewBox="0 0 508 464" fill="none" xmlns="http://www.w3.org/2000/svg">
<circle cx="372.227" cy="391.399" r="56.3988" fill="#1453A3"/>
<path d="M481.878 197.836C498.407 197.836 512.3 184.02 506.478 168.55C506.159 167.703 505.826 166.86 505.479 166.022C501.301 155.936 495.177 146.771 487.457 139.052C479.738 131.332 470.573 125.208 460.487 121.03C450.4 116.852 439.59 114.702 428.672 114.702C417.755 114.702 406.945 116.852 396.858 121.03C386.772 125.208 377.607 131.332 369.888 139.052C362.168 146.771 356.044 155.936 351.866 166.022C351.519 166.86 351.186 167.703 350.867 168.55C345.045 184.02 358.938 197.836 375.467 197.836L481.878 197.836Z" fill="#1453A3"/>
<path d="M445.114 86.326C458.977 77.3236 463.103 58.1693 449.794 48.3669C449.065 47.8299 448.327 47.3045 447.58 46.7909C438.582 40.6072 428.455 36.2563 417.777 33.9864C407.098 31.7166 396.077 31.5723 385.342 33.5618C374.607 35.5513 364.37 39.6357 355.214 45.5817C346.058 51.5277 338.163 59.219 331.979 68.2162C325.795 77.2135 321.444 87.3406 319.174 98.0194C316.905 108.698 316.76 119.719 318.75 130.454C318.915 131.346 319.095 132.234 319.289 133.118C322.831 149.263 342.007 153.284 355.87 144.282L445.114 86.326Z" fill="#1453A3"/>
<path d="M134.801 181.343C138.992 158.549 158.862 142 182.037 142H284.508C309.341 142 330.079 160.931 332.337 185.662L352.964 411.605C355.532 439.738 333.384 464 305.135 464H140.492C110.489 464 87.8303 436.796 93.2562 407.286L134.801 181.343Z" fill="#1CB0F6"/>
<path d="M139.137 408.898C139.137 368.196 172.133 335.2 212.835 335.2C253.537 335.2 286.533 368.196 286.533 408.898V430.877C286.533 449.171 271.704 464 253.41 464H172.26C153.966 464 139.137 449.171 139.137 430.877V408.898Z" fill="#F7F7F7" fill-opacity="0.968627"/>
<path d="M230.661 250.217C239.696 250.217 246.452 241.855 239.083 236.628C234.002 233.025 227.11 231 219.924 231C212.738 231 205.846 233.025 200.764 236.628C193.395 241.855 200.152 250.217 209.186 250.217H230.661Z" fill="#1453A3"/>
<path d="M63.2832 126.32L142.952 59.4704L180.876 104.667C183.006 107.205 182.675 110.99 180.137 113.12L109.661 172.256C107.122 174.386 103.338 174.055 101.208 171.517L63.2832 126.32Z" fill="#4B4B4B"/>
<rect x="9.82715" y="145.067" width="209" height="20" rx="10" transform="rotate(-40 9.82715 145.067)" fill="#4B4B4B"/>
<path d="M86.6785 77.9707C85.9685 77.1245 84.707 77.0141 83.8608 77.7241L27.1736 125.29C25.4813 126.71 25.2605 129.233 26.6805 130.926L75.211 188.762C76.0985 189.82 77.6754 189.958 78.7331 189.07C79.7908 188.183 79.9287 186.606 79.0412 185.548L33.0819 130.776C31.6619 129.084 31.8826 126.561 33.5749 125.141L86.432 80.7883C87.2781 80.0783 87.3885 78.8168 86.6785 77.9707Z" fill="#F8DD17"/>
<path d="M80.0785 76.3287C77.771 73.5787 78.1297 69.4788 80.8797 67.1712C83.6297 64.8637 87.7296 65.2224 90.0371 67.9724L101.286 81.3782L91.3273 89.7344L80.0785 76.3287Z" fill="#4B4B4B"/>
<path d="M74.2249 200.033C70.4973 195.59 71.0768 188.968 75.5191 185.24C79.9613 181.512 86.5843 182.092 90.3118 186.534L94.8113 191.896C96.0538 193.377 95.8607 195.585 94.3799 196.827L83.6553 205.826C82.1745 207.069 79.9669 206.876 78.7244 205.395L74.2249 200.033Z" fill="#F8DD17"/>
<mask id="mask0_906_1248" style="mask-type:alpha" maskUnits="userSpaceOnUse" x="92" y="142" width="262" height="322">
<path d="M134.801 181.343C138.992 158.549 158.862 142 182.037 142H284.508C309.341 142 330.079 160.931 332.337 185.662L352.964 411.605C355.532 439.738 333.384 464 305.135 464H140.492C110.489 464 87.8303 436.796 93.2562 407.286L134.801 181.343Z" fill="#1CB0F6"/>
</mask>
<g mask="url(#mask0_906_1248)">
<path d="M70.8281 292.003L219.871 306.95L369.686 292.003V518.891H70.8281V292.003Z" fill="#4B4B4B"/>
<mask id="mask1_906_1248" style="mask-type:alpha" maskUnits="userSpaceOnUse" x="70" y="292" width="300" height="227">
<path d="M70.8281 292.003L219.871 306.95L369.686 292.003V518.891H70.8281V292.003Z" fill="#4B4B4B"/>
</mask>
<g mask="url(#mask1_906_1248)">
<rect x="142.646" y="292.003" width="155.993" height="256.016" fill="#D9D9D9"/>
</g>
<path d="M224.786 327.039C233.039 321.492 233.039 309.349 224.786 303.801L186.851 278.302C177.551 272.051 165.041 278.715 165.041 289.921V340.919C165.041 352.125 177.551 358.789 186.851 352.538L224.786 327.039Z" fill="#EA2B2B"/>
<path d="M216.305 327.039C208.051 321.492 208.051 309.349 216.305 303.801L254.24 278.302C263.54 272.051 276.05 278.715 276.05 289.921V340.919C276.05 352.125 263.54 358.789 254.24 352.538L216.305 327.039Z" fill="#EA2B2B"/>
<ellipse cx="220.642" cy="387.051" rx="11.5836" ry="11.4977" fill="#4B4B4B"/>
<ellipse cx="220.642" cy="438.407" rx="11.5836" ry="11.4977" fill="#4B4B4B"/>
</g>
<path d="M230.661 250.217C239.696 250.217 246.452 241.855 239.083 236.628C234.002 233.025 227.11 231 219.924 231C212.738 231 205.846 233.025 200.764 236.628C193.395 241.855 200.152 250.217 209.186 250.217H230.661Z" fill="#FFAADE"/>
<path d="M196.772 192.407C215.243 182.129 225.594 181.888 244.065 192.407" stroke="#EA2B2B" stroke-width="13.0055"/>
<circle cx="163.668" cy="195.84" r="47.5884" fill="#F7F7F7" stroke="#EA2B2B" stroke-width="6.50276"/>
<path d="M141.204 188.818C141.204 181.922 146.794 176.332 153.69 176.332H154.805C161.701 176.332 167.291 181.922 167.291 188.818V202.976C167.291 209.872 161.701 215.463 154.805 215.463H153.69C146.794 215.463 141.204 209.872 141.204 202.976V188.818Z" fill="#4B4B4B"/>
<circle cx="275.988" cy="195.84" r="47.5884" fill="#F7F7F7" stroke="#EA2B2B" stroke-width="6.50276"/>
<path d="M249.978 188.818C249.978 181.922 255.568 176.332 262.464 176.332H263.579C270.475 176.332 276.065 181.922 276.065 188.818V202.976C276.065 209.872 270.475 215.463 263.579 215.463H262.464C255.568 215.463 249.978 209.872 249.978 202.976V188.818Z" fill="#4B4B4B"/>
<path d="M233.756 275.648C231.549 273.197 232.802 269.282 235.942 268.271C244.881 265.392 249.551 261.49 252.402 254.403C253.603 251.42 257.58 250.346 259.732 252.736C260.668 253.776 260.989 255.241 260.526 256.561C256.441 268.201 251.11 273.174 238.031 276.907C236.486 277.348 234.831 276.841 233.756 275.648Z" fill="#1453A3"/>
</svg>
