<svg width="600" height="600" viewBox="0 0 600 600" fill="none" xmlns="http://www.w3.org/2000/svg">
<circle cx="397.399" cy="441.399" r="56.3988" fill="#636366"/>
<path d="M507.05 247.836C523.579 247.836 537.472 234.02 531.649 218.55C531.33 217.703 530.997 216.86 530.65 216.022C526.473 205.936 520.349 196.771 512.629 189.052C504.909 181.332 495.745 175.208 485.658 171.03C475.572 166.852 464.762 164.702 453.844 164.702C442.927 164.702 432.117 166.852 422.03 171.03C411.944 175.208 402.779 181.332 395.06 189.052C387.34 196.771 381.216 205.936 377.038 216.022C376.691 216.86 376.358 217.703 376.039 218.55C370.217 234.02 384.109 247.836 400.638 247.836L507.05 247.836Z" fill="#636366"/>
<path d="M470.286 136.326C484.148 127.324 488.275 108.169 474.966 98.3669C474.237 97.8299 473.499 97.3045 472.752 96.7909C463.754 90.6072 453.627 86.2563 442.948 83.9864C432.27 81.7166 421.248 81.5723 410.514 83.5618C399.779 85.5513 389.542 89.6357 380.386 95.5817C371.23 101.528 363.334 109.219 357.151 118.216C350.967 127.214 346.616 137.341 344.346 148.019C342.076 158.698 341.932 169.719 343.922 180.454C344.087 181.346 344.267 182.234 344.461 183.118C348.003 199.263 367.179 203.284 381.042 194.282L470.286 136.326Z" fill="#636366"/>
<path d="M308.493 192C333.441 192 354.284 211 356.587 235.841L377.486 461.24C380.112 489.555 357.829 514 329.393 514H161.314C131.086 514 108.286 486.547 113.835 456.833L124.906 397.548C125.777 392.882 130.495 390.026 135.152 390.943C141.127 392.12 147.307 392.737 153.633 392.737C205.429 392.737 247.418 351.382 247.418 300.368C247.418 258.741 219.46 223.546 181.028 212.003C174.965 210.182 172.413 202.72 177.778 199.358C185.253 194.675 194.064 192 203.407 192H308.493Z" fill="#8E8E93"/>
<path d="M253.488 178.571C232.09 173.664 212.781 163.201 197.69 147.018C182.6 130.836 173.509 110.844 170.107 89.1558L253.488 178.571ZM226.312 121.143C241.402 137.326 250.492 157.318 253.894 179.005L170.514 89.5908C191.912 94.4975 211.221 104.961 226.312 121.143Z" fill="#8E8E93"/>
</svg>
