<svg width="600" height="600" viewBox="0 0 600 600" fill="none" xmlns="http://www.w3.org/2000/svg">
<circle cx="418.399" cy="461.399" r="56.3988" fill="#1453A3"/>
<path d="M528.05 267.836C544.579 267.836 558.472 254.02 552.649 238.55C552.33 237.703 551.997 236.86 551.65 236.022C547.473 225.936 541.349 216.771 533.629 209.052C525.909 201.332 516.745 195.208 506.658 191.03C496.572 186.852 485.762 184.702 474.844 184.702C463.927 184.702 453.117 186.852 443.03 191.03C432.944 195.208 423.779 201.332 416.06 209.052C408.34 216.771 402.216 225.936 398.038 236.022C397.691 236.86 397.358 237.703 397.039 238.55C391.217 254.02 405.109 267.836 421.638 267.836L528.05 267.836Z" fill="#1453A3"/>
<path d="M491.286 156.326C505.148 147.324 509.275 128.169 495.966 118.367C495.237 117.83 494.499 117.304 493.752 116.791C484.754 110.607 474.627 106.256 463.948 103.986C453.27 101.717 442.248 101.572 431.514 103.562C420.779 105.551 410.542 109.636 401.386 115.582C392.23 121.528 384.334 129.219 378.151 138.216C371.967 147.214 367.616 157.341 365.346 168.019C363.076 178.698 362.932 189.719 364.922 200.454C365.087 201.346 365.267 202.234 365.461 203.118C369.003 219.263 388.179 223.284 402.042 214.282L491.286 156.326Z" fill="#1453A3"/>
<path d="M180.973 251.343C185.164 228.549 205.034 212 228.209 212H330.68C355.513 212 376.251 230.931 378.509 255.662L399.136 481.605C401.704 509.738 379.556 534 351.307 534H186.664C156.661 534 134.002 506.795 139.428 477.286L180.973 251.343Z" fill="#1CB0F6"/>
<path d="M185.309 478.898C185.309 438.196 218.304 405.2 259.007 405.2V405.2C299.709 405.2 332.705 438.196 332.705 478.898V500.877C332.705 519.171 317.875 534 299.582 534H218.431C200.138 534 185.309 519.171 185.309 500.877V478.898Z" fill="#F7F7F7" fill-opacity="0.968627"/>
<path d="M276.833 320.217C285.867 320.217 292.624 311.855 285.255 306.628C280.174 303.025 273.282 301 266.096 301C258.909 301 252.018 303.025 246.936 306.628C239.567 311.855 246.324 320.217 255.358 320.217L276.833 320.217Z" fill="#1453A3"/>
<rect x="272" y="240" width="33" height="55" rx="16.5" fill="#F7F7F7"/>
<rect width="6.03711" height="18.5827" rx="3.01856" transform="matrix(0.896153 -0.443744 0.433032 0.901378 282.174 260.691)" fill="#4B4B4B"/>
<rect width="6.03711" height="18.5827" rx="3.01856" transform="matrix(-0.896153 -0.443744 -0.433032 0.901378 295.632 260.691)" fill="#4B4B4B"/>
<rect x="228" y="240" width="33" height="55" rx="16.5" fill="#F7F7F7"/>
<rect width="6.03711" height="18.5827" rx="3.01856" transform="matrix(0.896153 -0.443744 0.433032 0.901378 237.504 260.691)" fill="#4B4B4B"/>
<rect width="6.03711" height="18.5827" rx="3.01856" transform="matrix(-0.896153 -0.443744 -0.433032 0.901378 250.961 260.691)" fill="#4B4B4B"/>
<rect x="107.81" y="259.297" width="180.664" height="14.9887" rx="7.49434" transform="rotate(-40 107.81 259.297)" fill="#4B4B4B"/>
<path d="M99.9488 202.051C90.3539 190.616 91.8454 173.568 103.28 163.974L151.022 123.913C162.457 114.318 179.505 115.81 189.1 127.244L225.931 171.137C228.061 173.676 227.729 177.46 225.191 179.59L144.466 247.326C142.351 249.101 139.197 248.825 137.422 246.71L99.9488 202.051Z" fill="#4B4B4B"/>
<rect x="110.532" y="214.314" width="116.379" height="32.6969" transform="rotate(-40 110.532 214.314)" fill="#F0F5F7"/>
<path d="M276.833 320.217C285.867 320.217 292.624 311.855 285.255 306.628C280.174 303.025 273.282 301 266.096 301C258.909 301 252.018 303.025 246.936 306.628C239.567 311.855 246.324 320.217 255.358 320.217L276.833 320.217Z" fill="#FFAADE"/>
<rect x="228" y="240" width="32.8553" height="55" rx="16.4276" fill="#F7F7F7"/>
<rect x="272.129" y="240" width="32.8709" height="55" rx="16.4354" fill="#F7F7F7"/>
<path d="M237.341 264.154C237.341 260.229 240.523 257.047 244.449 257.047C248.374 257.047 251.556 260.229 251.556 264.154V271.23C251.556 275.155 248.374 278.337 244.449 278.337C240.523 278.337 237.341 275.155 237.341 271.23V264.154Z" fill="#4B4B4B"/>
<path d="M281.471 264.154C281.471 260.229 284.653 257.047 288.578 257.047C292.503 257.047 295.685 260.229 295.685 264.154V271.23C295.685 275.155 292.503 278.337 288.578 278.337C284.653 278.337 281.471 275.155 281.471 271.23V264.154Z" fill="#4B4B4B"/>
<path d="M237.341 264.154C237.341 260.229 240.523 257.047 244.449 257.047C248.374 257.047 251.556 260.229 251.556 264.154V271.23C251.556 275.155 248.374 278.337 244.449 278.337C240.523 278.337 237.341 275.155 237.341 271.23V264.154Z" fill="#4B4B4B"/>
<path d="M281.47 264.154C281.47 260.229 284.652 257.047 288.577 257.047C292.503 257.047 295.685 260.229 295.685 264.154V271.23C295.685 275.155 292.503 278.337 288.577 278.337C284.652 278.337 281.47 275.155 281.47 271.23V264.154Z" fill="#4B4B4B"/>
<mask id="mask0_1060_4682" style="mask-type:alpha" maskUnits="userSpaceOnUse" x="228" y="240" width="33" height="55">
<rect x="228" y="240" width="32.8553" height="55" rx="16.4276" fill="#F7F7F7"/>
</mask>
<g mask="url(#mask0_1060_4682)">
<path d="M219.303 240H269.552V264.586C249.692 259.603 238.694 259.761 219.303 264.586V240Z" fill="#1453A3"/>
<path d="M219.303 240H269.552V264.586C249.692 259.603 238.694 259.761 219.303 264.586V240Z" fill="#1453A3"/>
</g>
<mask id="mask1_1060_4682" style="mask-type:alpha" maskUnits="userSpaceOnUse" x="272" y="240" width="33" height="55">
<rect x="272" y="240" width="33" height="55" rx="16.5" fill="#F7F7F7"/>
</mask>
<g mask="url(#mask1_1060_4682)">
<path d="M269.552 240H319.801V264.586C299.941 259.603 288.943 259.761 269.552 264.586V240Z" fill="#1453A3"/>
<path d="M269.552 240H319.801V264.586C299.941 259.603 288.943 259.761 269.552 264.586V240Z" fill="#1453A3"/>
</g>
<mask id="mask2_1060_4682" style="mask-type:alpha" maskUnits="userSpaceOnUse" x="228" y="240" width="33" height="55">
<rect x="228" y="240" width="33" height="55" rx="16.5" fill="#F7F7F7"/>
</mask>
<g mask="url(#mask2_1060_4682)">
</g>
<rect width="25" height="12.5" rx="6.25" transform="matrix(1 0 0 -1 253 341.5)" fill="#1453A3"/>
<mask id="mask3_1060_4682" style="mask-type:alpha" maskUnits="userSpaceOnUse" x="138" y="212" width="262" height="322">
<path d="M180.973 251.343C185.164 228.549 205.034 212 228.209 212H330.68C355.513 212 376.251 230.931 378.509 255.662L399.136 481.605C401.704 509.738 379.556 534 351.307 534H186.664C156.661 534 134.002 506.796 139.428 477.286L180.973 251.343Z" fill="#1CB0F6"/>
</mask>
<g mask="url(#mask3_1060_4682)">
<path d="M117 362.003L266.043 376.95L415.857 362.003V588.891H117V362.003Z" fill="#4B4B4B"/>
<mask id="mask4_1060_4682" style="mask-type:alpha" maskUnits="userSpaceOnUse" x="117" y="362" width="299" height="227">
<path d="M117 362.003L266.043 376.95L415.857 362.003V588.891H117V362.003Z" fill="#4B4B4B"/>
</mask>
<g mask="url(#mask4_1060_4682)">
<rect x="188.818" y="362.003" width="155.993" height="256.016" fill="#D9D9D9"/>
</g>
<path d="M270.958 397.039C279.211 391.492 279.211 379.349 270.958 373.801L233.023 348.302C223.723 342.051 211.213 348.715 211.213 359.921V410.919C211.213 422.125 223.723 428.789 233.023 422.538L270.958 397.039Z" fill="#EA2B2B"/>
<path d="M262.477 397.039C254.224 391.492 254.224 379.349 262.477 373.801L300.412 348.302C309.712 342.051 322.222 348.715 322.222 359.921V410.919C322.222 422.125 309.712 428.789 300.412 422.538L262.477 397.039Z" fill="#EA2B2B"/>
<ellipse cx="266.815" cy="457.051" rx="11.5836" ry="11.4977" fill="#4B4B4B"/>
<ellipse cx="266.815" cy="508.407" rx="11.5836" ry="11.4977" fill="#4B4B4B"/>
</g>
<rect x="94.3071" y="386.264" width="7.17075" height="65.0679" rx="3.58538" transform="rotate(-30 94.3071 386.264)" fill="#58A700"/>
<path d="M59.5854 378.71C57.6052 375.28 58.7803 370.895 62.2101 368.915L101.77 346.074C105.2 344.094 109.586 345.269 111.566 348.699L120.33 363.879C127.664 376.582 123.312 392.825 110.609 400.159L104.629 403.611C91.9263 410.945 75.6835 406.593 68.3496 393.89L59.5854 378.71Z" fill="#FF7878"/>
<mask id="mask5_1060_4682" style="mask-type:alpha" maskUnits="userSpaceOnUse" x="58" y="345" width="66" height="63">
<path d="M59.5854 378.71C57.6052 375.28 58.7803 370.895 62.2101 368.915L101.77 346.074C105.2 344.094 109.586 345.269 111.566 348.699L120.33 363.879C127.664 376.582 123.312 392.825 110.609 400.159L104.629 403.611C91.9263 410.945 75.6835 406.593 68.3496 393.89L59.5854 378.71Z" fill="#D9D9D9"/>
</mask>
<g mask="url(#mask5_1060_4682)">
<rect x="18.811" y="401.406" width="90.5322" height="62.9433" rx="25.2304" transform="rotate(-18 18.811 401.406)" fill="#EA2B2B"/>
<rect x="82.9199" y="385.132" width="90.5322" height="62.9433" rx="25.2304" transform="rotate(-42 82.9199 385.132)" fill="#FF4B4B"/>
</g>
<path d="M132.505 415.215C132.401 415.803 132.245 416.39 132.034 416.97C130.072 422.359 124.114 425.137 118.725 423.176C113.336 421.215 110.558 415.256 112.519 409.867C113.011 408.515 113.755 407.328 114.678 406.338L127.143 392C130.875 387.707 137.868 391.241 136.626 396.792L132.505 415.215Z" fill="#58A700"/>
</svg>
