<svg width="508" height="458" viewBox="0 0 508 458" fill="none" xmlns="http://www.w3.org/2000/svg">
<circle cx="371.641" cy="385.399" r="56.3988" fill="#1453A3"/>
<path d="M481.292 191.836C497.821 191.836 511.714 178.02 505.892 162.55C505.573 161.703 505.24 160.86 504.893 160.022C500.715 149.936 494.591 140.771 486.871 133.052C479.152 125.332 469.987 119.208 459.901 115.03C449.814 110.852 439.004 108.702 428.087 108.702C417.169 108.702 406.359 110.852 396.272 115.03C386.186 119.208 377.021 125.332 369.302 133.052C361.582 140.771 355.458 149.936 351.28 160.022C350.933 160.86 350.6 161.703 350.281 162.55C344.459 178.02 358.352 191.836 374.881 191.836L481.292 191.836Z" fill="#1453A3"/>
<path d="M444.528 80.326C458.391 71.3236 462.517 52.1693 449.208 42.3669C448.479 41.8299 447.741 41.3045 446.994 40.7909C437.997 34.6072 427.869 30.2563 417.191 27.9864C406.512 25.7166 395.491 25.5723 384.756 27.5618C374.022 29.5513 363.784 33.6357 354.628 39.5817C345.472 45.5277 337.577 53.219 331.393 62.2162C325.209 71.2135 320.858 81.3406 318.588 92.0194C316.319 102.698 316.174 113.719 318.164 124.454C318.329 125.346 318.509 126.234 318.703 127.118C322.245 143.263 341.421 147.284 355.284 138.282L444.528 80.326Z" fill="#1453A3"/>
<path d="M134.215 175.343C138.406 152.549 158.276 136 181.451 136H283.922C308.755 136 329.493 154.931 331.751 179.662L352.378 405.605C354.947 433.738 332.798 458 304.549 458H139.906C109.903 458 87.2444 430.796 92.6703 401.286L134.215 175.343Z" fill="#1CB0F6"/>
<path d="M138.551 402.898C138.551 362.196 171.547 329.2 212.249 329.2C252.951 329.2 285.947 362.196 285.947 402.898V424.877C285.947 443.171 271.118 458 252.824 458H171.674C153.38 458 138.551 443.171 138.551 424.877V402.898Z" fill="#F7F7F7" fill-opacity="0.968627"/>
<path d="M230.075 244.217C239.11 244.217 245.866 235.855 238.497 230.628C233.416 227.025 226.524 225 219.338 225C212.152 225 205.26 227.025 200.178 230.628C192.809 235.855 199.566 244.217 208.6 244.217H230.075Z" fill="#1453A3"/>
<rect x="225.242" y="164" width="33" height="55" rx="16.5" fill="#F7F7F7"/>
<rect width="6.03711" height="18.5827" rx="3.01856" transform="matrix(0.896153 -0.443744 0.433032 0.901378 235.416 184.691)" fill="#4B4B4B"/>
<rect width="6.03711" height="18.5827" rx="3.01856" transform="matrix(-0.896153 -0.443744 -0.433032 0.901378 248.874 184.691)" fill="#4B4B4B"/>
<rect x="181.242" y="164" width="33" height="55" rx="16.5" fill="#F7F7F7"/>
<rect width="6.03711" height="18.5827" rx="3.01856" transform="matrix(0.896153 -0.443744 0.433032 0.901378 190.746 184.691)" fill="#4B4B4B"/>
<rect width="6.03711" height="18.5827" rx="3.01856" transform="matrix(-0.896153 -0.443744 -0.433032 0.901378 204.203 184.691)" fill="#4B4B4B"/>
<rect x="33.7041" y="193.719" width="230" height="24.6091" rx="12.3045" transform="rotate(-40 33.7041 193.719)" fill="#4B4B4B"/>
<path d="M150.768 103.522C140.845 91.6958 128.673 82.5813 116.931 78.1836C105.189 73.786 94.8383 74.4655 88.1559 80.0727C81.4735 85.6799 79.0069 95.7554 81.2987 108.083C83.5906 120.41 90.4531 133.98 100.377 145.806L150.768 103.522Z" fill="#4B4B4B"/>
<mask id="mask0_906_1338" style="mask-type:alpha" maskUnits="userSpaceOnUse" x="38" y="50" width="183" height="158">
<rect x="33.7041" y="193.72" width="230" height="24.6091" rx="12.3045" transform="rotate(-40 33.7041 193.72)" fill="#D9D9D9"/>
</mask>
<g mask="url(#mask0_906_1338)">
<rect x="30.958" y="205.908" width="247.037" height="9.46502" transform="rotate(-40 30.958 205.908)" fill="#FF4B4B"/>
</g>
<mask id="mask1_906_1338" style="mask-type:alpha" maskUnits="userSpaceOnUse" x="91" y="136" width="262" height="322">
<path d="M134.231 175.34C138.423 152.548 158.292 136 181.467 136H283.995C308.828 136 329.566 154.93 331.824 179.66L352.457 405.604C355.026 433.737 332.878 458 304.628 458H139.91C109.905 458 87.2461 430.794 92.6738 401.284L134.231 175.34Z" fill="#1CB0F6"/>
</mask>
<g mask="url(#mask1_906_1338)">
<path d="M70.2383 286.003L219.325 300.95L369.183 286.003V512.891H70.2383V286.003Z" fill="#4B4B4B"/>
<mask id="mask2_906_1338" style="mask-type:alpha" maskUnits="userSpaceOnUse" x="70" y="286" width="300" height="227">
<path d="M70.2383 286.003L219.325 300.95L369.183 286.003V512.891H70.2383V286.003Z" fill="#4B4B4B"/>
</mask>
<g mask="url(#mask2_906_1338)">
<rect x="185.271" y="281.572" width="67.0197" height="256.246" fill="#D9D9D9"/>
<rect x="185.271" y="397.231" width="67.0197" height="66.8035" fill="#EA2B2B"/>
<ellipse cx="218.781" cy="321.953" rx="7.5022" ry="7.478" fill="#4B4B4B"/>
</g>
</g>
<path d="M232.397 313.589C235.361 301.887 223.063 292.201 212.328 297.783L168.505 320.57C159.363 325.323 158.309 337.951 166.537 344.131L198.506 368.144C206.513 374.158 218.086 370.085 220.542 360.388L232.397 313.589Z" fill="#ED4545"/>
<path d="M233.326 297.25C223.428 290.299 209.957 298.267 211.338 310.257L216.976 359.206C218.152 369.419 229.602 374.931 238.338 369.489L272.287 348.345C280.788 343.05 281.116 330.817 272.912 325.054L233.326 297.25Z" fill="#EA2B2B"/>
<rect x="181.242" y="164" width="32.8553" height="55" rx="16.4276" fill="#F7F7F7"/>
<rect x="225.371" y="164" width="32.8709" height="55" rx="16.4354" fill="#F7F7F7"/>
<path d="M190.584 188.154C190.584 184.229 193.766 181.047 197.691 181.047C201.616 181.047 204.798 184.229 204.798 188.154V195.23C204.798 199.155 201.616 202.337 197.691 202.337C193.766 202.337 190.584 199.155 190.584 195.23V188.154Z" fill="#4B4B4B"/>
<path d="M234.713 188.154C234.713 184.229 237.895 181.047 241.82 181.047C245.745 181.047 248.927 184.229 248.927 188.154V195.23C248.927 199.155 245.745 202.337 241.82 202.337C237.895 202.337 234.713 199.155 234.713 195.23V188.154Z" fill="#4B4B4B"/>
<mask id="mask3_906_1338" style="mask-type:alpha" maskUnits="userSpaceOnUse" x="225" y="164" width="34" height="55">
<rect x="225.242" y="164" width="33" height="55" rx="16.5" fill="#F7F7F7"/>
</mask>
<g mask="url(#mask3_906_1338)">
<rect width="57.6574" height="47.281" rx="23.6405" transform="matrix(0.997571 0.0696545 -0.0698586 0.997557 227.843 133.746)" fill="#1453A3"/>
</g>
<mask id="mask4_906_1338" style="mask-type:alpha" maskUnits="userSpaceOnUse" x="181" y="164" width="34" height="55">
<rect x="181.242" y="164" width="33" height="55" rx="16.5" fill="#F7F7F7"/>
</mask>
<g mask="url(#mask4_906_1338)">
<rect width="57.6497" height="47.2873" rx="23.6437" transform="matrix(0.95119 0.308606 -0.309428 0.950923 179.769 130.228)" fill="#1453A3"/>
</g>
<path d="M230.075 244.217C239.11 244.217 245.866 235.855 238.497 230.628C233.416 227.025 226.524 225 219.338 225C212.152 225 205.26 227.025 200.178 230.628C192.809 235.855 199.566 244.217 208.6 244.217H230.075Z" fill="#FFAADE"/>
<rect width="25" height="12.5" rx="6.25" transform="matrix(1 0 0 -1 207.242 263.5)" fill="#1453A3"/>
</svg>
