<svg width="700" height="700" viewBox="0 0 700 700" fill="none" xmlns="http://www.w3.org/2000/svg">
<rect width="700" height="700" fill="url(#paint0_radial_82_164)"/>
<rect x="49.7212" y="152.721" width="473.297" height="315.531" rx="37" fill="#333333"/>
<path d="M50 190C50 169.565 66.5655 153 87 153H486C506.435 153 523 169.565 523 190V198H50V190Z" fill="#4D4D4D"/>
<circle cx="588.815" cy="521.722" r="32.6663" fill="#1453A3"/>
<path d="M451.363 391.283C453.94 377.228 466.19 367.02 480.48 367.02H543.617C558.926 367.02 571.709 378.692 573.097 393.938L585.826 533.781C587.404 551.118 573.754 566.066 556.346 566.066H454.842C436.356 566.066 422.392 549.31 425.725 531.127L451.363 391.283Z" fill="#1CB0F6"/>
<mask id="mask0_82_164" style="mask-type:alpha" maskUnits="userSpaceOnUse" x="425" y="367" width="161" height="200">
<path d="M451.364 391.283C453.941 377.228 466.191 367.02 480.48 367.02H543.617C558.926 367.02 571.71 378.692 573.097 393.938L585.827 533.781C587.405 551.118 573.755 566.066 556.347 566.066H454.843C436.356 566.066 422.392 549.31 425.726 531.127L451.364 391.283Z" fill="#1CB0F6"/>
</mask>
<g mask="url(#mask0_82_164)">
<path d="M411.924 459.746L503.786 468.985L596.124 459.746V599.998H411.924V459.746Z" fill="#B0691C"/>
<mask id="mask1_82_164" style="mask-type:alpha" maskUnits="userSpaceOnUse" x="411" y="459" width="186" height="141">
<path d="M411.925 459.745L503.786 468.985L596.124 459.745V599.998H411.925V459.745Z" fill="#E5A259"/>
</mask>
<g mask="url(#mask1_82_164)">
</g>
<mask id="mask2_82_164" style="mask-type:alpha" maskUnits="userSpaceOnUse" x="411" y="459" width="186" height="141">
<path d="M411.925 459.745L503.786 468.985L596.124 459.745V599.998H411.925V459.745Z" fill="#E5A259"/>
</mask>
<g mask="url(#mask2_82_164)">
<path d="M500.787 553.408C501.608 556.444 505.915 556.444 506.737 553.408L528.598 472.603C529.128 470.644 527.653 468.716 525.623 468.716H481.9C479.871 468.716 478.396 470.644 478.926 472.603L500.787 553.408Z" fill="#D9D9D9"/>
<path d="M508.074 491.83C508.074 494.383 506.005 496.452 503.452 496.452C500.899 496.452 498.829 494.383 498.829 491.83C498.829 489.277 500.899 487.207 503.452 487.207C506.005 487.207 508.074 489.277 508.074 491.83Z" fill="#E5A259"/>
<circle cx="503.452" cy="512.169" r="4.62259" fill="#E5A259"/>
<path d="M445.735 480.843C441.359 475.628 442.039 467.853 447.254 463.477L477.737 437.899L503.884 469.061L473.402 494.639C468.187 499.015 460.412 498.334 456.036 493.119L445.735 480.843Z" fill="#E5A259"/>
<path d="M561.909 480.843C566.285 475.628 565.605 467.853 560.39 463.477L529.907 437.899L503.76 469.061L534.242 494.639C539.457 499.015 547.232 498.334 551.608 493.119L561.909 480.843Z" fill="#E5A259"/>
</g>
</g>
<path d="M478.745 447.276C477.923 444.888 479.192 442.285 481.58 441.463L521.614 427.678C524.002 426.856 526.605 428.125 527.427 430.514C532.056 443.957 524.911 458.607 511.467 463.236L-nan -nanL511.467 463.236C498.024 467.865 483.374 460.719 478.745 447.276Z" fill="#4B4B4B"/>
<path fill-rule="evenodd" clip-rule="evenodd" d="M491.63 437.956L495.818 462.822C496.242 465.338 498.42 467.181 500.972 467.181H516.572C519.134 467.181 521.318 465.324 521.73 462.795L526.506 433.523C526.989 430.564 524.898 427.859 522.01 427.496L491.63 437.956Z" fill="#F0F0F0"/>
<path d="M656.626 392.906C665.334 392.906 672.654 385.626 669.586 377.476C669.418 377.03 669.242 376.586 669.06 376.144C666.858 370.83 663.632 366.002 659.565 361.935C655.498 357.867 650.669 354.641 645.355 352.44C640.041 350.239 634.346 349.106 628.594 349.106C622.842 349.106 617.146 350.239 611.832 352.44C606.518 354.641 601.69 357.867 597.623 361.935C593.556 366.002 590.329 370.83 588.128 376.144C587.945 376.586 587.77 377.03 587.602 377.476C584.534 385.626 591.854 392.906 600.562 392.906L656.626 392.906Z" fill="#1453A3"/>
<path d="M637.256 334.156C644.56 329.413 646.734 319.322 639.722 314.157C639.338 313.874 638.949 313.597 638.555 313.327C633.815 310.069 628.479 307.777 622.853 306.581C617.227 305.385 611.42 305.309 605.765 306.357C600.109 307.405 594.716 309.557 589.892 312.69C585.068 315.823 580.908 319.875 577.65 324.615C574.392 329.355 572.1 334.691 570.904 340.317C569.708 345.943 569.632 351.75 570.68 357.405C570.768 357.875 570.862 358.343 570.964 358.809C572.83 367.315 582.934 369.434 590.237 364.691L637.256 334.156Z" fill="#1453A3"/>
<path d="M510.093 427.221C515.521 427.221 519.56 422.201 515.117 419.083C512.041 416.924 507.869 415.711 503.519 415.711C499.169 415.711 494.997 416.924 491.921 419.083C487.478 422.201 491.517 427.221 496.945 427.221L510.093 427.221Z" fill="#FFAADE"/>
<path d="M478.954 418.223C479.228 421.748 485.395 421.977 491.885 421.222C499.642 420.319 507.093 425.925 507.093 433.735C507.093 439.513 502.92 444.448 497.222 445.407L491.887 446.306C476.395 448.915 464.447 431.382 475.084 419.821C477.317 417.395 478.819 416.487 478.954 418.223Z" fill="#666666"/>
<path d="M528.197 419.122C527.923 422.647 521.756 422.877 515.265 422.121C507.508 421.218 500.058 426.825 500.058 434.634C500.058 440.413 504.231 445.347 509.929 446.307L515.264 447.205C530.756 449.814 542.704 432.282 532.067 420.721C529.834 418.294 528.332 417.386 528.197 419.122Z" fill="#666666"/>
<rect x="479.721" y="376.265" width="19.9872" height="33.5079" rx="9.99359" fill="#F7F7F7"/>
<rect x="506.566" y="376.265" width="19.9967" height="33.5079" rx="9.99833" fill="#F7F7F7"/>
<path d="M481.342 388.51C481.342 386.225 483.195 384.372 485.481 384.372H485.851C488.136 384.372 489.989 386.225 489.989 388.51V393.204C489.989 395.489 488.136 397.342 485.851 397.342H485.481C483.195 397.342 481.342 395.489 481.342 393.204V388.51Z" fill="#4B4B4B"/>
<path d="M508.187 388.51C508.187 386.225 510.04 384.372 512.326 384.372H512.695C514.981 384.372 516.834 386.225 516.834 388.51V393.204C516.834 395.489 514.981 397.342 512.695 397.342H512.326C510.04 397.342 508.187 395.489 508.187 393.204V388.51Z" fill="#4B4B4B"/>
<rect x="354.603" y="400.478" width="14.2877" height="105.395" rx="6.86552" transform="rotate(-32 354.603 400.478)" fill="#6C432D"/>
<circle cx="115" cy="176" r="10" fill="#FF4B4B"/>
<path d="M155 176C155 181.523 150.523 186 145 186C139.477 186 135 181.523 135 176C135 170.477 139.477 166 145 166C150.523 166 155 170.477 155 176Z" fill="#FFB100"/>
<path d="M185.5 176C185.5 181.523 181.023 186 175.5 186C169.977 186 165.5 181.523 165.5 176C165.5 170.477 169.977 166 175.5 166C181.023 166 185.5 170.477 185.5 176Z" fill="#58CC02"/>
<path d="M82.0063 336.882V313.028H84.9472V316.459H85.5354L84.9472 317.145C84.9472 315.772 85.3938 314.694 86.287 313.91C87.202 313.104 88.4001 312.701 89.8815 312.701C91.6896 312.701 93.1274 313.3 94.1949 314.498C95.2841 315.674 95.8287 317.297 95.8287 319.367V324.628C95.8287 326 95.5782 327.188 95.0772 328.19C94.5979 329.192 93.9117 329.965 93.0185 330.51C92.1471 331.054 91.1014 331.327 89.8815 331.327C88.4219 331.327 87.2346 330.924 86.3197 330.118C85.4047 329.312 84.9472 328.233 84.9472 326.883L85.5354 327.569H84.8819L84.9472 331.654V336.882H82.0063ZM88.9012 328.778C90.1429 328.778 91.1123 328.408 91.8094 327.667C92.5283 326.926 92.8878 325.859 92.8878 324.465V319.563C92.8878 318.169 92.5283 317.101 91.8094 316.361C91.1123 315.62 90.1429 315.25 88.9012 315.25C87.703 315.25 86.7445 315.631 86.0256 316.393C85.3067 317.156 84.9472 318.212 84.9472 319.563V324.465C84.9472 325.815 85.3067 326.872 86.0256 327.634C86.7445 328.397 87.703 328.778 88.9012 328.778ZM102.221 331V313.028H105.096V316.459H105.783L104.835 318.583C104.835 316.644 105.249 315.184 106.077 314.204C106.926 313.202 108.179 312.701 109.834 312.701C111.73 312.701 113.233 313.3 114.344 314.498C115.477 315.674 116.043 317.276 116.043 319.302V320.38H113.102V319.563C113.102 318.147 112.754 317.069 112.057 316.328C111.381 315.565 110.412 315.184 109.148 315.184C107.907 315.184 106.926 315.565 106.207 316.328C105.51 317.09 105.162 318.169 105.162 319.563V331H102.221ZM120.965 331V328.32H127.337V315.707H121.782V313.028H130.278V328.32H136.323V331H120.965ZM128.48 309.793C127.761 309.793 127.195 309.607 126.781 309.237C126.367 308.867 126.16 308.366 126.16 307.734C126.16 307.08 126.367 306.568 126.781 306.198C127.195 305.806 127.761 305.61 128.48 305.61C129.199 305.61 129.766 305.806 130.18 306.198C130.593 306.568 130.8 307.08 130.8 307.734C130.8 308.366 130.593 308.867 130.18 309.237C129.766 309.607 129.199 309.793 128.48 309.793ZM140.787 331V313.028H143.728V316.459H144.349L143.728 317.145C143.728 315.729 144.153 314.64 145.002 313.877C145.852 313.093 147.028 312.701 148.531 312.701C150.34 312.701 151.777 313.256 152.845 314.367C153.912 315.478 154.446 316.992 154.446 318.909V331H151.505V319.236C151.505 317.951 151.156 316.971 150.459 316.295C149.784 315.598 148.858 315.25 147.682 315.25C146.462 315.25 145.492 315.62 144.774 316.361C144.076 317.101 143.728 318.169 143.728 319.563V331H140.787ZM169.138 331C167.591 331 166.382 330.586 165.511 329.758C164.661 328.93 164.236 327.765 164.236 326.262V315.707H159.171V313.028H164.236V307.963H167.177V313.028H174.366V315.707H167.177V326.262C167.177 327.634 167.831 328.32 169.138 328.32H174.039V331H169.138ZM192.816 334.921C189.723 334.159 187.315 332.656 185.594 330.412C183.873 328.168 183.013 325.423 183.013 322.177V316.295C183.013 314.16 183.405 312.232 184.189 310.511C184.995 308.769 186.128 307.298 187.588 306.1C189.069 304.902 190.812 304.052 192.816 303.551V306.329C191.422 306.656 190.213 307.287 189.189 308.224C188.165 309.139 187.37 310.283 186.804 311.655C186.237 313.028 185.954 314.574 185.954 316.295V322.177C185.954 323.855 186.226 325.38 186.771 326.752C187.337 328.124 188.132 329.268 189.156 330.183C190.202 331.076 191.422 331.686 192.816 332.013V334.921ZM206.528 315.805L210.776 305.643H213.39L210.776 315.805H206.528ZM199.012 315.805L203.26 305.643H205.874L203.26 315.805H199.012ZM219.194 331V307.146H222.135V317.341H229.781V307.146H232.722V331H229.781V320.02H222.135V331H219.194ZM245.551 331.327C244.135 331.327 242.894 331.044 241.826 330.477C240.781 329.911 239.964 329.116 239.375 328.092C238.809 327.046 238.526 325.837 238.526 324.465V319.563C238.526 318.169 238.809 316.96 239.375 315.936C239.964 314.912 240.781 314.117 241.826 313.55C242.894 312.984 244.135 312.701 245.551 312.701C246.967 312.701 248.198 312.984 249.244 313.55C250.311 314.117 251.128 314.912 251.695 315.936C252.283 316.96 252.577 318.169 252.577 319.563V322.733H241.401V324.465C241.401 325.881 241.761 326.97 242.48 327.732C243.199 328.473 244.223 328.843 245.551 328.843C246.684 328.843 247.599 328.647 248.296 328.255C248.993 327.841 249.418 327.231 249.571 326.425H252.512C252.316 327.928 251.575 329.127 250.29 330.02C249.026 330.891 247.447 331.327 245.551 331.327ZM249.701 320.772V319.563C249.701 318.147 249.342 317.058 248.623 316.295C247.926 315.533 246.902 315.152 245.551 315.152C244.223 315.152 243.199 315.533 242.48 316.295C241.761 317.058 241.401 318.147 241.401 319.563V320.511H249.93L249.701 320.772ZM267.596 331C266.55 331 265.635 330.793 264.851 330.379C264.067 329.965 263.457 329.377 263.021 328.615C262.585 327.852 262.367 326.959 262.367 325.935V309.825H256.322V307.146H265.308V325.935C265.308 326.676 265.515 327.264 265.929 327.7C266.343 328.114 266.899 328.32 267.596 328.32H273.314V331H267.596ZM287.189 331C286.144 331 285.229 330.793 284.444 330.379C283.66 329.965 283.05 329.377 282.614 328.615C282.179 327.852 281.961 326.959 281.961 325.935V309.825H275.916V307.146H284.902V325.935C284.902 326.676 285.109 327.264 285.523 327.7C285.937 328.114 286.492 328.32 287.189 328.32H292.908V331H287.189ZM304.332 331.261C302.894 331.261 301.653 330.989 300.607 330.444C299.561 329.9 298.744 329.116 298.156 328.092C297.59 327.046 297.306 325.815 297.306 324.399V319.628C297.306 318.191 297.59 316.96 298.156 315.936C298.744 314.912 299.561 314.128 300.607 313.583C301.653 313.038 302.894 312.766 304.332 312.766C305.77 312.766 307.012 313.038 308.057 313.583C309.103 314.128 309.909 314.912 310.475 315.936C311.064 316.96 311.358 318.18 311.358 319.596V324.399C311.358 325.815 311.064 327.046 310.475 328.092C309.909 329.116 309.103 329.9 308.057 330.444C307.012 330.989 305.77 331.261 304.332 331.261ZM304.332 328.647C305.617 328.647 306.619 328.288 307.338 327.569C308.057 326.85 308.417 325.793 308.417 324.399V319.628C308.417 318.234 308.057 317.178 307.338 316.459C306.619 315.74 305.617 315.38 304.332 315.38C303.069 315.38 302.066 315.74 301.326 316.459C300.607 317.178 300.247 318.234 300.247 319.628V324.399C300.247 325.793 300.607 326.85 301.326 327.569C302.066 328.288 303.069 328.647 304.332 328.647ZM319.514 336.228L322.128 326.066H326.376L322.128 336.228H319.514ZM356.871 331L354.126 307.146H356.937L358.734 324.791C358.777 325.271 358.821 325.772 358.865 326.294C358.908 326.796 358.941 327.275 358.963 327.732C359.006 328.19 359.028 328.571 359.028 328.876C359.072 328.571 359.104 328.19 359.126 327.732C359.17 327.275 359.213 326.796 359.257 326.294C359.322 325.772 359.387 325.271 359.453 324.791L361.675 307.146H364.714L366.74 324.791C366.805 325.271 366.86 325.772 366.903 326.294C366.969 326.796 367.023 327.275 367.067 327.732C367.132 328.19 367.175 328.571 367.197 328.876C367.219 328.571 367.241 328.19 367.263 327.732C367.306 327.275 367.35 326.796 367.393 326.294C367.459 325.772 367.513 325.271 367.557 324.791L369.419 307.146H372.099L369.289 331H365.596L363.57 313.028C363.527 312.527 363.472 312.036 363.407 311.557C363.363 311.078 363.32 310.631 363.276 310.217C363.232 309.803 363.2 309.466 363.178 309.204C363.156 309.466 363.113 309.803 363.047 310.217C363.004 310.631 362.96 311.078 362.917 311.557C362.873 312.036 362.819 312.527 362.753 313.028L360.564 331H356.871ZM382.706 331.261C381.268 331.261 380.027 330.989 378.981 330.444C377.935 329.9 377.118 329.116 376.53 328.092C375.964 327.046 375.681 325.815 375.681 324.399V319.628C375.681 318.191 375.964 316.96 376.53 315.936C377.118 314.912 377.935 314.128 378.981 313.583C380.027 313.038 381.268 312.766 382.706 312.766C384.144 312.766 385.386 313.038 386.431 313.583C387.477 314.128 388.283 314.912 388.849 315.936C389.438 316.96 389.732 318.18 389.732 319.596V324.399C389.732 325.815 389.438 327.046 388.849 328.092C388.283 329.116 387.477 329.9 386.431 330.444C385.386 330.989 384.144 331.261 382.706 331.261ZM382.706 328.647C383.991 328.647 384.994 328.288 385.712 327.569C386.431 326.85 386.791 325.793 386.791 324.399V319.628C386.791 318.234 386.431 317.178 385.712 316.459C384.994 315.74 383.991 315.38 382.706 315.38C381.443 315.38 380.441 315.74 379.7 316.459C378.981 317.178 378.622 318.234 378.622 319.628V324.399C378.622 325.793 378.981 326.85 379.7 327.569C380.441 328.288 381.443 328.647 382.706 328.647ZM396.124 331V313.028H398.999V316.459H399.686L398.738 318.583C398.738 316.644 399.152 315.184 399.98 314.204C400.829 313.202 402.082 312.701 403.737 312.701C405.633 312.701 407.136 313.3 408.247 314.498C409.38 315.674 409.946 317.276 409.946 319.302V320.38H407.005V319.563C407.005 318.147 406.657 317.069 405.96 316.328C405.284 315.565 404.315 315.184 403.051 315.184C401.81 315.184 400.829 315.565 400.11 316.328C399.413 317.09 399.065 318.169 399.065 319.563V331H396.124ZM424.344 331C423.298 331 422.383 330.793 421.599 330.379C420.815 329.965 420.205 329.377 419.769 328.615C419.334 327.852 419.116 326.959 419.116 325.935V309.825H413.07V307.146H422.057V325.935C422.057 326.676 422.264 327.264 422.677 327.7C423.091 328.114 423.647 328.32 424.344 328.32H430.063V331H424.344ZM440.441 331.327C438.655 331.327 437.206 330.728 436.095 329.53C435.006 328.331 434.461 326.708 434.461 324.661V319.4C434.461 317.33 435.006 315.696 436.095 314.498C437.184 313.3 438.633 312.701 440.441 312.701C441.922 312.701 443.11 313.104 444.003 313.91C444.896 314.716 445.343 315.794 445.343 317.145L444.754 316.459H445.408L445.343 312.374V307.146H448.284V331H445.343V327.569H444.754L445.343 326.883C445.343 328.255 444.896 329.344 444.003 330.15C443.11 330.935 441.922 331.327 440.441 331.327ZM441.421 328.778C442.641 328.778 443.6 328.397 444.297 327.634C444.994 326.872 445.343 325.815 445.343 324.465V319.563C445.343 318.212 444.994 317.156 444.297 316.393C443.6 315.631 442.641 315.25 441.421 315.25C440.18 315.25 439.199 315.62 438.48 316.361C437.762 317.101 437.402 318.169 437.402 319.563V324.465C437.402 325.859 437.762 326.926 438.48 327.667C439.199 328.408 440.18 328.778 441.421 328.778ZM461.57 315.805L464.185 305.643H468.433L464.185 315.805H461.57ZM454.055 315.805L456.669 305.643H460.917L456.669 315.805H454.055ZM474.629 334.921V332.013C476.045 331.686 477.265 331.076 478.288 330.183C479.312 329.268 480.097 328.124 480.641 326.752C481.208 325.38 481.491 323.855 481.491 322.177V316.295C481.491 314.574 481.208 313.028 480.641 311.655C480.075 310.283 479.28 309.139 478.256 308.224C477.232 307.287 476.023 306.656 474.629 306.329V303.551C476.655 304.052 478.397 304.902 479.857 306.1C481.316 307.298 482.438 308.769 483.223 310.511C484.029 312.232 484.432 314.16 484.432 316.295V322.177C484.432 325.423 483.571 328.168 481.85 330.412C480.129 332.656 477.722 334.159 474.629 334.921Z" fill="white"/>
<defs>
<radialGradient id="paint0_radial_82_164" cx="0" cy="0" r="1" gradientUnits="userSpaceOnUse" gradientTransform="translate(350 350) rotate(90) scale(350)">
<stop stop-color="#272E40"/>
<stop offset="1" stop-color="#0D141F"/>
</radialGradient>
</defs>
</svg>
