<svg width="700" height="700" viewBox="0 0 700 700" fill="none" xmlns="http://www.w3.org/2000/svg">
<rect width="700" height="700" fill="url(#paint0_radial_128_704)"/>
<rect x="419.279" y="298.653" width="24.5587" height="24.5587" rx="6.95829" transform="rotate(-67 419.279 298.653)" fill="#FFF4CC"/>
<rect x="455.838" y="202.832" width="17.8033" height="17.8033" rx="5.04426" transform="rotate(-67 455.838 202.832)" fill="#FFF4CC"/>
<rect x="228.875" y="362.095" width="38.0857" height="38.0857" rx="10.7909" transform="rotate(-67 228.875 362.095)" fill="#FFF4CC"/>
<circle cx="391.012" cy="293.428" r="21.359" transform="rotate(-22 391.012 293.428)" fill="#FFB100"/>
<path d="M266.61 247.532C264.604 237.769 269.859 227.966 279.1 224.233L319.931 207.736C329.831 203.736 341.148 207.945 346.029 217.442L390.8 304.552C396.35 315.352 391.429 328.586 380.171 333.134L314.528 359.655C302.573 364.486 289.164 357.298 286.569 344.668L266.61 247.532Z" fill="#FFC800"/>
<path d="M402.412 195.528C408.974 192.877 412.274 185.163 407.481 179.955C407.218 179.67 406.951 179.389 406.678 179.112C403.402 175.777 399.5 173.121 395.197 171.294C390.894 169.468 386.273 168.507 381.599 168.466C376.924 168.425 372.287 169.305 367.953 171.057C363.618 172.808 359.671 175.396 356.337 178.672C353.002 181.949 350.346 185.85 348.519 190.154C346.693 194.457 345.732 199.078 345.691 203.752C345.688 204.14 345.691 204.529 345.7 204.916C345.869 211.992 353.602 215.249 360.164 212.598L402.412 195.528Z" fill="#FFB100"/>
<path d="M369.929 157.154C373.988 151.356 372.554 143.089 365.698 141.332C365.322 141.236 364.945 141.146 364.566 141.062C360.002 140.05 355.283 139.947 350.679 140.759C346.076 141.571 341.677 143.281 337.734 145.793C333.791 148.305 330.382 151.569 327.7 155.398C325.019 159.228 323.118 163.548 322.106 168.112C321.095 172.676 320.992 177.394 321.803 181.998C322.615 186.602 324.326 191.001 326.838 194.943C327.046 195.271 327.26 195.595 327.479 195.915C331.475 201.757 339.734 200.277 343.793 194.479L369.929 157.154Z" fill="#FFB100"/>
<path fill-rule="evenodd" clip-rule="evenodd" d="M306.528 255.556C302.721 257.095 300.842 261.329 302.332 265.015L304.198 269.636L316.129 264.816L316.647 266.099L299.415 273.062C295.608 274.6 293.729 278.835 295.218 282.521L299.263 292.532C300.752 296.218 305.046 297.959 308.853 296.421L312.829 294.814L310.548 289.167C309.058 285.481 310.937 281.246 314.744 279.708L327.469 274.567C330.691 273.265 332.28 269.682 331.02 266.563L326.457 255.268C324.968 251.582 320.674 249.841 316.867 251.379L306.528 255.556ZM308.256 264.413C309.574 263.881 310.224 262.415 309.709 261.139C309.193 259.863 307.707 259.26 306.389 259.793C305.072 260.325 304.421 261.791 304.937 263.067C305.452 264.343 306.938 264.946 308.256 264.413Z" fill="#FF9600"/>
<path fill-rule="evenodd" clip-rule="evenodd" d="M336.469 299.895C340.276 298.357 342.155 294.122 340.666 290.436L338.799 285.816L326.869 290.636L326.35 289.352L343.583 282.39C347.39 280.852 349.268 276.617 347.779 272.931L343.734 262.92C342.245 259.234 337.952 257.492 334.145 259.03L330.168 260.637L332.45 266.284C333.939 269.971 332.06 274.205 328.253 275.743L315.528 280.885C312.307 282.186 310.717 285.77 311.977 288.889L316.54 300.183C318.03 303.869 322.323 305.611 326.13 304.072L336.469 299.895ZM334.741 291.038C333.423 291.571 332.773 293.036 333.289 294.312C333.804 295.588 335.29 296.191 336.608 295.659C337.926 295.126 338.576 293.66 338.061 292.384C337.545 291.108 336.059 290.506 334.741 291.038Z" fill="#FF9600"/>
<rect x="284.465" y="376.588" width="137.317" height="52.7848" rx="12.6225" transform="rotate(-22 284.465 376.588)" fill="#B0691C"/>
<rect x="287.349" y="409.25" width="156.824" height="22.9499" rx="11.475" transform="rotate(-22 287.349 409.25)" fill="#844F15"/>
<rect x="231.96" y="258.732" width="19.9862" height="19.9862" rx="5.66275" transform="rotate(-67 231.96 258.732)" fill="#FFF4CC"/>
<rect x="228.835" y="221.158" width="30.7116" height="30.7116" rx="8.70161" transform="rotate(-67 228.835 221.158)" fill="#FFF4CC"/>
<path d="M240.067 460.954C240.574 461.675 241.022 462.437 241.403 463.234L241.626 463.614C241.632 463.625 241.624 463.637 241.612 463.637C241.601 463.637 241.593 463.649 241.598 463.659C242.445 465.577 242.915 467.684 242.915 469.896C242.914 478.761 235.391 485.947 226.11 485.947C216.829 485.947 209.305 478.761 209.305 469.896C209.305 466.459 210.436 463.274 212.362 460.663C214.869 456.337 216.944 452.758 219.074 449.083C222.191 443.706 229.95 443.687 233.092 449.05L240.067 460.954Z" fill="#3E7500"/>
<path d="M248.297 510.091C248.696 509.305 249.159 508.552 249.683 507.841L249.915 507.466C249.921 507.456 249.936 507.456 249.941 507.466C249.946 507.476 249.96 507.477 249.966 507.469C251.262 505.82 252.903 504.417 254.856 503.379C262.683 499.217 272.56 502.486 276.917 510.681C281.274 518.875 278.462 528.892 270.635 533.054C267.602 534.666 264.261 535.163 261.053 534.69L247.672 534.2C241.46 533.972 237.801 527.13 241.061 521.838L248.297 510.091Z" fill="#3E7500"/>
<path d="M152.97 465.388C153.696 464.897 154.461 464.465 155.26 464.1L155.653 463.878C155.664 463.872 155.677 463.88 155.676 463.892C155.676 463.904 155.688 463.911 155.698 463.907C157.63 463.094 159.745 462.661 161.956 462.7C170.819 462.854 177.874 470.503 177.712 479.782C177.55 489.061 170.233 496.459 161.369 496.304C157.93 496.244 154.763 495.056 152.185 493.083C147.907 490.502 144.366 488.366 140.731 486.173C135.409 482.962 135.526 475.204 140.943 472.156L152.97 465.388Z" fill="#3E7500"/>
<path d="M128.847 429.213C129.575 428.72 130.343 428.287 131.145 427.92L131.533 427.701C131.543 427.695 131.556 427.703 131.556 427.714C131.556 427.725 131.567 427.733 131.577 427.729C133.509 426.915 135.624 426.483 137.836 426.522C146.7 426.677 153.754 434.325 153.592 443.604C153.43 452.884 146.113 460.281 137.25 460.126C133.818 460.066 130.657 458.883 128.082 456.917C123.795 454.331 120.251 452.193 116.61 449.996C111.288 446.785 111.405 439.027 116.823 435.979L128.847 429.213Z" fill="#3E7500"/>
<path d="M117.212 431.8C117.945 431.303 118.719 430.866 119.526 430.497L119.905 430.284C119.916 430.278 119.929 430.286 119.928 430.298C119.928 430.309 119.94 430.317 119.95 430.312C121.882 429.499 123.997 429.066 126.208 429.105C135.071 429.26 142.125 436.908 141.963 446.187C141.801 455.467 134.485 462.864 125.621 462.709C122.186 462.649 119.022 461.464 116.445 459.494C112.163 456.911 108.62 454.774 104.983 452.579C99.6606 449.368 99.778 441.61 105.195 438.562L117.212 431.8Z" fill="#3E7500"/>
<path d="M195.208 486.698C195.682 485.966 196.215 485.273 196.804 484.628L197.083 484.265C197.09 484.256 197.105 484.258 197.11 484.269C197.114 484.279 197.127 484.282 197.135 484.274C198.595 482.77 200.374 481.546 202.425 480.718C210.644 477.397 220.126 481.681 223.603 490.286C227.08 498.891 223.235 508.559 215.015 511.88C211.83 513.167 208.456 513.311 205.315 512.505C200.362 511.801 196.265 511.217 192.058 510.618C185.904 509.742 182.981 502.555 186.776 497.633L195.208 486.698Z" fill="#3E7500"/>
<path d="M166.793 301.845C167.325 302.548 167.799 303.294 168.208 304.077L168.444 304.45C168.45 304.46 168.443 304.473 168.431 304.473C168.42 304.474 168.413 304.485 168.418 304.495C169.331 306.382 169.874 308.471 169.951 310.682C170.26 319.541 162.992 326.986 153.717 327.31C144.441 327.634 136.671 320.714 136.362 311.855C136.242 308.42 137.262 305.197 139.096 302.52C141.45 298.11 143.398 294.461 145.399 290.715C148.326 285.231 156.08 284.942 159.407 290.192L166.793 301.845Z" fill="#3E7500"/>
<path d="M131.162 392.535C131.873 393.05 132.542 393.623 133.16 394.25L133.499 394.54C133.508 394.548 133.505 394.563 133.494 394.567C133.483 394.571 133.48 394.584 133.487 394.592C134.912 396.129 136.041 397.969 136.761 400.06C139.647 408.442 134.873 417.686 126.098 420.707C117.323 423.729 107.869 419.384 104.983 411.002C103.864 407.753 103.897 404.374 104.867 401.278C105.83 396.371 106.627 392.312 107.445 388.143C108.641 382.044 115.972 379.5 120.689 383.548L131.162 392.535Z" fill="#3E7500"/>
<path d="M164.301 382.849C164.286 383.516 164.213 384.168 164.081 384.798L164.045 385.115C164.044 385.124 164.033 385.128 164.026 385.122C164.02 385.116 164.009 385.119 164.007 385.127C163.648 386.59 162.958 387.923 161.924 389.033C157.775 393.482 149.635 392.633 143.742 387.138C137.849 381.643 136.435 373.581 140.583 369.132C142.192 367.407 144.401 366.477 146.846 366.307C150.171 365.676 152.968 365.145 155.785 364.611C161.153 363.593 165.973 368.064 165.359 373.493L164.301 382.849Z" fill="#3E7500"/>
<path d="M133.333 343.956C133.913 344.456 134.447 345.002 134.929 345.589L135.199 345.865C135.207 345.873 135.203 345.886 135.192 345.889C135.183 345.891 135.178 345.902 135.184 345.91C136.285 347.343 137.079 349.006 137.47 350.846C139.037 358.218 133.543 365.633 125.198 367.406C116.854 369.18 108.82 364.641 107.253 357.268C106.647 354.415 107.098 351.554 108.363 349.018C109.748 345.227 110.91 342.046 112.084 338.836C114.133 333.229 121.332 331.68 125.505 335.949L133.333 343.956Z" fill="#3E7500"/>
<path d="M320.113 488.655C320.652 489.343 321.134 490.074 321.554 490.843L321.802 491.221C321.809 491.23 321.802 491.244 321.79 491.244C321.779 491.245 321.772 491.257 321.777 491.267C322.724 493.137 323.302 495.217 323.417 497.426C323.881 506.278 316.744 513.849 307.476 514.335C298.208 514.82 290.318 508.037 289.854 499.185C289.674 495.75 290.638 492.508 292.427 489.799C294.703 485.35 296.587 481.669 298.521 477.89C301.353 472.356 309.1 471.932 312.519 477.123L320.113 488.655Z" fill="#3E7500"/>
<path d="M198.221 431.368C198.762 432.057 199.246 432.79 199.666 433.562L199.915 433.939C199.921 433.949 199.915 433.962 199.903 433.963C199.891 433.964 199.885 433.976 199.89 433.985C200.836 435.856 201.414 437.935 201.53 440.144C201.994 448.997 194.856 456.568 185.588 457.053C176.32 457.539 168.43 450.756 167.966 441.903C167.787 438.471 168.749 435.232 170.536 432.523C172.813 428.072 174.698 424.39 176.633 420.608C179.465 415.075 187.212 414.651 190.631 419.842L198.221 431.368Z" fill="#3E7500"/>
<path d="M180.008 369.086C179.487 369.807 178.908 370.484 178.272 371.109L177.993 371.434C177.985 371.443 177.971 371.441 177.967 371.43C177.964 371.419 177.951 371.416 177.943 371.423C176.406 372.849 174.566 373.979 172.475 374.699C164.093 377.585 154.848 372.811 151.826 364.036C148.805 355.26 153.15 345.807 161.532 342.92C164.776 341.804 168.149 341.834 171.241 342.8C176.154 343.764 180.218 344.561 184.39 345.38C190.49 346.577 193.033 353.907 188.985 358.624L180.008 369.086Z" fill="#3E7500"/>
<path d="M180.008 369.086C179.487 369.807 178.908 370.484 178.272 371.109L177.993 371.434C177.985 371.443 177.971 371.441 177.967 371.43C177.964 371.419 177.951 371.416 177.943 371.423C176.406 372.849 174.566 373.979 172.475 374.699C164.093 377.585 154.848 372.811 151.826 364.036C148.805 355.26 153.15 345.807 161.532 342.92C164.776 341.804 168.149 341.834 171.241 342.8C176.154 343.764 180.218 344.561 184.39 345.38C190.49 346.577 193.033 353.907 188.985 358.624L180.008 369.086Z" fill="#3E7500"/>
<path d="M180.008 369.086C179.487 369.807 178.908 370.484 178.272 371.109L177.993 371.434C177.985 371.443 177.971 371.441 177.967 371.43C177.964 371.419 177.951 371.416 177.943 371.423C176.406 372.849 174.566 373.979 172.475 374.699C164.093 377.585 154.848 372.811 151.826 364.036C148.805 355.26 153.15 345.807 161.532 342.92C164.776 341.804 168.149 341.834 171.241 342.8C176.154 343.764 180.218 344.561 184.39 345.38C190.49 346.577 193.033 353.907 188.985 358.624L180.008 369.086Z" fill="#3E7500"/>
<path d="M180.008 369.086C179.487 369.807 178.908 370.484 178.272 371.109L177.993 371.434C177.985 371.443 177.971 371.441 177.967 371.43C177.964 371.419 177.951 371.416 177.943 371.423C176.406 372.849 174.566 373.979 172.475 374.699C164.093 377.585 154.848 372.811 151.826 364.036C148.805 355.26 153.15 345.807 161.532 342.92C164.776 341.804 168.149 341.834 171.241 342.8C176.154 343.764 180.218 344.561 184.39 345.38C190.49 346.577 193.033 353.907 188.985 358.624L180.008 369.086Z" fill="#3E7500"/>
<path d="M169.201 290.76C171.478 286.495 177.509 286.271 180.097 290.354L183.494 295.714C185.871 295.213 188.17 294.729 190.495 294.239C198.085 292.64 204.581 299.821 202.231 307.214L197.013 323.63C196.77 324.694 196.439 325.738 196.022 326.75L195.85 327.289C195.848 327.296 195.842 327.3 195.835 327.302L195.8 327.29C195.794 327.291 195.789 327.294 195.786 327.301C194.715 329.688 193.151 331.883 191.099 333.73C190.976 333.841 190.851 333.949 190.726 334.056C187.819 338.462 183.633 341.947 178.695 343.983C178.235 353.977 172.24 362.526 163.702 366.632C164.782 369.52 165.374 372.646 165.375 375.911C165.375 382.557 162.926 388.631 158.883 393.281C159.358 394.266 159.773 395.285 160.125 396.333C161.431 396.244 162.696 396.158 163.976 396.071C168.246 395.78 171.244 400.202 169.392 404.06L165.286 412.616C165.072 413.176 164.811 413.718 164.508 414.237L164.364 414.538C164.362 414.541 164.358 414.544 164.355 414.544L164.337 414.534C164.409 414.624 164.481 414.714 164.551 414.804C168.641 411.123 175.21 413.151 176.489 418.533L179.348 430.569C179.594 431.319 179.777 432.089 179.895 432.871L179.987 433.257C179.989 433.267 179.979 433.275 179.969 433.272C179.96 433.27 179.951 433.277 179.952 433.287C179.995 433.651 180.024 434.018 180.039 434.386C182.918 435.521 185.55 437.148 187.833 439.161C187.865 439.094 187.897 439.028 187.928 438.962C190.292 433.915 197.22 433.293 200.446 437.838L207.596 447.91C208.112 448.52 208.574 449.173 208.981 449.863L209.206 450.179C209.212 450.187 209.206 450.198 209.196 450.199C209.186 450.2 209.18 450.211 209.185 450.22C209.558 450.896 209.874 451.607 210.131 452.346C210.865 453.045 211.557 453.786 212.207 454.564C212.743 454.532 213.283 454.514 213.828 454.514C220.679 454.514 226.924 457.116 231.626 461.385C232.525 460.048 233.644 458.889 234.921 457.94C238.205 454.889 240.921 452.365 243.71 449.773C247.793 445.98 254.45 447.998 255.738 453.42L258.6 465.466C258.842 466.208 259.024 466.97 259.141 467.744L259.237 468.141C259.239 468.152 259.229 468.162 259.218 468.159C259.208 468.156 259.198 468.164 259.2 468.175C259.239 468.502 259.267 468.832 259.283 469.163C262.212 470.7 264.818 472.769 266.972 475.242C268.064 474.765 269.193 474.357 270.355 474.029C271.245 472.289 272.118 470.585 272.999 468.865C276.533 461.96 286.202 461.43 290.468 467.908L299.937 482.287C300.614 483.15 301.22 484.068 301.747 485.034L302.054 485.502C302.058 485.508 302.058 485.515 302.055 485.521L302.024 485.541C302.021 485.546 302.021 485.553 302.024 485.559C303.148 487.782 303.853 490.241 304.043 492.85C304.121 492.85 304.199 492.848 304.277 492.848C318.906 492.849 330.765 504.708 330.765 519.337C330.765 531.544 322.506 541.82 311.272 544.888C310.829 545.07 310.377 545.238 309.915 545.388C305.838 546.713 301.625 546.599 297.785 545.323C291.68 544.014 286.63 542.931 281.445 541.819C274.171 540.259 271.101 531.732 275.408 525.922C268.891 525.395 263.042 522.51 258.713 518.121C258.709 518.125 258.704 518.13 258.7 518.134C256.339 520.115 253.498 521.174 250.594 521.356C246.18 522.127 242.527 522.764 238.776 523.419C233.286 524.377 228.802 519.058 230.674 513.809L230.761 513.564C227.953 511.383 225.595 508.65 223.851 505.526C220.759 506.791 217.375 507.491 213.828 507.491C205.652 507.491 198.342 503.786 193.483 497.964C192.947 497.996 192.407 498.015 191.863 498.015C182.365 498.015 174.037 493.015 169.362 485.506C158.8 485.127 149.813 478.568 145.914 469.333C143.837 468.811 141.867 468.316 139.868 467.813C134.734 466.523 132.733 460.43 135.839 456.366C126.824 453.599 119.859 446.151 117.777 436.857C115.859 435.82 114.36 434.272 113.358 432.444C111.323 429.528 109.641 427.117 107.915 424.641C105.624 421.358 107.324 416.938 110.944 415.847C109.389 412.477 108.52 408.724 108.52 404.768C108.52 398.123 110.968 392.049 115.01 387.398C113.335 383.924 112.398 380.026 112.398 375.911C112.398 373.531 112.713 371.224 113.302 369.03C111.609 366.331 111.735 362.602 114.275 360.029L122.953 351.239C123.464 350.626 124.028 350.055 124.636 349.535L124.907 349.26C124.914 349.252 124.927 349.255 124.929 349.265C124.932 349.275 124.943 349.278 124.951 349.272C125.389 348.92 125.85 348.592 126.332 348.293C125.95 346.504 125.749 344.648 125.749 342.746C125.749 338.315 126.838 334.139 128.761 330.469C128.632 329.929 128.539 329.382 128.483 328.831C127.677 325.009 127.012 321.851 126.329 318.607C125.332 313.876 129.808 309.827 134.416 311.292L142.702 313.925C145.217 302.156 155.548 293.284 168 293.006C168.402 292.254 168.8 291.51 169.201 290.76Z" fill="#58A700"/>
<path d="M276.38 507.956C276.777 507.171 277.24 506.42 277.763 505.711L277.997 505.331C278.003 505.321 278.017 505.321 278.023 505.332C278.028 505.341 278.041 505.343 278.048 505.334C279.343 503.685 280.985 502.282 282.938 501.244C290.765 497.082 300.643 500.351 305 508.546C309.357 516.74 306.544 526.757 298.716 530.919C295.684 532.532 292.343 533.029 289.135 532.555L275.754 532.065C269.542 531.837 265.883 524.995 269.144 519.703L276.38 507.956Z" fill="#5EB300"/>
<path d="M226.251 450.014C226.856 450.639 227.41 451.313 227.906 452.031L228.198 452.387C228.206 452.397 228.201 452.411 228.189 452.413C228.177 452.415 228.172 452.428 228.178 452.437C229.315 454.198 230.108 456.206 230.454 458.391C231.84 467.147 225.533 475.421 216.367 476.873C207.2 478.325 198.645 472.404 197.258 463.649C196.72 460.253 197.339 456.93 198.833 454.049C200.633 449.385 202.122 445.526 203.651 441.564C205.889 435.765 213.55 434.533 217.492 439.338L226.251 450.014Z" fill="#5EB300"/>
<path d="M143.07 440.103C143.898 439.816 144.749 439.598 145.615 439.451L146.052 439.339C146.064 439.336 146.074 439.347 146.071 439.359C146.068 439.37 146.077 439.38 146.088 439.379C148.165 439.093 150.319 439.222 152.445 439.832C160.967 442.275 165.801 451.489 163.243 460.41C160.685 469.332 151.703 474.583 143.181 472.139C139.875 471.191 137.123 469.225 135.144 466.651C131.679 463.05 128.812 460.071 125.868 457.012C121.558 452.533 123.68 445.069 129.701 443.527L143.07 440.103Z" fill="#5EB300"/>
<path d="M177.615 401.613C177.86 402.459 178.034 403.325 178.135 404.202L178.224 404.643C178.226 404.655 178.215 404.665 178.204 404.661C178.193 404.657 178.182 404.666 178.183 404.677C178.36 406.765 178.118 408.91 177.398 411.002C174.512 419.383 165.058 423.729 156.283 420.708C147.507 417.686 142.733 408.441 145.62 400.06C146.738 396.81 148.844 394.167 151.515 392.325C155.294 389.051 158.421 386.343 161.632 383.562C166.33 379.492 173.672 382.001 174.897 388.095L177.615 401.613Z" fill="#5EB300"/>
<path d="M143.07 440.103C143.898 439.816 144.749 439.598 145.615 439.451L146.052 439.339C146.064 439.336 146.074 439.347 146.071 439.359C146.068 439.37 146.077 439.38 146.088 439.379C148.165 439.093 150.319 439.222 152.445 439.832C160.967 442.275 165.801 451.489 163.243 460.41C160.685 469.332 151.703 474.583 143.181 472.139C139.875 471.191 137.123 469.225 135.144 466.651C131.679 463.05 128.812 460.071 125.868 457.012C121.558 452.533 123.68 445.069 129.701 443.527L143.07 440.103Z" fill="#5EB300"/>
<path d="M124.602 367.215C125.399 367.585 126.165 368.019 126.891 368.517L127.278 368.737C127.289 368.743 127.289 368.758 127.278 368.764C127.268 368.77 127.268 368.784 127.277 368.791C128.969 370.028 130.429 371.618 131.535 373.533C135.967 381.21 133.044 391.195 125.007 395.836C116.969 400.476 106.861 398.015 102.428 390.338C100.709 387.359 100.095 384.033 100.459 380.807C100.467 375.81 100.475 371.675 100.482 367.429C100.494 361.213 107.204 357.318 112.607 360.392L124.602 367.215Z" fill="#5EB300"/>
<path d="M193.042 337.09C192.519 337.786 191.94 338.438 191.309 339.04L191.002 339.385C190.994 339.394 190.979 339.391 190.976 339.38C190.972 339.369 190.958 339.365 190.95 339.373C189.388 340.771 187.529 341.867 185.425 342.551C176.994 345.29 167.835 340.355 164.967 331.529C162.099 322.702 166.608 313.326 175.039 310.587C178.309 309.524 181.688 309.616 184.768 310.642C189.656 311.689 193.7 312.557 197.853 313.447C203.931 314.75 206.345 322.124 202.216 326.77L193.042 337.09Z" fill="#5EB300"/>
<path d="M458.931 456.919C458.427 457.635 457.982 458.393 457.603 459.185L457.374 459.575C457.368 459.585 457.375 459.598 457.387 459.598C457.399 459.598 457.406 459.61 457.402 459.62C456.554 461.537 456.086 463.644 456.086 465.856C456.086 474.721 463.61 481.908 472.891 481.908C482.171 481.908 489.695 474.721 489.695 465.856C489.695 462.419 488.564 459.235 486.639 456.624C484.131 452.298 482.056 448.719 479.926 445.044C476.808 439.666 469.049 439.648 465.907 445.011L458.931 456.919Z" fill="#3E7500"/>
<path d="M450.699 506.046C450.303 505.264 449.842 504.516 449.321 503.809L449.084 503.424C449.078 503.414 449.063 503.414 449.057 503.425C449.052 503.435 449.038 503.436 449.032 503.427C447.736 501.779 446.096 500.376 444.143 499.338C436.316 495.176 426.438 498.445 422.081 506.64C417.724 514.834 420.537 524.852 428.364 529.013C431.401 530.628 434.747 531.124 437.959 530.647C442.952 530.464 447.084 530.313 451.327 530.158C457.539 529.93 461.197 523.088 457.937 517.796L450.699 506.046Z" fill="#3E7500"/>
<path d="M546.019 461.344C545.298 460.857 544.538 460.429 543.745 460.065L543.346 459.84C543.336 459.834 543.323 459.842 543.323 459.854C543.323 459.866 543.311 459.873 543.301 459.869C541.369 459.056 539.254 458.624 537.043 458.663C528.18 458.818 521.126 466.465 521.288 475.745C521.45 485.024 528.766 492.421 537.63 492.267C541.069 492.207 544.236 491.018 546.814 489.045C551.093 486.464 554.633 484.328 558.269 482.135C563.591 478.924 563.474 471.166 558.057 468.118L546.019 461.344Z" fill="#3E7500"/>
<path d="M570.142 425.167C569.42 424.679 568.659 424.25 567.864 423.886L567.466 423.661C567.455 423.655 567.443 423.663 567.443 423.675C567.443 423.686 567.432 423.694 567.421 423.689C565.489 422.876 563.374 422.444 561.162 422.483C552.299 422.638 545.244 430.286 545.406 439.565C545.568 448.845 552.885 456.242 561.749 456.087C565.183 456.027 568.346 454.842 570.923 452.873C575.206 450.289 578.75 448.151 582.388 445.956C587.71 442.745 587.593 434.987 582.176 431.939L570.142 425.167Z" fill="#3E7500"/>
<path d="M581.79 427.76C581.061 427.265 580.292 426.832 579.489 426.465L579.097 426.244C579.087 426.238 579.074 426.246 579.074 426.258C579.074 426.269 579.063 426.277 579.053 426.272C577.121 425.459 575.006 425.026 572.795 425.065C563.931 425.22 556.877 432.868 557.038 442.147C557.2 451.427 564.518 458.825 573.381 458.67C576.817 458.61 579.982 457.424 582.559 455.453C586.84 452.87 590.382 450.733 594.019 448.539C599.342 445.328 599.224 437.57 593.807 434.522L581.79 427.76Z" fill="#3E7500"/>
<path d="M503.8 482.673C503.322 481.933 502.783 481.234 502.188 480.582L501.913 480.225C501.906 480.216 501.891 480.218 501.887 480.229C501.882 480.239 501.869 480.242 501.861 480.234C500.401 478.73 498.623 477.506 496.572 476.677C488.353 473.356 478.871 477.641 475.394 486.246C471.918 494.851 475.762 504.519 483.982 507.84C487.171 509.129 490.55 509.271 493.694 508.462C498.641 507.758 502.735 507.176 506.938 506.578C513.092 505.702 516.015 498.515 512.22 493.593L503.8 482.673Z" fill="#3E7500"/>
<path d="M532.202 297.814C531.674 298.512 531.204 299.253 530.797 300.032L530.555 300.413C530.549 300.423 530.556 300.436 530.567 300.437C530.579 300.437 530.586 300.449 530.581 300.459C529.667 302.346 529.126 304.435 529.048 306.645C528.739 315.505 536.007 322.949 545.283 323.273C554.558 323.597 562.328 316.678 562.637 307.818C562.757 304.384 561.738 301.162 559.905 298.485C557.55 294.074 555.601 290.425 553.6 286.677C550.672 281.194 542.919 280.905 539.591 286.155L532.202 297.814Z" fill="#3E7500"/>
<path d="M567.841 388.494C567.127 389.01 566.456 389.585 565.836 390.215L565.501 390.502C565.492 390.51 565.495 390.524 565.506 390.528C565.516 390.531 565.52 390.544 565.512 390.553C564.087 392.09 562.958 393.93 562.237 396.022C559.352 404.404 564.126 413.648 572.901 416.669C581.676 419.691 591.129 415.346 594.016 406.964C595.134 403.716 595.102 400.339 594.133 397.244L591.555 384.104C590.358 378.005 583.028 375.462 578.311 379.509L567.841 388.494Z" fill="#3E7500"/>
<path d="M534.699 378.823C534.715 379.48 534.787 380.122 534.916 380.744L534.953 381.072C534.954 381.081 534.966 381.086 534.973 381.079C534.98 381.073 534.991 381.076 534.993 381.085C535.352 382.548 536.041 383.883 537.076 384.992C541.225 389.441 549.365 388.593 555.258 383.098C561.151 377.602 562.565 369.541 558.416 365.092C556.81 363.369 554.605 362.44 552.164 362.268C548.834 361.636 546.034 361.105 543.214 360.57C537.846 359.552 533.026 364.023 533.64 369.452L534.699 378.823Z" fill="#3E7500"/>
<path d="M565.673 339.912C565.09 340.414 564.553 340.963 564.069 341.553L563.801 341.827C563.793 341.835 563.797 341.848 563.807 341.85C563.817 341.852 563.821 341.863 563.815 341.871C562.715 343.304 561.922 344.967 561.531 346.806C559.964 354.179 565.458 361.593 573.802 363.367C582.146 365.14 590.181 360.602 591.748 353.229C592.356 350.369 591.902 347.501 590.631 344.96C589.249 341.178 588.088 338.002 586.916 334.797C584.867 329.19 577.668 327.641 573.495 331.91L565.673 339.912Z" fill="#3E7500"/>
<path d="M378.899 484.598C378.35 485.296 377.86 486.04 377.435 486.822L377.196 487.185C377.189 487.195 377.196 487.207 377.207 487.208C377.218 487.209 377.225 487.22 377.22 487.23C376.274 489.1 375.696 491.18 375.58 493.388C375.116 502.241 382.254 509.811 391.522 510.296C400.79 510.782 408.679 504 409.143 495.147C409.323 491.716 408.361 488.478 406.576 485.77C404.298 481.318 402.413 477.635 400.477 473.853C397.646 468.319 389.898 467.895 386.48 473.086L378.899 484.598Z" fill="#3E7500"/>
<path d="M500.786 427.317C500.24 428.012 499.752 428.753 499.328 429.531L499.086 429.898C499.079 429.908 499.086 429.921 499.098 429.922C499.109 429.923 499.116 429.935 499.111 429.944C498.165 431.815 497.586 433.894 497.47 436.103C497.006 444.956 504.143 452.527 513.411 453.012C522.68 453.498 530.569 446.715 531.033 437.862C531.213 434.433 530.252 431.196 528.468 428.488C526.189 424.034 524.304 420.35 522.367 416.567C519.536 411.034 511.788 410.61 508.369 415.801L500.786 427.317Z" fill="#3E7500"/>
<path d="M518.992 365.047C519.509 365.763 520.087 366.435 520.718 367.057L521.007 367.395C521.015 367.403 521.029 367.401 521.033 367.39C521.036 367.379 521.05 367.376 521.058 367.383C522.595 368.809 524.435 369.938 526.527 370.658C534.909 373.544 544.153 368.77 547.174 359.995C550.196 351.219 545.851 341.766 537.469 338.88C534.224 337.762 530.849 337.793 527.756 338.76C522.844 339.724 518.781 340.521 514.609 341.34C508.51 342.537 505.967 349.867 510.014 354.584L518.992 365.047Z" fill="#3E7500"/>
<path d="M518.992 365.047C519.509 365.763 520.087 366.435 520.718 367.057L521.007 367.395C521.015 367.403 521.029 367.401 521.033 367.39C521.036 367.379 521.05 367.376 521.058 367.383C522.595 368.809 524.435 369.938 526.527 370.658C534.909 373.544 544.153 368.77 547.174 359.995C550.196 351.219 545.851 341.766 537.469 338.88C534.224 337.762 530.849 337.793 527.756 338.76C522.844 339.724 518.781 340.521 514.609 341.34C508.51 342.537 505.967 349.867 510.014 354.584L518.992 365.047Z" fill="#3E7500"/>
<path d="M518.992 365.047C519.509 365.763 520.087 366.435 520.718 367.057L521.007 367.395C521.015 367.403 521.029 367.401 521.033 367.39C521.036 367.379 521.05 367.376 521.058 367.383C522.595 368.809 524.435 369.938 526.527 370.658C534.909 373.544 544.153 368.77 547.174 359.995C550.196 351.219 545.851 341.766 537.469 338.88C534.224 337.762 530.849 337.793 527.756 338.76C522.844 339.724 518.781 340.521 514.609 341.34C508.51 342.537 505.967 349.867 510.014 354.584L518.992 365.047Z" fill="#3E7500"/>
<path d="M518.992 365.047C519.509 365.763 520.087 366.435 520.718 367.057L521.007 367.395C521.015 367.403 521.029 367.401 521.033 367.39C521.036 367.379 521.05 367.376 521.058 367.383C522.595 368.809 524.435 369.938 526.527 370.658C534.909 373.544 544.153 368.77 547.174 359.995C550.196 351.219 545.851 341.766 537.469 338.88C534.224 337.762 530.849 337.793 527.756 338.76C522.844 339.724 518.781 340.521 514.609 341.34C508.51 342.537 505.967 349.867 510.014 354.584L518.992 365.047Z" fill="#3E7500"/>
<path d="M529.799 286.722C527.522 282.457 521.491 282.232 518.902 286.316L515.506 291.675C513.129 291.174 510.831 290.69 508.507 290.2C500.916 288.601 494.421 295.782 496.771 303.175L501.989 319.593C502.232 320.654 502.563 321.695 502.979 322.704L503.151 323.249C503.156 323.263 503.174 323.267 503.184 323.256C503.193 323.246 503.21 323.249 503.216 323.262C504.287 325.649 505.85 327.843 507.901 329.69C508.022 329.798 508.144 329.904 508.267 330.009C511.174 334.419 515.363 337.908 520.305 339.945C520.764 349.939 526.761 358.488 535.299 362.593C534.219 365.481 533.627 368.607 533.627 371.871C533.627 378.517 536.075 384.59 540.117 389.24C539.642 390.226 539.227 391.245 538.875 392.294C537.569 392.205 536.304 392.119 535.025 392.032C530.755 391.742 527.758 396.164 529.609 400.022L533.714 408.576C533.928 409.139 534.191 409.682 534.495 410.203L534.637 410.499C534.64 410.506 534.65 410.507 534.654 410.501C534.655 410.5 534.658 410.499 534.659 410.498C534.588 410.587 534.518 410.676 534.448 410.766C530.359 407.085 523.79 409.113 522.511 414.494L519.648 426.542C519.406 427.282 519.225 428.043 519.108 428.815L519.013 429.217C519.01 429.228 519.02 429.238 519.03 429.235C519.04 429.232 519.05 429.239 519.049 429.249C519.005 429.613 518.977 429.979 518.962 430.347C516.081 431.482 513.449 433.11 511.165 435.123C511.134 435.056 511.102 434.989 511.07 434.922C508.706 429.876 501.778 429.254 498.553 433.798L491.391 443.888C490.886 444.488 490.431 445.129 490.03 445.806L489.794 446.139C489.788 446.147 489.793 446.159 489.804 446.16C489.813 446.161 489.819 446.171 489.815 446.18C489.441 446.858 489.124 447.57 488.866 448.311C488.134 449.008 487.443 449.749 486.794 450.526C486.258 450.493 485.717 450.476 485.172 450.476C478.319 450.476 472.074 453.078 467.371 457.348C466.474 456.013 465.358 454.856 464.082 453.908C460.797 450.855 458.079 448.329 455.288 445.736C451.206 441.942 444.549 443.96 443.261 449.382L440.4 461.418C440.156 462.166 439.973 462.933 439.856 463.713L439.762 464.105C439.759 464.115 439.77 464.124 439.78 464.121C439.79 464.119 439.799 464.127 439.798 464.137C439.759 464.464 439.732 464.794 439.716 465.124C436.787 466.661 434.181 468.73 432.026 471.203C430.935 470.726 429.805 470.318 428.643 469.989C427.753 468.25 426.88 466.547 426 464.827C422.466 457.922 412.798 457.392 408.531 463.871L399.061 478.253C398.384 479.116 397.778 480.034 397.252 480.999L396.945 481.464C396.937 481.476 396.946 481.494 396.961 481.494C396.975 481.495 396.983 481.509 396.977 481.522C395.852 483.744 395.146 486.203 394.956 488.812C394.879 488.811 394.802 488.809 394.725 488.809C380.096 488.809 368.236 500.668 368.236 515.297C368.236 527.493 376.479 537.76 387.696 540.84C388.149 541.026 388.612 541.198 389.085 541.352C393.163 542.677 397.378 542.562 401.219 541.284C407.322 539.976 412.371 538.894 417.556 537.782C424.831 536.223 427.9 527.694 423.591 521.884C430.108 521.357 435.957 518.472 440.286 514.082C440.291 514.086 440.296 514.092 440.301 514.096C442.661 516.076 445.5 517.135 448.402 517.318C452.818 518.088 456.471 518.726 460.223 519.38C465.713 520.338 470.197 515.019 468.324 509.771L468.237 509.526C471.046 507.344 473.404 504.611 475.149 501.487C478.241 502.753 481.624 503.452 485.172 503.452C493.347 503.452 500.657 499.748 505.516 493.927C506.052 493.959 506.592 493.978 507.137 493.978C516.634 493.978 524.963 488.978 529.639 481.468C540.201 481.089 549.188 474.528 553.087 465.292C555.163 464.771 557.133 464.276 559.132 463.774C564.265 462.484 566.267 456.391 563.16 452.326C572.175 449.559 579.14 442.113 581.223 432.82C583.141 431.783 584.641 430.235 585.643 428.407C587.678 425.49 589.36 423.079 591.087 420.603C593.378 417.319 591.677 412.899 588.057 411.809C589.611 408.438 590.48 404.685 590.48 400.73C590.48 394.084 588.033 388.009 583.99 383.359C585.665 379.884 586.604 375.987 586.604 371.871C586.604 369.491 586.288 367.185 585.699 364.99C587.392 362.291 587.267 358.562 584.727 355.989L576.048 347.199C575.537 346.586 574.974 346.015 574.365 345.494L574.094 345.22C574.087 345.213 574.074 345.216 574.071 345.226C574.069 345.235 574.058 345.238 574.051 345.233C573.612 344.88 573.15 344.553 572.668 344.253C573.049 342.465 573.251 340.61 573.251 338.708C573.251 334.278 572.162 330.102 570.239 326.432C570.369 325.89 570.463 325.34 570.519 324.785C571.323 320.968 571.988 317.811 572.671 314.57C573.668 309.84 569.192 305.791 564.584 307.256L556.298 309.89C553.784 298.12 543.452 289.247 530.999 288.968C530.598 288.217 530.199 287.472 529.799 286.722Z" fill="#58A700"/>
<path d="M422.624 503.923C422.224 503.132 421.759 502.376 421.231 501.661L421.003 501.291C420.997 501.281 420.982 501.281 420.977 501.292C420.971 501.301 420.958 501.302 420.951 501.294C419.656 499.646 418.015 498.243 416.062 497.204C408.235 493.043 398.358 496.312 394.001 504.507C389.644 512.701 392.457 522.718 400.284 526.88C403.316 528.492 406.656 528.989 409.863 528.517C414.863 528.333 418.999 528.181 423.246 528.025C429.457 527.797 433.116 520.955 429.856 515.663L422.624 503.923Z" fill="#5EB300"/>
<path d="M472.763 445.962C472.147 446.596 471.584 447.281 471.081 448.011L470.802 448.351C470.794 448.36 470.8 448.374 470.811 448.376C470.822 448.378 470.828 448.39 470.822 448.399C469.685 450.16 468.892 452.168 468.546 454.353C467.16 463.109 473.466 471.384 482.633 472.836C491.8 474.288 500.355 468.366 501.742 459.611C502.279 456.219 501.662 452.899 500.171 450.02C498.37 445.352 496.88 441.491 495.35 437.527C493.112 431.728 485.451 430.496 481.509 435.302L472.763 445.962Z" fill="#5EB300"/>
<path d="M555.945 436.069C555.105 435.777 554.242 435.554 553.363 435.407L552.947 435.3C552.936 435.298 552.926 435.308 552.929 435.319C552.932 435.33 552.923 435.34 552.912 435.339C550.835 435.053 548.68 435.182 546.553 435.792C538.032 438.236 533.198 447.449 535.756 456.37C538.315 465.291 547.296 470.543 555.817 468.1C559.119 467.153 561.868 465.19 563.847 462.621L573.132 452.973C577.442 448.495 575.32 441.031 569.299 439.489L555.945 436.069Z" fill="#5EB300"/>
<path d="M521.383 397.582C521.14 398.424 520.967 399.285 520.866 400.158L520.776 400.604C520.773 400.616 520.785 400.626 520.796 400.622C520.806 400.618 520.817 400.627 520.816 400.638C520.639 402.727 520.882 404.872 521.602 406.964C524.488 415.346 533.943 419.691 542.718 416.67C551.493 413.648 556.267 404.403 553.381 396.021C552.263 392.774 550.158 390.132 547.489 388.29C543.708 385.014 540.58 382.305 537.368 379.523C532.67 375.453 525.327 377.962 524.102 384.056L521.383 397.582Z" fill="#5EB300"/>
<path d="M555.945 436.069C555.105 435.777 554.242 435.554 553.363 435.407L552.947 435.3C552.936 435.298 552.926 435.308 552.929 435.319C552.932 435.33 552.923 435.34 552.912 435.339C550.835 435.053 548.68 435.182 546.553 435.792C538.032 438.236 533.198 447.449 535.756 456.37C538.315 465.291 547.296 470.543 555.817 468.1C559.119 467.153 561.868 465.19 563.847 462.621L573.132 452.973C577.442 448.495 575.32 441.031 569.299 439.489L555.945 436.069Z" fill="#5EB300"/>
<path d="M574.412 363.168C573.607 363.54 572.834 363.98 572.101 364.483L571.723 364.698C571.713 364.704 571.713 364.718 571.723 364.724C571.732 364.73 571.733 364.743 571.724 364.75C570.032 365.986 568.571 367.577 567.465 369.493C563.033 377.17 565.955 387.156 573.993 391.797C582.03 396.437 592.139 393.975 596.572 386.298C598.288 383.326 598.902 380.008 598.543 376.789C598.535 371.782 598.527 367.641 598.52 363.389C598.508 357.173 591.798 353.278 586.395 356.351L574.412 363.168Z" fill="#5EB300"/>
<path d="M505.952 333.044C506.478 333.745 507.061 334.402 507.697 335.008L507.997 335.345C508.005 335.354 508.02 335.351 508.024 335.34C508.027 335.329 508.041 335.325 508.049 335.333C509.611 336.731 511.47 337.828 513.573 338.512C522.004 341.251 531.164 336.316 534.032 327.49C536.9 318.663 532.39 309.287 523.959 306.547C520.69 305.485 517.312 305.577 514.234 306.601C509.345 307.649 505.3 308.517 501.147 309.407C495.069 310.71 492.654 318.084 496.784 322.73L505.952 333.044Z" fill="#5EB300"/>
<circle cx="352.549" cy="551.672" r="57.9643" fill="#FFB100"/>
<circle cx="352.453" cy="551.573" r="49.9459" fill="#FFC800"/>
<path d="M345.011 528.537C345.011 527.292 346.02 526.282 347.265 526.282H365.301C366.546 526.282 367.556 527.292 367.556 528.537V574.349C367.556 575.594 366.546 576.603 365.301 576.603H347.265C346.02 576.603 345.011 575.594 345.011 574.349V528.537Z" fill="#FF9600"/>
<path d="M344.599 527.783C345.55 526.954 346.025 526.539 346.55 526.407C347.012 526.291 347.498 526.324 347.939 526.502C348.441 526.703 348.856 527.178 349.686 528.128L358.287 537.971C359.119 538.924 359.536 539.4 359.668 539.926C359.784 540.389 359.751 540.876 359.572 541.318C359.37 541.821 358.892 542.236 357.937 543.067L344.008 555.175C343.055 556.003 342.579 556.417 342.053 556.548C341.591 556.664 341.105 556.63 340.663 556.451C340.162 556.248 339.747 555.772 338.919 554.819L330.362 544.976C329.535 544.024 329.122 543.548 328.991 543.024C328.875 542.562 328.909 542.076 329.087 541.635C329.289 541.134 329.764 540.719 330.714 539.891L344.599 527.783Z" fill="#FF9600"/>
<defs>
<radialGradient id="paint0_radial_128_704" cx="0" cy="0" r="1" gradientUnits="userSpaceOnUse" gradientTransform="translate(350 350) rotate(90) scale(350)">
<stop stop-color="#272E40"/>
<stop offset="1" stop-color="#0D141F"/>
</radialGradient>
</defs>
</svg>
