<svg width="75" height="76" viewBox="0 0 75 76" fill="none" xmlns="http://www.w3.org/2000/svg">
<circle cx="37.48" cy="38.44" r="37.48" fill="#4E4E4E"/>
<path d="M57.1634 33.9757C55.8628 34.8381 54.369 35.5333 52.8136 36.0877C48.6836 37.5661 43.2617 38.3933 37.4796 38.3933C31.6975 38.3933 26.2669 37.5573 22.1457 36.0877C20.5991 35.5333 19.0964 34.8381 17.7959 33.9757V41.2094C17.7959 45.099 26.6096 48.2494 37.4796 48.2494C48.3496 48.2494 57.1634 45.099 57.1634 41.2094V33.9757ZM57.1634 27.1293V22.9053C57.1634 19.0157 48.3496 15.8652 37.4796 15.8652C26.6096 15.8652 17.7959 19.0157 17.7959 22.9053V27.1293C17.7959 31.0189 26.6096 34.1693 37.4796 34.1693C48.3496 34.1693 57.1634 31.0189 57.1634 27.1293ZM52.8136 50.1678C48.6923 51.6374 43.2705 52.4734 37.4796 52.4734C31.6888 52.4734 26.2669 51.6374 22.1457 50.1678C20.5991 49.6134 19.0964 48.9182 17.7959 48.0558V53.8814C17.7959 57.771 26.6096 60.9215 37.4796 60.9215C48.3496 60.9215 57.1634 57.771 57.1634 53.8814V48.0558C55.8628 48.9182 54.369 49.6134 52.8136 50.1678Z" fill="#8E8E93"/>
</svg>
