<svg width="75" height="76" viewBox="0 0 75 76" fill="none" xmlns="http://www.w3.org/2000/svg">
<circle cx="37.48" cy="38.1299" r="37.48" fill="#4B4B4B"/>
<path d="M50.2969 14.6499C51.6191 14.65 52.6904 15.7222 52.6904 17.0444V21.3058C52.6904 21.5967 52.9263 21.8325 53.2172 21.8325H59.6436C60.3591 21.8327 60.9394 22.4128 60.9395 23.1284V30.5415L60.9287 30.9653C60.7079 35.3201 57.1069 38.7835 52.6973 38.7837C52.0984 38.7837 51.5146 38.7181 50.952 38.5962C50.7215 38.5462 50.482 38.6431 50.3563 38.8427C47.661 43.1222 42.8951 45.9662 37.4639 45.9663C32.0333 45.9663 27.2668 43.1236 24.5711 38.845C24.4455 38.6457 24.2065 38.5488 23.9763 38.5984C23.4171 38.7189 22.8372 38.7837 22.2422 38.7837C17.8325 38.7836 14.2316 35.3202 14.0107 30.9653L14 30.5415V23.1284C14 22.4127 14.5802 21.8326 15.2959 21.8325H21.7096C22.0005 21.8325 22.2363 21.5967 22.2363 21.3058V17.0444C22.2363 15.7221 23.3086 14.6499 24.6309 14.6499H50.2969ZM18.166 30.5415C18.1663 32.7925 19.9911 34.6176 22.2422 34.6177V34.6177C22.499 34.6177 22.6685 34.365 22.6118 34.1145C22.3661 33.0288 22.2363 31.8988 22.2363 30.7388V26.5253C22.2363 26.2344 22.0005 25.9985 21.7096 25.9985H18.6927C18.4018 25.9985 18.166 26.2344 18.166 26.5253V30.5415ZM52.6904 30.7388C52.6904 31.894 52.5616 33.0195 52.3178 34.1011C52.2598 34.3585 52.4335 34.6177 52.6973 34.6177V34.6177C54.9482 34.6175 56.7732 32.7924 56.7734 30.5415V26.5253C56.7734 26.2344 56.5376 25.9985 56.2467 25.9985H53.2172C52.9263 25.9985 52.6904 26.2344 52.6904 26.5253V30.7388Z" fill="#8E8E93"/>
<rect x="33.3457" y="41.6562" width="8.23619" height="12.5937" fill="#8E8E93"/>
<rect x="26.3535" y="49.7974" width="22.1707" height="9.96004" rx="1.81962" fill="#8E8E93"/>
</svg>
