<svg width="75" height="76" viewBox="0 0 75 76" fill="none" xmlns="http://www.w3.org/2000/svg">
<circle cx="37.4798" cy="38.3235" r="37.4807" fill="#4B4B4B"/>
<path d="M37.4258 14.3237C40.6687 14.3237 43.4359 16.3529 44.5312 19.2104H57.4746C58.6676 19.2104 59.6356 20.1776 59.6357 21.3706V22.4985C59.6357 23.6916 58.6677 24.6597 57.4746 24.6597H44.5293C43.9083 26.2761 42.7524 27.6259 41.2773 28.4937V52.0396H47.46C50.1405 52.0397 52.3135 54.2126 52.3135 56.8931V57.6577C52.3133 60.3381 50.1403 62.5111 47.46 62.5112H27.4121C24.7317 62.5112 22.5588 60.3381 22.5586 57.6577V56.8931C22.5586 54.2125 24.7316 52.0396 27.4121 52.0396H33.583V28.4985C32.1039 27.631 30.9445 26.2793 30.3223 24.6597H17.3975C16.2044 24.6596 15.2373 23.6916 15.2373 22.4985V21.3706C15.2374 20.1776 16.2045 19.2105 17.3975 19.2104H30.3203C31.4156 16.3529 34.1829 14.3238 37.4258 14.3237ZM56.7246 27.3384C56.9698 26.91 57.5878 26.91 57.833 27.3384L63.9902 38.0972H64.0674C66.092 38.0974 67.7334 39.7395 67.7334 41.7642C67.7332 43.7886 66.0918 45.43 64.0674 45.4302H50.499C48.4744 45.4302 46.8333 43.7887 46.833 41.7642C46.833 39.7394 48.4743 38.0972 50.499 38.0972H50.5684L56.7246 27.3384ZM17.0137 27.1128C17.259 26.6846 17.8769 26.6845 18.1221 27.1128L24.4023 38.0884C26.4065 38.1123 28.0243 39.7446 28.0244 41.7544C28.0242 43.7787 26.3826 45.42 24.3584 45.4204H10.79C8.76545 45.4204 7.12428 43.7789 7.12402 41.7544C7.12409 39.7488 8.73412 38.119 10.7324 38.0884L17.0137 27.1128ZM53.4268 38.0972H61.1318L57.2793 31.3638L53.4268 38.0972ZM13.6211 38.0376H21.5156L17.5684 31.1382L13.6211 38.0376Z" fill="#8E8E93"/>
</svg>
