<svg width="75" height="76" viewBox="0 0 75 76" fill="none" xmlns="http://www.w3.org/2000/svg">
<circle cx="37.4807" cy="38.2849" r="37.4807" fill="#4B4B4B"/>
<path d="M21.6072 12.9907C19.8572 12.9907 18.4434 14.4046 18.4434 16.1546C18.4434 17.9046 19.8572 19.3184 21.6072 19.3184V20.406C21.6072 24.5981 23.2781 28.6221 26.2442 31.5882L32.9575 38.3015L26.2442 45.0147C23.2781 47.9808 21.6072 52.0048 21.6072 56.1969V57.2845C19.8572 57.2845 18.4434 58.6983 18.4434 60.4483C18.4434 62.1983 19.8572 63.6122 21.6072 63.6122H53.2456C54.9956 63.6122 56.4095 62.1983 56.4095 60.4483C56.4095 58.6983 54.9956 57.2845 53.2456 57.2845V56.1969C53.2456 52.0048 51.5747 47.9808 48.6086 45.0147L41.8953 38.3015L48.6086 31.5882C51.5747 28.6221 53.2456 24.5981 53.2456 20.406V19.3184C54.9956 19.3184 56.4095 17.9046 56.4095 16.1546C56.4095 14.4046 54.9956 12.9907 53.2456 12.9907H21.6072ZM27.9349 20.406V19.3184H46.9179V20.406C46.9179 22.2845 46.3643 24.1037 45.336 25.6461H29.5168C28.4984 24.1037 27.9349 22.2845 27.9349 20.406ZM29.5168 50.9568C29.8629 50.4328 30.2682 49.9385 30.7131 49.4837L37.4264 42.7704L44.1397 49.4837C44.5945 49.9385 44.99 50.4328 45.3459 50.9568H29.5168Z" fill="#8E8E93"/>
</svg>
