<svg width="75" height="76" viewBox="0 0 75 76" fill="none" xmlns="http://www.w3.org/2000/svg">
<circle cx="37.4807" cy="38.2464" r="37.4807" fill="#4B4B4B"/>
<path d="M23.4805 18.1328H32.582V18.1318H34.5527V18.1328H50.416V18.1318H52.3857V18.1328H55.5781C59.6699 18.133 62.9873 21.4501 62.9873 25.542V51.0996C62.9872 55.1914 59.6699 58.5086 55.5781 58.5088H19.3799C15.2879 58.5088 11.9708 55.1915 11.9707 51.0996V25.542C11.9707 21.45 15.2879 18.1328 19.3799 18.1328H21.5107V18.1318H23.4805V18.1328ZM15.0049 51.0996C15.0049 53.5156 16.9639 55.4746 19.3799 55.4746H21.5107V50.2891H20.3545C19.3806 50.2891 18.591 49.4993 18.5908 48.5254C18.5908 47.5514 19.3805 46.7617 20.3545 46.7617H21.5107V42.4092H20.415C19.4412 42.4089 18.6523 41.6194 18.6523 40.6455C18.6524 39.6717 19.4413 38.8821 20.415 38.8818H21.5107V34.5264H15.0049V51.0996ZM23.4805 38.8818H24.6914C25.6654 38.8818 26.455 39.6716 26.4551 40.6455C26.4551 41.6195 25.6654 42.4092 24.6914 42.4092H23.4805V46.7617H24.6309C25.6047 46.7619 26.3945 47.5515 26.3945 48.5254C26.3944 49.4992 25.6046 50.2889 24.6309 50.2891H23.4805V55.4746H32.582V51.0596H31.4277C30.4539 51.0594 29.6641 50.2698 29.6641 49.2959C29.6641 48.322 30.4538 47.5324 31.4277 47.5322H32.582V42.4092H31.4277C30.4538 42.409 29.6641 41.6194 29.6641 40.6455C29.6641 39.6716 30.4539 38.882 31.4277 38.8818H32.582V34.5264H23.4805V38.8818ZM34.5527 38.8818H35.7041C36.6781 38.8819 37.4677 39.6716 37.4678 40.6455C37.4678 41.6195 36.6781 42.4092 35.7041 42.4092H34.5527V47.5322H35.7041C36.6781 47.5323 37.4678 48.3219 37.4678 49.2959C37.4677 50.2699 36.6781 51.0595 35.7041 51.0596H34.5527V55.4746H50.416V51.0596H49.2617C48.2878 51.0595 47.4981 50.2698 47.498 49.2959C47.498 48.3219 48.2877 47.5323 49.2617 47.5322H50.416V42.7822H49.2617C48.2877 42.7822 47.498 41.9925 47.498 41.0186C47.4981 40.0446 48.2878 39.2549 49.2617 39.2549H50.416V34.5264H34.5527V38.8818ZM52.3857 39.2549H53.5381C54.5119 39.255 55.3017 40.0447 55.3018 41.0186C55.3018 41.9925 54.512 42.7821 53.5381 42.7822H52.3857V47.5322H53.5381C54.512 47.5324 55.3018 48.322 55.3018 49.2959C55.3017 50.2698 54.512 51.0594 53.5381 51.0596H52.3857V55.4746H55.5781C57.9939 55.4744 59.9531 53.5155 59.9531 51.0996V34.5264H52.3857V39.2549ZM19.3799 21.167C16.9639 21.167 15.0049 23.126 15.0049 25.542V32.5557H21.5107V28.2021H20.3545C19.3806 28.2021 18.591 27.4123 18.5908 26.4385C18.5908 25.4645 19.3805 24.6748 20.3545 24.6748H21.5107V21.167H19.3799ZM23.4805 24.6748H24.6309C25.6047 24.675 26.3945 25.4646 26.3945 26.4385C26.3943 27.4122 25.6046 28.202 24.6309 28.2021H23.4805V32.5557H32.582V28.2021H31.4277C30.454 28.202 29.6643 27.4122 29.6641 26.4385C29.6641 25.4645 30.4538 24.675 31.4277 24.6748H32.582V21.167H23.4805V24.6748ZM34.5527 24.6748H35.7041C36.6781 24.6748 37.4678 25.4645 37.4678 26.4385C37.4676 27.4123 36.678 28.2021 35.7041 28.2021H34.5527V32.5557H50.416V28.2021H49.2617C48.2879 28.2021 47.4983 27.4123 47.498 26.4385C47.498 25.4645 48.2877 24.6749 49.2617 24.6748H50.416V21.167H34.5527V24.6748ZM52.3857 24.6748H53.5381C54.512 24.6749 55.3018 25.4645 55.3018 26.4385C55.3015 27.4122 54.5119 28.202 53.5381 28.2021H52.3857V32.5557H59.9531V25.542C59.9531 23.1261 57.994 21.1672 55.5781 21.167H52.3857V24.6748Z" fill="#8E8E93"/>
</svg>
