<svg width="75" height="76" viewBox="0 0 75 76" fill="none" xmlns="http://www.w3.org/2000/svg">
<circle cx="37.4807" cy="38.1697" r="37.4807" fill="#4B4B4B"/>
<rect x="11.9746" y="24.2046" width="51.0169" height="28.6804" rx="3.03863" fill="#8E8E93"/>
<path d="M37.5049 21.8906C37.5049 21.2761 37.8805 20.7194 38.4605 20.5163C41.7762 19.3553 44.2707 19.3247 49.2596 20.8717C53.0344 22.0337 55.4436 22.3487 59.0383 21.4475C60.0228 21.2007 61.0143 21.9141 61.0143 22.929V49.5521C61.0143 50.3765 60.346 51.0448 59.5216 51.0448H38.9975C38.1732 51.0448 37.5049 50.3765 37.5049 49.5521V21.8906Z" fill="#8E8E93"/>
<path d="M37.5049 21.8877C37.5049 21.2732 37.1292 20.7164 36.5493 20.5133C33.2336 19.3523 30.7391 19.3217 25.7502 20.8688C21.9754 22.0308 19.5662 22.3458 15.9714 21.4446C14.987 21.1978 13.9955 21.9112 13.9955 22.9261V49.5492C13.9955 50.3736 14.6638 51.0418 15.4882 51.0418H36.0122C36.8366 51.0418 37.5049 50.3736 37.5049 49.5492V21.8877Z" fill="#8E8E93"/>
<rect opacity="0.63" x="17.1436" y="25.0562" width="17.2189" height="1.7059" rx="0.69302" fill="#4B4B4B"/>
<path opacity="0.63" d="M17.1436 30.7624C17.1436 30.3796 17.4538 30.0693 17.8366 30.0693H33.6694C34.0522 30.0693 34.3624 30.3796 34.3624 30.7624V31.0822C34.3624 31.465 34.0522 31.7752 33.6694 31.7752H17.8366C17.4538 31.7752 17.1436 31.465 17.1436 31.0822V30.7624Z" fill="#4B4B4B"/>
<path opacity="0.63" d="M17.1436 35.7716C17.1436 35.3889 17.4538 35.0786 17.8366 35.0786H33.6694C34.0522 35.0786 34.3624 35.3889 34.3624 35.7716V36.0915C34.3624 36.4742 34.0522 36.7845 33.6694 36.7845H17.8366C17.4538 36.7845 17.1436 36.4742 17.1436 36.0915V35.7716Z" fill="#4B4B4B"/>
<path opacity="0.63" d="M17.1436 40.7814C17.1436 40.3987 17.4538 40.0884 17.8366 40.0884H33.6694C34.0522 40.0884 34.3624 40.3987 34.3624 40.7814V41.1013C34.3624 41.484 34.0522 41.7943 33.6694 41.7943H17.8366C17.4538 41.7943 17.1436 41.484 17.1436 41.1013V40.7814Z" fill="#4B4B4B"/>
<path opacity="0.63" d="M17.1436 45.7946C17.1436 45.4118 17.4538 45.1016 17.8366 45.1016H33.6694C34.0522 45.1016 34.3624 45.4118 34.3624 45.7946V46.1144C34.3624 46.4972 34.0522 46.8075 33.6694 46.8075H17.8366C17.4538 46.8075 17.1436 46.4972 17.1436 46.1144V45.7946Z" fill="#4B4B4B"/>
<rect opacity="0.63" x="40.6533" y="25.0562" width="17.2189" height="1.7059" rx="0.69302" fill="#4B4B4B"/>
<path opacity="0.63" d="M40.6533 30.7624C40.6533 30.3796 40.9636 30.0693 41.3463 30.0693H57.1792C57.5619 30.0693 57.8722 30.3796 57.8722 30.7624V31.0822C57.8722 31.465 57.5619 31.7752 57.1792 31.7752H41.3463C40.9636 31.7752 40.6533 31.465 40.6533 31.0822V30.7624Z" fill="#4B4B4B"/>
<path opacity="0.63" d="M40.6533 35.7716C40.6533 35.3889 40.9636 35.0786 41.3463 35.0786H57.1792C57.5619 35.0786 57.8722 35.3889 57.8722 35.7716V36.0915C57.8722 36.4742 57.5619 36.7845 57.1792 36.7845H41.3463C40.9636 36.7845 40.6533 36.4742 40.6533 36.0915V35.7716Z" fill="#4B4B4B"/>
<path opacity="0.63" d="M40.6533 40.7814C40.6533 40.3987 40.9636 40.0884 41.3463 40.0884H57.1792C57.5619 40.0884 57.8722 40.3987 57.8722 40.7814V41.1013C57.8722 41.484 57.5619 41.7943 57.1792 41.7943H41.3463C40.9636 41.7943 40.6533 41.484 40.6533 41.1013V40.7814Z" fill="#4B4B4B"/>
<path opacity="0.63" d="M40.6533 45.7946C40.6533 45.4118 40.9636 45.1016 41.3463 45.1016H57.1792C57.5619 45.1016 57.8722 45.4118 57.8722 45.7946V46.1144C57.8722 46.4972 57.5619 46.8075 57.1792 46.8075H41.3463C40.9636 46.8075 40.6533 46.4972 40.6533 46.1144V45.7946Z" fill="#4B4B4B"/>
</svg>
