<svg width="75" height="76" viewBox="0 0 75 76" fill="none" xmlns="http://www.w3.org/2000/svg">
<circle cx="37.4807" cy="38.4007" r="37.4807" fill="#4B4B4B"/>
<path d="M37.4287 17.6387C49.9973 17.6388 60.1862 26.147 60.1865 36.6426C60.1865 46.0608 51.982 53.8777 41.2158 55.3838C41.0802 55.4028 40.947 55.4404 40.8145 55.4746L25.9307 59.3135C24.6587 59.6413 23.419 58.6807 23.4189 57.3672V53.6348C23.4189 52.3773 22.7696 51.2224 21.7832 50.4424C17.4033 46.9788 14.67 42.0774 14.6699 36.6426C14.6702 26.147 24.8601 17.6388 37.4287 17.6387ZM26.0479 33.8936C24.0729 33.8937 22.4717 35.4947 22.4717 37.4697C22.4717 39.4447 24.0729 41.0457 26.0479 41.0459C28.023 41.0459 29.624 39.4448 29.624 37.4697C29.624 35.4946 28.023 33.8936 26.0479 33.8936ZM37.4482 33.8936C35.4733 33.8937 33.8721 35.4947 33.8721 37.4697C33.8721 39.4448 35.4732 41.0458 37.4482 41.0459C39.4234 41.0459 41.0244 39.4448 41.0244 37.4697C41.0244 35.4946 39.4233 33.8936 37.4482 33.8936ZM48.8545 33.8936C46.8795 33.8937 45.2784 35.4947 45.2783 37.4697C45.2783 39.4448 46.8795 41.0458 48.8545 41.0459C50.8296 41.0459 52.4307 39.4448 52.4307 37.4697C52.4306 35.4946 50.8296 33.8936 48.8545 33.8936Z" fill="#8E8E93"/>
</svg>
