<svg width="75" height="75" viewBox="0 0 75 75" fill="none" xmlns="http://www.w3.org/2000/svg">
<circle cx="37.48" cy="37.48" r="37.48" fill="#4B4B4B"/>
<rect x="17.0879" y="18" width="11.0826" height="11.0826" rx="1.69934" fill="#8E8E93"/>
<rect x="45.1455" y="18" width="11.0826" height="11.0826" rx="1.69934" fill="#8E8E93"/>
<path d="M38.2188 50.7307C38.2188 51.1184 37.9045 51.4326 37.5168 51.4326H36.9255C36.5379 51.4326 36.2236 51.1184 36.2236 50.7307V44.9861C36.2236 44.5984 35.9094 44.2842 35.5217 44.2842H21.3181C20.9305 44.2842 20.6162 44.5984 20.6162 44.9861V49.7336C20.6162 50.1213 20.302 50.4355 19.9143 50.4355H19.323C18.9353 50.4355 18.6211 50.1213 18.6211 49.7336V43.2129C18.6213 42.703 19.035 42.29 19.5449 42.29H54.917C55.4267 42.2903 55.8396 42.7031 55.8398 43.2129V43.5823C55.8398 43.9699 55.5256 44.2842 55.1379 44.2842H38.9207C38.533 44.2842 38.2188 44.5984 38.2188 44.9861V50.7307ZM55.8223 50.7307C55.8223 51.1184 55.508 51.4326 55.1204 51.4326H54.529C54.1414 51.4326 53.8271 51.1184 53.8271 50.7307V44.9871C53.8271 44.5994 54.1414 44.2852 54.529 44.2852H55.1204C55.508 44.2852 55.8223 44.5994 55.8223 44.9871V50.7307ZM23.626 34.4397C23.626 34.8273 23.9402 35.1416 24.3279 35.1416H48.9876C49.3752 35.1416 49.6895 34.8274 49.6895 34.4397V27.8828C49.6895 27.842 49.7229 27.8086 49.7637 27.8086H51.6104C51.6512 27.8086 51.6846 27.842 51.6846 27.8828V36.2129C51.6846 36.723 51.2708 37.1367 50.7607 37.1367H49.7637C49.7621 37.1367 49.7603 37.1358 49.7588 37.1357H38.9207C38.533 37.1357 38.2188 37.45 38.2188 37.8376V41.5872C38.2188 41.9748 37.9045 42.2891 37.5168 42.2891H36.9255C36.5379 42.2891 36.2236 41.9748 36.2236 41.5872V37.8376C36.2236 37.45 35.9094 37.1357 35.5217 37.1357H23.6265C23.6262 37.1357 23.626 37.136 23.626 37.1362V37.1362C23.626 37.1365 23.6258 37.1367 23.6255 37.1367H22.5547C22.0446 37.1367 21.6309 36.723 21.6309 36.2129V28.5105C21.6309 28.1228 21.9451 27.8086 22.3328 27.8086H22.9241C23.3117 27.8086 23.626 28.1228 23.626 28.5105V34.4397Z" fill="#8E8E93"/>
<circle cx="19.6178" cy="52.4859" r="4.61777" fill="#8E8E93"/>
<circle cx="37.2203" cy="52.4859" r="4.61777" fill="#8E8E93"/>
<circle cx="55.3033" cy="52.4859" r="4.61777" fill="#8E8E93"/>
</svg>
