<svg width="75" height="76" viewBox="0 0 75 76" fill="none" xmlns="http://www.w3.org/2000/svg">
<circle cx="37.4807" cy="38.3621" r="37.4807" fill="#4B4B4B"/>
<path d="M25.3647 13.3921C22.0233 13.3921 19.3066 16.1914 19.3066 19.6344V57.0882C19.3066 60.5312 22.0233 63.3305 25.3647 63.3305H49.5968C52.9382 63.3305 55.6549 60.5312 55.6549 57.0882V19.6344C55.6549 16.1914 52.9382 13.3921 49.5968 13.3921H25.3647ZM28.3937 19.6344H46.5678C48.2432 19.6344 49.5968 21.0291 49.5968 22.7555V25.8767C49.5968 27.6031 48.2432 28.9978 46.5678 28.9978H28.3937C26.7183 28.9978 25.3647 27.6031 25.3647 25.8767V22.7555C25.3647 21.0291 26.7183 19.6344 28.3937 19.6344ZM29.9082 36.0204C29.9082 37.3176 28.8954 38.3613 27.6364 38.3613C26.3775 38.3613 25.3647 37.3176 25.3647 36.0204C25.3647 34.7232 26.3775 33.6796 27.6364 33.6796C28.8954 33.6796 29.9082 34.7232 29.9082 36.0204ZM37.4808 38.3613C36.2218 38.3613 35.209 37.3176 35.209 36.0204C35.209 34.7232 36.2218 33.6796 37.4808 33.6796C38.7397 33.6796 39.7525 34.7232 39.7525 36.0204C39.7525 37.3176 38.7397 38.3613 37.4808 38.3613ZM49.5968 36.0204C49.5968 37.3176 48.584 38.3613 47.3251 38.3613C46.0661 38.3613 45.0533 37.3176 45.0533 36.0204C45.0533 34.7232 46.0661 33.6796 47.3251 33.6796C48.584 33.6796 49.5968 34.7232 49.5968 36.0204ZM27.6364 47.7247C26.3775 47.7247 25.3647 46.6811 25.3647 45.3839C25.3647 44.0866 26.3775 43.043 27.6364 43.043C28.8954 43.043 29.9082 44.0866 29.9082 45.3839C29.9082 46.6811 28.8954 47.7247 27.6364 47.7247ZM39.7525 45.3839C39.7525 46.6811 38.7397 47.7247 37.4808 47.7247C36.2218 47.7247 35.209 46.6811 35.209 45.3839C35.209 44.0866 36.2218 43.043 37.4808 43.043C38.7397 43.043 39.7525 44.0866 39.7525 45.3839ZM47.3251 47.7247C46.0661 47.7247 45.0533 46.6811 45.0533 45.3839C45.0533 44.0866 46.0661 43.043 47.3251 43.043C48.584 43.043 49.5968 44.0866 49.5968 45.3839C49.5968 46.6811 48.584 47.7247 47.3251 47.7247ZM25.3647 54.7473C25.3647 53.4501 26.3775 52.4064 27.6364 52.4064H38.238C39.4969 52.4064 40.5098 53.4501 40.5098 54.7473C40.5098 56.0445 39.4969 57.0882 38.238 57.0882H27.6364C26.3775 57.0882 25.3647 56.0445 25.3647 54.7473ZM47.3251 52.4064C48.584 52.4064 49.5968 53.4501 49.5968 54.7473C49.5968 56.0445 48.584 57.0882 47.3251 57.0882C46.0661 57.0882 45.0533 56.0445 45.0533 54.7473C45.0533 53.4501 46.0661 52.4064 47.3251 52.4064Z" fill="#8E8E93"/>
</svg>
