<svg width="75" height="76" viewBox="0 0 75 76" fill="none" xmlns="http://www.w3.org/2000/svg">
<circle cx="37.4798" cy="38.2078" r="37.4807" fill="#4B4B4B"/>
<path d="M40.8754 27.9064V38.2608H54.6812V27.9064H40.8754ZM33.9725 27.9064H20.1666V38.2608H33.9725V27.9064ZM13.2637 45.1638V21.0035C13.2637 17.1961 16.3592 14.1006 20.1666 14.1006H54.6812C58.4886 14.1006 61.5842 17.1961 61.5842 21.0035V55.5182C61.5842 59.3255 58.4886 62.4211 54.6812 62.4211H20.1666C16.3592 62.4211 13.2637 59.3255 13.2637 55.5182V45.1638ZM54.6812 45.1638H40.8754V55.5182H54.6812V45.1638ZM33.9725 55.5182V45.1638H20.1666V55.5182H33.9725Z" fill="#8E8E93"/>
</svg>
